999
FreeCAD v0.19 24267 +99 (Git)
  0
SECTION
  2
HEADER
  9
$ACADVER
  1
AC1014
  9
$ACADMAINTVER
 70
     9
  9
$DWGCODEPAGE
  3
ANSI_1252
  9
$TEXTSTYLE
  7
STANDARD
  9
$DIMSTYLE
  2
STANDARD
  9
$DIMTXSTY
  7
STANDARD
  9
$CMLSTYLE
  2
STANDARD
  9
$PEXTMAX
 10
50
 20
50
 30
50
  9
$PEXTMIN
 10
0
 20
0
 30
0
  9
$HANDSEED
  5
FFFF
  0
ENDSEC
  0
SECTION
  2
CLASSES
  0
CLASS
  1
ACDBDICTIONARYWDFLT
  2
AcDbDictionaryWithDefault
  3
ObjectDBX Classes
 90
        0
280
     0
281
     0
  0
CLASS
  1
XRECORD
  2
AcDbXrecord
  3
ObjectDBX Classes
 90
        0
280
     0
281
     0
  0
CLASS
  1
LWPOLYLINE
  2
AcDbPolyline
  3
ObjectDBX Classes
 90
        0
280
     0
281
     1
  0
ENDSEC
  0
SECTION
  2
TABLES
  0
TABLE
  2
VPORT
  5
20
330
0
100
AcDbSymbolTable
 70
     1
  0
VPORT
  5
21
330
20
100
AcDbSymbolTableRecord
100
AcDbViewportTableRecord
  2
*ACTIVE
 70
     0
  0
ENDTAB
  0
TABLE
  2
LTYPE
  5
22
330
0
100
AcDbSymbolTable
 70
     1
  0
LTYPE
  5
23
330
21
100
AcDbSymbolTableRecord
100
AcDbLinetypeTableRecord
  2
BYBLOCK
 70
     0
  3

 72
    65
 73
     0
 40
0.0
  0
LTYPE
  5
24
330
21
100
AcDbSymbolTableRecord
100
AcDbLinetypeTableRecord
  2
BYLAYER
 70
     0
  3

 72
    65
 73
     0
 40
0.0
  0
LTYPE
  5
25
330
21
100
AcDbSymbolTableRecord
100
AcDbLinetypeTableRecord
  2
CONTINUOUS
 70
     0
  3
Solid line
 72
    65
 73
     0
 40
0.0
  0
ENDTAB
  0
TABLE
  2
LAYER
  5
DCC
330
0
100
AcDbSymbolTable
 70
3
  0
LAYER
  5
DCD
330
DCC
100
AcDbSymbolTableRecord
100
AcDbLayerTableRecord
  2
0
 70
   0
 62
   7
  6
CONTINUOUS
  0
LAYER
  5
DCE
330
DCC
100
AcDbSymbolTableRecord
100
AcDbLayerTableRecord
  2
none
 70
    0
 62
    7
  6
CONTINUOUS
  0
LAYER
  5
DCF
330
DCC
100
AcDbSymbolTableRecord
100
AcDbLayerTableRecord
  2
Shape2DView
 70
    0
 62
    7
  6
CONTINUOUS
  0
ENDTAB
  0
TABLE
  2
STYLE
  5
70
330
0
100
AcDbSymbolTable
 70
     2
  0
STYLE
  5
71
330
70
100
AcDbSymbolTableRecord
100
AcDbTextStyleTableRecord
  2
STANDARD
 70
     0
 40
0.0
 41
1.0
 50
0.0
 71
     0
 42
2.5
  3
arial.ttf
  4

  0
STYLE
  5
72
330
70
100
AcDbSymbolTableRecord
100
AcDbTextStyleTableRecord
  2
ANNOTATIVE
 70
     0
 40
0.0
 41
1.0
 50
0.0
 71
     0
 42
2.5
  3
arial.ttf
  4

  0
ENDTAB
  0
TABLE
  2
VIEW
  5
73
330
0
100
AcDbSymbolTable
 70
     0
  0
ENDTAB
  0
TABLE
  2
UCS
  5
74
330
0
100
AcDbSymbolTable
 70
     0
  0
ENDTAB
  0
TABLE
  2
APPID
  5
75
330
0
100
AcDbSymbolTable
 70
     2
  0
APPID
  5
76
330
75
100
AcDbSymbolTableRecord
100
AcDbRegAppTableRecord
  2
ACAD
 70
     0
  0
APPID
  5
77
330
75
100
AcDbSymbolTableRecord
100
AcDbRegAppTableRecord
  2
ACADANNOTATIVE
 70
     0
  0
ENDTAB
  0
TABLE
  2
DIMSTYLE
  5
78
330
0
100
AcDbSymbolTable
 70
     2
  0
DIMSTYLE
105
79
330
78
100
AcDbSymbolTableRecord
100
AcDbDimStyleTableRecord
  2
STANDARD
 70
     0
  3

  4

  5

  6

  7

 40
0.0
 41
2.5
 42
0.625
 43
3.75
 44
1.25
 45
0.0
 46
0.0
 47
0.0
 48
0.0
140
2.5
141
2.5
142
0.0
143
0.03937007874016
144
1.0
145
0.0
146
1.0
147
0.625
 71
     0
 72
     0
 73
     0
 74
     0
 75
     0
 76
     0
 77
     1
 78
     8
170
     0
171
     3
172
     1
173
     0
174
     0
175
     0
176
     0
177
     0
178
     0
270
     2
271
     2
272
     2
273
     2
274
     3
340
71
275
     0
280
     0
281
     0
282
     0
283
     0
284
     8
285
     0
286
     0
287
     3
288
     0
  0
ENDTAB
  0
TABLE
  2
BLOCK_RECORD
  5
A01
330
0
100
AcDbSymbolTable
  70
5
  0
BLOCK_RECORD
  5
A02
330
A01
100
AcDbSymbolTableRecord
100
AcDbBlockTableRecord
  2
*MODEL_SPACE
  0
BLOCK_RECORD
  5
A03
330
A01
100
AcDbSymbolTableRecord
100
AcDbBlockTableRecord
  2
*PAPER_SPACE
  0
ENDTAB
  0
ENDSEC
  0
SECTION
  2
BLOCKS
  0
BLOCK
  5
A04
330
A02
100
AcDbEntity
  8
0
100
AcDbBlockBegin
  2
*MODEL_SPACE
 70
   0
 10
0
 20
0
 30
0
  3
*MODEL_SPACE
  1
 
  0
ENDBLK
  5
A05
330
A02
100
AcDbEntity
  8
0
100
AcDbBlockEnd
  0
BLOCK
  5
A06
330
A03
100
AcDbEntity
 67
1
  8
0
100
AcDbBlockBegin
  2
*PAPER_SPACE
 70
   0
 10
0
 20
0
 30
0
  3
*PAPER_SPACE
  1
 
  0
ENDBLK
  5
A07
330
A03
100
AcDbEntity
 67
    1
  8
0
100
AcDbBlockEnd
  0
ENDSEC
  0
SECTION
  2
ENTITIES
  0
LINE
  5
A08
330
A02
100
AcDbEntity
  8
Shape2DView
100
AcDbLine
 10
39.125
 20
-11.3857
 30
0
 11
39.125
 21
-11.7146
 31
0
  0
LINE
  5
A09
330
A02
100
AcDbEntity
  8
Shape2DView
100
AcDbLine
 10
38.625
 20
-11.3857
 30
0
 11
38.625
 21
-11.7146
 31
0
  0
LINE
  5
A0A
330
A02
100
AcDbEntity
  8
Shape2DView
100
AcDbLine
 10
25.9
 20
-11.3857
 30
0
 11
41.85
 21
-11.3857
 31
0
  0
LINE
  5
A0B
330
A02
100
AcDbEntity
  8
Shape2DView
100
AcDbLine
 10
34.625
 20
-11.3857
 30
0
 11
34.625
 21
-11.7146
 31
0
  0
LINE
  5
A0C
330
A02
100
AcDbEntity
  8
Shape2DView
100
AcDbLine
 10
25.9
 20
-11.3857
 30
0
 11
25.9
 21
-9.98568
 31
0
  0
LINE
  5
A0D
330
A02
100
AcDbEntity
  8
Shape2DView
100
AcDbLine
 10
41.85
 20
-11.3857
 30
0
 11
41.85
 21
-9.98568
 31
0
  0
LINE
  5
A0E
330
A02
100
AcDbEntity
  8
Shape2DView
100
AcDbLine
 10
40.95
 20
-9.98568
 30
0
 11
41.85
 21
-9.98568
 31
0
  0
LINE
  5
A0F
330
A02
100
AcDbEntity
  8
Shape2DView
100
AcDbLine
 10
40.95
 20
-8.83568
 30
0
 11
40.95
 21
-9.98568
 31
0
  0
LINE
  5
A10
330
A02
100
AcDbEntity
  8
Shape2DView
100
AcDbLine
 10
40.175
 20
-8.83568
 30
0
 11
40.95
 21
-8.83568
 31
0
  0
LINE
  5
A11
330
A02
100
AcDbEntity
  8
Shape2DView
100
AcDbLine
 10
40.175
 20
-10.6857
 30
0
 11
40.175
 21
-8.83568
 31
0
  0
LINE
  5
A12
330
A02
100
AcDbEntity
  8
Shape2DView
100
AcDbLine
 10
40.175
 20
-10.6857
 30
0
 11
27.575
 21
-10.6857
 31
0
  0
LINE
  5
A13
330
A02
100
AcDbEntity
  8
Shape2DView
100
AcDbLine
 10
27.575
 20
-10.6857
 30
0
 11
27.575
 21
-8.83568
 31
0
  0
LINE
  5
A14
330
A02
100
AcDbEntity
  8
Shape2DView
100
AcDbLine
 10
26.8
 20
-8.83568
 30
0
 11
27.575
 21
-8.83568
 31
0
  0
LINE
  5
A15
330
A02
100
AcDbEntity
  8
Shape2DView
100
AcDbLine
 10
26.8
 20
-9.98568
 30
0
 11
26.8
 21
-8.83568
 31
0
  0
LINE
  5
A16
330
A02
100
AcDbEntity
  8
Shape2DView
100
AcDbLine
 10
25.9
 20
-9.98568
 30
0
 11
26.8
 21
-9.98568
 31
0
  0
LINE
  5
A17
330
A02
100
AcDbEntity
  8
Shape2DView
100
AcDbLine
 10
31.125
 20
-11.3857
 30
0
 11
31.125
 21
-11.7146
 31
0
  0
LINE
  5
A18
330
A02
100
AcDbEntity
  8
Shape2DView
100
AcDbLine
 10
30.625
 20
-11.3857
 30
0
 11
30.625
 21
-11.7146
 31
0
  0
LINE
  5
A19
330
A02
100
AcDbEntity
  8
Shape2DView
100
AcDbLine
 10
32.625
 20
-11.3857
 30
0
 11
32.625
 21
-11.7146
 31
0
  0
LINE
  5
A1A
330
A02
100
AcDbEntity
  8
Shape2DView
100
AcDbLine
 10
36.625
 20
-11.3857
 30
0
 11
36.625
 21
-11.7146
 31
0
  0
LINE
  5
A1B
330
A02
100
AcDbEntity
  8
Shape2DView
100
AcDbLine
 10
29.125
 20
-11.3857
 30
0
 11
29.125
 21
-11.7146
 31
0
  0
LINE
  5
A1C
330
A02
100
AcDbEntity
  8
Shape2DView
100
AcDbLine
 10
37.125
 20
-11.3857
 30
0
 11
37.125
 21
-11.7146
 31
0
  0
LINE
  5
A1D
330
A02
100
AcDbEntity
  8
Shape2DView
100
AcDbLine
 10
33.125
 20
-11.3857
 30
0
 11
33.125
 21
-11.7146
 31
0
  0
LINE
  5
A1E
330
A02
100
AcDbEntity
  8
Shape2DView
100
AcDbLine
 10
28.625
 20
-11.3857
 30
0
 11
28.625
 21
-11.7146
 31
0
  0
LINE
  5
A1F
330
A02
100
AcDbEntity
  8
Shape2DView
100
AcDbLine
 10
35.125
 20
-11.3857
 30
0
 11
35.125
 21
-11.7146
 31
0
  0
LINE
  5
A20
330
A02
100
AcDbEntity
  8
Shape2DView
100
AcDbLine
 10
26.8
 20
-8.03568
 30
0
 11
26.8
 21
-8.83568
 31
0
  0
LINE
  5
A21
330
A02
100
AcDbEntity
  8
Shape2DView
100
AcDbLine
 10
26.8
 20
-8.03568
 30
0
 11
26.8
 21
-7.78568
 31
0
  0
LINE
  5
A22
330
A02
100
AcDbEntity
  8
Shape2DView
100
AcDbLine
 10
40.175
 20
-8.83568
 30
0
 11
40.175
 21
-8.03568
 31
0
  0
LINE
  5
A23
330
A02
100
AcDbEntity
  8
Shape2DView
100
AcDbLine
 10
40.175
 20
-8.03568
 30
0
 11
40.175
 21
-7.18568
 31
0
  0
LINE
  5
A24
330
A02
100
AcDbEntity
  8
Shape2DView
100
AcDbLine
 10
40.95
 20
-7.78568
 30
0
 11
40.95
 21
-8.03568
 31
0
  0
LINE
  5
A25
330
A02
100
AcDbEntity
  8
Shape2DView
100
AcDbLine
 10
40.95
 20
-8.83568
 30
0
 11
40.95
 21
-8.03568
 31
0
  0
LINE
  5
A26
330
A02
100
AcDbEntity
  8
Shape2DView
100
AcDbLine
 10
27.575
 20
-8.03568
 30
0
 11
27.575
 21
-7.18568
 31
0
  0
LINE
  5
A27
330
A02
100
AcDbEntity
  8
Shape2DView
100
AcDbLine
 10
27.575
 20
-8.83568
 30
0
 11
27.575
 21
-8.03568
 31
0
  0
LINE
  5
A28
330
A02
100
AcDbEntity
  8
Shape2DView
100
AcDbLine
 10
25.9
 20
-7.78568
 30
0
 11
25.9
 21
-6.38568
 31
0
  0
LINE
  5
A29
330
A02
100
AcDbEntity
  8
Shape2DView
100
AcDbLine
 10
25.9
 20
-6.38568
 30
0
 11
30.075
 21
-6.38568
 31
0
  0
LINE
  5
A2A
330
A02
100
AcDbEntity
  8
Shape2DView
100
AcDbLine
 10
37.675
 20
-6.38568
 30
0
 11
30.075
 21
-6.38568
 31
0
  0
LINE
  5
A2B
330
A02
100
AcDbEntity
  8
Shape2DView
100
AcDbLine
 10
37.675
 20
-6.38568
 30
0
 11
41.85
 21
-6.38568
 31
0
  0
LINE
  5
A2C
330
A02
100
AcDbEntity
  8
Shape2DView
100
AcDbLine
 10
41.85
 20
-7.78568
 30
0
 11
41.85
 21
-6.38568
 31
0
  0
LINE
  5
A2D
330
A02
100
AcDbEntity
  8
Shape2DView
100
AcDbLine
 10
26.8
 20
-7.78568
 30
0
 11
25.9
 21
-7.78568
 31
0
  0
LINE
  5
A2E
330
A02
100
AcDbEntity
  8
Shape2DView
100
AcDbLine
 10
26.55
 20
-9.98568
 30
0
 11
26.55
 21
-7.78568
 31
0
  0
LINE
  5
A2F
330
A02
100
AcDbEntity
  8
Shape2DView
100
AcDbLine
 10
41.2
 20
-9.98568
 30
0
 11
41.2
 21
-7.78568
 31
0
  0
LINE
  5
A30
330
A02
100
AcDbEntity
  8
Shape2DView
100
AcDbLine
 10
26.8
 20
-8.03568
 30
0
 11
27.575
 21
-8.03568
 31
0
  0
LINE
  5
A31
330
A02
100
AcDbEntity
  8
Shape2DView
100
AcDbLine
 10
30.075
 20
-7.18568
 30
0
 11
27.575
 21
-7.18568
 31
0
  0
LINE
  5
A32
330
A02
100
AcDbEntity
  8
Shape2DView
100
AcDbLine
 10
30.075
 20
-6.38568
 30
0
 11
30.075
 21
-7.18568
 31
0
  0
LINE
  5
A33
330
A02
100
AcDbEntity
  8
Shape2DView
100
AcDbLine
 10
40.175
 20
-9.43568
 30
0
 11
27.575
 21
-9.43568
 31
0
  0
LINE
  5
A34
330
A02
100
AcDbEntity
  8
Shape2DView
100
AcDbLine
 10
40.175
 20
-8.03568
 30
0
 11
40.95
 21
-8.03568
 31
0
  0
LINE
  5
A35
330
A02
100
AcDbEntity
  8
Shape2DView
100
AcDbLine
 10
40.175
 20
-8.83568
 30
0
 11
27.575
 21
-8.83568
 31
0
  0
LINE
  5
A36
330
A02
100
AcDbEntity
  8
Shape2DView
100
AcDbLine
 10
37.675
 20
-7.18568
 30
0
 11
30.075
 21
-7.18568
 31
0
  0
LINE
  5
A37
330
A02
100
AcDbEntity
  8
Shape2DView
100
AcDbLine
 10
40.175
 20
-7.18568
 30
0
 11
37.675
 21
-7.18568
 31
0
  0
LINE
  5
A38
330
A02
100
AcDbEntity
  8
Shape2DView
100
AcDbLine
 10
37.675
 20
-7.18568
 30
0
 11
37.675
 21
-6.38568
 31
0
  0
LINE
  5
A39
330
A02
100
AcDbEntity
  8
Shape2DView
100
AcDbLine
 10
41.85
 20
-7.78568
 30
0
 11
40.95
 21
-7.78568
 31
0
  0
LINE
  5
A3A
330
A02
100
AcDbEntity
  8
Shape2DView
100
AcDbLine
 10
25.95
 20
-9.98568
 30
0
 11
25.95
 21
-7.78568
 31
0
  0
LINE
  5
A3B
330
A02
100
AcDbEntity
  8
Shape2DView
100
AcDbLine
 10
41.8
 20
-9.98568
 30
0
 11
41.8
 21
-7.78568
 31
0
  0
LINE
  5
A3C
330
A02
100
AcDbEntity
  8
Shape2DView
100
AcDbLine
 10
28.625
 20
-8.03568
 30
0
 11
28.625
 21
-8.53568
 31
0
  0
LINE
  5
A3D
330
A02
100
AcDbEntity
  8
Shape2DView
100
AcDbLine
 10
28.625
 20
-8.53568
 30
0
 11
29.125
 21
-8.53568
 31
0
  0
LINE
  5
A3E
330
A02
100
AcDbEntity
  8
Shape2DView
100
AcDbLine
 10
37.125
 20
-8.03568
 30
0
 11
36.625
 21
-8.03568
 31
0
  0
LINE
  5
A3F
330
A02
100
AcDbEntity
  8
Shape2DView
100
AcDbLine
 10
30.625
 20
-8.53568
 30
0
 11
31.125
 21
-8.53568
 31
0
  0
LINE
  5
A40
330
A02
100
AcDbEntity
  8
Shape2DView
100
AcDbLine
 10
33.125
 20
-8.03568
 30
0
 11
32.625
 21
-8.03568
 31
0
  0
LINE
  5
A41
330
A02
100
AcDbEntity
  8
Shape2DView
100
AcDbLine
 10
34.625
 20
-8.53568
 30
0
 11
35.125
 21
-8.53568
 31
0
  0
LINE
  5
A42
330
A02
100
AcDbEntity
  8
Shape2DView
100
AcDbLine
 10
39.125
 20
-8.53568
 30
0
 11
39.125
 21
-8.03568
 31
0
  0
LINE
  5
A43
330
A02
100
AcDbEntity
  8
Shape2DView
100
AcDbLine
 10
32.625
 20
-8.03568
 30
0
 11
32.625
 21
-8.53568
 31
0
  0
LINE
  5
A44
330
A02
100
AcDbEntity
  8
Shape2DView
100
AcDbLine
 10
37.125
 20
-8.53568
 30
0
 11
37.125
 21
-8.03568
 31
0
  0
LINE
  5
A45
330
A02
100
AcDbEntity
  8
Shape2DView
100
AcDbLine
 10
29.125
 20
-8.03568
 30
0
 11
28.625
 21
-8.03568
 31
0
  0
LINE
  5
A46
330
A02
100
AcDbEntity
  8
Shape2DView
100
AcDbLine
 10
31.125
 20
-8.03568
 30
0
 11
30.625
 21
-8.03568
 31
0
  0
LINE
  5
A47
330
A02
100
AcDbEntity
  8
Shape2DView
100
AcDbLine
 10
38.625
 20
-8.53568
 30
0
 11
39.125
 21
-8.53568
 31
0
  0
LINE
  5
A48
330
A02
100
AcDbEntity
  8
Shape2DView
100
AcDbLine
 10
36.625
 20
-8.03568
 30
0
 11
36.625
 21
-8.53568
 31
0
  0
LINE
  5
A49
330
A02
100
AcDbEntity
  8
Shape2DView
100
AcDbLine
 10
31.125
 20
-8.53568
 30
0
 11
31.125
 21
-8.03568
 31
0
  0
LINE
  5
A4A
330
A02
100
AcDbEntity
  8
Shape2DView
100
AcDbLine
 10
35.125
 20
-8.53568
 30
0
 11
35.125
 21
-8.03568
 31
0
  0
LINE
  5
A4B
330
A02
100
AcDbEntity
  8
Shape2DView
100
AcDbLine
 10
39.125
 20
-8.03568
 30
0
 11
38.625
 21
-8.03568
 31
0
  0
LINE
  5
A4C
330
A02
100
AcDbEntity
  8
Shape2DView
100
AcDbLine
 10
30.625
 20
-8.03568
 30
0
 11
30.625
 21
-8.53568
 31
0
  0
LINE
  5
A4D
330
A02
100
AcDbEntity
  8
Shape2DView
100
AcDbLine
 10
33.125
 20
-8.53568
 30
0
 11
33.125
 21
-8.03568
 31
0
  0
LINE
  5
A4E
330
A02
100
AcDbEntity
  8
Shape2DView
100
AcDbLine
 10
34.625
 20
-8.03568
 30
0
 11
34.625
 21
-8.53568
 31
0
  0
LINE
  5
A4F
330
A02
100
AcDbEntity
  8
Shape2DView
100
AcDbLine
 10
36.625
 20
-8.53568
 30
0
 11
37.125
 21
-8.53568
 31
0
  0
LINE
  5
A50
330
A02
100
AcDbEntity
  8
Shape2DView
100
AcDbLine
 10
38.625
 20
-8.03568
 30
0
 11
38.625
 21
-8.53568
 31
0
  0
LINE
  5
A51
330
A02
100
AcDbEntity
  8
Shape2DView
100
AcDbLine
 10
29.125
 20
-8.53568
 30
0
 11
29.125
 21
-8.03568
 31
0
  0
LINE
  5
A52
330
A02
100
AcDbEntity
  8
Shape2DView
100
AcDbLine
 10
32.625
 20
-8.53568
 30
0
 11
33.125
 21
-8.53568
 31
0
  0
LINE
  5
A53
330
A02
100
AcDbEntity
  8
Shape2DView
100
AcDbLine
 10
35.125
 20
-8.03568
 30
0
 11
34.625
 21
-8.03568
 31
0
  0
LINE
  5
A54
330
A02
100
AcDbEntity
  8
Shape2DView
100
AcDbLine
 10
39.15
 20
-3.38568
 30
0
 11
39.15
 21
-3.6896
 31
0
  0
LINE
  5
A55
330
A02
100
AcDbEntity
  8
Shape2DView
100
AcDbLine
 10
38.65
 20
-3.38568
 30
0
 11
38.65
 21
-3.6896
 31
0
  0
LINE
  5
A56
330
A02
100
AcDbEntity
  8
Shape2DView
100
AcDbLine
 10
25.925
 20
-3.38568
 30
0
 11
41.875
 21
-3.38568
 31
0
  0
LINE
  5
A57
330
A02
100
AcDbEntity
  8
Shape2DView
100
AcDbLine
 10
34.65
 20
-3.38568
 30
0
 11
34.65
 21
-3.6896
 31
0
  0
LINE
  5
A58
330
A02
100
AcDbEntity
  8
Shape2DView
100
AcDbLine
 10
25.925
 20
-3.38568
 30
0
 11
25.925
 21
-1.98568
 31
0
  0
LINE
  5
A59
330
A02
100
AcDbEntity
  8
Shape2DView
100
AcDbLine
 10
41.875
 20
-3.38568
 30
0
 11
41.875
 21
-1.98568
 31
0
  0
LINE
  5
A5A
330
A02
100
AcDbEntity
  8
Shape2DView
100
AcDbLine
 10
40.975
 20
-1.98568
 30
0
 11
41.875
 21
-1.98568
 31
0
  0
LINE
  5
A5B
330
A02
100
AcDbEntity
  8
Shape2DView
100
AcDbLine
 10
40.975
 20
-0.835677
 30
0
 11
40.975
 21
-1.98568
 31
0
  0
LINE
  5
A5C
330
A02
100
AcDbEntity
  8
Shape2DView
100
AcDbLine
 10
40.2
 20
-0.835677
 30
0
 11
40.975
 21
-0.835677
 31
0
  0
LINE
  5
A5D
330
A02
100
AcDbEntity
  8
Shape2DView
100
AcDbLine
 10
40.2
 20
-2.68568
 30
0
 11
40.2
 21
-0.835677
 31
0
  0
LINE
  5
A5E
330
A02
100
AcDbEntity
  8
Shape2DView
100
AcDbLine
 10
40.2
 20
-2.68568
 30
0
 11
27.6
 21
-2.68568
 31
0
  0
LINE
  5
A5F
330
A02
100
AcDbEntity
  8
Shape2DView
100
AcDbLine
 10
27.6
 20
-2.68568
 30
0
 11
27.6
 21
-0.835677
 31
0
  0
LINE
  5
A60
330
A02
100
AcDbEntity
  8
Shape2DView
100
AcDbLine
 10
26.825
 20
-0.835677
 30
0
 11
27.6
 21
-0.835677
 31
0
  0
LINE
  5
A61
330
A02
100
AcDbEntity
  8
Shape2DView
100
AcDbLine
 10
26.825
 20
-1.98568
 30
0
 11
26.825
 21
-0.835677
 31
0
  0
LINE
  5
A62
330
A02
100
AcDbEntity
  8
Shape2DView
100
AcDbLine
 10
25.925
 20
-1.98568
 30
0
 11
26.825
 21
-1.98568
 31
0
  0
LINE
  5
A63
330
A02
100
AcDbEntity
  8
Shape2DView
100
AcDbLine
 10
31.15
 20
-3.38568
 30
0
 11
31.15
 21
-3.6896
 31
0
  0
LINE
  5
A64
330
A02
100
AcDbEntity
  8
Shape2DView
100
AcDbLine
 10
30.65
 20
-3.38568
 30
0
 11
30.65
 21
-3.6896
 31
0
  0
LINE
  5
A65
330
A02
100
AcDbEntity
  8
Shape2DView
100
AcDbLine
 10
32.65
 20
-3.38568
 30
0
 11
32.65
 21
-3.6896
 31
0
  0
LINE
  5
A66
330
A02
100
AcDbEntity
  8
Shape2DView
100
AcDbLine
 10
36.65
 20
-3.38568
 30
0
 11
36.65
 21
-3.6896
 31
0
  0
LINE
  5
A67
330
A02
100
AcDbEntity
  8
Shape2DView
100
AcDbLine
 10
29.15
 20
-3.38568
 30
0
 11
29.15
 21
-3.6896
 31
0
  0
LINE
  5
A68
330
A02
100
AcDbEntity
  8
Shape2DView
100
AcDbLine
 10
37.15
 20
-3.38568
 30
0
 11
37.15
 21
-3.6896
 31
0
  0
LINE
  5
A69
330
A02
100
AcDbEntity
  8
Shape2DView
100
AcDbLine
 10
33.15
 20
-3.38568
 30
0
 11
33.15
 21
-3.6896
 31
0
  0
LINE
  5
A6A
330
A02
100
AcDbEntity
  8
Shape2DView
100
AcDbLine
 10
28.65
 20
-3.38568
 30
0
 11
28.65
 21
-3.6896
 31
0
  0
LINE
  5
A6B
330
A02
100
AcDbEntity
  8
Shape2DView
100
AcDbLine
 10
35.15
 20
-3.38568
 30
0
 11
35.15
 21
-3.6896
 31
0
  0
LINE
  5
A6C
330
A02
100
AcDbEntity
  8
Shape2DView
100
AcDbLine
 10
26.825
 20
-0.035677
 30
0
 11
26.825
 21
-0.835677
 31
0
  0
LINE
  5
A6D
330
A02
100
AcDbEntity
  8
Shape2DView
100
AcDbLine
 10
26.825
 20
-0.035677
 30
0
 11
26.825
 21
0.214323
 31
0
  0
LINE
  5
A6E
330
A02
100
AcDbEntity
  8
Shape2DView
100
AcDbLine
 10
40.2
 20
-0.835677
 30
0
 11
40.2
 21
-0.035677
 31
0
  0
LINE
  5
A6F
330
A02
100
AcDbEntity
  8
Shape2DView
100
AcDbLine
 10
40.2
 20
-0.035677
 30
0
 11
40.2
 21
0.814323
 31
0
  0
LINE
  5
A70
330
A02
100
AcDbEntity
  8
Shape2DView
100
AcDbLine
 10
40.975
 20
0.214323
 30
0
 11
40.975
 21
-0.035677
 31
0
  0
LINE
  5
A71
330
A02
100
AcDbEntity
  8
Shape2DView
100
AcDbLine
 10
40.975
 20
-0.835677
 30
0
 11
40.975
 21
-0.035677
 31
0
  0
LINE
  5
A72
330
A02
100
AcDbEntity
  8
Shape2DView
100
AcDbLine
 10
27.6
 20
-0.035677
 30
0
 11
27.6
 21
0.814323
 31
0
  0
LINE
  5
A73
330
A02
100
AcDbEntity
  8
Shape2DView
100
AcDbLine
 10
27.6
 20
-0.835677
 30
0
 11
27.6
 21
-0.035677
 31
0
  0
LINE
  5
A74
330
A02
100
AcDbEntity
  8
Shape2DView
100
AcDbLine
 10
25.925
 20
0.214323
 30
0
 11
25.925
 21
1.61432
 31
0
  0
LINE
  5
A75
330
A02
100
AcDbEntity
  8
Shape2DView
100
AcDbLine
 10
25.925
 20
1.61432
 30
0
 11
30.1
 21
1.61432
 31
0
  0
LINE
  5
A76
330
A02
100
AcDbEntity
  8
Shape2DView
100
AcDbLine
 10
37.7
 20
1.61432
 30
0
 11
30.1
 21
1.61432
 31
0
  0
LINE
  5
A77
330
A02
100
AcDbEntity
  8
Shape2DView
100
AcDbLine
 10
37.7
 20
1.61432
 30
0
 11
41.875
 21
1.61432
 31
0
  0
LINE
  5
A78
330
A02
100
AcDbEntity
  8
Shape2DView
100
AcDbLine
 10
41.875
 20
0.214323
 30
0
 11
41.875
 21
1.61432
 31
0
  0
LINE
  5
A79
330
A02
100
AcDbEntity
  8
Shape2DView
100
AcDbLine
 10
26.825
 20
0.214323
 30
0
 11
25.925
 21
0.214323
 31
0
  0
LINE
  5
A7A
330
A02
100
AcDbEntity
  8
Shape2DView
100
AcDbLine
 10
26.575
 20
-1.98568
 30
0
 11
26.575
 21
0.214323
 31
0
  0
LINE
  5
A7B
330
A02
100
AcDbEntity
  8
Shape2DView
100
AcDbLine
 10
41.225
 20
-1.98568
 30
0
 11
41.225
 21
0.214323
 31
0
  0
LINE
  5
A7C
330
A02
100
AcDbEntity
  8
Shape2DView
100
AcDbLine
 10
26.825
 20
-0.035677
 30
0
 11
27.6
 21
-0.035677
 31
0
  0
LINE
  5
A7D
330
A02
100
AcDbEntity
  8
Shape2DView
100
AcDbLine
 10
30.1
 20
0.814323
 30
0
 11
27.6
 21
0.814323
 31
0
  0
LINE
  5
A7E
330
A02
100
AcDbEntity
  8
Shape2DView
100
AcDbLine
 10
30.1
 20
1.61432
 30
0
 11
30.1
 21
0.814323
 31
0
  0
LINE
  5
A7F
330
A02
100
AcDbEntity
  8
Shape2DView
100
AcDbLine
 10
40.2
 20
-1.43568
 30
0
 11
27.6
 21
-1.43568
 31
0
  0
LINE
  5
A80
330
A02
100
AcDbEntity
  8
Shape2DView
100
AcDbLine
 10
40.2
 20
-0.035677
 30
0
 11
40.975
 21
-0.035677
 31
0
  0
LINE
  5
A81
330
A02
100
AcDbEntity
  8
Shape2DView
100
AcDbLine
 10
40.2
 20
-0.835677
 30
0
 11
27.6
 21
-0.835677
 31
0
  0
LINE
  5
A82
330
A02
100
AcDbEntity
  8
Shape2DView
100
AcDbLine
 10
37.7
 20
0.814323
 30
0
 11
30.1
 21
0.814323
 31
0
  0
LINE
  5
A83
330
A02
100
AcDbEntity
  8
Shape2DView
100
AcDbLine
 10
40.2
 20
0.814323
 30
0
 11
37.7
 21
0.814323
 31
0
  0
LINE
  5
A84
330
A02
100
AcDbEntity
  8
Shape2DView
100
AcDbLine
 10
37.7
 20
0.814323
 30
0
 11
37.7
 21
1.61432
 31
0
  0
LINE
  5
A85
330
A02
100
AcDbEntity
  8
Shape2DView
100
AcDbLine
 10
41.875
 20
0.214323
 30
0
 11
40.975
 21
0.214323
 31
0
  0
LINE
  5
A86
330
A02
100
AcDbEntity
  8
Shape2DView
100
AcDbLine
 10
25.975
 20
-1.98568
 30
0
 11
25.975
 21
0.214323
 31
0
  0
LINE
  5
A87
330
A02
100
AcDbEntity
  8
Shape2DView
100
AcDbLine
 10
41.825
 20
-1.98568
 30
0
 11
41.825
 21
0.214323
 31
0
  0
LINE
  5
A88
330
A02
100
AcDbEntity
  8
Shape2DView
100
AcDbLine
 10
28.65
 20
-0.035677
 30
0
 11
28.65
 21
-0.535677
 31
0
  0
LINE
  5
A89
330
A02
100
AcDbEntity
  8
Shape2DView
100
AcDbLine
 10
28.65
 20
-0.535677
 30
0
 11
29.15
 21
-0.535677
 31
0
  0
LINE
  5
A8A
330
A02
100
AcDbEntity
  8
Shape2DView
100
AcDbLine
 10
37.15
 20
-0.035677
 30
0
 11
36.65
 21
-0.035677
 31
0
  0
LINE
  5
A8B
330
A02
100
AcDbEntity
  8
Shape2DView
100
AcDbLine
 10
30.65
 20
-0.535677
 30
0
 11
31.15
 21
-0.535677
 31
0
  0
LINE
  5
A8C
330
A02
100
AcDbEntity
  8
Shape2DView
100
AcDbLine
 10
33.15
 20
-0.035677
 30
0
 11
32.65
 21
-0.035677
 31
0
  0
LINE
  5
A8D
330
A02
100
AcDbEntity
  8
Shape2DView
100
AcDbLine
 10
34.65
 20
-0.535677
 30
0
 11
35.15
 21
-0.535677
 31
0
  0
LINE
  5
A8E
330
A02
100
AcDbEntity
  8
Shape2DView
100
AcDbLine
 10
39.15
 20
-0.535677
 30
0
 11
39.15
 21
-0.035677
 31
0
  0
LINE
  5
A8F
330
A02
100
AcDbEntity
  8
Shape2DView
100
AcDbLine
 10
32.65
 20
-0.035677
 30
0
 11
32.65
 21
-0.535677
 31
0
  0
LINE
  5
A90
330
A02
100
AcDbEntity
  8
Shape2DView
100
AcDbLine
 10
37.15
 20
-0.535677
 30
0
 11
37.15
 21
-0.035677
 31
0
  0
LINE
  5
A91
330
A02
100
AcDbEntity
  8
Shape2DView
100
AcDbLine
 10
29.15
 20
-0.035677
 30
0
 11
28.65
 21
-0.035677
 31
0
  0
LINE
  5
A92
330
A02
100
AcDbEntity
  8
Shape2DView
100
AcDbLine
 10
31.15
 20
-0.035677
 30
0
 11
30.65
 21
-0.035677
 31
0
  0
LINE
  5
A93
330
A02
100
AcDbEntity
  8
Shape2DView
100
AcDbLine
 10
38.65
 20
-0.535677
 30
0
 11
39.15
 21
-0.535677
 31
0
  0
LINE
  5
A94
330
A02
100
AcDbEntity
  8
Shape2DView
100
AcDbLine
 10
36.65
 20
-0.035677
 30
0
 11
36.65
 21
-0.535677
 31
0
  0
LINE
  5
A95
330
A02
100
AcDbEntity
  8
Shape2DView
100
AcDbLine
 10
31.15
 20
-0.535677
 30
0
 11
31.15
 21
-0.035677
 31
0
  0
LINE
  5
A96
330
A02
100
AcDbEntity
  8
Shape2DView
100
AcDbLine
 10
35.15
 20
-0.535677
 30
0
 11
35.15
 21
-0.035677
 31
0
  0
LINE
  5
A97
330
A02
100
AcDbEntity
  8
Shape2DView
100
AcDbLine
 10
39.15
 20
-0.035677
 30
0
 11
38.65
 21
-0.035677
 31
0
  0
LINE
  5
A98
330
A02
100
AcDbEntity
  8
Shape2DView
100
AcDbLine
 10
30.65
 20
-0.035677
 30
0
 11
30.65
 21
-0.535677
 31
0
  0
LINE
  5
A99
330
A02
100
AcDbEntity
  8
Shape2DView
100
AcDbLine
 10
33.15
 20
-0.535677
 30
0
 11
33.15
 21
-0.035677
 31
0
  0
LINE
  5
A9A
330
A02
100
AcDbEntity
  8
Shape2DView
100
AcDbLine
 10
34.65
 20
-0.035677
 30
0
 11
34.65
 21
-0.535677
 31
0
  0
LINE
  5
A9B
330
A02
100
AcDbEntity
  8
Shape2DView
100
AcDbLine
 10
36.65
 20
-0.535677
 30
0
 11
37.15
 21
-0.535677
 31
0
  0
LINE
  5
A9C
330
A02
100
AcDbEntity
  8
Shape2DView
100
AcDbLine
 10
38.65
 20
-0.035677
 30
0
 11
38.65
 21
-0.535677
 31
0
  0
LINE
  5
A9D
330
A02
100
AcDbEntity
  8
Shape2DView
100
AcDbLine
 10
29.15
 20
-0.535677
 30
0
 11
29.15
 21
-0.035677
 31
0
  0
LINE
  5
A9E
330
A02
100
AcDbEntity
  8
Shape2DView
100
AcDbLine
 10
32.65
 20
-0.535677
 30
0
 11
33.15
 21
-0.535677
 31
0
  0
LINE
  5
A9F
330
A02
100
AcDbEntity
  8
Shape2DView
100
AcDbLine
 10
35.15
 20
-0.035677
 30
0
 11
34.65
 21
-0.035677
 31
0
  0
LINE
  5
AA0
330
A02
100
AcDbEntity
  8
Shape2DView
100
AcDbLine
 10
22.2
 20
-3.38568
 30
0
 11
22.2
 21
-3.6896
 31
0
  0
LINE
  5
AA1
330
A02
100
AcDbEntity
  8
Shape2DView
100
AcDbLine
 10
21.7
 20
-3.38568
 30
0
 11
21.7
 21
-3.6896
 31
0
  0
LINE
  5
AA2
330
A02
100
AcDbEntity
  8
Shape2DView
100
AcDbLine
 10
8.97496
 20
-3.38568
 30
0
 11
24.925
 21
-3.38568
 31
0
  0
LINE
  5
AA3
330
A02
100
AcDbEntity
  8
Shape2DView
100
AcDbLine
 10
17.7
 20
-3.38568
 30
0
 11
17.7
 21
-3.6896
 31
0
  0
LINE
  5
AA4
330
A02
100
AcDbEntity
  8
Shape2DView
100
AcDbLine
 10
8.97496
 20
-3.38568
 30
0
 11
8.97496
 21
-1.98568
 31
0
  0
LINE
  5
AA5
330
A02
100
AcDbEntity
  8
Shape2DView
100
AcDbLine
 10
24.925
 20
-3.38568
 30
0
 11
24.925
 21
-1.98568
 31
0
  0
LINE
  5
AA6
330
A02
100
AcDbEntity
  8
Shape2DView
100
AcDbLine
 10
24.025
 20
-1.98568
 30
0
 11
24.925
 21
-1.98568
 31
0
  0
LINE
  5
AA7
330
A02
100
AcDbEntity
  8
Shape2DView
100
AcDbLine
 10
24.025
 20
-0.835677
 30
0
 11
24.025
 21
-1.98568
 31
0
  0
LINE
  5
AA8
330
A02
100
AcDbEntity
  8
Shape2DView
100
AcDbLine
 10
23.25
 20
-0.835677
 30
0
 11
24.025
 21
-0.835677
 31
0
  0
LINE
  5
AA9
330
A02
100
AcDbEntity
  8
Shape2DView
100
AcDbLine
 10
23.25
 20
-2.68568
 30
0
 11
23.25
 21
-0.835677
 31
0
  0
LINE
  5
AAA
330
A02
100
AcDbEntity
  8
Shape2DView
100
AcDbLine
 10
23.25
 20
-2.68568
 30
0
 11
10.65
 21
-2.68568
 31
0
  0
LINE
  5
AAB
330
A02
100
AcDbEntity
  8
Shape2DView
100
AcDbLine
 10
10.65
 20
-2.68568
 30
0
 11
10.65
 21
-0.835677
 31
0
  0
LINE
  5
AAC
330
A02
100
AcDbEntity
  8
Shape2DView
100
AcDbLine
 10
9.87496
 20
-0.835677
 30
0
 11
10.65
 21
-0.835677
 31
0
  0
LINE
  5
AAD
330
A02
100
AcDbEntity
  8
Shape2DView
100
AcDbLine
 10
9.87496
 20
-1.98568
 30
0
 11
9.87496
 21
-0.835677
 31
0
  0
LINE
  5
AAE
330
A02
100
AcDbEntity
  8
Shape2DView
100
AcDbLine
 10
8.97496
 20
-1.98568
 30
0
 11
9.87496
 21
-1.98568
 31
0
  0
LINE
  5
AAF
330
A02
100
AcDbEntity
  8
Shape2DView
100
AcDbLine
 10
14.2
 20
-3.38568
 30
0
 11
14.2
 21
-3.6896
 31
0
  0
LINE
  5
AB0
330
A02
100
AcDbEntity
  8
Shape2DView
100
AcDbLine
 10
13.7
 20
-3.38568
 30
0
 11
13.7
 21
-3.6896
 31
0
  0
LINE
  5
AB1
330
A02
100
AcDbEntity
  8
Shape2DView
100
AcDbLine
 10
15.7
 20
-3.38568
 30
0
 11
15.7
 21
-3.6896
 31
0
  0
LINE
  5
AB2
330
A02
100
AcDbEntity
  8
Shape2DView
100
AcDbLine
 10
19.7
 20
-3.38568
 30
0
 11
19.7
 21
-3.6896
 31
0
  0
LINE
  5
AB3
330
A02
100
AcDbEntity
  8
Shape2DView
100
AcDbLine
 10
12.2
 20
-3.38568
 30
0
 11
12.2
 21
-3.6896
 31
0
  0
LINE
  5
AB4
330
A02
100
AcDbEntity
  8
Shape2DView
100
AcDbLine
 10
20.2
 20
-3.38568
 30
0
 11
20.2
 21
-3.6896
 31
0
  0
LINE
  5
AB5
330
A02
100
AcDbEntity
  8
Shape2DView
100
AcDbLine
 10
16.2
 20
-3.38568
 30
0
 11
16.2
 21
-3.6896
 31
0
  0
LINE
  5
AB6
330
A02
100
AcDbEntity
  8
Shape2DView
100
AcDbLine
 10
11.7
 20
-3.38568
 30
0
 11
11.7
 21
-3.6896
 31
0
  0
LINE
  5
AB7
330
A02
100
AcDbEntity
  8
Shape2DView
100
AcDbLine
 10
18.2
 20
-3.38568
 30
0
 11
18.2
 21
-3.6896
 31
0
  0
LINE
  5
AB8
330
A02
100
AcDbEntity
  8
Shape2DView
100
AcDbLine
 10
9.87496
 20
-0.035677
 30
0
 11
9.87496
 21
-0.835677
 31
0
  0
LINE
  5
AB9
330
A02
100
AcDbEntity
  8
Shape2DView
100
AcDbLine
 10
9.87496
 20
-0.035677
 30
0
 11
9.87496
 21
0.214323
 31
0
  0
LINE
  5
ABA
330
A02
100
AcDbEntity
  8
Shape2DView
100
AcDbLine
 10
23.25
 20
-0.835677
 30
0
 11
23.25
 21
-0.035677
 31
0
  0
LINE
  5
ABB
330
A02
100
AcDbEntity
  8
Shape2DView
100
AcDbLine
 10
23.25
 20
-0.035677
 30
0
 11
23.25
 21
0.814323
 31
0
  0
LINE
  5
ABC
330
A02
100
AcDbEntity
  8
Shape2DView
100
AcDbLine
 10
24.025
 20
0.214323
 30
0
 11
24.025
 21
-0.035677
 31
0
  0
LINE
  5
ABD
330
A02
100
AcDbEntity
  8
Shape2DView
100
AcDbLine
 10
24.025
 20
-0.835677
 30
0
 11
24.025
 21
-0.035677
 31
0
  0
LINE
  5
ABE
330
A02
100
AcDbEntity
  8
Shape2DView
100
AcDbLine
 10
10.65
 20
-0.035677
 30
0
 11
10.65
 21
0.814323
 31
0
  0
LINE
  5
ABF
330
A02
100
AcDbEntity
  8
Shape2DView
100
AcDbLine
 10
10.65
 20
-0.835677
 30
0
 11
10.65
 21
-0.035677
 31
0
  0
LINE
  5
AC0
330
A02
100
AcDbEntity
  8
Shape2DView
100
AcDbLine
 10
8.97496
 20
0.214323
 30
0
 11
8.97496
 21
1.61432
 31
0
  0
LINE
  5
AC1
330
A02
100
AcDbEntity
  8
Shape2DView
100
AcDbLine
 10
8.97496
 20
1.61432
 30
0
 11
13.15
 21
1.61432
 31
0
  0
LINE
  5
AC2
330
A02
100
AcDbEntity
  8
Shape2DView
100
AcDbLine
 10
20.75
 20
1.61432
 30
0
 11
13.15
 21
1.61432
 31
0
  0
LINE
  5
AC3
330
A02
100
AcDbEntity
  8
Shape2DView
100
AcDbLine
 10
20.75
 20
1.61432
 30
0
 11
24.925
 21
1.61432
 31
0
  0
LINE
  5
AC4
330
A02
100
AcDbEntity
  8
Shape2DView
100
AcDbLine
 10
24.925
 20
0.214323
 30
0
 11
24.925
 21
1.61432
 31
0
  0
LINE
  5
AC5
330
A02
100
AcDbEntity
  8
Shape2DView
100
AcDbLine
 10
9.87496
 20
0.214323
 30
0
 11
8.97496
 21
0.214323
 31
0
  0
LINE
  5
AC6
330
A02
100
AcDbEntity
  8
Shape2DView
100
AcDbLine
 10
9.62496
 20
-1.98568
 30
0
 11
9.62496
 21
0.214323
 31
0
  0
LINE
  5
AC7
330
A02
100
AcDbEntity
  8
Shape2DView
100
AcDbLine
 10
24.275
 20
-1.98568
 30
0
 11
24.275
 21
0.214323
 31
0
  0
LINE
  5
AC8
330
A02
100
AcDbEntity
  8
Shape2DView
100
AcDbLine
 10
9.87496
 20
-0.035677
 30
0
 11
10.65
 21
-0.035677
 31
0
  0
LINE
  5
AC9
330
A02
100
AcDbEntity
  8
Shape2DView
100
AcDbLine
 10
13.15
 20
0.814323
 30
0
 11
10.65
 21
0.814323
 31
0
  0
LINE
  5
ACA
330
A02
100
AcDbEntity
  8
Shape2DView
100
AcDbLine
 10
13.15
 20
1.61432
 30
0
 11
13.15
 21
0.814323
 31
0
  0
LINE
  5
ACB
330
A02
100
AcDbEntity
  8
Shape2DView
100
AcDbLine
 10
23.25
 20
-1.43568
 30
0
 11
10.65
 21
-1.43568
 31
0
  0
LINE
  5
ACC
330
A02
100
AcDbEntity
  8
Shape2DView
100
AcDbLine
 10
23.25
 20
-0.035677
 30
0
 11
24.025
 21
-0.035677
 31
0
  0
LINE
  5
ACD
330
A02
100
AcDbEntity
  8
Shape2DView
100
AcDbLine
 10
23.25
 20
-0.835677
 30
0
 11
10.65
 21
-0.835677
 31
0
  0
LINE
  5
ACE
330
A02
100
AcDbEntity
  8
Shape2DView
100
AcDbLine
 10
20.75
 20
0.814323
 30
0
 11
13.15
 21
0.814323
 31
0
  0
LINE
  5
ACF
330
A02
100
AcDbEntity
  8
Shape2DView
100
AcDbLine
 10
23.25
 20
0.814323
 30
0
 11
20.75
 21
0.814323
 31
0
  0
LINE
  5
AD0
330
A02
100
AcDbEntity
  8
Shape2DView
100
AcDbLine
 10
20.75
 20
0.814323
 30
0
 11
20.75
 21
1.61432
 31
0
  0
LINE
  5
AD1
330
A02
100
AcDbEntity
  8
Shape2DView
100
AcDbLine
 10
24.925
 20
0.214323
 30
0
 11
24.025
 21
0.214323
 31
0
  0
LINE
  5
AD2
330
A02
100
AcDbEntity
  8
Shape2DView
100
AcDbLine
 10
9.02496
 20
-1.98568
 30
0
 11
9.02496
 21
0.214323
 31
0
  0
LINE
  5
AD3
330
A02
100
AcDbEntity
  8
Shape2DView
100
AcDbLine
 10
24.875
 20
-1.98568
 30
0
 11
24.875
 21
0.214323
 31
0
  0
LINE
  5
AD4
330
A02
100
AcDbEntity
  8
Shape2DView
100
AcDbLine
 10
11.7
 20
-0.035677
 30
0
 11
11.7
 21
-0.535677
 31
0
  0
LINE
  5
AD5
330
A02
100
AcDbEntity
  8
Shape2DView
100
AcDbLine
 10
11.7
 20
-0.535677
 30
0
 11
12.2
 21
-0.535677
 31
0
  0
LINE
  5
AD6
330
A02
100
AcDbEntity
  8
Shape2DView
100
AcDbLine
 10
20.2
 20
-0.035677
 30
0
 11
19.7
 21
-0.035677
 31
0
  0
LINE
  5
AD7
330
A02
100
AcDbEntity
  8
Shape2DView
100
AcDbLine
 10
13.7
 20
-0.535677
 30
0
 11
14.2
 21
-0.535677
 31
0
  0
LINE
  5
AD8
330
A02
100
AcDbEntity
  8
Shape2DView
100
AcDbLine
 10
16.2
 20
-0.035677
 30
0
 11
15.7
 21
-0.035677
 31
0
  0
LINE
  5
AD9
330
A02
100
AcDbEntity
  8
Shape2DView
100
AcDbLine
 10
17.7
 20
-0.535677
 30
0
 11
18.2
 21
-0.535677
 31
0
  0
LINE
  5
ADA
330
A02
100
AcDbEntity
  8
Shape2DView
100
AcDbLine
 10
22.2
 20
-0.535677
 30
0
 11
22.2
 21
-0.035677
 31
0
  0
LINE
  5
ADB
330
A02
100
AcDbEntity
  8
Shape2DView
100
AcDbLine
 10
15.7
 20
-0.035677
 30
0
 11
15.7
 21
-0.535677
 31
0
  0
LINE
  5
ADC
330
A02
100
AcDbEntity
  8
Shape2DView
100
AcDbLine
 10
20.2
 20
-0.535677
 30
0
 11
20.2
 21
-0.035677
 31
0
  0
LINE
  5
ADD
330
A02
100
AcDbEntity
  8
Shape2DView
100
AcDbLine
 10
12.2
 20
-0.035677
 30
0
 11
11.7
 21
-0.035677
 31
0
  0
LINE
  5
ADE
330
A02
100
AcDbEntity
  8
Shape2DView
100
AcDbLine
 10
14.2
 20
-0.035677
 30
0
 11
13.7
 21
-0.035677
 31
0
  0
LINE
  5
ADF
330
A02
100
AcDbEntity
  8
Shape2DView
100
AcDbLine
 10
21.7
 20
-0.535677
 30
0
 11
22.2
 21
-0.535677
 31
0
  0
LINE
  5
AE0
330
A02
100
AcDbEntity
  8
Shape2DView
100
AcDbLine
 10
19.7
 20
-0.035677
 30
0
 11
19.7
 21
-0.535677
 31
0
  0
LINE
  5
AE1
330
A02
100
AcDbEntity
  8
Shape2DView
100
AcDbLine
 10
14.2
 20
-0.535677
 30
0
 11
14.2
 21
-0.035677
 31
0
  0
LINE
  5
AE2
330
A02
100
AcDbEntity
  8
Shape2DView
100
AcDbLine
 10
18.2
 20
-0.535677
 30
0
 11
18.2
 21
-0.035677
 31
0
  0
LINE
  5
AE3
330
A02
100
AcDbEntity
  8
Shape2DView
100
AcDbLine
 10
22.2
 20
-0.035677
 30
0
 11
21.7
 21
-0.035677
 31
0
  0
LINE
  5
AE4
330
A02
100
AcDbEntity
  8
Shape2DView
100
AcDbLine
 10
13.7
 20
-0.035677
 30
0
 11
13.7
 21
-0.535677
 31
0
  0
LINE
  5
AE5
330
A02
100
AcDbEntity
  8
Shape2DView
100
AcDbLine
 10
16.2
 20
-0.535677
 30
0
 11
16.2
 21
-0.035677
 31
0
  0
LINE
  5
AE6
330
A02
100
AcDbEntity
  8
Shape2DView
100
AcDbLine
 10
17.7
 20
-0.035677
 30
0
 11
17.7
 21
-0.535677
 31
0
  0
LINE
  5
AE7
330
A02
100
AcDbEntity
  8
Shape2DView
100
AcDbLine
 10
19.7
 20
-0.535677
 30
0
 11
20.2
 21
-0.535677
 31
0
  0
LINE
  5
AE8
330
A02
100
AcDbEntity
  8
Shape2DView
100
AcDbLine
 10
21.7
 20
-0.035677
 30
0
 11
21.7
 21
-0.535677
 31
0
  0
LINE
  5
AE9
330
A02
100
AcDbEntity
  8
Shape2DView
100
AcDbLine
 10
12.2
 20
-0.535677
 30
0
 11
12.2
 21
-0.035677
 31
0
  0
LINE
  5
AEA
330
A02
100
AcDbEntity
  8
Shape2DView
100
AcDbLine
 10
15.7
 20
-0.535677
 30
0
 11
16.2
 21
-0.535677
 31
0
  0
LINE
  5
AEB
330
A02
100
AcDbEntity
  8
Shape2DView
100
AcDbLine
 10
18.2
 20
-0.035677
 30
0
 11
17.7
 21
-0.035677
 31
0
  0
LINE
  5
AEC
330
A02
100
AcDbEntity
  8
Shape2DView
100
AcDbLine
 10
5.22496
 20
-11.3857
 30
0
 11
5.22496
 21
-11.7146
 31
0
  0
LINE
  5
AED
330
A02
100
AcDbEntity
  8
Shape2DView
100
AcDbLine
 10
4.72496
 20
-11.3857
 30
0
 11
4.72496
 21
-11.7146
 31
0
  0
LINE
  5
AEE
330
A02
100
AcDbEntity
  8
Shape2DView
100
AcDbLine
 10
-8.00004
 20
-11.3857
 30
0
 11
7.94996
 21
-11.3857
 31
0
  0
LINE
  5
AEF
330
A02
100
AcDbEntity
  8
Shape2DView
100
AcDbLine
 10
0.724964
 20
-11.3857
 30
0
 11
0.724964
 21
-11.7146
 31
0
  0
LINE
  5
AF0
330
A02
100
AcDbEntity
  8
Shape2DView
100
AcDbLine
 10
-8.00004
 20
-11.3857
 30
0
 11
-8.00004
 21
-9.98568
 31
0
  0
LINE
  5
AF1
330
A02
100
AcDbEntity
  8
Shape2DView
100
AcDbLine
 10
7.94996
 20
-11.3857
 30
0
 11
7.94996
 21
-9.98568
 31
0
  0
LINE
  5
AF2
330
A02
100
AcDbEntity
  8
Shape2DView
100
AcDbLine
 10
7.04996
 20
-9.98568
 30
0
 11
7.94996
 21
-9.98568
 31
0
  0
LINE
  5
AF3
330
A02
100
AcDbEntity
  8
Shape2DView
100
AcDbLine
 10
7.04996
 20
-8.83568
 30
0
 11
7.04996
 21
-9.98568
 31
0
  0
LINE
  5
AF4
330
A02
100
AcDbEntity
  8
Shape2DView
100
AcDbLine
 10
6.27496
 20
-8.83568
 30
0
 11
7.04996
 21
-8.83568
 31
0
  0
LINE
  5
AF5
330
A02
100
AcDbEntity
  8
Shape2DView
100
AcDbLine
 10
6.27496
 20
-10.6857
 30
0
 11
6.27496
 21
-8.83568
 31
0
  0
LINE
  5
AF6
330
A02
100
AcDbEntity
  8
Shape2DView
100
AcDbLine
 10
6.27496
 20
-10.6857
 30
0
 11
-6.32504
 21
-10.6857
 31
0
  0
LINE
  5
AF7
330
A02
100
AcDbEntity
  8
Shape2DView
100
AcDbLine
 10
-6.32504
 20
-10.6857
 30
0
 11
-6.32504
 21
-8.83568
 31
0
  0
LINE
  5
AF8
330
A02
100
AcDbEntity
  8
Shape2DView
100
AcDbLine
 10
-7.10004
 20
-8.83568
 30
0
 11
-6.32504
 21
-8.83568
 31
0
  0
LINE
  5
AF9
330
A02
100
AcDbEntity
  8
Shape2DView
100
AcDbLine
 10
-7.10004
 20
-9.98568
 30
0
 11
-7.10004
 21
-8.83568
 31
0
  0
LINE
  5
AFA
330
A02
100
AcDbEntity
  8
Shape2DView
100
AcDbLine
 10
-8.00004
 20
-9.98568
 30
0
 11
-7.10004
 21
-9.98568
 31
0
  0
LINE
  5
AFB
330
A02
100
AcDbEntity
  8
Shape2DView
100
AcDbLine
 10
-2.77504
 20
-11.3857
 30
0
 11
-2.77504
 21
-11.7146
 31
0
  0
LINE
  5
AFC
330
A02
100
AcDbEntity
  8
Shape2DView
100
AcDbLine
 10
-3.27504
 20
-11.3857
 30
0
 11
-3.27504
 21
-11.7146
 31
0
  0
LINE
  5
AFD
330
A02
100
AcDbEntity
  8
Shape2DView
100
AcDbLine
 10
-1.27504
 20
-11.3857
 30
0
 11
-1.27504
 21
-11.7146
 31
0
  0
LINE
  5
AFE
330
A02
100
AcDbEntity
  8
Shape2DView
100
AcDbLine
 10
2.72496
 20
-11.3857
 30
0
 11
2.72496
 21
-11.7146
 31
0
  0
LINE
  5
AFF
330
A02
100
AcDbEntity
  8
Shape2DView
100
AcDbLine
 10
-4.77504
 20
-11.3857
 30
0
 11
-4.77504
 21
-11.7146
 31
0
  0
LINE
  5
B00
330
A02
100
AcDbEntity
  8
Shape2DView
100
AcDbLine
 10
3.22496
 20
-11.3857
 30
0
 11
3.22496
 21
-11.7146
 31
0
  0
LINE
  5
B01
330
A02
100
AcDbEntity
  8
Shape2DView
100
AcDbLine
 10
-0.775036
 20
-11.3857
 30
0
 11
-0.775036
 21
-11.7146
 31
0
  0
LINE
  5
B02
330
A02
100
AcDbEntity
  8
Shape2DView
100
AcDbLine
 10
-5.27504
 20
-11.3857
 30
0
 11
-5.27504
 21
-11.7146
 31
0
  0
LINE
  5
B03
330
A02
100
AcDbEntity
  8
Shape2DView
100
AcDbLine
 10
1.22496
 20
-11.3857
 30
0
 11
1.22496
 21
-11.7146
 31
0
  0
LINE
  5
B04
330
A02
100
AcDbEntity
  8
Shape2DView
100
AcDbLine
 10
-7.10004
 20
-8.03568
 30
0
 11
-7.10004
 21
-8.83568
 31
0
  0
LINE
  5
B05
330
A02
100
AcDbEntity
  8
Shape2DView
100
AcDbLine
 10
-7.10004
 20
-8.03568
 30
0
 11
-7.10004
 21
-7.78568
 31
0
  0
LINE
  5
B06
330
A02
100
AcDbEntity
  8
Shape2DView
100
AcDbLine
 10
6.27496
 20
-8.83568
 30
0
 11
6.27496
 21
-8.03568
 31
0
  0
LINE
  5
B07
330
A02
100
AcDbEntity
  8
Shape2DView
100
AcDbLine
 10
6.27496
 20
-8.03568
 30
0
 11
6.27496
 21
-7.18568
 31
0
  0
LINE
  5
B08
330
A02
100
AcDbEntity
  8
Shape2DView
100
AcDbLine
 10
7.04996
 20
-7.78568
 30
0
 11
7.04996
 21
-8.03568
 31
0
  0
LINE
  5
B09
330
A02
100
AcDbEntity
  8
Shape2DView
100
AcDbLine
 10
7.04996
 20
-8.83568
 30
0
 11
7.04996
 21
-8.03568
 31
0
  0
LINE
  5
B0A
330
A02
100
AcDbEntity
  8
Shape2DView
100
AcDbLine
 10
-6.32504
 20
-8.03568
 30
0
 11
-6.32504
 21
-7.18568
 31
0
  0
LINE
  5
B0B
330
A02
100
AcDbEntity
  8
Shape2DView
100
AcDbLine
 10
-6.32504
 20
-8.83568
 30
0
 11
-6.32504
 21
-8.03568
 31
0
  0
LINE
  5
B0C
330
A02
100
AcDbEntity
  8
Shape2DView
100
AcDbLine
 10
-8.00004
 20
-7.78568
 30
0
 11
-8.00004
 21
-6.38568
 31
0
  0
LINE
  5
B0D
330
A02
100
AcDbEntity
  8
Shape2DView
100
AcDbLine
 10
-8.00004
 20
-6.38568
 30
0
 11
-3.82504
 21
-6.38568
 31
0
  0
LINE
  5
B0E
330
A02
100
AcDbEntity
  8
Shape2DView
100
AcDbLine
 10
3.77496
 20
-6.38568
 30
0
 11
-3.82504
 21
-6.38568
 31
0
  0
LINE
  5
B0F
330
A02
100
AcDbEntity
  8
Shape2DView
100
AcDbLine
 10
3.77496
 20
-6.38568
 30
0
 11
7.94996
 21
-6.38568
 31
0
  0
LINE
  5
B10
330
A02
100
AcDbEntity
  8
Shape2DView
100
AcDbLine
 10
7.94996
 20
-7.78568
 30
0
 11
7.94996
 21
-6.38568
 31
0
  0
LINE
  5
B11
330
A02
100
AcDbEntity
  8
Shape2DView
100
AcDbLine
 10
-7.10004
 20
-7.78568
 30
0
 11
-8.00004
 21
-7.78568
 31
0
  0
LINE
  5
B12
330
A02
100
AcDbEntity
  8
Shape2DView
100
AcDbLine
 10
-7.35004
 20
-9.98568
 30
0
 11
-7.35004
 21
-7.78568
 31
0
  0
LINE
  5
B13
330
A02
100
AcDbEntity
  8
Shape2DView
100
AcDbLine
 10
7.29996
 20
-9.98568
 30
0
 11
7.29996
 21
-7.78568
 31
0
  0
LINE
  5
B14
330
A02
100
AcDbEntity
  8
Shape2DView
100
AcDbLine
 10
-7.10004
 20
-8.03568
 30
0
 11
-6.32504
 21
-8.03568
 31
0
  0
LINE
  5
B15
330
A02
100
AcDbEntity
  8
Shape2DView
100
AcDbLine
 10
-3.82504
 20
-7.18568
 30
0
 11
-6.32504
 21
-7.18568
 31
0
  0
LINE
  5
B16
330
A02
100
AcDbEntity
  8
Shape2DView
100
AcDbLine
 10
-3.82504
 20
-6.38568
 30
0
 11
-3.82504
 21
-7.18568
 31
0
  0
LINE
  5
B17
330
A02
100
AcDbEntity
  8
Shape2DView
100
AcDbLine
 10
6.27496
 20
-9.43568
 30
0
 11
-6.32504
 21
-9.43568
 31
0
  0
LINE
  5
B18
330
A02
100
AcDbEntity
  8
Shape2DView
100
AcDbLine
 10
6.27496
 20
-8.03568
 30
0
 11
7.04996
 21
-8.03568
 31
0
  0
LINE
  5
B19
330
A02
100
AcDbEntity
  8
Shape2DView
100
AcDbLine
 10
6.27496
 20
-8.83568
 30
0
 11
-6.32504
 21
-8.83568
 31
0
  0
LINE
  5
B1A
330
A02
100
AcDbEntity
  8
Shape2DView
100
AcDbLine
 10
3.77496
 20
-7.18568
 30
0
 11
-3.82504
 21
-7.18568
 31
0
  0
LINE
  5
B1B
330
A02
100
AcDbEntity
  8
Shape2DView
100
AcDbLine
 10
6.27496
 20
-7.18568
 30
0
 11
3.77496
 21
-7.18568
 31
0
  0
LINE
  5
B1C
330
A02
100
AcDbEntity
  8
Shape2DView
100
AcDbLine
 10
3.77496
 20
-7.18568
 30
0
 11
3.77496
 21
-6.38568
 31
0
  0
LINE
  5
B1D
330
A02
100
AcDbEntity
  8
Shape2DView
100
AcDbLine
 10
7.94996
 20
-7.78568
 30
0
 11
7.04996
 21
-7.78568
 31
0
  0
LINE
  5
B1E
330
A02
100
AcDbEntity
  8
Shape2DView
100
AcDbLine
 10
-7.95004
 20
-9.98568
 30
0
 11
-7.95004
 21
-7.78568
 31
0
  0
LINE
  5
B1F
330
A02
100
AcDbEntity
  8
Shape2DView
100
AcDbLine
 10
7.89996
 20
-9.98568
 30
0
 11
7.89996
 21
-7.78568
 31
0
  0
LINE
  5
B20
330
A02
100
AcDbEntity
  8
Shape2DView
100
AcDbLine
 10
-5.27504
 20
-8.03568
 30
0
 11
-5.27504
 21
-8.53568
 31
0
  0
LINE
  5
B21
330
A02
100
AcDbEntity
  8
Shape2DView
100
AcDbLine
 10
-5.27504
 20
-8.53568
 30
0
 11
-4.77504
 21
-8.53568
 31
0
  0
LINE
  5
B22
330
A02
100
AcDbEntity
  8
Shape2DView
100
AcDbLine
 10
3.22496
 20
-8.03568
 30
0
 11
2.72496
 21
-8.03568
 31
0
  0
LINE
  5
B23
330
A02
100
AcDbEntity
  8
Shape2DView
100
AcDbLine
 10
-3.27504
 20
-8.53568
 30
0
 11
-2.77504
 21
-8.53568
 31
0
  0
LINE
  5
B24
330
A02
100
AcDbEntity
  8
Shape2DView
100
AcDbLine
 10
-0.775036
 20
-8.03568
 30
0
 11
-1.27504
 21
-8.03568
 31
0
  0
LINE
  5
B25
330
A02
100
AcDbEntity
  8
Shape2DView
100
AcDbLine
 10
0.724964
 20
-8.53568
 30
0
 11
1.22496
 21
-8.53568
 31
0
  0
LINE
  5
B26
330
A02
100
AcDbEntity
  8
Shape2DView
100
AcDbLine
 10
5.22496
 20
-8.53568
 30
0
 11
5.22496
 21
-8.03568
 31
0
  0
LINE
  5
B27
330
A02
100
AcDbEntity
  8
Shape2DView
100
AcDbLine
 10
-1.27504
 20
-8.03568
 30
0
 11
-1.27504
 21
-8.53568
 31
0
  0
LINE
  5
B28
330
A02
100
AcDbEntity
  8
Shape2DView
100
AcDbLine
 10
3.22496
 20
-8.53568
 30
0
 11
3.22496
 21
-8.03568
 31
0
  0
LINE
  5
B29
330
A02
100
AcDbEntity
  8
Shape2DView
100
AcDbLine
 10
-4.77504
 20
-8.03568
 30
0
 11
-5.27504
 21
-8.03568
 31
0
  0
LINE
  5
B2A
330
A02
100
AcDbEntity
  8
Shape2DView
100
AcDbLine
 10
-2.77504
 20
-8.03568
 30
0
 11
-3.27504
 21
-8.03568
 31
0
  0
LINE
  5
B2B
330
A02
100
AcDbEntity
  8
Shape2DView
100
AcDbLine
 10
4.72496
 20
-8.53568
 30
0
 11
5.22496
 21
-8.53568
 31
0
  0
LINE
  5
B2C
330
A02
100
AcDbEntity
  8
Shape2DView
100
AcDbLine
 10
2.72496
 20
-8.03568
 30
0
 11
2.72496
 21
-8.53568
 31
0
  0
LINE
  5
B2D
330
A02
100
AcDbEntity
  8
Shape2DView
100
AcDbLine
 10
-2.77504
 20
-8.53568
 30
0
 11
-2.77504
 21
-8.03568
 31
0
  0
LINE
  5
B2E
330
A02
100
AcDbEntity
  8
Shape2DView
100
AcDbLine
 10
1.22496
 20
-8.53568
 30
0
 11
1.22496
 21
-8.03568
 31
0
  0
LINE
  5
B2F
330
A02
100
AcDbEntity
  8
Shape2DView
100
AcDbLine
 10
5.22496
 20
-8.03568
 30
0
 11
4.72496
 21
-8.03568
 31
0
  0
LINE
  5
B30
330
A02
100
AcDbEntity
  8
Shape2DView
100
AcDbLine
 10
-3.27504
 20
-8.03568
 30
0
 11
-3.27504
 21
-8.53568
 31
0
  0
LINE
  5
B31
330
A02
100
AcDbEntity
  8
Shape2DView
100
AcDbLine
 10
-0.775036
 20
-8.53568
 30
0
 11
-0.775036
 21
-8.03568
 31
0
  0
LINE
  5
B32
330
A02
100
AcDbEntity
  8
Shape2DView
100
AcDbLine
 10
0.724964
 20
-8.03568
 30
0
 11
0.724964
 21
-8.53568
 31
0
  0
LINE
  5
B33
330
A02
100
AcDbEntity
  8
Shape2DView
100
AcDbLine
 10
2.72496
 20
-8.53568
 30
0
 11
3.22496
 21
-8.53568
 31
0
  0
LINE
  5
B34
330
A02
100
AcDbEntity
  8
Shape2DView
100
AcDbLine
 10
4.72496
 20
-8.03568
 30
0
 11
4.72496
 21
-8.53568
 31
0
  0
LINE
  5
B35
330
A02
100
AcDbEntity
  8
Shape2DView
100
AcDbLine
 10
-4.77504
 20
-8.53568
 30
0
 11
-4.77504
 21
-8.03568
 31
0
  0
LINE
  5
B36
330
A02
100
AcDbEntity
  8
Shape2DView
100
AcDbLine
 10
-1.27504
 20
-8.53568
 30
0
 11
-0.775036
 21
-8.53568
 31
0
  0
LINE
  5
B37
330
A02
100
AcDbEntity
  8
Shape2DView
100
AcDbLine
 10
1.22496
 20
-8.03568
 30
0
 11
0.724964
 21
-8.03568
 31
0
  0
LINE
  5
B38
330
A02
100
AcDbEntity
  8
Shape2DView
100
AcDbLine
 10
5.24996
 20
-3.38568
 30
0
 11
5.24996
 21
-3.6896
 31
0
  0
LINE
  5
B39
330
A02
100
AcDbEntity
  8
Shape2DView
100
AcDbLine
 10
4.74996
 20
-3.38568
 30
0
 11
4.74996
 21
-3.6896
 31
0
  0
LINE
  5
B3A
330
A02
100
AcDbEntity
  8
Shape2DView
100
AcDbLine
 10
-7.97504
 20
-3.38568
 30
0
 11
7.97496
 21
-3.38568
 31
0
  0
LINE
  5
B3B
330
A02
100
AcDbEntity
  8
Shape2DView
100
AcDbLine
 10
0.749964
 20
-3.38568
 30
0
 11
0.749964
 21
-3.6896
 31
0
  0
LINE
  5
B3C
330
A02
100
AcDbEntity
  8
Shape2DView
100
AcDbLine
 10
-7.97504
 20
-3.38568
 30
0
 11
-7.97504
 21
-1.98568
 31
0
  0
LINE
  5
B3D
330
A02
100
AcDbEntity
  8
Shape2DView
100
AcDbLine
 10
7.97496
 20
-3.38568
 30
0
 11
7.97496
 21
-1.98568
 31
0
  0
LINE
  5
B3E
330
A02
100
AcDbEntity
  8
Shape2DView
100
AcDbLine
 10
7.07496
 20
-1.98568
 30
0
 11
7.97496
 21
-1.98568
 31
0
  0
LINE
  5
B3F
330
A02
100
AcDbEntity
  8
Shape2DView
100
AcDbLine
 10
7.07496
 20
-0.835677
 30
0
 11
7.07496
 21
-1.98568
 31
0
  0
LINE
  5
B40
330
A02
100
AcDbEntity
  8
Shape2DView
100
AcDbLine
 10
6.29996
 20
-0.835677
 30
0
 11
7.07496
 21
-0.835677
 31
0
  0
LINE
  5
B41
330
A02
100
AcDbEntity
  8
Shape2DView
100
AcDbLine
 10
6.29996
 20
-2.68568
 30
0
 11
6.29996
 21
-0.835677
 31
0
  0
LINE
  5
B42
330
A02
100
AcDbEntity
  8
Shape2DView
100
AcDbLine
 10
6.29996
 20
-2.68568
 30
0
 11
-6.30004
 21
-2.68568
 31
0
  0
LINE
  5
B43
330
A02
100
AcDbEntity
  8
Shape2DView
100
AcDbLine
 10
-6.30004
 20
-2.68568
 30
0
 11
-6.30004
 21
-0.835677
 31
0
  0
LINE
  5
B44
330
A02
100
AcDbEntity
  8
Shape2DView
100
AcDbLine
 10
-7.07504
 20
-0.835677
 30
0
 11
-6.30004
 21
-0.835677
 31
0
  0
LINE
  5
B45
330
A02
100
AcDbEntity
  8
Shape2DView
100
AcDbLine
 10
-7.07504
 20
-1.98568
 30
0
 11
-7.07504
 21
-0.835677
 31
0
  0
LINE
  5
B46
330
A02
100
AcDbEntity
  8
Shape2DView
100
AcDbLine
 10
-7.97504
 20
-1.98568
 30
0
 11
-7.07504
 21
-1.98568
 31
0
  0
LINE
  5
B47
330
A02
100
AcDbEntity
  8
Shape2DView
100
AcDbLine
 10
-2.75004
 20
-3.38568
 30
0
 11
-2.75004
 21
-3.6896
 31
0
  0
LINE
  5
B48
330
A02
100
AcDbEntity
  8
Shape2DView
100
AcDbLine
 10
-3.25004
 20
-3.38568
 30
0
 11
-3.25004
 21
-3.6896
 31
0
  0
LINE
  5
B49
330
A02
100
AcDbEntity
  8
Shape2DView
100
AcDbLine
 10
-1.25004
 20
-3.38568
 30
0
 11
-1.25004
 21
-3.6896
 31
0
  0
LINE
  5
B4A
330
A02
100
AcDbEntity
  8
Shape2DView
100
AcDbLine
 10
2.74996
 20
-3.38568
 30
0
 11
2.74996
 21
-3.6896
 31
0
  0
LINE
  5
B4B
330
A02
100
AcDbEntity
  8
Shape2DView
100
AcDbLine
 10
-4.75004
 20
-3.38568
 30
0
 11
-4.75004
 21
-3.6896
 31
0
  0
LINE
  5
B4C
330
A02
100
AcDbEntity
  8
Shape2DView
100
AcDbLine
 10
3.24996
 20
-3.38568
 30
0
 11
3.24996
 21
-3.6896
 31
0
  0
LINE
  5
B4D
330
A02
100
AcDbEntity
  8
Shape2DView
100
AcDbLine
 10
-0.750036
 20
-3.38568
 30
0
 11
-0.750036
 21
-3.6896
 31
0
  0
LINE
  5
B4E
330
A02
100
AcDbEntity
  8
Shape2DView
100
AcDbLine
 10
-5.25004
 20
-3.38568
 30
0
 11
-5.25004
 21
-3.6896
 31
0
  0
LINE
  5
B4F
330
A02
100
AcDbEntity
  8
Shape2DView
100
AcDbLine
 10
1.24996
 20
-3.38568
 30
0
 11
1.24996
 21
-3.6896
 31
0
  0
LINE
  5
B50
330
A02
100
AcDbEntity
  8
Shape2DView
100
AcDbLine
 10
-7.07504
 20
-0.035677
 30
0
 11
-7.07504
 21
-0.835677
 31
0
  0
LINE
  5
B51
330
A02
100
AcDbEntity
  8
Shape2DView
100
AcDbLine
 10
-7.07504
 20
-0.035677
 30
0
 11
-7.07504
 21
0.214323
 31
0
  0
LINE
  5
B52
330
A02
100
AcDbEntity
  8
Shape2DView
100
AcDbLine
 10
6.29996
 20
-0.835677
 30
0
 11
6.29996
 21
-0.035677
 31
0
  0
LINE
  5
B53
330
A02
100
AcDbEntity
  8
Shape2DView
100
AcDbLine
 10
6.29996
 20
-0.035677
 30
0
 11
6.29996
 21
0.814323
 31
0
  0
LINE
  5
B54
330
A02
100
AcDbEntity
  8
Shape2DView
100
AcDbLine
 10
7.07496
 20
0.214323
 30
0
 11
7.07496
 21
-0.035677
 31
0
  0
LINE
  5
B55
330
A02
100
AcDbEntity
  8
Shape2DView
100
AcDbLine
 10
7.07496
 20
-0.835677
 30
0
 11
7.07496
 21
-0.035677
 31
0
  0
LINE
  5
B56
330
A02
100
AcDbEntity
  8
Shape2DView
100
AcDbLine
 10
-6.30004
 20
-0.035677
 30
0
 11
-6.30004
 21
0.814323
 31
0
  0
LINE
  5
B57
330
A02
100
AcDbEntity
  8
Shape2DView
100
AcDbLine
 10
-6.30004
 20
-0.835677
 30
0
 11
-6.30004
 21
-0.035677
 31
0
  0
LINE
  5
B58
330
A02
100
AcDbEntity
  8
Shape2DView
100
AcDbLine
 10
-7.97504
 20
0.214323
 30
0
 11
-7.97504
 21
1.61432
 31
0
  0
LINE
  5
B59
330
A02
100
AcDbEntity
  8
Shape2DView
100
AcDbLine
 10
-7.97504
 20
1.61432
 30
0
 11
-3.80004
 21
1.61432
 31
0
  0
LINE
  5
B5A
330
A02
100
AcDbEntity
  8
Shape2DView
100
AcDbLine
 10
3.79996
 20
1.61432
 30
0
 11
-3.80004
 21
1.61432
 31
0
  0
LINE
  5
B5B
330
A02
100
AcDbEntity
  8
Shape2DView
100
AcDbLine
 10
3.79996
 20
1.61432
 30
0
 11
7.97496
 21
1.61432
 31
0
  0
LINE
  5
B5C
330
A02
100
AcDbEntity
  8
Shape2DView
100
AcDbLine
 10
7.97496
 20
0.214323
 30
0
 11
7.97496
 21
1.61432
 31
0
  0
LINE
  5
B5D
330
A02
100
AcDbEntity
  8
Shape2DView
100
AcDbLine
 10
-7.07504
 20
0.214323
 30
0
 11
-7.97504
 21
0.214323
 31
0
  0
LINE
  5
B5E
330
A02
100
AcDbEntity
  8
Shape2DView
100
AcDbLine
 10
-7.32504
 20
-1.98568
 30
0
 11
-7.32504
 21
0.214323
 31
0
  0
LINE
  5
B5F
330
A02
100
AcDbEntity
  8
Shape2DView
100
AcDbLine
 10
7.32496
 20
-1.98568
 30
0
 11
7.32496
 21
0.214323
 31
0
  0
LINE
  5
B60
330
A02
100
AcDbEntity
  8
Shape2DView
100
AcDbLine
 10
-7.07504
 20
-0.035677
 30
0
 11
-6.30004
 21
-0.035677
 31
0
  0
LINE
  5
B61
330
A02
100
AcDbEntity
  8
Shape2DView
100
AcDbLine
 10
-3.80004
 20
0.814323
 30
0
 11
-6.30004
 21
0.814323
 31
0
  0
LINE
  5
B62
330
A02
100
AcDbEntity
  8
Shape2DView
100
AcDbLine
 10
-3.80004
 20
1.61432
 30
0
 11
-3.80004
 21
0.814323
 31
0
  0
LINE
  5
B63
330
A02
100
AcDbEntity
  8
Shape2DView
100
AcDbLine
 10
6.29996
 20
-1.43568
 30
0
 11
-6.30004
 21
-1.43568
 31
0
  0
LINE
  5
B64
330
A02
100
AcDbEntity
  8
Shape2DView
100
AcDbLine
 10
6.29996
 20
-0.035677
 30
0
 11
7.07496
 21
-0.035677
 31
0
  0
LINE
  5
B65
330
A02
100
AcDbEntity
  8
Shape2DView
100
AcDbLine
 10
6.29996
 20
-0.835677
 30
0
 11
-6.30004
 21
-0.835677
 31
0
  0
LINE
  5
B66
330
A02
100
AcDbEntity
  8
Shape2DView
100
AcDbLine
 10
3.79996
 20
0.814323
 30
0
 11
-3.80004
 21
0.814323
 31
0
  0
LINE
  5
B67
330
A02
100
AcDbEntity
  8
Shape2DView
100
AcDbLine
 10
6.29996
 20
0.814323
 30
0
 11
3.79996
 21
0.814323
 31
0
  0
LINE
  5
B68
330
A02
100
AcDbEntity
  8
Shape2DView
100
AcDbLine
 10
3.79996
 20
0.814323
 30
0
 11
3.79996
 21
1.61432
 31
0
  0
LINE
  5
B69
330
A02
100
AcDbEntity
  8
Shape2DView
100
AcDbLine
 10
7.97496
 20
0.214323
 30
0
 11
7.07496
 21
0.214323
 31
0
  0
LINE
  5
B6A
330
A02
100
AcDbEntity
  8
Shape2DView
100
AcDbLine
 10
-7.92504
 20
-1.98568
 30
0
 11
-7.92504
 21
0.214323
 31
0
  0
LINE
  5
B6B
330
A02
100
AcDbEntity
  8
Shape2DView
100
AcDbLine
 10
7.92496
 20
-1.98568
 30
0
 11
7.92496
 21
0.214323
 31
0
  0
LINE
  5
B6C
330
A02
100
AcDbEntity
  8
Shape2DView
100
AcDbLine
 10
-5.25004
 20
-0.035677
 30
0
 11
-5.25004
 21
-0.535677
 31
0
  0
LINE
  5
B6D
330
A02
100
AcDbEntity
  8
Shape2DView
100
AcDbLine
 10
-5.25004
 20
-0.535677
 30
0
 11
-4.75004
 21
-0.535677
 31
0
  0
LINE
  5
B6E
330
A02
100
AcDbEntity
  8
Shape2DView
100
AcDbLine
 10
3.24996
 20
-0.035677
 30
0
 11
2.74996
 21
-0.035677
 31
0
  0
LINE
  5
B6F
330
A02
100
AcDbEntity
  8
Shape2DView
100
AcDbLine
 10
-3.25004
 20
-0.535677
 30
0
 11
-2.75004
 21
-0.535677
 31
0
  0
LINE
  5
B70
330
A02
100
AcDbEntity
  8
Shape2DView
100
AcDbLine
 10
-0.750036
 20
-0.035677
 30
0
 11
-1.25004
 21
-0.035677
 31
0
  0
LINE
  5
B71
330
A02
100
AcDbEntity
  8
Shape2DView
100
AcDbLine
 10
0.749964
 20
-0.535677
 30
0
 11
1.24996
 21
-0.535677
 31
0
  0
LINE
  5
B72
330
A02
100
AcDbEntity
  8
Shape2DView
100
AcDbLine
 10
5.24996
 20
-0.535677
 30
0
 11
5.24996
 21
-0.035677
 31
0
  0
LINE
  5
B73
330
A02
100
AcDbEntity
  8
Shape2DView
100
AcDbLine
 10
-1.25004
 20
-0.035677
 30
0
 11
-1.25004
 21
-0.535677
 31
0
  0
LINE
  5
B74
330
A02
100
AcDbEntity
  8
Shape2DView
100
AcDbLine
 10
3.24996
 20
-0.535677
 30
0
 11
3.24996
 21
-0.035677
 31
0
  0
LINE
  5
B75
330
A02
100
AcDbEntity
  8
Shape2DView
100
AcDbLine
 10
-4.75004
 20
-0.035677
 30
0
 11
-5.25004
 21
-0.035677
 31
0
  0
LINE
  5
B76
330
A02
100
AcDbEntity
  8
Shape2DView
100
AcDbLine
 10
-2.75004
 20
-0.035677
 30
0
 11
-3.25004
 21
-0.035677
 31
0
  0
LINE
  5
B77
330
A02
100
AcDbEntity
  8
Shape2DView
100
AcDbLine
 10
4.74996
 20
-0.535677
 30
0
 11
5.24996
 21
-0.535677
 31
0
  0
LINE
  5
B78
330
A02
100
AcDbEntity
  8
Shape2DView
100
AcDbLine
 10
2.74996
 20
-0.035677
 30
0
 11
2.74996
 21
-0.535677
 31
0
  0
LINE
  5
B79
330
A02
100
AcDbEntity
  8
Shape2DView
100
AcDbLine
 10
-2.75004
 20
-0.535677
 30
0
 11
-2.75004
 21
-0.035677
 31
0
  0
LINE
  5
B7A
330
A02
100
AcDbEntity
  8
Shape2DView
100
AcDbLine
 10
1.24996
 20
-0.535677
 30
0
 11
1.24996
 21
-0.035677
 31
0
  0
LINE
  5
B7B
330
A02
100
AcDbEntity
  8
Shape2DView
100
AcDbLine
 10
5.24996
 20
-0.035677
 30
0
 11
4.74996
 21
-0.035677
 31
0
  0
LINE
  5
B7C
330
A02
100
AcDbEntity
  8
Shape2DView
100
AcDbLine
 10
-3.25004
 20
-0.035677
 30
0
 11
-3.25004
 21
-0.535677
 31
0
  0
LINE
  5
B7D
330
A02
100
AcDbEntity
  8
Shape2DView
100
AcDbLine
 10
-0.750036
 20
-0.535677
 30
0
 11
-0.750036
 21
-0.035677
 31
0
  0
LINE
  5
B7E
330
A02
100
AcDbEntity
  8
Shape2DView
100
AcDbLine
 10
0.749964
 20
-0.035677
 30
0
 11
0.749964
 21
-0.535677
 31
0
  0
LINE
  5
B7F
330
A02
100
AcDbEntity
  8
Shape2DView
100
AcDbLine
 10
2.74996
 20
-0.535677
 30
0
 11
3.24996
 21
-0.535677
 31
0
  0
LINE
  5
B80
330
A02
100
AcDbEntity
  8
Shape2DView
100
AcDbLine
 10
4.74996
 20
-0.035677
 30
0
 11
4.74996
 21
-0.535677
 31
0
  0
LINE
  5
B81
330
A02
100
AcDbEntity
  8
Shape2DView
100
AcDbLine
 10
-4.75004
 20
-0.535677
 30
0
 11
-4.75004
 21
-0.035677
 31
0
  0
LINE
  5
B82
330
A02
100
AcDbEntity
  8
Shape2DView
100
AcDbLine
 10
-1.25004
 20
-0.535677
 30
0
 11
-0.750036
 21
-0.535677
 31
0
  0
LINE
  5
B83
330
A02
100
AcDbEntity
  8
Shape2DView
100
AcDbLine
 10
1.24996
 20
-0.035677
 30
0
 11
0.749964
 21
-0.035677
 31
0
  0
LINE
  5
B84
330
A02
100
AcDbEntity
  8
Shape2DView
100
AcDbLine
 10
-28.65
 20
-3.38568
 30
0
 11
-28.65
 21
-3.6896
 31
0
  0
LINE
  5
B85
330
A02
100
AcDbEntity
  8
Shape2DView
100
AcDbLine
 10
-29.15
 20
-3.38568
 30
0
 11
-29.15
 21
-3.6896
 31
0
  0
LINE
  5
B86
330
A02
100
AcDbEntity
  8
Shape2DView
100
AcDbLine
 10
-41.875
 20
-3.38568
 30
0
 11
-25.925
 21
-3.38568
 31
0
  0
LINE
  5
B87
330
A02
100
AcDbEntity
  8
Shape2DView
100
AcDbLine
 10
-33.15
 20
-3.38568
 30
0
 11
-33.15
 21
-3.6896
 31
0
  0
LINE
  5
B88
330
A02
100
AcDbEntity
  8
Shape2DView
100
AcDbLine
 10
-41.875
 20
-3.38568
 30
0
 11
-41.875
 21
-1.98568
 31
0
  0
LINE
  5
B89
330
A02
100
AcDbEntity
  8
Shape2DView
100
AcDbLine
 10
-25.925
 20
-3.38568
 30
0
 11
-25.925
 21
-1.98568
 31
0
  0
LINE
  5
B8A
330
A02
100
AcDbEntity
  8
Shape2DView
100
AcDbLine
 10
-26.825
 20
-1.98568
 30
0
 11
-25.925
 21
-1.98568
 31
0
  0
LINE
  5
B8B
330
A02
100
AcDbEntity
  8
Shape2DView
100
AcDbLine
 10
-26.825
 20
-0.835677
 30
0
 11
-26.825
 21
-1.98568
 31
0
  0
LINE
  5
B8C
330
A02
100
AcDbEntity
  8
Shape2DView
100
AcDbLine
 10
-27.6
 20
-0.835677
 30
0
 11
-26.825
 21
-0.835677
 31
0
  0
LINE
  5
B8D
330
A02
100
AcDbEntity
  8
Shape2DView
100
AcDbLine
 10
-27.6
 20
-2.68568
 30
0
 11
-27.6
 21
-0.835677
 31
0
  0
LINE
  5
B8E
330
A02
100
AcDbEntity
  8
Shape2DView
100
AcDbLine
 10
-27.6
 20
-2.68568
 30
0
 11
-40.2
 21
-2.68568
 31
0
  0
LINE
  5
B8F
330
A02
100
AcDbEntity
  8
Shape2DView
100
AcDbLine
 10
-40.2
 20
-2.68568
 30
0
 11
-40.2
 21
-0.835677
 31
0
  0
LINE
  5
B90
330
A02
100
AcDbEntity
  8
Shape2DView
100
AcDbLine
 10
-40.975
 20
-0.835677
 30
0
 11
-40.2
 21
-0.835677
 31
0
  0
LINE
  5
B91
330
A02
100
AcDbEntity
  8
Shape2DView
100
AcDbLine
 10
-40.975
 20
-1.98568
 30
0
 11
-40.975
 21
-0.835677
 31
0
  0
LINE
  5
B92
330
A02
100
AcDbEntity
  8
Shape2DView
100
AcDbLine
 10
-41.875
 20
-1.98568
 30
0
 11
-40.975
 21
-1.98568
 31
0
  0
LINE
  5
B93
330
A02
100
AcDbEntity
  8
Shape2DView
100
AcDbLine
 10
-36.65
 20
-3.38568
 30
0
 11
-36.65
 21
-3.6896
 31
0
  0
LINE
  5
B94
330
A02
100
AcDbEntity
  8
Shape2DView
100
AcDbLine
 10
-37.15
 20
-3.38568
 30
0
 11
-37.15
 21
-3.6896
 31
0
  0
LINE
  5
B95
330
A02
100
AcDbEntity
  8
Shape2DView
100
AcDbLine
 10
-35.15
 20
-3.38568
 30
0
 11
-35.15
 21
-3.6896
 31
0
  0
LINE
  5
B96
330
A02
100
AcDbEntity
  8
Shape2DView
100
AcDbLine
 10
-31.15
 20
-3.38568
 30
0
 11
-31.15
 21
-3.6896
 31
0
  0
LINE
  5
B97
330
A02
100
AcDbEntity
  8
Shape2DView
100
AcDbLine
 10
-38.65
 20
-3.38568
 30
0
 11
-38.65
 21
-3.6896
 31
0
  0
LINE
  5
B98
330
A02
100
AcDbEntity
  8
Shape2DView
100
AcDbLine
 10
-30.65
 20
-3.38568
 30
0
 11
-30.65
 21
-3.6896
 31
0
  0
LINE
  5
B99
330
A02
100
AcDbEntity
  8
Shape2DView
100
AcDbLine
 10
-34.65
 20
-3.38568
 30
0
 11
-34.65
 21
-3.6896
 31
0
  0
LINE
  5
B9A
330
A02
100
AcDbEntity
  8
Shape2DView
100
AcDbLine
 10
-39.15
 20
-3.38568
 30
0
 11
-39.15
 21
-3.6896
 31
0
  0
LINE
  5
B9B
330
A02
100
AcDbEntity
  8
Shape2DView
100
AcDbLine
 10
-32.65
 20
-3.38568
 30
0
 11
-32.65
 21
-3.6896
 31
0
  0
LINE
  5
B9C
330
A02
100
AcDbEntity
  8
Shape2DView
100
AcDbLine
 10
-40.975
 20
-0.035677
 30
0
 11
-40.975
 21
-0.835677
 31
0
  0
LINE
  5
B9D
330
A02
100
AcDbEntity
  8
Shape2DView
100
AcDbLine
 10
-40.975
 20
-0.035677
 30
0
 11
-40.975
 21
0.214323
 31
0
  0
LINE
  5
B9E
330
A02
100
AcDbEntity
  8
Shape2DView
100
AcDbLine
 10
-27.6
 20
-0.835677
 30
0
 11
-27.6
 21
-0.035677
 31
0
  0
LINE
  5
B9F
330
A02
100
AcDbEntity
  8
Shape2DView
100
AcDbLine
 10
-27.6
 20
-0.035677
 30
0
 11
-27.6
 21
0.814323
 31
0
  0
LINE
  5
BA0
330
A02
100
AcDbEntity
  8
Shape2DView
100
AcDbLine
 10
-26.825
 20
0.214323
 30
0
 11
-26.825
 21
-0.035677
 31
0
  0
LINE
  5
BA1
330
A02
100
AcDbEntity
  8
Shape2DView
100
AcDbLine
 10
-26.825
 20
-0.835677
 30
0
 11
-26.825
 21
-0.035677
 31
0
  0
LINE
  5
BA2
330
A02
100
AcDbEntity
  8
Shape2DView
100
AcDbLine
 10
-40.2
 20
-0.035677
 30
0
 11
-40.2
 21
0.814323
 31
0
  0
LINE
  5
BA3
330
A02
100
AcDbEntity
  8
Shape2DView
100
AcDbLine
 10
-40.2
 20
-0.835677
 30
0
 11
-40.2
 21
-0.035677
 31
0
  0
LINE
  5
BA4
330
A02
100
AcDbEntity
  8
Shape2DView
100
AcDbLine
 10
-41.875
 20
0.214323
 30
0
 11
-41.875
 21
1.61432
 31
0
  0
LINE
  5
BA5
330
A02
100
AcDbEntity
  8
Shape2DView
100
AcDbLine
 10
-41.875
 20
1.61432
 30
0
 11
-37.7
 21
1.61432
 31
0
  0
LINE
  5
BA6
330
A02
100
AcDbEntity
  8
Shape2DView
100
AcDbLine
 10
-30.1
 20
1.61432
 30
0
 11
-37.7
 21
1.61432
 31
0
  0
LINE
  5
BA7
330
A02
100
AcDbEntity
  8
Shape2DView
100
AcDbLine
 10
-30.1
 20
1.61432
 30
0
 11
-25.925
 21
1.61432
 31
0
  0
LINE
  5
BA8
330
A02
100
AcDbEntity
  8
Shape2DView
100
AcDbLine
 10
-25.925
 20
0.214323
 30
0
 11
-25.925
 21
1.61432
 31
0
  0
LINE
  5
BA9
330
A02
100
AcDbEntity
  8
Shape2DView
100
AcDbLine
 10
-40.975
 20
0.214323
 30
0
 11
-41.875
 21
0.214323
 31
0
  0
LINE
  5
BAA
330
A02
100
AcDbEntity
  8
Shape2DView
100
AcDbLine
 10
-41.225
 20
-1.98568
 30
0
 11
-41.225
 21
0.214323
 31
0
  0
LINE
  5
BAB
330
A02
100
AcDbEntity
  8
Shape2DView
100
AcDbLine
 10
-26.575
 20
-1.98568
 30
0
 11
-26.575
 21
0.214323
 31
0
  0
LINE
  5
BAC
330
A02
100
AcDbEntity
  8
Shape2DView
100
AcDbLine
 10
-40.975
 20
-0.035677
 30
0
 11
-40.2
 21
-0.035677
 31
0
  0
LINE
  5
BAD
330
A02
100
AcDbEntity
  8
Shape2DView
100
AcDbLine
 10
-37.7
 20
0.814323
 30
0
 11
-40.2
 21
0.814323
 31
0
  0
LINE
  5
BAE
330
A02
100
AcDbEntity
  8
Shape2DView
100
AcDbLine
 10
-37.7
 20
1.61432
 30
0
 11
-37.7
 21
0.814323
 31
0
  0
LINE
  5
BAF
330
A02
100
AcDbEntity
  8
Shape2DView
100
AcDbLine
 10
-27.6
 20
-1.43568
 30
0
 11
-40.2
 21
-1.43568
 31
0
  0
LINE
  5
BB0
330
A02
100
AcDbEntity
  8
Shape2DView
100
AcDbLine
 10
-27.6
 20
-0.035677
 30
0
 11
-26.825
 21
-0.035677
 31
0
  0
LINE
  5
BB1
330
A02
100
AcDbEntity
  8
Shape2DView
100
AcDbLine
 10
-27.6
 20
-0.835677
 30
0
 11
-40.2
 21
-0.835677
 31
0
  0
LINE
  5
BB2
330
A02
100
AcDbEntity
  8
Shape2DView
100
AcDbLine
 10
-30.1
 20
0.814323
 30
0
 11
-37.7
 21
0.814323
 31
0
  0
LINE
  5
BB3
330
A02
100
AcDbEntity
  8
Shape2DView
100
AcDbLine
 10
-27.6
 20
0.814323
 30
0
 11
-30.1
 21
0.814323
 31
0
  0
LINE
  5
BB4
330
A02
100
AcDbEntity
  8
Shape2DView
100
AcDbLine
 10
-30.1
 20
0.814323
 30
0
 11
-30.1
 21
1.61432
 31
0
  0
LINE
  5
BB5
330
A02
100
AcDbEntity
  8
Shape2DView
100
AcDbLine
 10
-25.925
 20
0.214323
 30
0
 11
-26.825
 21
0.214323
 31
0
  0
LINE
  5
BB6
330
A02
100
AcDbEntity
  8
Shape2DView
100
AcDbLine
 10
-41.825
 20
-1.98568
 30
0
 11
-41.825
 21
0.214323
 31
0
  0
LINE
  5
BB7
330
A02
100
AcDbEntity
  8
Shape2DView
100
AcDbLine
 10
-25.975
 20
-1.98568
 30
0
 11
-25.975
 21
0.214323
 31
0
  0
LINE
  5
BB8
330
A02
100
AcDbEntity
  8
Shape2DView
100
AcDbLine
 10
-39.15
 20
-0.035677
 30
0
 11
-39.15
 21
-0.535677
 31
0
  0
LINE
  5
BB9
330
A02
100
AcDbEntity
  8
Shape2DView
100
AcDbLine
 10
-39.15
 20
-0.535677
 30
0
 11
-38.65
 21
-0.535677
 31
0
  0
LINE
  5
BBA
330
A02
100
AcDbEntity
  8
Shape2DView
100
AcDbLine
 10
-30.65
 20
-0.035677
 30
0
 11
-31.15
 21
-0.035677
 31
0
  0
LINE
  5
BBB
330
A02
100
AcDbEntity
  8
Shape2DView
100
AcDbLine
 10
-37.15
 20
-0.535677
 30
0
 11
-36.65
 21
-0.535677
 31
0
  0
LINE
  5
BBC
330
A02
100
AcDbEntity
  8
Shape2DView
100
AcDbLine
 10
-34.65
 20
-0.035677
 30
0
 11
-35.15
 21
-0.035677
 31
0
  0
LINE
  5
BBD
330
A02
100
AcDbEntity
  8
Shape2DView
100
AcDbLine
 10
-33.15
 20
-0.535677
 30
0
 11
-32.65
 21
-0.535677
 31
0
  0
LINE
  5
BBE
330
A02
100
AcDbEntity
  8
Shape2DView
100
AcDbLine
 10
-28.65
 20
-0.535677
 30
0
 11
-28.65
 21
-0.035677
 31
0
  0
LINE
  5
BBF
330
A02
100
AcDbEntity
  8
Shape2DView
100
AcDbLine
 10
-35.15
 20
-0.035677
 30
0
 11
-35.15
 21
-0.535677
 31
0
  0
LINE
  5
BC0
330
A02
100
AcDbEntity
  8
Shape2DView
100
AcDbLine
 10
-30.65
 20
-0.535677
 30
0
 11
-30.65
 21
-0.035677
 31
0
  0
LINE
  5
BC1
330
A02
100
AcDbEntity
  8
Shape2DView
100
AcDbLine
 10
-38.65
 20
-0.035677
 30
0
 11
-39.15
 21
-0.035677
 31
0
  0
LINE
  5
BC2
330
A02
100
AcDbEntity
  8
Shape2DView
100
AcDbLine
 10
-36.65
 20
-0.035677
 30
0
 11
-37.15
 21
-0.035677
 31
0
  0
LINE
  5
BC3
330
A02
100
AcDbEntity
  8
Shape2DView
100
AcDbLine
 10
-29.15
 20
-0.535677
 30
0
 11
-28.65
 21
-0.535677
 31
0
  0
LINE
  5
BC4
330
A02
100
AcDbEntity
  8
Shape2DView
100
AcDbLine
 10
-31.15
 20
-0.035677
 30
0
 11
-31.15
 21
-0.535677
 31
0
  0
LINE
  5
BC5
330
A02
100
AcDbEntity
  8
Shape2DView
100
AcDbLine
 10
-36.65
 20
-0.535677
 30
0
 11
-36.65
 21
-0.035677
 31
0
  0
LINE
  5
BC6
330
A02
100
AcDbEntity
  8
Shape2DView
100
AcDbLine
 10
-32.65
 20
-0.535677
 30
0
 11
-32.65
 21
-0.035677
 31
0
  0
LINE
  5
BC7
330
A02
100
AcDbEntity
  8
Shape2DView
100
AcDbLine
 10
-28.65
 20
-0.035677
 30
0
 11
-29.15
 21
-0.035677
 31
0
  0
LINE
  5
BC8
330
A02
100
AcDbEntity
  8
Shape2DView
100
AcDbLine
 10
-37.15
 20
-0.035677
 30
0
 11
-37.15
 21
-0.535677
 31
0
  0
LINE
  5
BC9
330
A02
100
AcDbEntity
  8
Shape2DView
100
AcDbLine
 10
-34.65
 20
-0.535677
 30
0
 11
-34.65
 21
-0.035677
 31
0
  0
LINE
  5
BCA
330
A02
100
AcDbEntity
  8
Shape2DView
100
AcDbLine
 10
-33.15
 20
-0.035677
 30
0
 11
-33.15
 21
-0.535677
 31
0
  0
LINE
  5
BCB
330
A02
100
AcDbEntity
  8
Shape2DView
100
AcDbLine
 10
-31.15
 20
-0.535677
 30
0
 11
-30.65
 21
-0.535677
 31
0
  0
LINE
  5
BCC
330
A02
100
AcDbEntity
  8
Shape2DView
100
AcDbLine
 10
-29.15
 20
-0.035677
 30
0
 11
-29.15
 21
-0.535677
 31
0
  0
LINE
  5
BCD
330
A02
100
AcDbEntity
  8
Shape2DView
100
AcDbLine
 10
-38.65
 20
-0.535677
 30
0
 11
-38.65
 21
-0.035677
 31
0
  0
LINE
  5
BCE
330
A02
100
AcDbEntity
  8
Shape2DView
100
AcDbLine
 10
-35.15
 20
-0.535677
 30
0
 11
-34.65
 21
-0.535677
 31
0
  0
LINE
  5
BCF
330
A02
100
AcDbEntity
  8
Shape2DView
100
AcDbLine
 10
-32.65
 20
-0.035677
 30
0
 11
-33.15
 21
-0.035677
 31
0
  0
LINE
  5
BD0
330
A02
100
AcDbEntity
  8
Shape2DView
100
AcDbLine
 10
-11.725
 20
-11.3857
 30
0
 11
-11.725
 21
-11.7146
 31
0
  0
LINE
  5
BD1
330
A02
100
AcDbEntity
  8
Shape2DView
100
AcDbLine
 10
-12.225
 20
-11.3857
 30
0
 11
-12.225
 21
-11.7146
 31
0
  0
LINE
  5
BD2
330
A02
100
AcDbEntity
  8
Shape2DView
100
AcDbLine
 10
-24.95
 20
-11.3857
 30
0
 11
-9.00004
 21
-11.3857
 31
0
  0
LINE
  5
BD3
330
A02
100
AcDbEntity
  8
Shape2DView
100
AcDbLine
 10
-16.225
 20
-11.3857
 30
0
 11
-16.225
 21
-11.7146
 31
0
  0
LINE
  5
BD4
330
A02
100
AcDbEntity
  8
Shape2DView
100
AcDbLine
 10
-24.95
 20
-11.3857
 30
0
 11
-24.95
 21
-9.98568
 31
0
  0
LINE
  5
BD5
330
A02
100
AcDbEntity
  8
Shape2DView
100
AcDbLine
 10
-9.00004
 20
-11.3857
 30
0
 11
-9.00004
 21
-9.98568
 31
0
  0
LINE
  5
BD6
330
A02
100
AcDbEntity
  8
Shape2DView
100
AcDbLine
 10
-9.90004
 20
-9.98568
 30
0
 11
-9.00004
 21
-9.98568
 31
0
  0
LINE
  5
BD7
330
A02
100
AcDbEntity
  8
Shape2DView
100
AcDbLine
 10
-9.90004
 20
-8.83568
 30
0
 11
-9.90004
 21
-9.98568
 31
0
  0
LINE
  5
BD8
330
A02
100
AcDbEntity
  8
Shape2DView
100
AcDbLine
 10
-10.675
 20
-8.83568
 30
0
 11
-9.90004
 21
-8.83568
 31
0
  0
LINE
  5
BD9
330
A02
100
AcDbEntity
  8
Shape2DView
100
AcDbLine
 10
-10.675
 20
-10.6857
 30
0
 11
-10.675
 21
-8.83568
 31
0
  0
LINE
  5
BDA
330
A02
100
AcDbEntity
  8
Shape2DView
100
AcDbLine
 10
-10.675
 20
-10.6857
 30
0
 11
-23.275
 21
-10.6857
 31
0
  0
LINE
  5
BDB
330
A02
100
AcDbEntity
  8
Shape2DView
100
AcDbLine
 10
-23.275
 20
-10.6857
 30
0
 11
-23.275
 21
-8.83568
 31
0
  0
LINE
  5
BDC
330
A02
100
AcDbEntity
  8
Shape2DView
100
AcDbLine
 10
-24.05
 20
-8.83568
 30
0
 11
-23.275
 21
-8.83568
 31
0
  0
LINE
  5
BDD
330
A02
100
AcDbEntity
  8
Shape2DView
100
AcDbLine
 10
-24.05
 20
-9.98568
 30
0
 11
-24.05
 21
-8.83568
 31
0
  0
LINE
  5
BDE
330
A02
100
AcDbEntity
  8
Shape2DView
100
AcDbLine
 10
-24.95
 20
-9.98568
 30
0
 11
-24.05
 21
-9.98568
 31
0
  0
LINE
  5
BDF
330
A02
100
AcDbEntity
  8
Shape2DView
100
AcDbLine
 10
-19.725
 20
-11.3857
 30
0
 11
-19.725
 21
-11.7146
 31
0
  0
LINE
  5
BE0
330
A02
100
AcDbEntity
  8
Shape2DView
100
AcDbLine
 10
-20.225
 20
-11.3857
 30
0
 11
-20.225
 21
-11.7146
 31
0
  0
LINE
  5
BE1
330
A02
100
AcDbEntity
  8
Shape2DView
100
AcDbLine
 10
-18.225
 20
-11.3857
 30
0
 11
-18.225
 21
-11.7146
 31
0
  0
LINE
  5
BE2
330
A02
100
AcDbEntity
  8
Shape2DView
100
AcDbLine
 10
-14.225
 20
-11.3857
 30
0
 11
-14.225
 21
-11.7146
 31
0
  0
LINE
  5
BE3
330
A02
100
AcDbEntity
  8
Shape2DView
100
AcDbLine
 10
-21.725
 20
-11.3857
 30
0
 11
-21.725
 21
-11.7146
 31
0
  0
LINE
  5
BE4
330
A02
100
AcDbEntity
  8
Shape2DView
100
AcDbLine
 10
-13.725
 20
-11.3857
 30
0
 11
-13.725
 21
-11.7146
 31
0
  0
LINE
  5
BE5
330
A02
100
AcDbEntity
  8
Shape2DView
100
AcDbLine
 10
-17.725
 20
-11.3857
 30
0
 11
-17.725
 21
-11.7146
 31
0
  0
LINE
  5
BE6
330
A02
100
AcDbEntity
  8
Shape2DView
100
AcDbLine
 10
-22.225
 20
-11.3857
 30
0
 11
-22.225
 21
-11.7146
 31
0
  0
LINE
  5
BE7
330
A02
100
AcDbEntity
  8
Shape2DView
100
AcDbLine
 10
-15.725
 20
-11.3857
 30
0
 11
-15.725
 21
-11.7146
 31
0
  0
LINE
  5
BE8
330
A02
100
AcDbEntity
  8
Shape2DView
100
AcDbLine
 10
-24.05
 20
-8.03568
 30
0
 11
-24.05
 21
-8.83568
 31
0
  0
LINE
  5
BE9
330
A02
100
AcDbEntity
  8
Shape2DView
100
AcDbLine
 10
-24.05
 20
-8.03568
 30
0
 11
-24.05
 21
-7.78568
 31
0
  0
LINE
  5
BEA
330
A02
100
AcDbEntity
  8
Shape2DView
100
AcDbLine
 10
-10.675
 20
-8.83568
 30
0
 11
-10.675
 21
-8.03568
 31
0
  0
LINE
  5
BEB
330
A02
100
AcDbEntity
  8
Shape2DView
100
AcDbLine
 10
-10.675
 20
-8.03568
 30
0
 11
-10.675
 21
-7.18568
 31
0
  0
LINE
  5
BEC
330
A02
100
AcDbEntity
  8
Shape2DView
100
AcDbLine
 10
-9.90004
 20
-7.78568
 30
0
 11
-9.90004
 21
-8.03568
 31
0
  0
LINE
  5
BED
330
A02
100
AcDbEntity
  8
Shape2DView
100
AcDbLine
 10
-9.90004
 20
-8.83568
 30
0
 11
-9.90004
 21
-8.03568
 31
0
  0
LINE
  5
BEE
330
A02
100
AcDbEntity
  8
Shape2DView
100
AcDbLine
 10
-23.275
 20
-8.03568
 30
0
 11
-23.275
 21
-7.18568
 31
0
  0
LINE
  5
BEF
330
A02
100
AcDbEntity
  8
Shape2DView
100
AcDbLine
 10
-23.275
 20
-8.83568
 30
0
 11
-23.275
 21
-8.03568
 31
0
  0
LINE
  5
BF0
330
A02
100
AcDbEntity
  8
Shape2DView
100
AcDbLine
 10
-24.95
 20
-7.78568
 30
0
 11
-24.95
 21
-6.38568
 31
0
  0
LINE
  5
BF1
330
A02
100
AcDbEntity
  8
Shape2DView
100
AcDbLine
 10
-24.95
 20
-6.38568
 30
0
 11
-20.775
 21
-6.38568
 31
0
  0
LINE
  5
BF2
330
A02
100
AcDbEntity
  8
Shape2DView
100
AcDbLine
 10
-13.175
 20
-6.38568
 30
0
 11
-20.775
 21
-6.38568
 31
0
  0
LINE
  5
BF3
330
A02
100
AcDbEntity
  8
Shape2DView
100
AcDbLine
 10
-13.175
 20
-6.38568
 30
0
 11
-9.00004
 21
-6.38568
 31
0
  0
LINE
  5
BF4
330
A02
100
AcDbEntity
  8
Shape2DView
100
AcDbLine
 10
-9.00004
 20
-7.78568
 30
0
 11
-9.00004
 21
-6.38568
 31
0
  0
LINE
  5
BF5
330
A02
100
AcDbEntity
  8
Shape2DView
100
AcDbLine
 10
-24.05
 20
-7.78568
 30
0
 11
-24.95
 21
-7.78568
 31
0
  0
LINE
  5
BF6
330
A02
100
AcDbEntity
  8
Shape2DView
100
AcDbLine
 10
-24.3
 20
-9.98568
 30
0
 11
-24.3
 21
-7.78568
 31
0
  0
LINE
  5
BF7
330
A02
100
AcDbEntity
  8
Shape2DView
100
AcDbLine
 10
-9.65004
 20
-9.98568
 30
0
 11
-9.65004
 21
-7.78568
 31
0
  0
LINE
  5
BF8
330
A02
100
AcDbEntity
  8
Shape2DView
100
AcDbLine
 10
-24.05
 20
-8.03568
 30
0
 11
-23.275
 21
-8.03568
 31
0
  0
LINE
  5
BF9
330
A02
100
AcDbEntity
  8
Shape2DView
100
AcDbLine
 10
-20.775
 20
-7.18568
 30
0
 11
-23.275
 21
-7.18568
 31
0
  0
LINE
  5
BFA
330
A02
100
AcDbEntity
  8
Shape2DView
100
AcDbLine
 10
-20.775
 20
-6.38568
 30
0
 11
-20.775
 21
-7.18568
 31
0
  0
LINE
  5
BFB
330
A02
100
AcDbEntity
  8
Shape2DView
100
AcDbLine
 10
-10.675
 20
-9.43568
 30
0
 11
-23.275
 21
-9.43568
 31
0
  0
LINE
  5
BFC
330
A02
100
AcDbEntity
  8
Shape2DView
100
AcDbLine
 10
-10.675
 20
-8.03568
 30
0
 11
-9.90004
 21
-8.03568
 31
0
  0
LINE
  5
BFD
330
A02
100
AcDbEntity
  8
Shape2DView
100
AcDbLine
 10
-10.675
 20
-8.83568
 30
0
 11
-23.275
 21
-8.83568
 31
0
  0
LINE
  5
BFE
330
A02
100
AcDbEntity
  8
Shape2DView
100
AcDbLine
 10
-13.175
 20
-7.18568
 30
0
 11
-20.775
 21
-7.18568
 31
0
  0
LINE
  5
BFF
330
A02
100
AcDbEntity
  8
Shape2DView
100
AcDbLine
 10
-10.675
 20
-7.18568
 30
0
 11
-13.175
 21
-7.18568
 31
0
  0
LINE
  5
C00
330
A02
100
AcDbEntity
  8
Shape2DView
100
AcDbLine
 10
-13.175
 20
-7.18568
 30
0
 11
-13.175
 21
-6.38568
 31
0
  0
LINE
  5
C01
330
A02
100
AcDbEntity
  8
Shape2DView
100
AcDbLine
 10
-9.00004
 20
-7.78568
 30
0
 11
-9.90004
 21
-7.78568
 31
0
  0
LINE
  5
C02
330
A02
100
AcDbEntity
  8
Shape2DView
100
AcDbLine
 10
-24.9
 20
-9.98568
 30
0
 11
-24.9
 21
-7.78568
 31
0
  0
LINE
  5
C03
330
A02
100
AcDbEntity
  8
Shape2DView
100
AcDbLine
 10
-9.05004
 20
-9.98568
 30
0
 11
-9.05004
 21
-7.78568
 31
0
  0
LINE
  5
C04
330
A02
100
AcDbEntity
  8
Shape2DView
100
AcDbLine
 10
-22.225
 20
-8.03568
 30
0
 11
-22.225
 21
-8.53568
 31
0
  0
LINE
  5
C05
330
A02
100
AcDbEntity
  8
Shape2DView
100
AcDbLine
 10
-22.225
 20
-8.53568
 30
0
 11
-21.725
 21
-8.53568
 31
0
  0
LINE
  5
C06
330
A02
100
AcDbEntity
  8
Shape2DView
100
AcDbLine
 10
-13.725
 20
-8.03568
 30
0
 11
-14.225
 21
-8.03568
 31
0
  0
LINE
  5
C07
330
A02
100
AcDbEntity
  8
Shape2DView
100
AcDbLine
 10
-20.225
 20
-8.53568
 30
0
 11
-19.725
 21
-8.53568
 31
0
  0
LINE
  5
C08
330
A02
100
AcDbEntity
  8
Shape2DView
100
AcDbLine
 10
-17.725
 20
-8.03568
 30
0
 11
-18.225
 21
-8.03568
 31
0
  0
LINE
  5
C09
330
A02
100
AcDbEntity
  8
Shape2DView
100
AcDbLine
 10
-16.225
 20
-8.53568
 30
0
 11
-15.725
 21
-8.53568
 31
0
  0
LINE
  5
C0A
330
A02
100
AcDbEntity
  8
Shape2DView
100
AcDbLine
 10
-11.725
 20
-8.53568
 30
0
 11
-11.725
 21
-8.03568
 31
0
  0
LINE
  5
C0B
330
A02
100
AcDbEntity
  8
Shape2DView
100
AcDbLine
 10
-18.225
 20
-8.03568
 30
0
 11
-18.225
 21
-8.53568
 31
0
  0
LINE
  5
C0C
330
A02
100
AcDbEntity
  8
Shape2DView
100
AcDbLine
 10
-13.725
 20
-8.53568
 30
0
 11
-13.725
 21
-8.03568
 31
0
  0
LINE
  5
C0D
330
A02
100
AcDbEntity
  8
Shape2DView
100
AcDbLine
 10
-21.725
 20
-8.03568
 30
0
 11
-22.225
 21
-8.03568
 31
0
  0
LINE
  5
C0E
330
A02
100
AcDbEntity
  8
Shape2DView
100
AcDbLine
 10
-19.725
 20
-8.03568
 30
0
 11
-20.225
 21
-8.03568
 31
0
  0
LINE
  5
C0F
330
A02
100
AcDbEntity
  8
Shape2DView
100
AcDbLine
 10
-12.225
 20
-8.53568
 30
0
 11
-11.725
 21
-8.53568
 31
0
  0
LINE
  5
C10
330
A02
100
AcDbEntity
  8
Shape2DView
100
AcDbLine
 10
-14.225
 20
-8.03568
 30
0
 11
-14.225
 21
-8.53568
 31
0
  0
LINE
  5
C11
330
A02
100
AcDbEntity
  8
Shape2DView
100
AcDbLine
 10
-19.725
 20
-8.53568
 30
0
 11
-19.725
 21
-8.03568
 31
0
  0
LINE
  5
C12
330
A02
100
AcDbEntity
  8
Shape2DView
100
AcDbLine
 10
-15.725
 20
-8.53568
 30
0
 11
-15.725
 21
-8.03568
 31
0
  0
LINE
  5
C13
330
A02
100
AcDbEntity
  8
Shape2DView
100
AcDbLine
 10
-11.725
 20
-8.03568
 30
0
 11
-12.225
 21
-8.03568
 31
0
  0
LINE
  5
C14
330
A02
100
AcDbEntity
  8
Shape2DView
100
AcDbLine
 10
-20.225
 20
-8.03568
 30
0
 11
-20.225
 21
-8.53568
 31
0
  0
LINE
  5
C15
330
A02
100
AcDbEntity
  8
Shape2DView
100
AcDbLine
 10
-17.725
 20
-8.53568
 30
0
 11
-17.725
 21
-8.03568
 31
0
  0
LINE
  5
C16
330
A02
100
AcDbEntity
  8
Shape2DView
100
AcDbLine
 10
-16.225
 20
-8.03568
 30
0
 11
-16.225
 21
-8.53568
 31
0
  0
LINE
  5
C17
330
A02
100
AcDbEntity
  8
Shape2DView
100
AcDbLine
 10
-14.225
 20
-8.53568
 30
0
 11
-13.725
 21
-8.53568
 31
0
  0
LINE
  5
C18
330
A02
100
AcDbEntity
  8
Shape2DView
100
AcDbLine
 10
-12.225
 20
-8.03568
 30
0
 11
-12.225
 21
-8.53568
 31
0
  0
LINE
  5
C19
330
A02
100
AcDbEntity
  8
Shape2DView
100
AcDbLine
 10
-21.725
 20
-8.53568
 30
0
 11
-21.725
 21
-8.03568
 31
0
  0
LINE
  5
C1A
330
A02
100
AcDbEntity
  8
Shape2DView
100
AcDbLine
 10
-18.225
 20
-8.53568
 30
0
 11
-17.725
 21
-8.53568
 31
0
  0
LINE
  5
C1B
330
A02
100
AcDbEntity
  8
Shape2DView
100
AcDbLine
 10
-15.725
 20
-8.03568
 30
0
 11
-16.225
 21
-8.03568
 31
0
  0
LINE
  5
C1C
330
A02
100
AcDbEntity
  8
Shape2DView
100
AcDbLine
 10
-11.7
 20
-3.38568
 30
0
 11
-11.7
 21
-3.6896
 31
0
  0
LINE
  5
C1D
330
A02
100
AcDbEntity
  8
Shape2DView
100
AcDbLine
 10
-12.2
 20
-3.38568
 30
0
 11
-12.2
 21
-3.6896
 31
0
  0
LINE
  5
C1E
330
A02
100
AcDbEntity
  8
Shape2DView
100
AcDbLine
 10
-24.925
 20
-3.38568
 30
0
 11
-8.97504
 21
-3.38568
 31
0
  0
LINE
  5
C1F
330
A02
100
AcDbEntity
  8
Shape2DView
100
AcDbLine
 10
-16.2
 20
-3.38568
 30
0
 11
-16.2
 21
-3.6896
 31
0
  0
LINE
  5
C20
330
A02
100
AcDbEntity
  8
Shape2DView
100
AcDbLine
 10
-24.925
 20
-3.38568
 30
0
 11
-24.925
 21
-1.98568
 31
0
  0
LINE
  5
C21
330
A02
100
AcDbEntity
  8
Shape2DView
100
AcDbLine
 10
-8.97504
 20
-3.38568
 30
0
 11
-8.97504
 21
-1.98568
 31
0
  0
LINE
  5
C22
330
A02
100
AcDbEntity
  8
Shape2DView
100
AcDbLine
 10
-9.87504
 20
-1.98568
 30
0
 11
-8.97504
 21
-1.98568
 31
0
  0
LINE
  5
C23
330
A02
100
AcDbEntity
  8
Shape2DView
100
AcDbLine
 10
-9.87504
 20
-0.835677
 30
0
 11
-9.87504
 21
-1.98568
 31
0
  0
LINE
  5
C24
330
A02
100
AcDbEntity
  8
Shape2DView
100
AcDbLine
 10
-10.65
 20
-0.835677
 30
0
 11
-9.87504
 21
-0.835677
 31
0
  0
LINE
  5
C25
330
A02
100
AcDbEntity
  8
Shape2DView
100
AcDbLine
 10
-10.65
 20
-2.68568
 30
0
 11
-10.65
 21
-0.835677
 31
0
  0
LINE
  5
C26
330
A02
100
AcDbEntity
  8
Shape2DView
100
AcDbLine
 10
-10.65
 20
-2.68568
 30
0
 11
-23.25
 21
-2.68568
 31
0
  0
LINE
  5
C27
330
A02
100
AcDbEntity
  8
Shape2DView
100
AcDbLine
 10
-23.25
 20
-2.68568
 30
0
 11
-23.25
 21
-0.835677
 31
0
  0
LINE
  5
C28
330
A02
100
AcDbEntity
  8
Shape2DView
100
AcDbLine
 10
-24.025
 20
-0.835677
 30
0
 11
-23.25
 21
-0.835677
 31
0
  0
LINE
  5
C29
330
A02
100
AcDbEntity
  8
Shape2DView
100
AcDbLine
 10
-24.025
 20
-1.98568
 30
0
 11
-24.025
 21
-0.835677
 31
0
  0
LINE
  5
C2A
330
A02
100
AcDbEntity
  8
Shape2DView
100
AcDbLine
 10
-24.925
 20
-1.98568
 30
0
 11
-24.025
 21
-1.98568
 31
0
  0
LINE
  5
C2B
330
A02
100
AcDbEntity
  8
Shape2DView
100
AcDbLine
 10
-19.7
 20
-3.38568
 30
0
 11
-19.7
 21
-3.6896
 31
0
  0
LINE
  5
C2C
330
A02
100
AcDbEntity
  8
Shape2DView
100
AcDbLine
 10
-20.2
 20
-3.38568
 30
0
 11
-20.2
 21
-3.6896
 31
0
  0
LINE
  5
C2D
330
A02
100
AcDbEntity
  8
Shape2DView
100
AcDbLine
 10
-18.2
 20
-3.38568
 30
0
 11
-18.2
 21
-3.6896
 31
0
  0
LINE
  5
C2E
330
A02
100
AcDbEntity
  8
Shape2DView
100
AcDbLine
 10
-14.2
 20
-3.38568
 30
0
 11
-14.2
 21
-3.6896
 31
0
  0
LINE
  5
C2F
330
A02
100
AcDbEntity
  8
Shape2DView
100
AcDbLine
 10
-21.7
 20
-3.38568
 30
0
 11
-21.7
 21
-3.6896
 31
0
  0
LINE
  5
C30
330
A02
100
AcDbEntity
  8
Shape2DView
100
AcDbLine
 10
-13.7
 20
-3.38568
 30
0
 11
-13.7
 21
-3.6896
 31
0
  0
LINE
  5
C31
330
A02
100
AcDbEntity
  8
Shape2DView
100
AcDbLine
 10
-17.7
 20
-3.38568
 30
0
 11
-17.7
 21
-3.6896
 31
0
  0
LINE
  5
C32
330
A02
100
AcDbEntity
  8
Shape2DView
100
AcDbLine
 10
-22.2
 20
-3.38568
 30
0
 11
-22.2
 21
-3.6896
 31
0
  0
LINE
  5
C33
330
A02
100
AcDbEntity
  8
Shape2DView
100
AcDbLine
 10
-15.7
 20
-3.38568
 30
0
 11
-15.7
 21
-3.6896
 31
0
  0
LINE
  5
C34
330
A02
100
AcDbEntity
  8
Shape2DView
100
AcDbLine
 10
-24.025
 20
-0.035677
 30
0
 11
-24.025
 21
-0.835677
 31
0
  0
LINE
  5
C35
330
A02
100
AcDbEntity
  8
Shape2DView
100
AcDbLine
 10
-24.025
 20
-0.035677
 30
0
 11
-24.025
 21
0.214323
 31
0
  0
LINE
  5
C36
330
A02
100
AcDbEntity
  8
Shape2DView
100
AcDbLine
 10
-10.65
 20
-0.835677
 30
0
 11
-10.65
 21
-0.035677
 31
0
  0
LINE
  5
C37
330
A02
100
AcDbEntity
  8
Shape2DView
100
AcDbLine
 10
-10.65
 20
-0.035677
 30
0
 11
-10.65
 21
0.814323
 31
0
  0
LINE
  5
C38
330
A02
100
AcDbEntity
  8
Shape2DView
100
AcDbLine
 10
-9.87504
 20
0.214323
 30
0
 11
-9.87504
 21
-0.035677
 31
0
  0
LINE
  5
C39
330
A02
100
AcDbEntity
  8
Shape2DView
100
AcDbLine
 10
-9.87504
 20
-0.835677
 30
0
 11
-9.87504
 21
-0.035677
 31
0
  0
LINE
  5
C3A
330
A02
100
AcDbEntity
  8
Shape2DView
100
AcDbLine
 10
-23.25
 20
-0.035677
 30
0
 11
-23.25
 21
0.814323
 31
0
  0
LINE
  5
C3B
330
A02
100
AcDbEntity
  8
Shape2DView
100
AcDbLine
 10
-23.25
 20
-0.835677
 30
0
 11
-23.25
 21
-0.035677
 31
0
  0
LINE
  5
C3C
330
A02
100
AcDbEntity
  8
Shape2DView
100
AcDbLine
 10
-24.925
 20
0.214323
 30
0
 11
-24.925
 21
1.61432
 31
0
  0
LINE
  5
C3D
330
A02
100
AcDbEntity
  8
Shape2DView
100
AcDbLine
 10
-24.925
 20
1.61432
 30
0
 11
-20.75
 21
1.61432
 31
0
  0
LINE
  5
C3E
330
A02
100
AcDbEntity
  8
Shape2DView
100
AcDbLine
 10
-13.15
 20
1.61432
 30
0
 11
-20.75
 21
1.61432
 31
0
  0
LINE
  5
C3F
330
A02
100
AcDbEntity
  8
Shape2DView
100
AcDbLine
 10
-13.15
 20
1.61432
 30
0
 11
-8.97504
 21
1.61432
 31
0
  0
LINE
  5
C40
330
A02
100
AcDbEntity
  8
Shape2DView
100
AcDbLine
 10
-8.97504
 20
0.214323
 30
0
 11
-8.97504
 21
1.61432
 31
0
  0
LINE
  5
C41
330
A02
100
AcDbEntity
  8
Shape2DView
100
AcDbLine
 10
-24.025
 20
0.214323
 30
0
 11
-24.925
 21
0.214323
 31
0
  0
LINE
  5
C42
330
A02
100
AcDbEntity
  8
Shape2DView
100
AcDbLine
 10
-24.275
 20
-1.98568
 30
0
 11
-24.275
 21
0.214323
 31
0
  0
LINE
  5
C43
330
A02
100
AcDbEntity
  8
Shape2DView
100
AcDbLine
 10
-9.62504
 20
-1.98568
 30
0
 11
-9.62504
 21
0.214323
 31
0
  0
LINE
  5
C44
330
A02
100
AcDbEntity
  8
Shape2DView
100
AcDbLine
 10
-24.025
 20
-0.035677
 30
0
 11
-23.25
 21
-0.035677
 31
0
  0
LINE
  5
C45
330
A02
100
AcDbEntity
  8
Shape2DView
100
AcDbLine
 10
-20.75
 20
0.814323
 30
0
 11
-23.25
 21
0.814323
 31
0
  0
LINE
  5
C46
330
A02
100
AcDbEntity
  8
Shape2DView
100
AcDbLine
 10
-20.75
 20
1.61432
 30
0
 11
-20.75
 21
0.814323
 31
0
  0
LINE
  5
C47
330
A02
100
AcDbEntity
  8
Shape2DView
100
AcDbLine
 10
-10.65
 20
-1.43568
 30
0
 11
-23.25
 21
-1.43568
 31
0
  0
LINE
  5
C48
330
A02
100
AcDbEntity
  8
Shape2DView
100
AcDbLine
 10
-10.65
 20
-0.035677
 30
0
 11
-9.87504
 21
-0.035677
 31
0
  0
LINE
  5
C49
330
A02
100
AcDbEntity
  8
Shape2DView
100
AcDbLine
 10
-10.65
 20
-0.835677
 30
0
 11
-23.25
 21
-0.835677
 31
0
  0
LINE
  5
C4A
330
A02
100
AcDbEntity
  8
Shape2DView
100
AcDbLine
 10
-13.15
 20
0.814323
 30
0
 11
-20.75
 21
0.814323
 31
0
  0
LINE
  5
C4B
330
A02
100
AcDbEntity
  8
Shape2DView
100
AcDbLine
 10
-10.65
 20
0.814323
 30
0
 11
-13.15
 21
0.814323
 31
0
  0
LINE
  5
C4C
330
A02
100
AcDbEntity
  8
Shape2DView
100
AcDbLine
 10
-13.15
 20
0.814323
 30
0
 11
-13.15
 21
1.61432
 31
0
  0
LINE
  5
C4D
330
A02
100
AcDbEntity
  8
Shape2DView
100
AcDbLine
 10
-8.97504
 20
0.214323
 30
0
 11
-9.87504
 21
0.214323
 31
0
  0
LINE
  5
C4E
330
A02
100
AcDbEntity
  8
Shape2DView
100
AcDbLine
 10
-24.875
 20
-1.98568
 30
0
 11
-24.875
 21
0.214323
 31
0
  0
LINE
  5
C4F
330
A02
100
AcDbEntity
  8
Shape2DView
100
AcDbLine
 10
-9.02504
 20
-1.98568
 30
0
 11
-9.02504
 21
0.214323
 31
0
  0
LINE
  5
C50
330
A02
100
AcDbEntity
  8
Shape2DView
100
AcDbLine
 10
-22.2
 20
-0.035677
 30
0
 11
-22.2
 21
-0.535677
 31
0
  0
LINE
  5
C51
330
A02
100
AcDbEntity
  8
Shape2DView
100
AcDbLine
 10
-22.2
 20
-0.535677
 30
0
 11
-21.7
 21
-0.535677
 31
0
  0
LINE
  5
C52
330
A02
100
AcDbEntity
  8
Shape2DView
100
AcDbLine
 10
-13.7
 20
-0.035677
 30
0
 11
-14.2
 21
-0.035677
 31
0
  0
LINE
  5
C53
330
A02
100
AcDbEntity
  8
Shape2DView
100
AcDbLine
 10
-20.2
 20
-0.535677
 30
0
 11
-19.7
 21
-0.535677
 31
0
  0
LINE
  5
C54
330
A02
100
AcDbEntity
  8
Shape2DView
100
AcDbLine
 10
-17.7
 20
-0.035677
 30
0
 11
-18.2
 21
-0.035677
 31
0
  0
LINE
  5
C55
330
A02
100
AcDbEntity
  8
Shape2DView
100
AcDbLine
 10
-16.2
 20
-0.535677
 30
0
 11
-15.7
 21
-0.535677
 31
0
  0
LINE
  5
C56
330
A02
100
AcDbEntity
  8
Shape2DView
100
AcDbLine
 10
-11.7
 20
-0.535677
 30
0
 11
-11.7
 21
-0.035677
 31
0
  0
LINE
  5
C57
330
A02
100
AcDbEntity
  8
Shape2DView
100
AcDbLine
 10
-18.2
 20
-0.035677
 30
0
 11
-18.2
 21
-0.535677
 31
0
  0
LINE
  5
C58
330
A02
100
AcDbEntity
  8
Shape2DView
100
AcDbLine
 10
-13.7
 20
-0.535677
 30
0
 11
-13.7
 21
-0.035677
 31
0
  0
LINE
  5
C59
330
A02
100
AcDbEntity
  8
Shape2DView
100
AcDbLine
 10
-21.7
 20
-0.035677
 30
0
 11
-22.2
 21
-0.035677
 31
0
  0
LINE
  5
C5A
330
A02
100
AcDbEntity
  8
Shape2DView
100
AcDbLine
 10
-19.7
 20
-0.035677
 30
0
 11
-20.2
 21
-0.035677
 31
0
  0
LINE
  5
C5B
330
A02
100
AcDbEntity
  8
Shape2DView
100
AcDbLine
 10
-12.2
 20
-0.535677
 30
0
 11
-11.7
 21
-0.535677
 31
0
  0
LINE
  5
C5C
330
A02
100
AcDbEntity
  8
Shape2DView
100
AcDbLine
 10
-14.2
 20
-0.035677
 30
0
 11
-14.2
 21
-0.535677
 31
0
  0
LINE
  5
C5D
330
A02
100
AcDbEntity
  8
Shape2DView
100
AcDbLine
 10
-19.7
 20
-0.535677
 30
0
 11
-19.7
 21
-0.035677
 31
0
  0
LINE
  5
C5E
330
A02
100
AcDbEntity
  8
Shape2DView
100
AcDbLine
 10
-15.7
 20
-0.535677
 30
0
 11
-15.7
 21
-0.035677
 31
0
  0
LINE
  5
C5F
330
A02
100
AcDbEntity
  8
Shape2DView
100
AcDbLine
 10
-11.7
 20
-0.035677
 30
0
 11
-12.2
 21
-0.035677
 31
0
  0
LINE
  5
C60
330
A02
100
AcDbEntity
  8
Shape2DView
100
AcDbLine
 10
-20.2
 20
-0.035677
 30
0
 11
-20.2
 21
-0.535677
 31
0
  0
LINE
  5
C61
330
A02
100
AcDbEntity
  8
Shape2DView
100
AcDbLine
 10
-17.7
 20
-0.535677
 30
0
 11
-17.7
 21
-0.035677
 31
0
  0
LINE
  5
C62
330
A02
100
AcDbEntity
  8
Shape2DView
100
AcDbLine
 10
-16.2
 20
-0.035677
 30
0
 11
-16.2
 21
-0.535677
 31
0
  0
LINE
  5
C63
330
A02
100
AcDbEntity
  8
Shape2DView
100
AcDbLine
 10
-14.2
 20
-0.535677
 30
0
 11
-13.7
 21
-0.535677
 31
0
  0
LINE
  5
C64
330
A02
100
AcDbEntity
  8
Shape2DView
100
AcDbLine
 10
-12.2
 20
-0.035677
 30
0
 11
-12.2
 21
-0.535677
 31
0
  0
LINE
  5
C65
330
A02
100
AcDbEntity
  8
Shape2DView
100
AcDbLine
 10
-21.7
 20
-0.535677
 30
0
 11
-21.7
 21
-0.035677
 31
0
  0
LINE
  5
C66
330
A02
100
AcDbEntity
  8
Shape2DView
100
AcDbLine
 10
-18.2
 20
-0.535677
 30
0
 11
-17.7
 21
-0.535677
 31
0
  0
LINE
  5
C67
330
A02
100
AcDbEntity
  8
Shape2DView
100
AcDbLine
 10
-15.7
 20
-0.035677
 30
0
 11
-16.2
 21
-0.035677
 31
0
  0
LINE
  5
C68
330
A02
100
AcDbEntity
  8
Shape2DView
100
AcDbLine
 10
22.175
 20
-11.3857
 30
0
 11
22.175
 21
-11.7146
 31
0
  0
LINE
  5
C69
330
A02
100
AcDbEntity
  8
Shape2DView
100
AcDbLine
 10
21.675
 20
-11.3857
 30
0
 11
21.675
 21
-11.7146
 31
0
  0
LINE
  5
C6A
330
A02
100
AcDbEntity
  8
Shape2DView
100
AcDbLine
 10
8.94996
 20
-11.3857
 30
0
 11
24.9
 21
-11.3857
 31
0
  0
LINE
  5
C6B
330
A02
100
AcDbEntity
  8
Shape2DView
100
AcDbLine
 10
17.675
 20
-11.3857
 30
0
 11
17.675
 21
-11.7146
 31
0
  0
LINE
  5
C6C
330
A02
100
AcDbEntity
  8
Shape2DView
100
AcDbLine
 10
8.94996
 20
-11.3857
 30
0
 11
8.94996
 21
-9.98568
 31
0
  0
LINE
  5
C6D
330
A02
100
AcDbEntity
  8
Shape2DView
100
AcDbLine
 10
24.9
 20
-11.3857
 30
0
 11
24.9
 21
-9.98568
 31
0
  0
LINE
  5
C6E
330
A02
100
AcDbEntity
  8
Shape2DView
100
AcDbLine
 10
24
 20
-9.98568
 30
0
 11
24.9
 21
-9.98568
 31
0
  0
LINE
  5
C6F
330
A02
100
AcDbEntity
  8
Shape2DView
100
AcDbLine
 10
24
 20
-8.83568
 30
0
 11
24
 21
-9.98568
 31
0
  0
LINE
  5
C70
330
A02
100
AcDbEntity
  8
Shape2DView
100
AcDbLine
 10
23.225
 20
-8.83568
 30
0
 11
24
 21
-8.83568
 31
0
  0
LINE
  5
C71
330
A02
100
AcDbEntity
  8
Shape2DView
100
AcDbLine
 10
23.225
 20
-10.6857
 30
0
 11
23.225
 21
-8.83568
 31
0
  0
LINE
  5
C72
330
A02
100
AcDbEntity
  8
Shape2DView
100
AcDbLine
 10
23.225
 20
-10.6857
 30
0
 11
10.625
 21
-10.6857
 31
0
  0
LINE
  5
C73
330
A02
100
AcDbEntity
  8
Shape2DView
100
AcDbLine
 10
10.625
 20
-10.6857
 30
0
 11
10.625
 21
-8.83568
 31
0
  0
LINE
  5
C74
330
A02
100
AcDbEntity
  8
Shape2DView
100
AcDbLine
 10
9.84996
 20
-8.83568
 30
0
 11
10.625
 21
-8.83568
 31
0
  0
LINE
  5
C75
330
A02
100
AcDbEntity
  8
Shape2DView
100
AcDbLine
 10
9.84996
 20
-9.98568
 30
0
 11
9.84996
 21
-8.83568
 31
0
  0
LINE
  5
C76
330
A02
100
AcDbEntity
  8
Shape2DView
100
AcDbLine
 10
8.94996
 20
-9.98568
 30
0
 11
9.84996
 21
-9.98568
 31
0
  0
LINE
  5
C77
330
A02
100
AcDbEntity
  8
Shape2DView
100
AcDbLine
 10
14.175
 20
-11.3857
 30
0
 11
14.175
 21
-11.7146
 31
0
  0
LINE
  5
C78
330
A02
100
AcDbEntity
  8
Shape2DView
100
AcDbLine
 10
13.675
 20
-11.3857
 30
0
 11
13.675
 21
-11.7146
 31
0
  0
LINE
  5
C79
330
A02
100
AcDbEntity
  8
Shape2DView
100
AcDbLine
 10
15.675
 20
-11.3857
 30
0
 11
15.675
 21
-11.7146
 31
0
  0
LINE
  5
C7A
330
A02
100
AcDbEntity
  8
Shape2DView
100
AcDbLine
 10
19.675
 20
-11.3857
 30
0
 11
19.675
 21
-11.7146
 31
0
  0
LINE
  5
C7B
330
A02
100
AcDbEntity
  8
Shape2DView
100
AcDbLine
 10
12.175
 20
-11.3857
 30
0
 11
12.175
 21
-11.7146
 31
0
  0
LINE
  5
C7C
330
A02
100
AcDbEntity
  8
Shape2DView
100
AcDbLine
 10
20.175
 20
-11.3857
 30
0
 11
20.175
 21
-11.7146
 31
0
  0
LINE
  5
C7D
330
A02
100
AcDbEntity
  8
Shape2DView
100
AcDbLine
 10
16.175
 20
-11.3857
 30
0
 11
16.175
 21
-11.7146
 31
0
  0
LINE
  5
C7E
330
A02
100
AcDbEntity
  8
Shape2DView
100
AcDbLine
 10
11.675
 20
-11.3857
 30
0
 11
11.675
 21
-11.7146
 31
0
  0
LINE
  5
C7F
330
A02
100
AcDbEntity
  8
Shape2DView
100
AcDbLine
 10
18.175
 20
-11.3857
 30
0
 11
18.175
 21
-11.7146
 31
0
  0
LINE
  5
C80
330
A02
100
AcDbEntity
  8
Shape2DView
100
AcDbLine
 10
9.84996
 20
-8.03568
 30
0
 11
9.84996
 21
-8.83568
 31
0
  0
LINE
  5
C81
330
A02
100
AcDbEntity
  8
Shape2DView
100
AcDbLine
 10
9.84996
 20
-8.03568
 30
0
 11
9.84996
 21
-7.78568
 31
0
  0
LINE
  5
C82
330
A02
100
AcDbEntity
  8
Shape2DView
100
AcDbLine
 10
23.225
 20
-8.83568
 30
0
 11
23.225
 21
-8.03568
 31
0
  0
LINE
  5
C83
330
A02
100
AcDbEntity
  8
Shape2DView
100
AcDbLine
 10
23.225
 20
-8.03568
 30
0
 11
23.225
 21
-7.18568
 31
0
  0
LINE
  5
C84
330
A02
100
AcDbEntity
  8
Shape2DView
100
AcDbLine
 10
24
 20
-7.78568
 30
0
 11
24
 21
-8.03568
 31
0
  0
LINE
  5
C85
330
A02
100
AcDbEntity
  8
Shape2DView
100
AcDbLine
 10
24
 20
-8.83568
 30
0
 11
24
 21
-8.03568
 31
0
  0
LINE
  5
C86
330
A02
100
AcDbEntity
  8
Shape2DView
100
AcDbLine
 10
10.625
 20
-8.03568
 30
0
 11
10.625
 21
-7.18568
 31
0
  0
LINE
  5
C87
330
A02
100
AcDbEntity
  8
Shape2DView
100
AcDbLine
 10
10.625
 20
-8.83568
 30
0
 11
10.625
 21
-8.03568
 31
0
  0
LINE
  5
C88
330
A02
100
AcDbEntity
  8
Shape2DView
100
AcDbLine
 10
8.94996
 20
-7.78568
 30
0
 11
8.94996
 21
-6.38568
 31
0
  0
LINE
  5
C89
330
A02
100
AcDbEntity
  8
Shape2DView
100
AcDbLine
 10
8.94996
 20
-6.38568
 30
0
 11
13.125
 21
-6.38568
 31
0
  0
LINE
  5
C8A
330
A02
100
AcDbEntity
  8
Shape2DView
100
AcDbLine
 10
20.725
 20
-6.38568
 30
0
 11
13.125
 21
-6.38568
 31
0
  0
LINE
  5
C8B
330
A02
100
AcDbEntity
  8
Shape2DView
100
AcDbLine
 10
20.725
 20
-6.38568
 30
0
 11
24.9
 21
-6.38568
 31
0
  0
LINE
  5
C8C
330
A02
100
AcDbEntity
  8
Shape2DView
100
AcDbLine
 10
24.9
 20
-7.78568
 30
0
 11
24.9
 21
-6.38568
 31
0
  0
LINE
  5
C8D
330
A02
100
AcDbEntity
  8
Shape2DView
100
AcDbLine
 10
9.84996
 20
-7.78568
 30
0
 11
8.94996
 21
-7.78568
 31
0
  0
LINE
  5
C8E
330
A02
100
AcDbEntity
  8
Shape2DView
100
AcDbLine
 10
9.59996
 20
-9.98568
 30
0
 11
9.59996
 21
-7.78568
 31
0
  0
LINE
  5
C8F
330
A02
100
AcDbEntity
  8
Shape2DView
100
AcDbLine
 10
24.25
 20
-9.98568
 30
0
 11
24.25
 21
-7.78568
 31
0
  0
LINE
  5
C90
330
A02
100
AcDbEntity
  8
Shape2DView
100
AcDbLine
 10
9.84996
 20
-8.03568
 30
0
 11
10.625
 21
-8.03568
 31
0
  0
LINE
  5
C91
330
A02
100
AcDbEntity
  8
Shape2DView
100
AcDbLine
 10
13.125
 20
-7.18568
 30
0
 11
10.625
 21
-7.18568
 31
0
  0
LINE
  5
C92
330
A02
100
AcDbEntity
  8
Shape2DView
100
AcDbLine
 10
13.125
 20
-6.38568
 30
0
 11
13.125
 21
-7.18568
 31
0
  0
LINE
  5
C93
330
A02
100
AcDbEntity
  8
Shape2DView
100
AcDbLine
 10
23.225
 20
-9.43568
 30
0
 11
10.625
 21
-9.43568
 31
0
  0
LINE
  5
C94
330
A02
100
AcDbEntity
  8
Shape2DView
100
AcDbLine
 10
23.225
 20
-8.03568
 30
0
 11
24
 21
-8.03568
 31
0
  0
LINE
  5
C95
330
A02
100
AcDbEntity
  8
Shape2DView
100
AcDbLine
 10
23.225
 20
-8.83568
 30
0
 11
10.625
 21
-8.83568
 31
0
  0
LINE
  5
C96
330
A02
100
AcDbEntity
  8
Shape2DView
100
AcDbLine
 10
20.725
 20
-7.18568
 30
0
 11
13.125
 21
-7.18568
 31
0
  0
LINE
  5
C97
330
A02
100
AcDbEntity
  8
Shape2DView
100
AcDbLine
 10
23.225
 20
-7.18568
 30
0
 11
20.725
 21
-7.18568
 31
0
  0
LINE
  5
C98
330
A02
100
AcDbEntity
  8
Shape2DView
100
AcDbLine
 10
20.725
 20
-7.18568
 30
0
 11
20.725
 21
-6.38568
 31
0
  0
LINE
  5
C99
330
A02
100
AcDbEntity
  8
Shape2DView
100
AcDbLine
 10
24.9
 20
-7.78568
 30
0
 11
24
 21
-7.78568
 31
0
  0
LINE
  5
C9A
330
A02
100
AcDbEntity
  8
Shape2DView
100
AcDbLine
 10
8.99996
 20
-9.98568
 30
0
 11
8.99996
 21
-7.78568
 31
0
  0
LINE
  5
C9B
330
A02
100
AcDbEntity
  8
Shape2DView
100
AcDbLine
 10
24.85
 20
-9.98568
 30
0
 11
24.85
 21
-7.78568
 31
0
  0
LINE
  5
C9C
330
A02
100
AcDbEntity
  8
Shape2DView
100
AcDbLine
 10
11.675
 20
-8.03568
 30
0
 11
11.675
 21
-8.53568
 31
0
  0
LINE
  5
C9D
330
A02
100
AcDbEntity
  8
Shape2DView
100
AcDbLine
 10
11.675
 20
-8.53568
 30
0
 11
12.175
 21
-8.53568
 31
0
  0
LINE
  5
C9E
330
A02
100
AcDbEntity
  8
Shape2DView
100
AcDbLine
 10
20.175
 20
-8.03568
 30
0
 11
19.675
 21
-8.03568
 31
0
  0
LINE
  5
C9F
330
A02
100
AcDbEntity
  8
Shape2DView
100
AcDbLine
 10
13.675
 20
-8.53568
 30
0
 11
14.175
 21
-8.53568
 31
0
  0
LINE
  5
CA0
330
A02
100
AcDbEntity
  8
Shape2DView
100
AcDbLine
 10
16.175
 20
-8.03568
 30
0
 11
15.675
 21
-8.03568
 31
0
  0
LINE
  5
CA1
330
A02
100
AcDbEntity
  8
Shape2DView
100
AcDbLine
 10
17.675
 20
-8.53568
 30
0
 11
18.175
 21
-8.53568
 31
0
  0
LINE
  5
CA2
330
A02
100
AcDbEntity
  8
Shape2DView
100
AcDbLine
 10
22.175
 20
-8.53568
 30
0
 11
22.175
 21
-8.03568
 31
0
  0
LINE
  5
CA3
330
A02
100
AcDbEntity
  8
Shape2DView
100
AcDbLine
 10
15.675
 20
-8.03568
 30
0
 11
15.675
 21
-8.53568
 31
0
  0
LINE
  5
CA4
330
A02
100
AcDbEntity
  8
Shape2DView
100
AcDbLine
 10
20.175
 20
-8.53568
 30
0
 11
20.175
 21
-8.03568
 31
0
  0
LINE
  5
CA5
330
A02
100
AcDbEntity
  8
Shape2DView
100
AcDbLine
 10
12.175
 20
-8.03568
 30
0
 11
11.675
 21
-8.03568
 31
0
  0
LINE
  5
CA6
330
A02
100
AcDbEntity
  8
Shape2DView
100
AcDbLine
 10
14.175
 20
-8.03568
 30
0
 11
13.675
 21
-8.03568
 31
0
  0
LINE
  5
CA7
330
A02
100
AcDbEntity
  8
Shape2DView
100
AcDbLine
 10
21.675
 20
-8.53568
 30
0
 11
22.175
 21
-8.53568
 31
0
  0
LINE
  5
CA8
330
A02
100
AcDbEntity
  8
Shape2DView
100
AcDbLine
 10
19.675
 20
-8.03568
 30
0
 11
19.675
 21
-8.53568
 31
0
  0
LINE
  5
CA9
330
A02
100
AcDbEntity
  8
Shape2DView
100
AcDbLine
 10
14.175
 20
-8.53568
 30
0
 11
14.175
 21
-8.03568
 31
0
  0
LINE
  5
CAA
330
A02
100
AcDbEntity
  8
Shape2DView
100
AcDbLine
 10
18.175
 20
-8.53568
 30
0
 11
18.175
 21
-8.03568
 31
0
  0
LINE
  5
CAB
330
A02
100
AcDbEntity
  8
Shape2DView
100
AcDbLine
 10
22.175
 20
-8.03568
 30
0
 11
21.675
 21
-8.03568
 31
0
  0
LINE
  5
CAC
330
A02
100
AcDbEntity
  8
Shape2DView
100
AcDbLine
 10
13.675
 20
-8.03568
 30
0
 11
13.675
 21
-8.53568
 31
0
  0
LINE
  5
CAD
330
A02
100
AcDbEntity
  8
Shape2DView
100
AcDbLine
 10
16.175
 20
-8.53568
 30
0
 11
16.175
 21
-8.03568
 31
0
  0
LINE
  5
CAE
330
A02
100
AcDbEntity
  8
Shape2DView
100
AcDbLine
 10
17.675
 20
-8.03568
 30
0
 11
17.675
 21
-8.53568
 31
0
  0
LINE
  5
CAF
330
A02
100
AcDbEntity
  8
Shape2DView
100
AcDbLine
 10
19.675
 20
-8.53568
 30
0
 11
20.175
 21
-8.53568
 31
0
  0
LINE
  5
CB0
330
A02
100
AcDbEntity
  8
Shape2DView
100
AcDbLine
 10
21.675
 20
-8.03568
 30
0
 11
21.675
 21
-8.53568
 31
0
  0
LINE
  5
CB1
330
A02
100
AcDbEntity
  8
Shape2DView
100
AcDbLine
 10
12.175
 20
-8.53568
 30
0
 11
12.175
 21
-8.03568
 31
0
  0
LINE
  5
CB2
330
A02
100
AcDbEntity
  8
Shape2DView
100
AcDbLine
 10
15.675
 20
-8.53568
 30
0
 11
16.175
 21
-8.53568
 31
0
  0
LINE
  5
CB3
330
A02
100
AcDbEntity
  8
Shape2DView
100
AcDbLine
 10
18.175
 20
-8.03568
 30
0
 11
17.675
 21
-8.03568
 31
0
  0
LINE
  5
CB4
330
A02
100
AcDbEntity
  8
Shape2DView
100
AcDbLine
 10
-28.675
 20
-11.4107
 30
0
 11
-28.675
 21
-11.7146
 31
0
  0
LINE
  5
CB5
330
A02
100
AcDbEntity
  8
Shape2DView
100
AcDbLine
 10
-29.175
 20
-11.4107
 30
0
 11
-29.175
 21
-11.7146
 31
0
  0
LINE
  5
CB6
330
A02
100
AcDbEntity
  8
Shape2DView
100
AcDbLine
 10
-41.9
 20
-11.4107
 30
0
 11
-25.95
 21
-11.4107
 31
0
  0
LINE
  5
CB7
330
A02
100
AcDbEntity
  8
Shape2DView
100
AcDbLine
 10
-33.175
 20
-11.4107
 30
0
 11
-33.175
 21
-11.7146
 31
0
  0
LINE
  5
CB8
330
A02
100
AcDbEntity
  8
Shape2DView
100
AcDbLine
 10
-41.9
 20
-11.4107
 30
0
 11
-41.9
 21
-10.0107
 31
0
  0
LINE
  5
CB9
330
A02
100
AcDbEntity
  8
Shape2DView
100
AcDbLine
 10
-25.95
 20
-11.4107
 30
0
 11
-25.95
 21
-10.0107
 31
0
  0
LINE
  5
CBA
330
A02
100
AcDbEntity
  8
Shape2DView
100
AcDbLine
 10
-26.85
 20
-10.0107
 30
0
 11
-25.95
 21
-10.0107
 31
0
  0
LINE
  5
CBB
330
A02
100
AcDbEntity
  8
Shape2DView
100
AcDbLine
 10
-26.85
 20
-8.86068
 30
0
 11
-26.85
 21
-10.0107
 31
0
  0
LINE
  5
CBC
330
A02
100
AcDbEntity
  8
Shape2DView
100
AcDbLine
 10
-27.625
 20
-8.86068
 30
0
 11
-26.85
 21
-8.86068
 31
0
  0
LINE
  5
CBD
330
A02
100
AcDbEntity
  8
Shape2DView
100
AcDbLine
 10
-27.625
 20
-10.7107
 30
0
 11
-27.625
 21
-8.86068
 31
0
  0
LINE
  5
CBE
330
A02
100
AcDbEntity
  8
Shape2DView
100
AcDbLine
 10
-27.625
 20
-10.7107
 30
0
 11
-40.225
 21
-10.7107
 31
0
  0
LINE
  5
CBF
330
A02
100
AcDbEntity
  8
Shape2DView
100
AcDbLine
 10
-40.225
 20
-10.7107
 30
0
 11
-40.225
 21
-8.86068
 31
0
  0
LINE
  5
CC0
330
A02
100
AcDbEntity
  8
Shape2DView
100
AcDbLine
 10
-41
 20
-8.86068
 30
0
 11
-40.225
 21
-8.86068
 31
0
  0
LINE
  5
CC1
330
A02
100
AcDbEntity
  8
Shape2DView
100
AcDbLine
 10
-41
 20
-10.0107
 30
0
 11
-41
 21
-8.86068
 31
0
  0
LINE
  5
CC2
330
A02
100
AcDbEntity
  8
Shape2DView
100
AcDbLine
 10
-41.9
 20
-10.0107
 30
0
 11
-41
 21
-10.0107
 31
0
  0
LINE
  5
CC3
330
A02
100
AcDbEntity
  8
Shape2DView
100
AcDbLine
 10
-36.675
 20
-11.4107
 30
0
 11
-36.675
 21
-11.7146
 31
0
  0
LINE
  5
CC4
330
A02
100
AcDbEntity
  8
Shape2DView
100
AcDbLine
 10
-37.175
 20
-11.4107
 30
0
 11
-37.175
 21
-11.7146
 31
0
  0
LINE
  5
CC5
330
A02
100
AcDbEntity
  8
Shape2DView
100
AcDbLine
 10
-35.175
 20
-11.4107
 30
0
 11
-35.175
 21
-11.7146
 31
0
  0
LINE
  5
CC6
330
A02
100
AcDbEntity
  8
Shape2DView
100
AcDbLine
 10
-31.175
 20
-11.4107
 30
0
 11
-31.175
 21
-11.7146
 31
0
  0
LINE
  5
CC7
330
A02
100
AcDbEntity
  8
Shape2DView
100
AcDbLine
 10
-38.675
 20
-11.4107
 30
0
 11
-38.675
 21
-11.7146
 31
0
  0
LINE
  5
CC8
330
A02
100
AcDbEntity
  8
Shape2DView
100
AcDbLine
 10
-30.675
 20
-11.4107
 30
0
 11
-30.675
 21
-11.7146
 31
0
  0
LINE
  5
CC9
330
A02
100
AcDbEntity
  8
Shape2DView
100
AcDbLine
 10
-34.675
 20
-11.4107
 30
0
 11
-34.675
 21
-11.7146
 31
0
  0
LINE
  5
CCA
330
A02
100
AcDbEntity
  8
Shape2DView
100
AcDbLine
 10
-39.175
 20
-11.4107
 30
0
 11
-39.175
 21
-11.7146
 31
0
  0
LINE
  5
CCB
330
A02
100
AcDbEntity
  8
Shape2DView
100
AcDbLine
 10
-32.675
 20
-11.4107
 30
0
 11
-32.675
 21
-11.7146
 31
0
  0
LINE
  5
CCC
330
A02
100
AcDbEntity
  8
Shape2DView
100
AcDbLine
 10
-41
 20
-8.06068
 30
0
 11
-41
 21
-8.86068
 31
0
  0
LINE
  5
CCD
330
A02
100
AcDbEntity
  8
Shape2DView
100
AcDbLine
 10
-41
 20
-8.06068
 30
0
 11
-41
 21
-7.81068
 31
0
  0
LINE
  5
CCE
330
A02
100
AcDbEntity
  8
Shape2DView
100
AcDbLine
 10
-27.625
 20
-8.86068
 30
0
 11
-27.625
 21
-8.06068
 31
0
  0
LINE
  5
CCF
330
A02
100
AcDbEntity
  8
Shape2DView
100
AcDbLine
 10
-27.625
 20
-8.06068
 30
0
 11
-27.625
 21
-7.21068
 31
0
  0
LINE
  5
CD0
330
A02
100
AcDbEntity
  8
Shape2DView
100
AcDbLine
 10
-26.85
 20
-7.81068
 30
0
 11
-26.85
 21
-8.06068
 31
0
  0
LINE
  5
CD1
330
A02
100
AcDbEntity
  8
Shape2DView
100
AcDbLine
 10
-26.85
 20
-8.86068
 30
0
 11
-26.85
 21
-8.06068
 31
0
  0
LINE
  5
CD2
330
A02
100
AcDbEntity
  8
Shape2DView
100
AcDbLine
 10
-40.225
 20
-8.06068
 30
0
 11
-40.225
 21
-7.21068
 31
0
  0
LINE
  5
CD3
330
A02
100
AcDbEntity
  8
Shape2DView
100
AcDbLine
 10
-40.225
 20
-8.86068
 30
0
 11
-40.225
 21
-8.06068
 31
0
  0
LINE
  5
CD4
330
A02
100
AcDbEntity
  8
Shape2DView
100
AcDbLine
 10
-41.9
 20
-7.81068
 30
0
 11
-41.9
 21
-6.41068
 31
0
  0
LINE
  5
CD5
330
A02
100
AcDbEntity
  8
Shape2DView
100
AcDbLine
 10
-41.9
 20
-6.41068
 30
0
 11
-37.725
 21
-6.41068
 31
0
  0
LINE
  5
CD6
330
A02
100
AcDbEntity
  8
Shape2DView
100
AcDbLine
 10
-30.125
 20
-6.41068
 30
0
 11
-37.725
 21
-6.41068
 31
0
  0
LINE
  5
CD7
330
A02
100
AcDbEntity
  8
Shape2DView
100
AcDbLine
 10
-30.125
 20
-6.41068
 30
0
 11
-25.95
 21
-6.41068
 31
0
  0
LINE
  5
CD8
330
A02
100
AcDbEntity
  8
Shape2DView
100
AcDbLine
 10
-25.95
 20
-7.81068
 30
0
 11
-25.95
 21
-6.41068
 31
0
  0
LINE
  5
CD9
330
A02
100
AcDbEntity
  8
Shape2DView
100
AcDbLine
 10
-41
 20
-7.81068
 30
0
 11
-41.9
 21
-7.81068
 31
0
  0
LINE
  5
CDA
330
A02
100
AcDbEntity
  8
Shape2DView
100
AcDbLine
 10
-41.25
 20
-10.0107
 30
0
 11
-41.25
 21
-7.81068
 31
0
  0
LINE
  5
CDB
330
A02
100
AcDbEntity
  8
Shape2DView
100
AcDbLine
 10
-26.6
 20
-10.0107
 30
0
 11
-26.6
 21
-7.81068
 31
0
  0
LINE
  5
CDC
330
A02
100
AcDbEntity
  8
Shape2DView
100
AcDbLine
 10
-41
 20
-8.06068
 30
0
 11
-40.225
 21
-8.06068
 31
0
  0
LINE
  5
CDD
330
A02
100
AcDbEntity
  8
Shape2DView
100
AcDbLine
 10
-37.725
 20
-7.21068
 30
0
 11
-40.225
 21
-7.21068
 31
0
  0
LINE
  5
CDE
330
A02
100
AcDbEntity
  8
Shape2DView
100
AcDbLine
 10
-37.725
 20
-6.41068
 30
0
 11
-37.725
 21
-7.21068
 31
0
  0
LINE
  5
CDF
330
A02
100
AcDbEntity
  8
Shape2DView
100
AcDbLine
 10
-27.625
 20
-9.46068
 30
0
 11
-40.225
 21
-9.46068
 31
0
  0
LINE
  5
CE0
330
A02
100
AcDbEntity
  8
Shape2DView
100
AcDbLine
 10
-27.625
 20
-8.06068
 30
0
 11
-26.85
 21
-8.06068
 31
0
  0
LINE
  5
CE1
330
A02
100
AcDbEntity
  8
Shape2DView
100
AcDbLine
 10
-27.625
 20
-8.86068
 30
0
 11
-40.225
 21
-8.86068
 31
0
  0
LINE
  5
CE2
330
A02
100
AcDbEntity
  8
Shape2DView
100
AcDbLine
 10
-30.125
 20
-7.21068
 30
0
 11
-37.725
 21
-7.21068
 31
0
  0
LINE
  5
CE3
330
A02
100
AcDbEntity
  8
Shape2DView
100
AcDbLine
 10
-27.625
 20
-7.21068
 30
0
 11
-30.125
 21
-7.21068
 31
0
  0
LINE
  5
CE4
330
A02
100
AcDbEntity
  8
Shape2DView
100
AcDbLine
 10
-30.125
 20
-7.21068
 30
0
 11
-30.125
 21
-6.41068
 31
0
  0
LINE
  5
CE5
330
A02
100
AcDbEntity
  8
Shape2DView
100
AcDbLine
 10
-25.95
 20
-7.81068
 30
0
 11
-26.85
 21
-7.81068
 31
0
  0
LINE
  5
CE6
330
A02
100
AcDbEntity
  8
Shape2DView
100
AcDbLine
 10
-41.85
 20
-10.0107
 30
0
 11
-41.85
 21
-7.81068
 31
0
  0
LINE
  5
CE7
330
A02
100
AcDbEntity
  8
Shape2DView
100
AcDbLine
 10
-26
 20
-10.0107
 30
0
 11
-26
 21
-7.81068
 31
0
  0
LINE
  5
CE8
330
A02
100
AcDbEntity
  8
Shape2DView
100
AcDbLine
 10
-39.175
 20
-8.06068
 30
0
 11
-39.175
 21
-8.56068
 31
0
  0
LINE
  5
CE9
330
A02
100
AcDbEntity
  8
Shape2DView
100
AcDbLine
 10
-39.175
 20
-8.56068
 30
0
 11
-38.675
 21
-8.56068
 31
0
  0
LINE
  5
CEA
330
A02
100
AcDbEntity
  8
Shape2DView
100
AcDbLine
 10
-30.675
 20
-8.06068
 30
0
 11
-31.175
 21
-8.06068
 31
0
  0
LINE
  5
CEB
330
A02
100
AcDbEntity
  8
Shape2DView
100
AcDbLine
 10
-37.175
 20
-8.56068
 30
0
 11
-36.675
 21
-8.56068
 31
0
  0
LINE
  5
CEC
330
A02
100
AcDbEntity
  8
Shape2DView
100
AcDbLine
 10
-34.675
 20
-8.06068
 30
0
 11
-35.175
 21
-8.06068
 31
0
  0
LINE
  5
CED
330
A02
100
AcDbEntity
  8
Shape2DView
100
AcDbLine
 10
-33.175
 20
-8.56068
 30
0
 11
-32.675
 21
-8.56068
 31
0
  0
LINE
  5
CEE
330
A02
100
AcDbEntity
  8
Shape2DView
100
AcDbLine
 10
-28.675
 20
-8.56068
 30
0
 11
-28.675
 21
-8.06068
 31
0
  0
LINE
  5
CEF
330
A02
100
AcDbEntity
  8
Shape2DView
100
AcDbLine
 10
-35.175
 20
-8.06068
 30
0
 11
-35.175
 21
-8.56068
 31
0
  0
LINE
  5
CF0
330
A02
100
AcDbEntity
  8
Shape2DView
100
AcDbLine
 10
-30.675
 20
-8.56068
 30
0
 11
-30.675
 21
-8.06068
 31
0
  0
LINE
  5
CF1
330
A02
100
AcDbEntity
  8
Shape2DView
100
AcDbLine
 10
-38.675
 20
-8.06068
 30
0
 11
-39.175
 21
-8.06068
 31
0
  0
LINE
  5
CF2
330
A02
100
AcDbEntity
  8
Shape2DView
100
AcDbLine
 10
-36.675
 20
-8.06068
 30
0
 11
-37.175
 21
-8.06068
 31
0
  0
LINE
  5
CF3
330
A02
100
AcDbEntity
  8
Shape2DView
100
AcDbLine
 10
-29.175
 20
-8.56068
 30
0
 11
-28.675
 21
-8.56068
 31
0
  0
LINE
  5
CF4
330
A02
100
AcDbEntity
  8
Shape2DView
100
AcDbLine
 10
-31.175
 20
-8.06068
 30
0
 11
-31.175
 21
-8.56068
 31
0
  0
LINE
  5
CF5
330
A02
100
AcDbEntity
  8
Shape2DView
100
AcDbLine
 10
-36.675
 20
-8.56068
 30
0
 11
-36.675
 21
-8.06068
 31
0
  0
LINE
  5
CF6
330
A02
100
AcDbEntity
  8
Shape2DView
100
AcDbLine
 10
-32.675
 20
-8.56068
 30
0
 11
-32.675
 21
-8.06068
 31
0
  0
LINE
  5
CF7
330
A02
100
AcDbEntity
  8
Shape2DView
100
AcDbLine
 10
-28.675
 20
-8.06068
 30
0
 11
-29.175
 21
-8.06068
 31
0
  0
LINE
  5
CF8
330
A02
100
AcDbEntity
  8
Shape2DView
100
AcDbLine
 10
-37.175
 20
-8.06068
 30
0
 11
-37.175
 21
-8.56068
 31
0
  0
LINE
  5
CF9
330
A02
100
AcDbEntity
  8
Shape2DView
100
AcDbLine
 10
-34.675
 20
-8.56068
 30
0
 11
-34.675
 21
-8.06068
 31
0
  0
LINE
  5
CFA
330
A02
100
AcDbEntity
  8
Shape2DView
100
AcDbLine
 10
-33.175
 20
-8.06068
 30
0
 11
-33.175
 21
-8.56068
 31
0
  0
LINE
  5
CFB
330
A02
100
AcDbEntity
  8
Shape2DView
100
AcDbLine
 10
-31.175
 20
-8.56068
 30
0
 11
-30.675
 21
-8.56068
 31
0
  0
LINE
  5
CFC
330
A02
100
AcDbEntity
  8
Shape2DView
100
AcDbLine
 10
-29.175
 20
-8.06068
 30
0
 11
-29.175
 21
-8.56068
 31
0
  0
LINE
  5
CFD
330
A02
100
AcDbEntity
  8
Shape2DView
100
AcDbLine
 10
-38.675
 20
-8.56068
 30
0
 11
-38.675
 21
-8.06068
 31
0
  0
LINE
  5
CFE
330
A02
100
AcDbEntity
  8
Shape2DView
100
AcDbLine
 10
-35.175
 20
-8.56068
 30
0
 11
-34.675
 21
-8.56068
 31
0
  0
LINE
  5
CFF
330
A02
100
AcDbEntity
  8
Shape2DView
100
AcDbLine
 10
-32.675
 20
-8.06068
 30
0
 11
-33.175
 21
-8.06068
 31
0
  0
LINE
  5
D00
330
A02
100
AcDbEntity
  8
Shape2DView
100
AcDbLine
 10
32.97
 20
19.8493
 30
0
 11
32.97
 21
19.308
 31
0
  0
LINE
  5
D01
330
A02
100
AcDbEntity
  8
Shape2DView
100
AcDbLine
 10
32.97
 20
19.8493
 30
0
 11
8.86996
 21
19.8493
 31
0
  0
LINE
  5
D02
330
A02
100
AcDbEntity
  8
Shape2DView
100
AcDbLine
 10
8.86996
 20
19.308
 30
0
 11
8.86996
 21
19.8493
 31
0
  0
LINE
  5
D03
330
A02
100
AcDbEntity
  8
Shape2DView
100
AcDbLine
 10
8.46996
 20
19.8493
 30
0
 11
8.86996
 21
19.8493
 31
0
  0
LINE
  5
D04
330
A02
100
AcDbEntity
  8
Shape2DView
100
AcDbLine
 10
33.37
 20
19.8493
 30
0
 11
32.97
 21
19.8493
 31
0
  0
LINE
  5
D05
330
A02
100
AcDbEntity
  8
Shape2DView
100
AcDbLine
 10
8.46996
 20
19.8493
 30
0
 11
8.46996
 21
19.308
 31
0
  0
LINE
  5
D06
330
A02
100
AcDbEntity
  8
Shape2DView
100
AcDbLine
 10
33.37
 20
19.8493
 30
0
 11
33.37
 21
19.308
 31
0
  0
LINE
  5
D07
330
A02
100
AcDbEntity
  8
Shape2DView
100
AcDbLine
 10
-2.97004
 20
9.56432
 30
0
 11
-3.77004
 21
9.56432
 31
0
  0
LINE
  5
D08
330
A02
100
AcDbEntity
  8
Shape2DView
100
AcDbLine
 10
-3.77004
 20
9.56432
 30
0
 11
-3.77004
 21
8.66432
 31
0
  0
LINE
  5
D09
330
A02
100
AcDbEntity
  8
Shape2DView
100
AcDbLine
 10
-2.97004
 20
8.66432
 30
0
 11
-3.77004
 21
8.66432
 31
0
  0
LINE
  5
D0A
330
A02
100
AcDbEntity
  8
Shape2DView
100
AcDbLine
 10
-2.97004
 20
9.56432
 30
0
 11
-2.97004
 21
8.66432
 31
0
  0
LINE
  5
D0B
330
A02
100
AcDbEntity
  8
Shape2DView
100
AcDbLine
 10
-3.77004
 20
9.61432
 30
0
 11
-2.97004
 21
9.61432
 31
0
  0
LINE
  5
D0C
330
A02
100
AcDbEntity
  8
Shape2DView
100
AcDbLine
 10
-3.77004
 20
9.61432
 30
0
 11
-3.77004
 21
9.56432
 31
0
  0
LINE
  5
D0D
330
A02
100
AcDbEntity
  8
Shape2DView
100
AcDbLine
 10
-2.97004
 20
9.61432
 30
0
 11
-2.97004
 21
9.56432
 31
0
  0
LINE
  5
D0E
330
A02
100
AcDbEntity
  8
Shape2DView
100
AcDbLine
 10
-3.77004
 20
8.66432
 30
0
 11
-3.77004
 21
8.61432
 31
0
  0
LINE
  5
D0F
330
A02
100
AcDbEntity
  8
Shape2DView
100
AcDbLine
 10
-3.77004
 20
8.61432
 30
0
 11
-2.97004
 21
8.61432
 31
0
  0
LINE
  5
D10
330
A02
100
AcDbEntity
  8
Shape2DView
100
AcDbLine
 10
-2.97004
 20
8.66432
 30
0
 11
-2.97004
 21
8.61432
 31
0
  0
SPLINE
  5
D11
330
A02
100
AcDbEntity
  8
Shape2DView
100
AcDbSpline
210
0
220
0
230
1
 70
8
 71
2
 72
6
 73
3
 74
0
 40
1.5708
 40
1.5708
 40
1.5708
 40
3.14159
 40
3.14159
 40
3.14159
 10
-2.97004
 20
9.61432
 30
0
 10
-2.97004
 20
9.61704
 30
0
 10
-2.97004
 20
9.64432
 30
0
  0
SPLINE
  5
D12
330
A02
100
AcDbEntity
  8
Shape2DView
100
AcDbSpline
210
0
220
0
230
1
 70
8
 71
2
 72
6
 73
3
 74
0
 40
1.5708
 40
1.5708
 40
1.5708
 40
3.14159
 40
3.14159
 40
3.14159
 10
-3.77004
 20
9.61432
 30
0
 10
-3.77004
 20
9.61704
 30
0
 10
-3.77004
 20
9.64432
 30
0
  0
SPLINE
  5
D13
330
A02
100
AcDbEntity
  8
Shape2DView
100
AcDbSpline
210
0
220
0
230
1
 70
8
 71
2
 72
6
 73
3
 74
0
 40
4.71239
 40
4.71239
 40
4.71239
 40
6.28319
 40
6.28319
 40
6.28319
 10
-3.77004
 20
8.61432
 30
0
 10
-3.77004
 20
8.6116
 30
0
 10
-3.77004
 20
8.58432
 30
0
  0
SPLINE
  5
D14
330
A02
100
AcDbEntity
  8
Shape2DView
100
AcDbSpline
210
0
220
0
230
1
 70
8
 71
2
 72
6
 73
3
 74
0
 40
4.71239
 40
4.71239
 40
4.71239
 40
6.28319
 40
6.28319
 40
6.28319
 10
-2.97004
 20
8.61432
 30
0
 10
-2.97004
 20
8.6116
 30
0
 10
-2.97004
 20
8.58432
 30
0
  0
LINE
  5
D15
330
A02
100
AcDbEntity
  8
Shape2DView
100
AcDbLine
 10
-3.77004
 20
9.88432
 30
0
 11
-3.77004
 21
9.64432
 31
0
  0
SPLINE
  5
D16
330
A02
100
AcDbEntity
  8
Shape2DView
100
AcDbSpline
210
0
220
0
230
1
 70
8
 71
2
 72
6
 73
3
 74
0
 40
4.71239
 40
4.71239
 40
4.71239
 40
6.28319
 40
6.28319
 40
6.28319
 10
-3.77004
 20
9.91432
 30
0
 10
-3.77004
 20
9.9116
 30
0
 10
-3.77004
 20
9.88432
 30
0
  0
LINE
  5
D17
330
A02
100
AcDbEntity
  8
Shape2DView
100
AcDbLine
 10
-2.97004
 20
9.88432
 30
0
 11
-2.97004
 21
9.64432
 31
0
  0
ARC
  5
D18
330
A02
100
AcDbEntity
  8
Shape2DView
100
AcDbCircle
 10
-3.37004
 20
9.97266
 30
0
 40
0.208333
100
AcDbArc
 50
-90
 51
-25.0874
  0
ARC
  5
D19
330
A02
100
AcDbEntity
  8
Shape2DView
100
AcDbCircle
 10
-3.37004
 20
9.97266
 30
0
 40
0.208333
100
AcDbArc
 50
-154.913
 51
-90
  0
SPLINE
  5
D1A
330
A02
100
AcDbEntity
  8
Shape2DView
100
AcDbSpline
210
0
220
0
230
1
 70
8
 71
2
 72
6
 73
3
 74
0
 40
4.71239
 40
4.71239
 40
4.71239
 40
6.28319
 40
6.28319
 40
6.28319
 10
-2.97004
 20
9.91432
 30
0
 10
-2.97004
 20
9.9116
 30
0
 10
-2.97004
 20
9.88432
 30
0
  0
SPLINE
  5
D1B
330
A02
100
AcDbEntity
  8
Shape2DView
100
AcDbSpline
210
0
220
0
230
1
 70
8
 71
2
 72
6
 73
3
 74
0
 40
1.5708
 40
1.5708
 40
1.5708
 40
3.14159
 40
3.14159
 40
3.14159
 10
-3.77004
 20
8.31432
 30
0
 10
-3.77004
 20
8.31704
 30
0
 10
-3.77004
 20
8.34432
 30
0
  0
LINE
  5
D1C
330
A02
100
AcDbEntity
  8
Shape2DView
100
AcDbLine
 10
-3.77004
 20
8.58432
 30
0
 11
-3.77004
 21
8.34432
 31
0
  0
LINE
  5
D1D
330
A02
100
AcDbEntity
  8
Shape2DView
100
AcDbLine
 10
-2.97004
 20
8.58432
 30
0
 11
-2.97004
 21
8.34432
 31
0
  0
ARC
  5
D1E
330
A02
100
AcDbEntity
  8
Shape2DView
100
AcDbCircle
 10
-3.37004
 20
8.25599
 30
0
 40
0.208333
100
AcDbArc
 50
25.0874
 51
154.913
  0
SPLINE
  5
D1F
330
A02
100
AcDbEntity
  8
Shape2DView
100
AcDbSpline
210
0
220
0
230
1
 70
8
 71
2
 72
6
 73
3
 74
0
 40
1.5708
 40
1.5708
 40
1.5708
 40
3.14159
 40
3.14159
 40
3.14159
 10
-2.97004
 20
8.31432
 30
0
 10
-2.97004
 20
8.31704
 30
0
 10
-2.97004
 20
8.34432
 30
0
  0
LINE
  5
D20
330
A02
100
AcDbEntity
  8
Shape2DView
100
AcDbLine
 10
-3.77004
 20
9.91432
 30
0
 11
-3.57004
 21
9.91432
 31
0
  0
SPLINE
  5
D21
330
A02
100
AcDbEntity
  8
Shape2DView
100
AcDbSpline
210
0
220
0
230
1
 70
8
 71
2
 72
6
 73
3
 74
0
 40
0
 40
0
 40
0
 40
1
 40
1
 40
1
 10
-3.57004
 20
9.91432
 30
0
 10
-3.56973
 20
9.91059
 30
0
 10
-3.55872
 20
9.88432
 30
0
  0
SPLINE
  5
D22
330
A02
100
AcDbEntity
  8
Shape2DView
100
AcDbSpline
210
0
220
0
230
1
 70
8
 71
2
 72
6
 73
3
 74
0
 40
0
 40
0
 40
0
 40
1
 40
1
 40
1
 10
-3.17004
 20
9.91432
 30
0
 10
-3.17034
 20
9.91059
 30
0
 10
-3.18136
 20
9.88432
 30
0
  0
LINE
  5
D23
330
A02
100
AcDbEntity
  8
Shape2DView
100
AcDbLine
 10
-3.17004
 20
9.91432
 30
0
 11
-2.97004
 21
9.91432
 31
0
  0
LINE
  5
D24
330
A02
100
AcDbEntity
  8
Shape2DView
100
AcDbLine
 10
-3.77004
 20
8.31432
 30
0
 11
-3.57004
 21
8.31432
 31
0
  0
SPLINE
  5
D25
330
A02
100
AcDbEntity
  8
Shape2DView
100
AcDbSpline
210
0
220
0
230
1
 70
8
 71
2
 72
6
 73
3
 74
0
 40
0
 40
0
 40
0
 40
1
 40
1
 40
1
 10
-3.57004
 20
8.31432
 30
0
 10
-3.56973
 20
8.31805
 30
0
 10
-3.55872
 20
8.34432
 30
0
  0
SPLINE
  5
D26
330
A02
100
AcDbEntity
  8
Shape2DView
100
AcDbSpline
210
0
220
0
230
1
 70
8
 71
2
 72
6
 73
3
 74
0
 40
0
 40
0
 40
0
 40
1
 40
1
 40
1
 10
-3.17004
 20
8.31432
 30
0
 10
-3.17034
 20
8.31805
 30
0
 10
-3.18136
 20
8.34432
 30
0
  0
LINE
  5
D27
330
A02
100
AcDbEntity
  8
Shape2DView
100
AcDbLine
 10
-3.17004
 20
8.31432
 30
0
 11
-2.97004
 21
8.31432
 31
0
  0
LINE
  5
D28
330
A02
100
AcDbEntity
  8
Shape2DView
100
AcDbLine
 10
-15.81
 20
16.9393
 30
0
 11
-16.61
 21
16.9393
 31
0
  0
LINE
  5
D29
330
A02
100
AcDbEntity
  8
Shape2DView
100
AcDbLine
 10
-16.61
 20
16.9393
 30
0
 11
-16.61
 21
16.0393
 31
0
  0
LINE
  5
D2A
330
A02
100
AcDbEntity
  8
Shape2DView
100
AcDbLine
 10
-15.81
 20
16.0393
 30
0
 11
-16.61
 21
16.0393
 31
0
  0
LINE
  5
D2B
330
A02
100
AcDbEntity
  8
Shape2DView
100
AcDbLine
 10
-15.81
 20
16.9393
 30
0
 11
-15.81
 21
16.0393
 31
0
  0
LINE
  5
D2C
330
A02
100
AcDbEntity
  8
Shape2DView
100
AcDbLine
 10
-16.61
 20
16.9893
 30
0
 11
-15.81
 21
16.9893
 31
0
  0
LINE
  5
D2D
330
A02
100
AcDbEntity
  8
Shape2DView
100
AcDbLine
 10
-16.61
 20
16.9893
 30
0
 11
-16.61
 21
16.9393
 31
0
  0
LINE
  5
D2E
330
A02
100
AcDbEntity
  8
Shape2DView
100
AcDbLine
 10
-15.81
 20
16.9893
 30
0
 11
-15.81
 21
16.9393
 31
0
  0
LINE
  5
D2F
330
A02
100
AcDbEntity
  8
Shape2DView
100
AcDbLine
 10
-16.61
 20
16.0393
 30
0
 11
-16.61
 21
15.9893
 31
0
  0
LINE
  5
D30
330
A02
100
AcDbEntity
  8
Shape2DView
100
AcDbLine
 10
-16.61
 20
15.9893
 30
0
 11
-15.81
 21
15.9893
 31
0
  0
LINE
  5
D31
330
A02
100
AcDbEntity
  8
Shape2DView
100
AcDbLine
 10
-15.81
 20
16.0393
 30
0
 11
-15.81
 21
15.9893
 31
0
  0
SPLINE
  5
D32
330
A02
100
AcDbEntity
  8
Shape2DView
100
AcDbSpline
210
0
220
0
230
1
 70
8
 71
2
 72
6
 73
3
 74
0
 40
1.5708
 40
1.5708
 40
1.5708
 40
3.14159
 40
3.14159
 40
3.14159
 10
-15.81
 20
16.9893
 30
0
 10
-15.81
 20
16.992
 30
0
 10
-15.81
 20
17.0193
 30
0
  0
SPLINE
  5
D33
330
A02
100
AcDbEntity
  8
Shape2DView
100
AcDbSpline
210
0
220
0
230
1
 70
8
 71
2
 72
6
 73
3
 74
0
 40
1.5708
 40
1.5708
 40
1.5708
 40
3.14159
 40
3.14159
 40
3.14159
 10
-16.61
 20
16.9893
 30
0
 10
-16.61
 20
16.992
 30
0
 10
-16.61
 20
17.0193
 30
0
  0
SPLINE
  5
D34
330
A02
100
AcDbEntity
  8
Shape2DView
100
AcDbSpline
210
0
220
0
230
1
 70
8
 71
2
 72
6
 73
3
 74
0
 40
4.71239
 40
4.71239
 40
4.71239
 40
6.28319
 40
6.28319
 40
6.28319
 10
-16.61
 20
15.9893
 30
0
 10
-16.61
 20
15.9866
 30
0
 10
-16.61
 20
15.9593
 30
0
  0
SPLINE
  5
D35
330
A02
100
AcDbEntity
  8
Shape2DView
100
AcDbSpline
210
0
220
0
230
1
 70
8
 71
2
 72
6
 73
3
 74
0
 40
4.71239
 40
4.71239
 40
4.71239
 40
6.28319
 40
6.28319
 40
6.28319
 10
-15.81
 20
15.9893
 30
0
 10
-15.81
 20
15.9866
 30
0
 10
-15.81
 20
15.9593
 30
0
  0
LINE
  5
D36
330
A02
100
AcDbEntity
  8
Shape2DView
100
AcDbLine
 10
-16.61
 20
17.2593
 30
0
 11
-16.61
 21
17.0193
 31
0
  0
SPLINE
  5
D37
330
A02
100
AcDbEntity
  8
Shape2DView
100
AcDbSpline
210
0
220
0
230
1
 70
8
 71
2
 72
6
 73
3
 74
0
 40
4.71239
 40
4.71239
 40
4.71239
 40
6.28319
 40
6.28319
 40
6.28319
 10
-16.61
 20
17.2893
 30
0
 10
-16.61
 20
17.2866
 30
0
 10
-16.61
 20
17.2593
 30
0
  0
LINE
  5
D38
330
A02
100
AcDbEntity
  8
Shape2DView
100
AcDbLine
 10
-15.81
 20
17.2593
 30
0
 11
-15.81
 21
17.0193
 31
0
  0
ARC
  5
D39
330
A02
100
AcDbEntity
  8
Shape2DView
100
AcDbCircle
 10
-16.21
 20
17.3477
 30
0
 40
0.208333
100
AcDbArc
 50
-90
 51
-25.0874
  0
ARC
  5
D3A
330
A02
100
AcDbEntity
  8
Shape2DView
100
AcDbCircle
 10
-16.21
 20
17.3477
 30
0
 40
0.208333
100
AcDbArc
 50
-154.913
 51
-90
  0
SPLINE
  5
D3B
330
A02
100
AcDbEntity
  8
Shape2DView
100
AcDbSpline
210
0
220
0
230
1
 70
8
 71
2
 72
6
 73
3
 74
0
 40
4.71239
 40
4.71239
 40
4.71239
 40
6.28319
 40
6.28319
 40
6.28319
 10
-15.81
 20
17.2893
 30
0
 10
-15.81
 20
17.2866
 30
0
 10
-15.81
 20
17.2593
 30
0
  0
SPLINE
  5
D3C
330
A02
100
AcDbEntity
  8
Shape2DView
100
AcDbSpline
210
0
220
0
230
1
 70
8
 71
2
 72
6
 73
3
 74
0
 40
1.5708
 40
1.5708
 40
1.5708
 40
3.14159
 40
3.14159
 40
3.14159
 10
-16.61
 20
15.6893
 30
0
 10
-16.61
 20
15.692
 30
0
 10
-16.61
 20
15.7193
 30
0
  0
LINE
  5
D3D
330
A02
100
AcDbEntity
  8
Shape2DView
100
AcDbLine
 10
-16.61
 20
15.9593
 30
0
 11
-16.61
 21
15.7193
 31
0
  0
LINE
  5
D3E
330
A02
100
AcDbEntity
  8
Shape2DView
100
AcDbLine
 10
-15.81
 20
15.9593
 30
0
 11
-15.81
 21
15.7193
 31
0
  0
ARC
  5
D3F
330
A02
100
AcDbEntity
  8
Shape2DView
100
AcDbCircle
 10
-16.21
 20
15.631
 30
0
 40
0.208333
100
AcDbArc
 50
25.0874
 51
154.913
  0
SPLINE
  5
D40
330
A02
100
AcDbEntity
  8
Shape2DView
100
AcDbSpline
210
0
220
0
230
1
 70
8
 71
2
 72
6
 73
3
 74
0
 40
1.5708
 40
1.5708
 40
1.5708
 40
3.14159
 40
3.14159
 40
3.14159
 10
-15.81
 20
15.6893
 30
0
 10
-15.81
 20
15.692
 30
0
 10
-15.81
 20
15.7193
 30
0
  0
LINE
  5
D41
330
A02
100
AcDbEntity
  8
Shape2DView
100
AcDbLine
 10
-16.61
 20
17.2893
 30
0
 11
-16.41
 21
17.2893
 31
0
  0
LINE
  5
D42
330
A02
100
AcDbEntity
  8
Shape2DView
100
AcDbLine
 10
-16.61
 20
17.2893
 30
0
 11
-16.41
 21
17.2893
 31
0
  0
SPLINE
  5
D43
330
A02
100
AcDbEntity
  8
Shape2DView
100
AcDbSpline
210
0
220
0
230
1
 70
8
 71
2
 72
6
 73
3
 74
0
 40
0
 40
0
 40
0
 40
1
 40
1
 40
1
 10
-16.41
 20
17.2893
 30
0
 10
-16.4097
 20
17.2856
 30
0
 10
-16.3987
 20
17.2593
 30
0
  0
SPLINE
  5
D44
330
A02
100
AcDbEntity
  8
Shape2DView
100
AcDbSpline
210
0
220
0
230
1
 70
8
 71
2
 72
6
 73
3
 74
0
 40
0
 40
0
 40
0
 40
1
 40
1
 40
1
 10
-16.01
 20
17.2893
 30
0
 10
-16.0103
 20
17.2856
 30
0
 10
-16.0214
 20
17.2593
 30
0
  0
LINE
  5
D45
330
A02
100
AcDbEntity
  8
Shape2DView
100
AcDbLine
 10
-16.01
 20
17.2893
 30
0
 11
-15.81
 21
17.2893
 31
0
  0
LINE
  5
D46
330
A02
100
AcDbEntity
  8
Shape2DView
100
AcDbLine
 10
-16.01
 20
17.2893
 30
0
 11
-15.81
 21
17.2893
 31
0
  0
LINE
  5
D47
330
A02
100
AcDbEntity
  8
Shape2DView
100
AcDbLine
 10
-16.61
 20
15.6893
 30
0
 11
-16.41
 21
15.6893
 31
0
  0
SPLINE
  5
D48
330
A02
100
AcDbEntity
  8
Shape2DView
100
AcDbSpline
210
0
220
0
230
1
 70
8
 71
2
 72
6
 73
3
 74
0
 40
0
 40
0
 40
0
 40
1
 40
1
 40
1
 10
-16.41
 20
15.6893
 30
0
 10
-16.4097
 20
15.6931
 30
0
 10
-16.3987
 20
15.7193
 30
0
  0
SPLINE
  5
D49
330
A02
100
AcDbEntity
  8
Shape2DView
100
AcDbSpline
210
0
220
0
230
1
 70
8
 71
2
 72
6
 73
3
 74
0
 40
0
 40
0
 40
0
 40
1
 40
1
 40
1
 10
-16.01
 20
15.6893
 30
0
 10
-16.0103
 20
15.6931
 30
0
 10
-16.0214
 20
15.7193
 30
0
  0
LINE
  5
D4A
330
A02
100
AcDbEntity
  8
Shape2DView
100
AcDbLine
 10
-16.01
 20
15.6893
 30
0
 11
-15.81
 21
15.6893
 31
0
  0
LINE
  5
D4B
330
A02
100
AcDbEntity
  8
Shape2DView
100
AcDbLine
 10
34.1063
 20
19.308
 30
0
 11
34.1063
 21
19.3422
 31
0
  0
LINE
  5
D4C
330
A02
100
AcDbEntity
  8
Shape2DView
100
AcDbLine
 10
34.1063
 20
19.5153
 30
0
 11
33.37
 21
19.5153
 31
0
  0
LINE
  5
D4D
330
A02
100
AcDbEntity
  8
Shape2DView
100
AcDbLine
 10
8.46996
 20
19.5153
 30
0
 11
7.65539
 21
19.5153
 31
0
  0
LINE
  5
D4E
330
A02
100
AcDbEntity
  8
Shape2DView
100
AcDbLine
 10
-47.5
 20
20
 30
0
 11
-47.5
 21
-20
 31
0
  0
ARC
  5
D4F
330
A02
100
AcDbEntity
  8
Shape2DView
100
AcDbCircle
 10
-46.5
 20
20
 30
0
 40
1
100
AcDbArc
 50
90
 51
180
  0
LINE
  5
D50
330
A02
100
AcDbEntity
  8
Shape2DView
100
AcDbLine
 10
46.5
 20
21
 30
0
 11
-46.5
 21
21
 31
0
  0
ARC
  5
D51
330
A02
100
AcDbEntity
  8
Shape2DView
100
AcDbCircle
 10
46.5
 20
20
 30
0
 40
1
100
AcDbArc
 50
0
 51
90
  0
LINE
  5
D52
330
A02
100
AcDbEntity
  8
Shape2DView
100
AcDbLine
 10
47.5
 20
-20
 30
0
 11
47.5
 21
20
 31
0
  0
ARC
  5
D53
330
A02
100
AcDbEntity
  8
Shape2DView
100
AcDbCircle
 10
46.5
 20
-20
 30
0
 40
1
100
AcDbArc
 50
-90
 51
0
  0
LINE
  5
D54
330
A02
100
AcDbEntity
  8
Shape2DView
100
AcDbLine
 10
-46.5
 20
-21
 30
0
 11
46.5
 21
-21
 31
0
  0
ARC
  5
D55
330
A02
100
AcDbEntity
  8
Shape2DView
100
AcDbCircle
 10
-46.5
 20
-20
 30
0
 40
1
100
AcDbArc
 50
180
 51
-90
  0
LINE
  5
D56
330
A02
100
AcDbEntity
  8
Shape2DView
100
AcDbLine
 10
34.4877
 20
20.9215
 30
0
 11
7.35218
 21
20.9215
 31
0
  0
CIRCLE
  5
D57
330
A02
100
AcDbEntity
  8
Shape2DView
100
AcDbCircle
 10
-3.37004
 20
9.11432
 40
1
  0
CIRCLE
  5
D58
330
A02
100
AcDbEntity
  8
Shape2DView
100
AcDbCircle
 10
-16.21
 20
16.4893
 40
1
  0
SPLINE
  5
D59
330
A02
100
AcDbEntity
  8
Shape2DView
100
AcDbSpline
210
0
220
0
230
1
 70
8
 71
3
 72
26
 73
22
 74
0
 40
0
 40
0
 40
0
 40
0
 40
0.776672
 40
0.776672
 40
0.776672
 40
0.887625
 40
0.887625
 40
0.887625
 40
1.10953
 40
1.10953
 40
1.10953
 40
1.22048
 40
1.22048
 40
1.22048
 40
1.33144
 40
1.33144
 40
1.33144
 40
1.44239
 40
1.44239
 40
1.44239
 40
1.55334
 40
1.55334
 40
1.55334
 40
1.55334
 10
7.15556
 20
20.0939
 30
0
 10
7.15557
 20
20.2756
 30
0
 10
7.15611
 20
20.4546
 30
0
 10
7.15706
 20
20.5846
 30
0
 10
7.15721
 20
20.602
 30
0
 10
7.15735
 20
20.6194
 30
0
 10
7.15749
 20
20.6368
 30
0
 10
7.1578
 20
20.6686
 30
0
 10
7.15812
 20
20.6966
 30
0
 10
7.15847
 20
20.7208
 30
0
 10
7.15865
 20
20.731
 30
0
 10
7.15882
 20
20.7412
 30
0
 10
7.159
 20
20.7514
 30
0
 10
7.15919
 20
20.7589
 30
0
 10
7.15937
 20
20.7664
 30
0
 10
7.15956
 20
20.774
 30
0
 10
7.15975
 20
20.7787
 30
0
 10
7.15994
 20
20.7834
 30
0
 10
7.16013
 20
20.7882
 30
0
 10
7.16032
 20
20.79
 30
0
 10
7.16051
 20
20.7919
 30
0
 10
7.16071
 20
20.7938
 30
0
  0
LINE
  5
D5A
330
A02
100
AcDbEntity
  8
Shape2DView
100
AcDbLine
 10
33.9878
 20
19.4212
 30
0
 11
34.1577
 21
19.308
 31
0
  0
LINE
  5
D5B
330
A02
100
AcDbEntity
  8
Shape2DView
100
AcDbLine
 10
7.85213
 20
19.4212
 30
0
 11
7.68227
 21
19.308
 31
0
  0
SPLINE
  5
D5C
330
A02
100
AcDbEntity
  8
Shape2DView
100
AcDbSpline
210
0
220
0
230
1
 70
8
 71
3
 72
23
 73
19
 74
0
 40
1.58825
 40
1.58825
 40
1.58825
 40
1.58825
 40
1.6992
 40
1.6992
 40
1.6992
 40
1.81016
 40
1.81016
 40
1.81016
 40
1.92111
 40
1.92111
 40
1.92111
 40
2.14301
 40
2.14301
 40
2.14301
 40
2.36492
 40
2.36492
 40
2.36492
 40
3.14159
 40
3.14159
 40
3.14159
 40
3.14159
 10
34.6792
 20
20.7938
 30
0
 10
34.6794
 20
20.7919
 30
0
 10
34.6796
 20
20.79
 30
0
 10
34.6798
 20
20.7882
 30
0
 10
34.68
 20
20.7834
 30
0
 10
34.6802
 20
20.7787
 30
0
 10
34.6804
 20
20.774
 30
0
 10
34.6806
 20
20.7664
 30
0
 10
34.6807
 20
20.7589
 30
0
 10
34.6809
 20
20.7514
 30
0
 10
34.6813
 20
20.7324
 30
0
 10
34.6816
 20
20.7094
 30
0
 10
34.682
 20
20.6824
 30
0
 10
34.6823
 20
20.6533
 30
0
 10
34.6826
 20
20.6207
 30
0
 10
34.6829
 20
20.5846
 30
0
 10
34.6838
 20
20.4546
 30
0
 10
34.6844
 20
20.2756
 30
0
 10
34.6844
 20
20.0939
 30
0
  0
LINE
  5
D5D
330
A02
100
AcDbEntity
  8
Shape2DView
100
AcDbLine
 10
42.15
 20
-6.11459
 30
0
 11
-42.175
 21
-6.11459
 31
0
  0
LINE
  5
D5E
330
A02
100
AcDbEntity
  8
Shape2DView
100
AcDbLine
 10
-42.175
 20
-6.11459
 30
0
 11
-42.175
 21
-11.7146
 31
0
  0
LINE
  5
D5F
330
A02
100
AcDbEntity
  8
Shape2DView
100
AcDbLine
 10
-42.175
 20
-11.7146
 30
0
 11
42.15
 21
-11.7146
 31
0
  0
LINE
  5
D60
330
A02
100
AcDbEntity
  8
Shape2DView
100
AcDbLine
 10
42.15
 20
-11.7146
 30
0
 11
42.15
 21
-6.11459
 31
0
  0
LINE
  5
D61
330
A02
100
AcDbEntity
  8
Shape2DView
100
AcDbLine
 10
42.15
 20
1.9104
 30
0
 11
-42.175
 21
1.9104
 31
0
  0
LINE
  5
D62
330
A02
100
AcDbEntity
  8
Shape2DView
100
AcDbLine
 10
-42.175
 20
1.9104
 30
0
 11
-42.175
 21
-3.68959
 31
0
  0
LINE
  5
D63
330
A02
100
AcDbEntity
  8
Shape2DView
100
AcDbLine
 10
-42.175
 20
-3.6896
 30
0
 11
42.15
 21
-3.6896
 31
0
  0
LINE
  5
D64
330
A02
100
AcDbEntity
  8
Shape2DView
100
AcDbLine
 10
42.15
 20
-3.6896
 30
0
 11
42.15
 21
1.9104
 31
0
  0
LINE
  5
D65
330
A02
100
AcDbEntity
  8
Shape2DView
100
AcDbLine
 10
7.68192
 20
19.308
 30
0
 11
34.158
 21
19.308
 31
0
  0
LINE
  5
D66
330
A02
100
AcDbEntity
  8
Shape2DView
100
AcDbLine
 10
-42.175
 20
1.9104
 30
0
 11
-42.2015
 21
1.93693
 31
0
  0
LINE
  5
D67
330
A02
100
AcDbEntity
  8
Shape2DView
100
AcDbLine
 10
-42.175
 20
-3.6896
 30
0
 11
-42.2015
 21
-3.71612
 31
0
  0
LINE
  5
D68
330
A02
100
AcDbEntity
  8
Shape2DView
100
AcDbLine
 10
42.15
 20
-3.6896
 30
0
 11
42.1766
 21
-3.71612
 31
0
  0
LINE
  5
D69
330
A02
100
AcDbEntity
  8
Shape2DView
100
AcDbLine
 10
42.15
 20
1.9104
 30
0
 11
42.1766
 21
1.93693
 31
0
  0
LINE
  5
D6A
330
A02
100
AcDbEntity
  8
Shape2DView
100
AcDbLine
 10
-42.175
 20
-6.11459
 30
0
 11
-42.2015
 21
-6.08807
 31
0
  0
LINE
  5
D6B
330
A02
100
AcDbEntity
  8
Shape2DView
100
AcDbLine
 10
-42.175
 20
-11.7146
 30
0
 11
-42.2015
 21
-11.7411
 31
0
  0
LINE
  5
D6C
330
A02
100
AcDbEntity
  8
Shape2DView
100
AcDbLine
 10
42.15
 20
-11.7146
 30
0
 11
42.1766
 21
-11.7411
 31
0
  0
LINE
  5
D6D
330
A02
100
AcDbEntity
  8
Shape2DView
100
AcDbLine
 10
42.15
 20
-6.11459
 30
0
 11
42.1766
 21
-6.08807
 31
0
  0
LINE
  5
D6E
330
A02
100
AcDbEntity
  8
Shape2DView
100
AcDbLine
 10
7.65539
 20
19.2815
 30
0
 11
7.68192
 21
19.308
 31
0
  0
LINE
  5
D6F
330
A02
100
AcDbEntity
  8
Shape2DView
100
AcDbLine
 10
7.85213
 20
20.4216
 30
0
 11
7.85213
 21
19.5153
 31
0
  0
LINE
  5
D70
330
A02
100
AcDbEntity
  8
Shape2DView
100
AcDbLine
 10
33.9878
 20
20.4216
 30
0
 11
33.9878
 21
19.5153
 31
0
  0
LINE
  5
D71
330
A02
100
AcDbEntity
  8
Shape2DView
100
AcDbLine
 10
34.1845
 20
19.2815
 30
0
 11
34.158
 21
19.308
 31
0
  0
ELLIPSE
  5
D72
330
A02
100
AcDbEntity
  8
Shape2DView
100
AcDbEllipse
 10
7.35196
 20
20.4214
 30
0
 11
-0.416247
 21
-0.277463
 31
0
 40
0.999505
 41
-3.72931
 42
-2.15897
  0
ELLIPSE
  5
D73
330
A02
100
AcDbEntity
  8
Shape2DView
100
AcDbEllipse
 10
34.488
 20
20.4214
 30
0
 11
0.416247
 21
-0.277463
 31
0
 40
0.999505
 41
-4.12422
 42
-2.55388
  0
SPLINE
  5
D74
330
A02
100
AcDbEntity
  8
Shape2DView
100
AcDbSpline
210
0
220
0
230
1
 70
8
 71
3
 72
26
 73
22
 74
0
 40
4.71239
 40
4.71239
 40
4.71239
 40
4.71239
 40
5.4847
 40
5.4847
 40
5.4847
 40
5.59503
 40
5.59503
 40
5.59503
 40
5.81569
 40
5.81569
 40
5.81569
 40
5.92602
 40
5.92602
 40
5.92602
 40
6.03635
 40
6.03635
 40
6.03635
 40
6.14668
 40
6.14668
 40
6.14668
 40
6.25701
 40
6.25701
 40
6.25701
 40
6.25701
 10
-42.7013
 20
-5.58824
 30
0
 10
-42.5723
 20
-5.71724
 30
0
 10
-42.4451
 20
-5.84443
 30
0
 10
-42.3524
 20
-5.93713
 30
0
 10
-42.34
 20
-5.94957
 30
0
 10
-42.3276
 20
-5.96201
 30
0
 10
-42.3151
 20
-5.97445
 30
0
 10
-42.2924
 20
-5.99714
 30
0
 10
-42.2724
 20
-6.01719
 30
0
 10
-42.255
 20
-6.03459
 30
0
 10
-42.2476
 20
-6.04195
 30
0
 10
-42.2402
 20
-6.04932
 30
0
 10
-42.2329
 20
-6.05668
 30
0
 10
-42.2274
 20
-6.06215
 30
0
 10
-42.2219
 20
-6.06762
 30
0
 10
-42.2165
 20
-6.07308
 30
0
 10
-42.213
 20
-6.07658
 30
0
 10
-42.2095
 20
-6.08008
 30
0
 10
-42.206
 20
-6.08359
 30
0
 10
-42.2045
 20
-6.08508
 30
0
 10
-42.203
 20
-6.08657
 30
0
 10
-42.2015
 20
-6.08807
 30
0
  0
SPLINE
  5
D75
330
A02
100
AcDbEntity
  8
Shape2DView
100
AcDbSpline
210
0
220
0
230
1
 70
8
 71
3
 72
23
 73
19
 74
0
 40
0.0261799
 40
0.0261799
 40
0.0261799
 40
0.0261799
 40
0.13651
 40
0.13651
 40
0.13651
 40
0.246839
 40
0.246839
 40
0.246839
 40
0.357169
 40
0.357169
 40
0.357169
 40
0.577829
 40
0.577829
 40
0.577829
 40
0.798488
 40
0.798488
 40
0.798488
 40
1.5708
 40
1.5708
 40
1.5708
 40
1.5708
 10
-42.2015
 20
-11.7411
 30
0
 10
-42.203
 20
-11.7426
 30
0
 10
-42.2045
 20
-11.7441
 30
0
 10
-42.206
 20
-11.7456
 30
0
 10
-42.2095
 20
-11.7491
 30
0
 10
-42.213
 20
-11.7526
 30
0
 10
-42.2165
 20
-11.7561
 30
0
 10
-42.2219
 20
-11.7616
 30
0
 10
-42.2274
 20
-11.767
 30
0
 10
-42.2329
 20
-11.7725
 30
0
 10
-42.2466
 20
-11.7862
 30
0
 10
-42.2631
 20
-11.8028
 30
0
 10
-42.2825
 20
-11.8221
 30
0
 10
-42.3034
 20
-11.843
 30
0
 10
-42.3267
 20
-11.8663
 30
0
 10
-42.3524
 20
-11.8921
 30
0
 10
-42.4451
 20
-11.9848
 30
0
 10
-42.5723
 20
-12.1119
 30
0
 10
-42.7013
 20
-12.241
 30
0
  0
SPLINE
  5
D76
330
A02
100
AcDbEntity
  8
Shape2DView
100
AcDbSpline
210
0
220
0
230
1
 70
8
 71
3
 72
23
 73
19
 74
0
 40
0.0261799
 40
0.0261799
 40
0.0261799
 40
0.0261799
 40
0.13651
 40
0.13651
 40
0.13651
 40
0.246839
 40
0.246839
 40
0.246839
 40
0.357169
 40
0.357169
 40
0.357169
 40
0.577829
 40
0.577829
 40
0.577829
 40
0.798488
 40
0.798488
 40
0.798488
 40
1.5708
 40
1.5708
 40
1.5708
 40
1.5708
 10
42.1766
 20
-11.7411
 30
0
 10
42.1781
 20
-11.7426
 30
0
 10
42.1796
 20
-11.7441
 30
0
 10
42.181
 20
-11.7456
 30
0
 10
42.1845
 20
-11.7491
 30
0
 10
42.188
 20
-11.7526
 30
0
 10
42.1915
 20
-11.7561
 30
0
 10
42.197
 20
-11.7616
 30
0
 10
42.2025
 20
-11.767
 30
0
 10
42.2079
 20
-11.7725
 30
0
 10
42.2217
 20
-11.7862
 30
0
 10
42.2382
 20
-11.8028
 30
0
 10
42.2576
 20
-11.8221
 30
0
 10
42.2784
 20
-11.843
 30
0
 10
42.3017
 20
-11.8663
 30
0
 10
42.3275
 20
-11.8921
 30
0
 10
42.4202
 20
-11.9848
 30
0
 10
42.5474
 20
-12.1119
 30
0
 10
42.6764
 20
-12.241
 30
0
  0
SPLINE
  5
D77
330
A02
100
AcDbEntity
  8
Shape2DView
100
AcDbSpline
210
0
220
0
230
1
 70
8
 71
3
 72
26
 73
22
 74
0
 40
1.5708
 40
1.5708
 40
1.5708
 40
1.5708
 40
2.3431
 40
2.3431
 40
2.3431
 40
2.45343
 40
2.45343
 40
2.45343
 40
2.67409
 40
2.67409
 40
2.67409
 40
2.78442
 40
2.78442
 40
2.78442
 40
2.89475
 40
2.89475
 40
2.89475
 40
3.00508
 40
3.00508
 40
3.00508
 40
3.11541
 40
3.11541
 40
3.11541
 40
3.11541
 10
42.6764
 20
-5.58824
 30
0
 10
42.5474
 20
-5.71724
 30
0
 10
42.4202
 20
-5.84443
 30
0
 10
42.3275
 20
-5.93713
 30
0
 10
42.3151
 20
-5.94957
 30
0
 10
42.3026
 20
-5.96201
 30
0
 10
42.2902
 20
-5.97445
 30
0
 10
42.2675
 20
-5.99714
 30
0
 10
42.2474
 20
-6.01719
 30
0
 10
42.23
 20
-6.03459
 30
0
 10
42.2227
 20
-6.04195
 30
0
 10
42.2153
 20
-6.04932
 30
0
 10
42.2079
 20
-6.05668
 30
0
 10
42.2025
 20
-6.06215
 30
0
 10
42.197
 20
-6.06762
 30
0
 10
42.1915
 20
-6.07308
 30
0
 10
42.188
 20
-6.07658
 30
0
 10
42.1845
 20
-6.08008
 30
0
 10
42.181
 20
-6.08359
 30
0
 10
42.1796
 20
-6.08508
 30
0
 10
42.1781
 20
-6.08657
 30
0
 10
42.1766
 20
-6.08807
 30
0
  0
SPLINE
  5
D78
330
A02
100
AcDbEntity
  8
Shape2DView
100
AcDbSpline
210
0
220
0
230
1
 70
8
 71
3
 72
26
 73
22
 74
0
 40
4.71239
 40
4.71239
 40
4.71239
 40
4.71239
 40
5.4847
 40
5.4847
 40
5.4847
 40
5.59503
 40
5.59503
 40
5.59503
 40
5.81569
 40
5.81569
 40
5.81569
 40
5.92602
 40
5.92602
 40
5.92602
 40
6.03635
 40
6.03635
 40
6.03635
 40
6.14668
 40
6.14668
 40
6.14668
 40
6.25701
 40
6.25701
 40
6.25701
 40
6.25701
 10
-42.7013
 20
2.43676
 30
0
 10
-42.5723
 20
2.30776
 30
0
 10
-42.4451
 20
2.18057
 30
0
 10
-42.3524
 20
2.08787
 30
0
 10
-42.34
 20
2.07543
 30
0
 10
-42.3276
 20
2.06299
 30
0
 10
-42.3151
 20
2.05055
 30
0
 10
-42.2924
 20
2.02786
 30
0
 10
-42.2724
 20
2.00781
 30
0
 10
-42.255
 20
1.99041
 30
0
 10
-42.2476
 20
1.98305
 30
0
 10
-42.2402
 20
1.97568
 30
0
 10
-42.2329
 20
1.96832
 30
0
 10
-42.2274
 20
1.96285
 30
0
 10
-42.2219
 20
1.95738
 30
0
 10
-42.2165
 20
1.95192
 30
0
 10
-42.213
 20
1.94842
 30
0
 10
-42.2095
 20
1.94492
 30
0
 10
-42.206
 20
1.94141
 30
0
 10
-42.2045
 20
1.93992
 30
0
 10
-42.203
 20
1.93843
 30
0
 10
-42.2015
 20
1.93693
 30
0
  0
SPLINE
  5
D79
330
A02
100
AcDbEntity
  8
Shape2DView
100
AcDbSpline
210
0
220
0
230
1
 70
8
 71
3
 72
23
 73
19
 74
0
 40
0.0261799
 40
0.0261799
 40
0.0261799
 40
0.0261799
 40
0.13651
 40
0.13651
 40
0.13651
 40
0.246839
 40
0.246839
 40
0.246839
 40
0.357169
 40
0.357169
 40
0.357169
 40
0.577829
 40
0.577829
 40
0.577829
 40
0.798488
 40
0.798488
 40
0.798488
 40
1.5708
 40
1.5708
 40
1.5708
 40
1.5708
 10
-42.2015
 20
-3.71612
 30
0
 10
-42.203
 20
-3.71762
 30
0
 10
-42.2045
 20
-3.71911
 30
0
 10
-42.206
 20
-3.7206
 30
0
 10
-42.2095
 20
-3.72411
 30
0
 10
-42.213
 20
-3.72761
 30
0
 10
-42.2165
 20
-3.73111
 30
0
 10
-42.2219
 20
-3.73657
 30
0
 10
-42.2274
 20
-3.74204
 30
0
 10
-42.2329
 20
-3.74751
 30
0
 10
-42.2466
 20
-3.76122
 30
0
 10
-42.2631
 20
-3.77776
 30
0
 10
-42.2825
 20
-3.79713
 30
0
 10
-42.3034
 20
-3.81799
 30
0
 10
-42.3267
 20
-3.8413
 30
0
 10
-42.3524
 20
-3.86706
 30
0
 10
-42.4451
 20
-3.95976
 30
0
 10
-42.5723
 20
-4.08695
 30
0
 10
-42.7013
 20
-4.21595
 30
0
  0
SPLINE
  5
D7A
330
A02
100
AcDbEntity
  8
Shape2DView
100
AcDbSpline
210
0
220
0
230
1
 70
8
 71
3
 72
23
 73
19
 74
0
 40
0.0261799
 40
0.0261799
 40
0.0261799
 40
0.0261799
 40
0.13651
 40
0.13651
 40
0.13651
 40
0.246839
 40
0.246839
 40
0.246839
 40
0.357169
 40
0.357169
 40
0.357169
 40
0.577829
 40
0.577829
 40
0.577829
 40
0.798488
 40
0.798488
 40
0.798488
 40
1.5708
 40
1.5708
 40
1.5708
 40
1.5708
 10
42.1766
 20
-3.71612
 30
0
 10
42.1781
 20
-3.71762
 30
0
 10
42.1796
 20
-3.71911
 30
0
 10
42.181
 20
-3.7206
 30
0
 10
42.1845
 20
-3.72411
 30
0
 10
42.188
 20
-3.72761
 30
0
 10
42.1915
 20
-3.73111
 30
0
 10
42.197
 20
-3.73657
 30
0
 10
42.2025
 20
-3.74204
 30
0
 10
42.2079
 20
-3.74751
 30
0
 10
42.2217
 20
-3.76122
 30
0
 10
42.2382
 20
-3.77776
 30
0
 10
42.2576
 20
-3.79713
 30
0
 10
42.2784
 20
-3.81799
 30
0
 10
42.3017
 20
-3.8413
 30
0
 10
42.3275
 20
-3.86706
 30
0
 10
42.4202
 20
-3.95976
 30
0
 10
42.5474
 20
-4.08695
 30
0
 10
42.6764
 20
-4.21595
 30
0
  0
SPLINE
  5
D7B
330
A02
100
AcDbEntity
  8
Shape2DView
100
AcDbSpline
210
0
220
0
230
1
 70
8
 71
3
 72
26
 73
22
 74
0
 40
1.5708
 40
1.5708
 40
1.5708
 40
1.5708
 40
2.3431
 40
2.3431
 40
2.3431
 40
2.45343
 40
2.45343
 40
2.45343
 40
2.67409
 40
2.67409
 40
2.67409
 40
2.78442
 40
2.78442
 40
2.78442
 40
2.89475
 40
2.89475
 40
2.89475
 40
3.00508
 40
3.00508
 40
3.00508
 40
3.11541
 40
3.11541
 40
3.11541
 40
3.11541
 10
42.6764
 20
2.43676
 30
0
 10
42.5474
 20
2.30776
 30
0
 10
42.4202
 20
2.18057
 30
0
 10
42.3275
 20
2.08787
 30
0
 10
42.3151
 20
2.07543
 30
0
 10
42.3026
 20
2.06299
 30
0
 10
42.2902
 20
2.05055
 30
0
 10
42.2675
 20
2.02786
 30
0
 10
42.2474
 20
2.00781
 30
0
 10
42.23
 20
1.99041
 30
0
 10
42.2227
 20
1.98305
 30
0
 10
42.2153
 20
1.97568
 30
0
 10
42.2079
 20
1.96832
 30
0
 10
42.2025
 20
1.96285
 30
0
 10
42.197
 20
1.95738
 30
0
 10
42.1915
 20
1.95192
 30
0
 10
42.188
 20
1.94842
 30
0
 10
42.1845
 20
1.94492
 30
0
 10
42.181
 20
1.94141
 30
0
 10
42.1796
 20
1.93992
 30
0
 10
42.1781
 20
1.93843
 30
0
 10
42.1766
 20
1.93693
 30
0
  0
ELLIPSE
  5
D7C
330
A02
100
AcDbEntity
  8
Shape2DView
100
AcDbEllipse
 10
7.16071
 20
20.2939
 30
0
 11
-0.277326
 21
0.416041
 31
0
 40
0.999505
 41
4.12467
 42
5.69501
  0
SPLINE
  5
D7D
330
A02
100
AcDbEntity
  8
Shape2DView
100
AcDbSpline
210
0
220
0
230
1
 70
8
 71
3
 72
23
 73
19
 74
0
 40
3.16777
 40
3.16777
 40
3.16777
 40
3.16777
 40
3.2781
 40
3.2781
 40
3.2781
 40
3.38843
 40
3.38843
 40
3.38843
 40
3.49876
 40
3.49876
 40
3.49876
 40
3.71942
 40
3.71942
 40
3.71942
 40
3.94008
 40
3.94008
 40
3.94008
 40
4.71239
 40
4.71239
 40
4.71239
 40
4.71239
 10
7.65539
 20
19.2815
 30
0
 10
7.6539
 20
19.28
 30
0
 10
7.6524
 20
19.2785
 30
0
 10
7.65091
 20
19.277
 30
0
 10
7.64741
 20
19.2735
 30
0
 10
7.64391
 20
19.27
 30
0
 10
7.64041
 20
19.2665
 30
0
 10
7.63494
 20
19.261
 30
0
 10
7.62947
 20
19.2556
 30
0
 10
7.62401
 20
19.2501
 30
0
 10
7.61029
 20
19.2364
 30
0
 10
7.59375
 20
19.2198
 30
0
 10
7.57439
 20
19.2005
 30
0
 10
7.55352
 20
19.1796
 30
0
 10
7.53021
 20
19.1563
 30
0
 10
7.50446
 20
19.1305
 30
0
 10
7.41175
 20
19.0378
 30
0
 10
7.28456
 20
18.9106
 30
0
 10
7.15556
 20
18.7816
 30
0
  0
SPLINE
  5
D7E
330
A02
100
AcDbEntity
  8
Shape2DView
100
AcDbSpline
210
0
220
0
230
1
 70
8
 71
3
 72
23
 73
19
 74
0
 40
0.0261799
 40
0.0261799
 40
0.0261799
 40
0.0261799
 40
0.13651
 40
0.13651
 40
0.13651
 40
0.246839
 40
0.246839
 40
0.246839
 40
0.357169
 40
0.357169
 40
0.357169
 40
0.577829
 40
0.577829
 40
0.577829
 40
0.798488
 40
0.798488
 40
0.798488
 40
1.5708
 40
1.5708
 40
1.5708
 40
1.5708
 10
34.1845
 20
19.2815
 30
0
 10
34.186
 20
19.28
 30
0
 10
34.1875
 20
19.2785
 30
0
 10
34.189
 20
19.277
 30
0
 10
34.1925
 20
19.2735
 30
0
 10
34.196
 20
19.27
 30
0
 10
34.1995
 20
19.2665
 30
0
 10
34.205
 20
19.261
 30
0
 10
34.2105
 20
19.2556
 30
0
 10
34.2159
 20
19.2501
 30
0
 10
34.2296
 20
19.2364
 30
0
 10
34.2462
 20
19.2198
 30
0
 10
34.2655
 20
19.2005
 30
0
 10
34.2864
 20
19.1796
 30
0
 10
34.3097
 20
19.1563
 30
0
 10
34.3355
 20
19.1305
 30
0
 10
34.4282
 20
19.0378
 30
0
 10
34.5554
 20
18.9106
 30
0
 10
34.6844
 20
18.7816
 30
0
  0
ELLIPSE
  5
D7F
330
A02
100
AcDbEntity
  8
Shape2DView
100
AcDbEllipse
 10
34.6792
 20
20.2939
 30
0
 11
0.277326
 21
0.416041
 31
0
 40
0.999505
 41
-5.69501
 42
-4.12467
  0
LINE
  5
D80
330
A02
100
AcDbEntity
  8
Shape2DView
100
AcDbLine
 10
-3.77004
 20
9.64432
 30
0
 11
-2.97004
 21
9.64432
 31
0
  0
LINE
  5
D81
330
A02
100
AcDbEntity
  8
Shape2DView
100
AcDbLine
 10
-3.77004
 20
8.58432
 30
0
 11
-2.97004
 21
8.58432
 31
0
  0
LINE
  5
D82
330
A02
100
AcDbEntity
  8
Shape2DView
100
AcDbLine
 10
-3.18136
 20
9.88432
 30
0
 11
-2.97004
 21
9.88432
 31
0
  0
LINE
  5
D83
330
A02
100
AcDbEntity
  8
Shape2DView
100
AcDbLine
 10
-3.77004
 20
9.88432
 30
0
 11
-3.55872
 21
9.88432
 31
0
  0
LINE
  5
D84
330
A02
100
AcDbEntity
  8
Shape2DView
100
AcDbLine
 10
-3.77004
 20
8.34432
 30
0
 11
-3.55872
 21
8.34432
 31
0
  0
LINE
  5
D85
330
A02
100
AcDbEntity
  8
Shape2DView
100
AcDbLine
 10
-3.18136
 20
8.34432
 30
0
 11
-2.97004
 21
8.34432
 31
0
  0
LINE
  5
D86
330
A02
100
AcDbEntity
  8
Shape2DView
100
AcDbLine
 10
-16.61
 20
17.0193
 30
0
 11
-15.81
 21
17.0193
 31
0
  0
LINE
  5
D87
330
A02
100
AcDbEntity
  8
Shape2DView
100
AcDbLine
 10
-16.61
 20
15.9593
 30
0
 11
-15.81
 21
15.9593
 31
0
  0
LINE
  5
D88
330
A02
100
AcDbEntity
  8
Shape2DView
100
AcDbLine
 10
-16.0214
 20
17.2593
 30
0
 11
-15.81
 21
17.2593
 31
0
  0
LINE
  5
D89
330
A02
100
AcDbEntity
  8
Shape2DView
100
AcDbLine
 10
-16.61
 20
17.2593
 30
0
 11
-16.3987
 21
17.2593
 31
0
  0
LINE
  5
D8A
330
A02
100
AcDbEntity
  8
Shape2DView
100
AcDbLine
 10
-16.61
 20
15.7193
 30
0
 11
-16.3987
 21
15.7193
 31
0
  0
LINE
  5
D8B
330
A02
100
AcDbEntity
  8
Shape2DView
100
AcDbLine
 10
-16.0214
 20
15.7193
 30
0
 11
-15.81
 21
15.7193
 31
0
  0
LINE
  5
D8C
330
A02
100
AcDbEntity
  8
Shape2DView
100
AcDbLine
 10
34.4877
 20
20.9215
 30
0
 11
34.6792
 21
20.7938
 31
0
  0
LINE
  5
D8D
330
A02
100
AcDbEntity
  8
Shape2DView
100
AcDbLine
 10
34.6792
 20
20.7938
 30
0
 11
46.5
 21
20.7938
 31
0
  0
LINE
  5
D8E
330
A02
100
AcDbEntity
  8
Shape2DView
100
AcDbLine
 10
46.5
 20
20.7938
 30
0
 11
46.5
 21
21
 31
0
  0
LINE
  5
D8F
330
A02
100
AcDbEntity
  8
Shape2DView
100
AcDbLine
 10
-46.5
 20
20.7938
 30
0
 11
-46.5
 21
21
 31
0
  0
LINE
  5
D90
330
A02
100
AcDbEntity
  8
Shape2DView
100
AcDbLine
 10
-46.5
 20
20.7938
 30
0
 11
7.16071
 21
20.7938
 31
0
  0
LINE
  5
D91
330
A02
100
AcDbEntity
  8
Shape2DView
100
AcDbLine
 10
7.16071
 20
20.7938
 30
0
 11
7.35218
 21
20.9215
 31
0
  0
LINE
  5
D92
330
A02
100
AcDbEntity
  8
Shape2DView
100
AcDbLine
 10
-42.7013
 20
-5.58824
 30
0
 11
42.6764
 21
-5.58824
 31
0
  0
LINE
  5
D93
330
A02
100
AcDbEntity
  8
Shape2DView
100
AcDbLine
 10
42.6764
 20
-5.58824
 30
0
 11
42.6764
 21
-12.241
 31
0
  0
LINE
  5
D94
330
A02
100
AcDbEntity
  8
Shape2DView
100
AcDbLine
 10
42.6764
 20
-12.241
 30
0
 11
-42.7013
 21
-12.241
 31
0
  0
LINE
  5
D95
330
A02
100
AcDbEntity
  8
Shape2DView
100
AcDbLine
 10
-42.7013
 20
-12.241
 30
0
 11
-42.7013
 21
-5.58824
 31
0
  0
LINE
  5
D96
330
A02
100
AcDbEntity
  8
Shape2DView
100
AcDbLine
 10
-42.7013
 20
2.43676
 30
0
 11
42.6764
 21
2.43676
 31
0
  0
LINE
  5
D97
330
A02
100
AcDbEntity
  8
Shape2DView
100
AcDbLine
 10
42.6764
 20
2.43676
 30
0
 11
42.6764
 21
-4.21595
 31
0
  0
LINE
  5
D98
330
A02
100
AcDbEntity
  8
Shape2DView
100
AcDbLine
 10
42.6764
 20
-4.21595
 30
0
 11
-42.7013
 21
-4.21595
 31
0
  0
LINE
  5
D99
330
A02
100
AcDbEntity
  8
Shape2DView
100
AcDbLine
 10
-42.7013
 20
-4.21595
 30
0
 11
-42.7013
 21
2.43676
 31
0
  0
LINE
  5
D9A
330
A02
100
AcDbEntity
  8
Shape2DView
100
AcDbLine
 10
46.5
 20
20.0939
 30
0
 11
34.6844
 21
20.0939
 31
0
  0
LINE
  5
D9B
330
A02
100
AcDbEntity
  8
Shape2DView
100
AcDbLine
 10
34.6844
 20
20.0939
 30
0
 11
34.6844
 21
18.7816
 31
0
  0
LINE
  5
D9C
330
A02
100
AcDbEntity
  8
Shape2DView
100
AcDbLine
 10
34.6844
 20
18.7816
 30
0
 11
7.15556
 21
18.7816
 31
0
  0
LINE
  5
D9D
330
A02
100
AcDbEntity
  8
Shape2DView
100
AcDbLine
 10
7.15556
 20
18.7816
 30
0
 11
7.15556
 21
20.0939
 31
0
  0
LINE
  5
D9E
330
A02
100
AcDbEntity
  8
Shape2DView
100
AcDbLine
 10
7.15556
 20
20.0939
 30
0
 11
-46.5
 21
20.0939
 31
0
  0
ARC
  5
D9F
330
A02
100
AcDbEntity
  8
Shape2DView
100
AcDbCircle
 10
-46.5
 20
20
 30
0
 40
0.0939236
100
AcDbArc
 50
90
 51
180
  0
LINE
  5
DA0
330
A02
100
AcDbEntity
  8
Shape2DView
100
AcDbLine
 10
-46.5939
 20
20
 30
0
 11
-46.5939
 21
-20
 31
0
  0
ARC
  5
DA1
330
A02
100
AcDbEntity
  8
Shape2DView
100
AcDbCircle
 10
-46.5
 20
-20
 30
0
 40
0.0939236
100
AcDbArc
 50
180
 51
-90
  0
LINE
  5
DA2
330
A02
100
AcDbEntity
  8
Shape2DView
100
AcDbLine
 10
-46.5
 20
-20.0939
 30
0
 11
46.5
 21
-20.0939
 31
0
  0
ARC
  5
DA3
330
A02
100
AcDbEntity
  8
Shape2DView
100
AcDbCircle
 10
46.5
 20
-20
 30
0
 40
0.0939236
100
AcDbArc
 50
-90
 51
0
  0
LINE
  5
DA4
330
A02
100
AcDbEntity
  8
Shape2DView
100
AcDbLine
 10
46.5939
 20
-20
 30
0
 11
46.5939
 21
20
 31
0
  0
ARC
  5
DA5
330
A02
100
AcDbEntity
  8
Shape2DView
100
AcDbCircle
 10
46.5
 20
20
 30
0
 40
0.0939236
100
AcDbArc
 50
0
 51
90
  0
SPLINE
  5
DA6
330
A02
100
AcDbEntity
  8
Shape2DView
100
AcDbSpline
210
0
220
0
230
1
 70
8
 71
3
 72
26
 73
22
 74
0
 40
0
 40
0
 40
0
 40
0
 40
0.776672
 40
0.776672
 40
0.776672
 40
0.887625
 40
0.887625
 40
0.887625
 40
1.10953
 40
1.10953
 40
1.10953
 40
1.22048
 40
1.22048
 40
1.22048
 40
1.33144
 40
1.33144
 40
1.33144
 40
1.44239
 40
1.44239
 40
1.44239
 40
1.55334
 40
1.55334
 40
1.55334
 40
1.55334
 10
-46.5
 20
20.0939
 30
0
 10
-46.5
 20
20.2756
 30
0
 10
-46.5
 20
20.4546
 30
0
 10
-46.5
 20
20.5846
 30
0
 10
-46.5
 20
20.602
 30
0
 10
-46.5
 20
20.6194
 30
0
 10
-46.5
 20
20.6368
 30
0
 10
-46.5
 20
20.6686
 30
0
 10
-46.5
 20
20.6966
 30
0
 10
-46.5
 20
20.7208
 30
0
 10
-46.5
 20
20.731
 30
0
 10
-46.5
 20
20.7412
 30
0
 10
-46.5
 20
20.7514
 30
0
 10
-46.5
 20
20.7589
 30
0
 10
-46.5
 20
20.7664
 30
0
 10
-46.5
 20
20.774
 30
0
 10
-46.5
 20
20.7787
 30
0
 10
-46.5
 20
20.7834
 30
0
 10
-46.5
 20
20.7882
 30
0
 10
-46.5
 20
20.79
 30
0
 10
-46.5
 20
20.7919
 30
0
 10
-46.5
 20
20.7938
 30
0
  0
LINE
  5
DA7
330
A02
100
AcDbEntity
  8
Shape2DView
100
AcDbLine
 10
-47.2938
 20
-20
 30
0
 11
-47.5
 21
-20
 31
0
  0
LINE
  5
DA8
330
A02
100
AcDbEntity
  8
Shape2DView
100
AcDbLine
 10
-47.2938
 20
-20
 30
0
 11
-47.2938
 21
20
 31
0
  0
LINE
  5
DA9
330
A02
100
AcDbEntity
  8
Shape2DView
100
AcDbLine
 10
-47.2938
 20
20
 30
0
 11
-47.5
 21
20
 31
0
  0
LINE
  5
DAA
330
A02
100
AcDbEntity
  8
Shape2DView
100
AcDbLine
 10
-46.5
 20
-20.7938
 30
0
 11
-46.5
 21
-21
 31
0
  0
ARC
  5
DAB
330
A02
100
AcDbEntity
  8
Shape2DView
100
AcDbCircle
 10
-46.5
 20
-20
 30
0
 40
0.793817
100
AcDbArc
 50
180
 51
-90
  0
LINE
  5
DAC
330
A02
100
AcDbEntity
  8
Shape2DView
100
AcDbLine
 10
46.5
 20
-20.7938
 30
0
 11
46.5
 21
-21
 31
0
  0
LINE
  5
DAD
330
A02
100
AcDbEntity
  8
Shape2DView
100
AcDbLine
 10
46.5
 20
-20.7938
 30
0
 11
-46.5
 21
-20.7938
 31
0
  0
LINE
  5
DAE
330
A02
100
AcDbEntity
  8
Shape2DView
100
AcDbLine
 10
47.2938
 20
-20
 30
0
 11
47.5
 21
-20
 31
0
  0
ARC
  5
DAF
330
A02
100
AcDbEntity
  8
Shape2DView
100
AcDbCircle
 10
46.5
 20
-20
 30
0
 40
0.793817
100
AcDbArc
 50
-90
 51
0
  0
LINE
  5
DB0
330
A02
100
AcDbEntity
  8
Shape2DView
100
AcDbLine
 10
47.2938
 20
20
 30
0
 11
47.5
 21
20
 31
0
  0
LINE
  5
DB1
330
A02
100
AcDbEntity
  8
Shape2DView
100
AcDbLine
 10
47.2938
 20
20
 30
0
 11
47.2938
 21
-20
 31
0
  0
ARC
  5
DB2
330
A02
100
AcDbEntity
  8
Shape2DView
100
AcDbCircle
 10
46.5
 20
20
 30
0
 40
0.793817
100
AcDbArc
 50
0
 51
90
  0
ARC
  5
DB3
330
A02
100
AcDbEntity
  8
Shape2DView
100
AcDbCircle
 10
-46.5
 20
20
 30
0
 40
0.793817
100
AcDbArc
 50
90
 51
180
  0
SPLINE
  5
DB4
330
A02
100
AcDbEntity
  8
Shape2DView
100
AcDbSpline
210
0
220
0
230
1
 70
8
 71
3
 72
23
 73
19
 74
0
 40
0.0174533
 40
0.0174533
 40
0.0174533
 40
0.0174533
 40
0.128406
 40
0.128406
 40
0.128406
 40
0.239359
 40
0.239359
 40
0.239359
 40
0.350313
 40
0.350313
 40
0.350313
 40
0.572219
 40
0.572219
 40
0.572219
 40
0.794125
 40
0.794125
 40
0.794125
 40
1.5708
 40
1.5708
 40
1.5708
 40
1.5708
 10
46.5
 20
-20.7938
 30
0
 10
46.5
 20
-20.7919
 30
0
 10
46.5
 20
-20.79
 30
0
 10
46.5
 20
-20.7882
 30
0
 10
46.5
 20
-20.7834
 30
0
 10
46.5
 20
-20.7787
 30
0
 10
46.5
 20
-20.774
 30
0
 10
46.5
 20
-20.7664
 30
0
 10
46.5
 20
-20.7589
 30
0
 10
46.5
 20
-20.7514
 30
0
 10
46.5
 20
-20.7324
 30
0
 10
46.5
 20
-20.7094
 30
0
 10
46.5
 20
-20.6824
 30
0
 10
46.5
 20
-20.6533
 30
0
 10
46.5
 20
-20.6207
 30
0
 10
46.5
 20
-20.5846
 30
0
 10
46.5
 20
-20.4546
 30
0
 10
46.5
 20
-20.2756
 30
0
 10
46.5
 20
-20.0939
 30
0
  0
SPLINE
  5
DB5
330
A02
100
AcDbEntity
  8
Shape2DView
100
AcDbSpline
210
0
220
0
230
1
 70
8
 71
3
 72
26
 73
22
 74
0
 40
0
 40
0
 40
0
 40
0
 40
0.776672
 40
0.776672
 40
0.776672
 40
0.887625
 40
0.887625
 40
0.887625
 40
1.10953
 40
1.10953
 40
1.10953
 40
1.22048
 40
1.22048
 40
1.22048
 40
1.33144
 40
1.33144
 40
1.33144
 40
1.44239
 40
1.44239
 40
1.44239
 40
1.55334
 40
1.55334
 40
1.55334
 40
1.55334
 10
46.5939
 20
-20
 30
0
 10
46.7756
 20
-20
 30
0
 10
46.9546
 20
-20
 30
0
 10
47.0846
 20
-20
 30
0
 10
47.102
 20
-20
 30
0
 10
47.1194
 20
-20
 30
0
 10
47.1368
 20
-20
 30
0
 10
47.1686
 20
-20
 30
0
 10
47.1966
 20
-20
 30
0
 10
47.2208
 20
-20
 30
0
 10
47.231
 20
-20
 30
0
 10
47.2412
 20
-20
 30
0
 10
47.2514
 20
-20
 30
0
 10
47.2589
 20
-20
 30
0
 10
47.2664
 20
-20
 30
0
 10
47.274
 20
-20
 30
0
 10
47.2787
 20
-20
 30
0
 10
47.2834
 20
-20
 30
0
 10
47.2882
 20
-20
 30
0
 10
47.29
 20
-20
 30
0
 10
47.2919
 20
-20
 30
0
 10
47.2938
 20
-20
 30
0
  0
SPLINE
  5
DB6
330
A02
100
AcDbEntity
  8
Shape2DView
100
AcDbSpline
210
0
220
0
230
1
 70
8
 71
3
 72
26
 73
22
 74
0
 40
1.5708
 40
1.5708
 40
1.5708
 40
1.5708
 40
2.34747
 40
2.34747
 40
2.34747
 40
2.45842
 40
2.45842
 40
2.45842
 40
2.68033
 40
2.68033
 40
2.68033
 40
2.79128
 40
2.79128
 40
2.79128
 40
2.90223
 40
2.90223
 40
2.90223
 40
3.01319
 40
3.01319
 40
3.01319
 40
3.12414
 40
3.12414
 40
3.12414
 40
3.12414
 10
46.5939
 20
20
 30
0
 10
46.7756
 20
20
 30
0
 10
46.9546
 20
20
 30
0
 10
47.0846
 20
20
 30
0
 10
47.102
 20
20
 30
0
 10
47.1194
 20
20
 30
0
 10
47.1368
 20
20
 30
0
 10
47.1686
 20
20
 30
0
 10
47.1966
 20
20
 30
0
 10
47.2208
 20
20
 30
0
 10
47.231
 20
20
 30
0
 10
47.2412
 20
20
 30
0
 10
47.2514
 20
20
 30
0
 10
47.2589
 20
20
 30
0
 10
47.2664
 20
20
 30
0
 10
47.274
 20
20
 30
0
 10
47.2787
 20
20
 30
0
 10
47.2834
 20
20
 30
0
 10
47.2882
 20
20
 30
0
 10
47.29
 20
20
 30
0
 10
47.2919
 20
20
 30
0
 10
47.2938
 20
20
 30
0
  0
SPLINE
  5
DB7
330
A02
100
AcDbEntity
  8
Shape2DView
100
AcDbSpline
210
0
220
0
230
1
 70
8
 71
3
 72
23
 73
19
 74
0
 40
4.72984
 40
4.72984
 40
4.72984
 40
4.72984
 40
4.8408
 40
4.8408
 40
4.8408
 40
4.95175
 40
4.95175
 40
4.95175
 40
5.0627
 40
5.0627
 40
5.0627
 40
5.28461
 40
5.28461
 40
5.28461
 40
5.50651
 40
5.50651
 40
5.50651
 40
6.28319
 40
6.28319
 40
6.28319
 40
6.28319
 10
-46.5
 20
-20.7938
 30
0
 10
-46.5
 20
-20.7919
 30
0
 10
-46.5
 20
-20.79
 30
0
 10
-46.5
 20
-20.7882
 30
0
 10
-46.5
 20
-20.7834
 30
0
 10
-46.5
 20
-20.7787
 30
0
 10
-46.5
 20
-20.774
 30
0
 10
-46.5
 20
-20.7664
 30
0
 10
-46.5
 20
-20.7589
 30
0
 10
-46.5
 20
-20.7514
 30
0
 10
-46.5
 20
-20.7324
 30
0
 10
-46.5
 20
-20.7094
 30
0
 10
-46.5
 20
-20.6824
 30
0
 10
-46.5
 20
-20.6533
 30
0
 10
-46.5
 20
-20.6207
 30
0
 10
-46.5
 20
-20.5846
 30
0
 10
-46.5
 20
-20.4546
 30
0
 10
-46.5
 20
-20.2756
 30
0
 10
-46.5
 20
-20.0939
 30
0
  0
SPLINE
  5
DB8
330
A02
100
AcDbEntity
  8
Shape2DView
100
AcDbSpline
210
0
220
0
230
1
 70
8
 71
3
 72
26
 73
22
 74
0
 40
0
 40
0
 40
0
 40
0
 40
0.776672
 40
0.776672
 40
0.776672
 40
0.887625
 40
0.887625
 40
0.887625
 40
1.10953
 40
1.10953
 40
1.10953
 40
1.22048
 40
1.22048
 40
1.22048
 40
1.33144
 40
1.33144
 40
1.33144
 40
1.44239
 40
1.44239
 40
1.44239
 40
1.55334
 40
1.55334
 40
1.55334
 40
1.55334
 10
46.5
 20
20.0939
 30
0
 10
46.5
 20
20.2756
 30
0
 10
46.5
 20
20.4546
 30
0
 10
46.5
 20
20.5846
 30
0
 10
46.5
 20
20.602
 30
0
 10
46.5
 20
20.6194
 30
0
 10
46.5
 20
20.6368
 30
0
 10
46.5
 20
20.6686
 30
0
 10
46.5
 20
20.6966
 30
0
 10
46.5
 20
20.7208
 30
0
 10
46.5
 20
20.731
 30
0
 10
46.5
 20
20.7412
 30
0
 10
46.5
 20
20.7514
 30
0
 10
46.5
 20
20.7589
 30
0
 10
46.5
 20
20.7664
 30
0
 10
46.5
 20
20.774
 30
0
 10
46.5
 20
20.7787
 30
0
 10
46.5
 20
20.7834
 30
0
 10
46.5
 20
20.7882
 30
0
 10
46.5
 20
20.79
 30
0
 10
46.5
 20
20.7919
 30
0
 10
46.5
 20
20.7938
 30
0
  0
SPLINE
  5
DB9
330
A02
100
AcDbEntity
  8
Shape2DView
100
AcDbSpline
210
0
220
0
230
1
 70
8
 71
3
 72
23
 73
19
 74
0
 40
4.72984
 40
4.72984
 40
4.72984
 40
4.72984
 40
4.8408
 40
4.8408
 40
4.8408
 40
4.95175
 40
4.95175
 40
4.95175
 40
5.0627
 40
5.0627
 40
5.0627
 40
5.28461
 40
5.28461
 40
5.28461
 40
5.50651
 40
5.50651
 40
5.50651
 40
6.28319
 40
6.28319
 40
6.28319
 40
6.28319
 10
-47.2938
 20
-20
 30
0
 10
-47.2919
 20
-20
 30
0
 10
-47.29
 20
-20
 30
0
 10
-47.2882
 20
-20
 30
0
 10
-47.2834
 20
-20
 30
0
 10
-47.2787
 20
-20
 30
0
 10
-47.274
 20
-20
 30
0
 10
-47.2664
 20
-20
 30
0
 10
-47.2589
 20
-20
 30
0
 10
-47.2514
 20
-20
 30
0
 10
-47.2324
 20
-20
 30
0
 10
-47.2094
 20
-20
 30
0
 10
-47.1824
 20
-20
 30
0
 10
-47.1533
 20
-20
 30
0
 10
-47.1207
 20
-20
 30
0
 10
-47.0846
 20
-20
 30
0
 10
-46.9546
 20
-20
 30
0
 10
-46.7756
 20
-20
 30
0
 10
-46.5939
 20
-20
 30
0
  0
SPLINE
  5
DBA
330
A02
100
AcDbEntity
  8
Shape2DView
100
AcDbSpline
210
0
220
0
230
1
 70
8
 71
3
 72
23
 73
19
 74
0
 40
4.72984
 40
4.72984
 40
4.72984
 40
4.72984
 40
4.8408
 40
4.8408
 40
4.8408
 40
4.95175
 40
4.95175
 40
4.95175
 40
5.0627
 40
5.0627
 40
5.0627
 40
5.28461
 40
5.28461
 40
5.28461
 40
5.50651
 40
5.50651
 40
5.50651
 40
6.28319
 40
6.28319
 40
6.28319
 40
6.28319
 10
-47.2938
 20
20
 30
0
 10
-47.2919
 20
20
 30
0
 10
-47.29
 20
20
 30
0
 10
-47.2882
 20
20
 30
0
 10
-47.2834
 20
20
 30
0
 10
-47.2787
 20
20
 30
0
 10
-47.274
 20
20
 30
0
 10
-47.2664
 20
20
 30
0
 10
-47.2589
 20
20
 30
0
 10
-47.2514
 20
20
 30
0
 10
-47.2324
 20
20
 30
0
 10
-47.2094
 20
20
 30
0
 10
-47.1824
 20
20
 30
0
 10
-47.1533
 20
20
 30
0
 10
-47.1207
 20
20
 30
0
 10
-47.0846
 20
20
 30
0
 10
-46.9546
 20
20
 30
0
 10
-46.7756
 20
20
 30
0
 10
-46.5939
 20
20
 30
0
  0
LINE
  5
DBB
330
A02
100
AcDbEntity
  8
Shape2DView
100
AcDbLine
 10
-42.2015
 20
1.93693
 30
0
 11
-42.2015
 21
-3.71612
 31
0
  0
LINE
  5
DBC
330
A02
100
AcDbEntity
  8
Shape2DView
100
AcDbLine
 10
-42.2015
 20
-3.71612
 30
0
 11
42.1766
 21
-3.71612
 31
0
  0
LINE
  5
DBD
330
A02
100
AcDbEntity
  8
Shape2DView
100
AcDbLine
 10
42.1766
 20
-3.71612
 30
0
 11
42.1766
 21
1.93693
 31
0
  0
LINE
  5
DBE
330
A02
100
AcDbEntity
  8
Shape2DView
100
AcDbLine
 10
42.1766
 20
1.93693
 30
0
 11
-42.2015
 21
1.93693
 31
0
  0
LINE
  5
DBF
330
A02
100
AcDbEntity
  8
Shape2DView
100
AcDbLine
 10
-42.2015
 20
-6.08807
 30
0
 11
-42.2015
 21
-11.7411
 31
0
  0
LINE
  5
DC0
330
A02
100
AcDbEntity
  8
Shape2DView
100
AcDbLine
 10
-42.2015
 20
-11.7411
 30
0
 11
42.1766
 21
-11.7411
 31
0
  0
LINE
  5
DC1
330
A02
100
AcDbEntity
  8
Shape2DView
100
AcDbLine
 10
42.1766
 20
-11.7411
 30
0
 11
42.1766
 21
-6.08807
 31
0
  0
LINE
  5
DC2
330
A02
100
AcDbEntity
  8
Shape2DView
100
AcDbLine
 10
42.1766
 20
-6.08807
 30
0
 11
-42.2015
 21
-6.08807
 31
0
  0
SPLINE
  5
DC3
330
A02
100
AcDbEntity
  8
Shape2DView
100
AcDbSpline
210
0
220
0
230
1
 70
8
 71
3
 72
8
 73
4
 74
0
 40
4.72984
 40
4.72984
 40
4.72984
 40
4.72984
 40
6.28319
 40
6.28319
 40
6.28319
 40
6.28319
 10
7.66054
 20
20.2939
 30
0
 10
7.65777
 20
20.2942
 30
0
 10
7.65533
 20
20.1996
 30
0
 10
7.65539
 20
20.0939
 30
0
  0
LINE
  5
DC4
330
A02
100
AcDbEntity
  8
Shape2DView
100
AcDbLine
 10
7.65539
 20
20.0939
 30
0
 11
7.65539
 21
19.2815
 31
0
  0
LINE
  5
DC5
330
A02
100
AcDbEntity
  8
Shape2DView
100
AcDbLine
 10
7.85213
 20
20.4216
 30
0
 11
7.66054
 21
20.2939
 31
0
  0
SPLINE
  5
DC6
330
A02
100
AcDbEntity
  8
Shape2DView
100
AcDbSpline
210
0
220
0
230
1
 70
8
 71
3
 72
8
 73
4
 74
0
 40
3.14159
 40
3.14159
 40
3.14159
 40
3.14159
 40
4.69494
 40
4.69494
 40
4.69494
 40
4.69494
 10
34.1845
 20
20.0939
 30
0
 10
34.1846
 20
20.1996
 30
0
 10
34.1822
 20
20.2942
 30
0
 10
34.1794
 20
20.2939
 30
0
  0
LINE
  5
DC7
330
A02
100
AcDbEntity
  8
Shape2DView
100
AcDbLine
 10
34.1794
 20
20.2939
 30
0
 11
33.9878
 21
20.4216
 31
0
  0
LINE
  5
DC8
330
A02
100
AcDbEntity
  8
Shape2DView
100
AcDbLine
 10
34.1845
 20
19.2815
 30
0
 11
34.1845
 21
20.0939
 31
0
  0
LINE
  5
DC9
330
A02
100
AcDbEntity
  8
Shape2DView
100
AcDbLine
 10
7.65539
 20
19.2815
 30
0
 11
34.1845
 21
19.2815
 31
0
  0
SPLINE
  5
DCA
330
A02
100
AcDbEntity
  8
Shape2DView
100
AcDbSpline
210
0
220
0
230
1
 70
8
 71
3
 72
11
 73
7
 74
0
 40
1.59698
 40
1.59698
 40
1.59698
 40
1.59698
 40
2.36928
 40
2.36928
 40
2.36928
 40
3.14159
 40
3.14159
 40
3.14159
 40
3.14159
 10
7.65539
 20
20.0939
 30
0
 10
7.65158
 20
20.0939
 30
0
 10
7.59656
 20
20.0939
 30
0
 10
7.50446
 20
20.0939
 30
0
 10
7.41175
 20
20.0939
 30
0
 10
7.28456
 20
20.0939
 30
0
 10
7.15556
 20
20.0939
 30
0
  0
SPLINE
  5
DCB
330
A02
100
AcDbEntity
  8
Shape2DView
100
AcDbSpline
210
0
220
0
230
1
 70
8
 71
3
 72
11
 73
7
 74
0
 40
4.73857
 40
4.73857
 40
4.73857
 40
4.73857
 40
5.51088
 40
5.51088
 40
5.51088
 40
6.28319
 40
6.28319
 40
6.28319
 40
6.28319
 10
34.1845
 20
20.0939
 30
0
 10
34.1883
 20
20.0939
 30
0
 10
34.2434
 20
20.0939
 30
0
 10
34.3355
 20
20.0939
 30
0
 10
34.4282
 20
20.0939
 30
0
 10
34.5554
 20
20.0939
 30
0
 10
34.6844
 20
20.0939
 30
0
  0
ENDSEC
  0
SECTION
  2
OBJECTS
  0
DICTIONARY
  5
F000
330
0
100
AcDbDictionary
  3
ACAD_GROUP
350
F001
  0
DICTIONARY
  5
F001
330
F000
100
AcDbDictionary
  0
ENDSEC
  0
EOF