  0
SECTION
  2
HEADER
  9
$ACADVER
  1
AC1009
  9
$INSBASE
 10
0.0
 20
0.0
 30
0.0
  9
$EXTMIN
 10
0.0
 20
0.0
 30
0.0
  9
$EXTMAX
 10
0.0
 20
0.0
 30
0.0
  0
ENDSEC
  0
SECTION
  2
TABLES
  0
TABLE
  2
VPORT
 70
0
  0
ENDTAB
  0
TABLE
  2
LTYPE
 70
1
  0
LTYPE
  2
CONTINUOUS
 70
0
  3
Solid line
 72
65
 73
0
 40
0.0
  0
ENDTAB
  0
TABLE
  2
LAYER
 70
1
  0
LAYER
  2
0
 70
64
 62
7
  6
continuous
  0
ENDTAB
  0
TABLE
  2
STYLE
 70
1
  0
STYLE
  2
STANDARD
 70
0
 40
0
 41
1.0
 50
0.0
 71
0
 42
1
 3
ARIAL.TTF
 4

  0
ENDTAB
  0
TABLE
  2
VIEW
 70
0
  0
ENDTAB
  0
ENDSEC
  0
SECTION
  2
BLOCKS
  0
BLOCK
  8
0
  2
SHAPE2DVIEW
 70
0
 10
0.0
 20
0.0
 30
0.0
  3
SHAPE2DVIEW
  0
LINE
  8
0
 62
0
 10
2.824999999999968
 20
-11.000000000000014
 30
0.0
 11
2.825000000000029
 21
6.499999999999984
 31
0.0
  0
LINE
  8
0
 62
0
 10
2.8249999999999615
 20
-13.55000000000001
 30
0.0
 11
2.824999999999968
 21
-11.000000000000012
 31
0.0
  0
LINE
  8
0
 62
0
 10
2.8250000000000273
 20
6.499999999999985
 30
0.0
 11
2.825000000000038
 21
9.049999999999981
 31
0.0
  0
LINE
  8
0
 62
0
 10
-2.9250000000000327
 20
-10.999999999999998
 30
0.0
 11
-2.924999999999972
 21
6.500000000000005
 31
0.0
  0
LINE
  8
0
 62
0
 10
2.824999999999968
 20
-11.000000000000014
 30
0.0
 11
-2.925000000000031
 21
-10.999999999999998
 31
0.0
  0
LINE
  8
0
 62
0
 10
-2.924999999999972
 20
6.5000000000000036
 30
0.0
 11
2.8250000000000273
 21
6.499999999999983
 31
0.0
  0
LINE
  8
0
 62
0
 10
-1.585769515458699
 20
-13.55
 30
0.0
 11
2.824999999999962
 21
-13.55000000000001
 31
0.0
  0
LINE
  8
0
 62
0
 10
2.824999999999959
 20
-13.550000000000011
 30
0.0
 11
3.4249999999999576
 21
-13.550000000000011
 31
0.0
  0
LINE
  8
0
 62
0
 10
-2.925000000000031
 20
-10.999999999999996
 30
0.0
 11
-2.925000000000041
 21
-14.149999999999995
 31
0.0
  0
LINE
  8
0
 62
0
 10
-2.925000000000041
 20
-14.149999999999995
 30
0.0
 11
-2.6250000000000457
 21
-14.149999999999997
 31
0.0
  0
LINE
  8
0
 62
0
 10
-2.625000000000045
 20
-14.149999999999999
 30
0.0
 11
-1.585769515458699
 21
-13.55
 31
0.0
  0
LINE
  8
0
 62
0
 10
3.424999999999959
 20
-13.550000000000011
 30
0.0
 11
3.4250000000000376
 21
9.049999999999985
 31
0.0
  0
LINE
  8
0
 62
0
 10
3.4250000000000393
 20
9.049999999999986
 30
0.0
 11
2.825000000000038
 21
9.049999999999986
 31
0.0
  0
LINE
  8
0
 62
0
 10
2.8250000000000384
 20
9.049999999999981
 30
0.0
 11
-1.5857695154586227
 21
9.05
 31
0.0
  0
LINE
  8
0
 62
0
 10
-1.585769515458623
 20
9.05
 30
0.0
 11
-2.624999999999961
 21
9.650000000000004
 31
0.0
  0
LINE
  8
0
 62
0
 10
-2.624999999999961
 20
9.650000000000004
 30
0.0
 11
-2.9249999999999607
 21
9.650000000000006
 31
0.0
  0
LINE
  8
0
 62
0
 10
-2.9249999999999607
 20
9.650000000000006
 30
0.0
 11
-2.924999999999972
 21
6.500000000000005
 31
0.0
  0
LINE
  8
0
 62
0
 10
-2.925000000000043
 20
-14.149999999999995
 30
0.0
 11
-3.4250000000000425
 21
-14.149999999999993
 31
0.0
  0
LINE
  8
0
 62
0
 10
-2.92499999999996
 20
9.650000000000007
 30
0.0
 11
-3.4249999999999594
 21
9.65000000000001
 31
0.0
  0
LINE
  8
0
 62
0
 10
-3.425000000000033
 20
-11.474999999999994
 30
0.0
 11
-3.4250000000000314
 21
-11.024999999999993
 31
0.0
  0
LINE
  8
0
 62
0
 10
-2.9250000000000336
 20
-11.474999999999998
 30
0.0
 11
-3.425000000000033
 21
-11.474999999999996
 31
0.0
  0
LINE
  8
0
 62
0
 10
-2.925000000000032
 20
-11.024999999999997
 30
0.0
 11
-3.4250000000000314
 21
-11.024999999999995
 31
0.0
  0
LINE
  8
0
 62
0
 10
-3.424999999999977
 20
4.525000000000004
 30
0.0
 11
-3.424999999999976
 21
4.975000000000007
 31
0.0
  0
LINE
  8
0
 62
0
 10
-2.924999999999978
 20
4.525000000000005
 30
0.0
 11
-3.4249999999999776
 21
4.525000000000007
 31
0.0
  0
LINE
  8
0
 62
0
 10
-2.9249999999999763
 20
4.975000000000008
 30
0.0
 11
-3.424999999999976
 21
4.975000000000009
 31
0.0
  0
LINE
  8
0
 62
0
 10
-3.4249999999999914
 20
0.5250000000000057
 30
0.0
 11
-3.4249999999999896
 21
0.9750000000000085
 31
0.0
  0
LINE
  8
0
 62
0
 10
-2.924999999999992
 20
0.525000000000004
 30
0.0
 11
-3.4249999999999914
 21
0.5250000000000058
 31
0.0
  0
LINE
  8
0
 62
0
 10
-2.92499999999999
 20
0.9750000000000065
 30
0.0
 11
-3.4249999999999896
 21
0.9750000000000083
 31
0.0
  0
LINE
  8
0
 62
0
 10
-3.4250000000000194
 20
-7.474999999999994
 30
0.0
 11
-3.4250000000000176
 21
-7.024999999999992
 31
0.0
  0
LINE
  8
0
 62
0
 10
-2.92500000000002
 20
-7.474999999999995
 30
0.0
 11
-3.4250000000000194
 21
-7.474999999999993
 31
0.0
  0
LINE
  8
0
 62
0
 10
-2.925000000000018
 20
-7.024999999999993
 30
0.0
 11
-3.4250000000000176
 21
-7.0249999999999915
 31
0.0
  0
LINE
  8
0
 62
0
 10
-3.425000000000005
 20
-3.4749999999999943
 30
0.0
 11
-3.425000000000004
 21
-3.0249999999999915
 31
0.0
  0
LINE
  8
0
 62
0
 10
-2.9250000000000056
 20
-3.4749999999999956
 30
0.0
 11
-3.425000000000005
 21
-3.474999999999994
 31
0.0
  0
LINE
  8
0
 62
0
 10
-2.925000000000004
 20
-3.0249999999999932
 30
0.0
 11
-3.4250000000000034
 21
-3.0249999999999915
 31
0.0
  0
LINE
  8
0
 62
0
 10
-3.42499999999997
 20
6.5250000000000075
 30
0.0
 11
-3.4249999999999687
 21
6.975000000000007
 31
0.0
  0
LINE
  8
0
 62
0
 10
-2.924999999999971
 20
6.525000000000004
 30
0.0
 11
-3.4249999999999705
 21
6.525000000000006
 31
0.0
  0
LINE
  8
0
 62
0
 10
-2.924999999999969
 20
6.975000000000007
 30
0.0
 11
-3.4249999999999687
 21
6.9750000000000085
 31
0.0
  0
LINE
  8
0
 62
0
 10
-2.925000000000039
 20
-13.024999999999995
 30
0.0
 11
-3.4250000000000385
 21
-13.024999999999993
 31
0.0
  0
LINE
  8
0
 62
0
 10
-3.4250000000000425
 20
-14.149999999999993
 30
0.0
 11
-3.4250000000000385
 21
-13.024999999999991
 31
0.0
  0
LINE
  8
0
 62
0
 10
-3.425000000000026
 20
-9.474999999999998
 30
0.0
 11
-3.4250000000000247
 21
-9.024999999999991
 31
0.0
  0
LINE
  8
0
 62
0
 10
-2.9250000000000265
 20
-9.474999999999998
 30
0.0
 11
-3.425000000000026
 21
-9.474999999999996
 31
0.0
  0
LINE
  8
0
 62
0
 10
-2.9250000000000247
 20
-9.024999999999995
 30
0.0
 11
-3.4250000000000242
 21
-9.024999999999993
 31
0.0
  0
LINE
  8
0
 62
0
 10
-3.4249999999999843
 20
2.525000000000004
 30
0.0
 11
-3.4249999999999825
 21
2.9750000000000068
 31
0.0
  0
LINE
  8
0
 62
0
 10
-2.9249999999999847
 20
2.525000000000005
 30
0.0
 11
-3.4249999999999843
 21
2.5250000000000066
 31
0.0
  0
LINE
  8
0
 62
0
 10
-2.924999999999983
 20
2.975000000000007
 30
0.0
 11
-3.424999999999983
 21
2.975000000000009
 31
0.0
  0
LINE
  8
0
 62
0
 10
-3.424999999999998
 20
-1.4749999999999943
 30
0.0
 11
-3.4249999999999967
 21
-1.0249999999999915
 31
0.0
  0
LINE
  8
0
 62
0
 10
-2.924999999999999
 20
-1.474999999999996
 30
0.0
 11
-3.4249999999999985
 21
-1.4749999999999943
 31
0.0
  0
LINE
  8
0
 62
0
 10
-2.924999999999997
 20
-1.0249999999999932
 30
0.0
 11
-3.4249999999999967
 21
-1.0249999999999915
 31
0.0
  0
LINE
  8
0
 62
0
 10
-3.4249999999999634
 20
8.525000000000004
 30
0.0
 11
-3.4249999999999594
 21
9.650000000000011
 31
0.0
  0
LINE
  8
0
 62
0
 10
-2.9249999999999643
 20
8.525000000000004
 30
0.0
 11
-3.424999999999964
 21
8.525000000000006
 31
0.0
  0
LINE
  8
0
 62
0
 10
-3.4250000000000123
 20
-5.4749999999999925
 30
0.0
 11
-3.4250000000000105
 21
-5.0249999999999915
 31
0.0
  0
LINE
  8
0
 62
0
 10
-2.9250000000000127
 20
-5.474999999999996
 30
0.0
 11
-3.4250000000000123
 21
-5.474999999999994
 31
0.0
  0
LINE
  8
0
 62
0
 10
-2.925000000000011
 20
-5.024999999999994
 30
0.0
 11
-3.4250000000000105
 21
-5.024999999999992
 31
0.0
  0
ENDBLK
  0
ENDSEC
  0
SECTION
  2
ENTITIES
  0
INSERT
  2
SHAPE2DVIEW
  8
0
 62
0
 10
0.0
 20
0.0
 30
0.0
  0
ENDSEC
  0
EOF
