  0
SECTION
  2
HEADER
  9
$ACADVER
  1
AC1009
  9
$INSBASE
 10
0.0
 20
0.0
 30
0.0
  9
$EXTMIN
 10
0.0
 20
0.0
 30
0.0
  9
$EXTMAX
 10
0.0
 20
0.0
 30
0.0
  0
ENDSEC
  0
SECTION
  2
TABLES
  0
TABLE
  2
VPORT
 70
0
  0
ENDTAB
  0
TABLE
  2
LTYPE
 70
1
  0
LTYPE
  2
CONTINUOUS
 70
0
  3
Solid line
 72
65
 73
0
 40
0.0
  0
ENDTAB
  0
TABLE
  2
LAYER
 70
1
  0
LAYER
  2
0
 70
64
 62
7
  6
continuous
  0
ENDTAB
  0
TABLE
  2
STYLE
 70
1
  0
STYLE
  2
STANDARD
 70
0
 40
0
 41
1.0
 50
0.0
 71
0
 42
1
 3
ARIAL.TTF
 4

  0
ENDTAB
  0
TABLE
  2
VIEW
 70
0
  0
ENDTAB
  0
ENDSEC
  0
SECTION
  2
BLOCKS
  0
BLOCK
  8
0
  2
SHAPE2DVIEW
 70
0
 10
0.0
 20
0.0
 30
0.0
  3
SHAPE2DVIEW
  0
LINE
  8
0
 62
0
 10
2.824999999999986
 20
-6.000000000000017
 30
0.0
 11
2.825000000000012
 21
1.4999999999999822
 31
0.0
  0
LINE
  8
0
 62
0
 10
2.8249999999999784
 20
-8.550000000000017
 30
0.0
 11
2.824999999999987
 21
-6.000000000000014
 31
0.0
  0
LINE
  8
0
 62
0
 10
2.825000000000012
 20
1.4999999999999853
 30
0.0
 11
2.825000000000021
 21
4.049999999999985
 31
0.0
  0
LINE
  8
0
 62
0
 10
2.8250000000000215
 20
4.049999999999986
 30
0.0
 11
-1.5857695154586413
 21
4.050000000000002
 31
0.0
  0
LINE
  8
0
 62
0
 10
-1.5857695154586413
 20
4.050000000000001
 30
0.0
 11
-2.6249999999999787
 21
4.650000000000004
 31
0.0
  0
LINE
  8
0
 62
0
 10
-2.6249999999999787
 20
4.650000000000005
 30
0.0
 11
-2.9249999999999776
 21
4.650000000000006
 31
0.0
  0
LINE
  8
0
 62
0
 10
-2.9249999999999776
 20
4.650000000000006
 30
0.0
 11
-2.9249999999999887
 21
1.5000000000000069
 31
0.0
  0
LINE
  8
0
 62
0
 10
-1.585769515458684
 20
-8.550000000000002
 30
0.0
 11
2.824999999999979
 21
-8.550000000000015
 31
0.0
  0
LINE
  8
0
 62
0
 10
2.8249999999999766
 20
-8.550000000000013
 30
0.0
 11
3.424999999999976
 21
-8.550000000000013
 31
0.0
  0
LINE
  8
0
 62
0
 10
3.424999999999977
 20
-8.550000000000013
 30
0.0
 11
3.425000000000021
 21
4.049999999999992
 31
0.0
  0
LINE
  8
0
 62
0
 10
3.4250000000000207
 20
4.049999999999993
 30
0.0
 11
2.825000000000021
 21
4.049999999999993
 31
0.0
  0
LINE
  8
0
 62
0
 10
-2.925000000000015
 20
-5.999999999999999
 30
0.0
 11
-2.9249999999999887
 21
1.5000000000000053
 31
0.0
  0
LINE
  8
0
 62
0
 10
2.824999999999987
 20
-6.000000000000017
 30
0.0
 11
-2.925000000000014
 21
-5.999999999999999
 31
0.0
  0
LINE
  8
0
 62
0
 10
-2.9249999999999887
 20
1.5000000000000049
 30
0.0
 11
2.825000000000012
 21
1.4999999999999831
 31
0.0
  0
LINE
  8
0
 62
0
 10
-2.925000000000014
 20
-5.9999999999999964
 30
0.0
 11
-2.9250000000000242
 21
-9.149999999999995
 31
0.0
  0
LINE
  8
0
 62
0
 10
-2.9250000000000242
 20
-9.149999999999995
 30
0.0
 11
-2.625000000000028
 21
-9.149999999999997
 31
0.0
  0
LINE
  8
0
 62
0
 10
-2.6250000000000275
 20
-9.15
 30
0.0
 11
-1.5857695154586837
 21
-8.550000000000002
 31
0.0
  0
LINE
  8
0
 62
0
 10
-2.9249999999999767
 20
4.650000000000007
 30
0.0
 11
-3.4249999999999763
 21
4.650000000000008
 31
0.0
  0
LINE
  8
0
 62
0
 10
-2.925000000000025
 20
-9.149999999999995
 30
0.0
 11
-3.4250000000000247
 21
-9.149999999999993
 31
0.0
  0
LINE
  8
0
 62
0
 10
-3.4249999999999803
 20
3.5250000000000092
 30
0.0
 11
-3.4249999999999767
 21
4.6500000000000075
 31
0.0
  0
LINE
  8
0
 62
0
 10
-2.924999999999981
 20
3.5250000000000083
 30
0.0
 11
-3.4249999999999807
 21
3.52500000000001
 31
0.0
  0
LINE
  8
0
 62
0
 10
-3.4249999999999945
 20
-0.47499999999999076
 30
0.0
 11
-3.4249999999999927
 21
-0.024999999999991473
 31
0.0
  0
LINE
  8
0
 62
0
 10
-2.924999999999995
 20
-0.47499999999999226
 30
0.0
 11
-3.4249999999999945
 21
-0.47499999999999054
 31
0.0
  0
LINE
  8
0
 62
0
 10
-2.924999999999993
 20
-0.024999999999992646
 30
0.0
 11
-3.4249999999999927
 21
-0.0249999999999909
 31
0.0
  0
LINE
  8
0
 62
0
 10
-3.4250000000000083
 20
-4.474999999999991
 30
0.0
 11
-3.425000000000007
 21
-4.024999999999991
 31
0.0
  0
LINE
  8
0
 62
0
 10
-2.9250000000000087
 20
-4.474999999999992
 30
0.0
 11
-3.4250000000000083
 21
-4.47499999999999
 31
0.0
  0
LINE
  8
0
 62
0
 10
-2.925000000000007
 20
-4.024999999999992
 30
0.0
 11
-3.4250000000000065
 21
-4.024999999999991
 31
0.0
  0
LINE
  8
0
 62
0
 10
-3.4250000000000154
 20
-6.474999999999991
 30
0.0
 11
-3.4250000000000136
 21
-6.024999999999991
 31
0.0
  0
LINE
  8
0
 62
0
 10
-2.925000000000016
 20
-6.474999999999992
 30
0.0
 11
-3.4250000000000154
 21
-6.47499999999999
 31
0.0
  0
LINE
  8
0
 62
0
 10
-2.925000000000014
 20
-6.024999999999993
 30
0.0
 11
-3.4250000000000136
 21
-6.0249999999999915
 31
0.0
  0
LINE
  8
0
 62
0
 10
-3.4249999999999874
 20
1.5250000000000092
 30
0.0
 11
-3.424999999999986
 21
1.9750000000000085
 31
0.0
  0
LINE
  8
0
 62
0
 10
-2.924999999999988
 20
1.5250000000000075
 30
0.0
 11
-3.4249999999999874
 21
1.5250000000000092
 31
0.0
  0
LINE
  8
0
 62
0
 10
-2.924999999999986
 20
1.9750000000000079
 30
0.0
 11
-3.4249999999999856
 21
1.9750000000000096
 31
0.0
  0
LINE
  8
0
 62
0
 10
-2.9250000000000207
 20
-8.024999999999993
 30
0.0
 11
-3.4250000000000207
 21
-8.024999999999991
 31
0.0
  0
LINE
  8
0
 62
0
 10
-3.4250000000000247
 20
-9.149999999999993
 30
0.0
 11
-3.4250000000000207
 21
-8.02499999999999
 31
0.0
  0
LINE
  8
0
 62
0
 10
-3.4250000000000016
 20
-2.4749999999999908
 30
0.0
 11
-3.425
 21
-2.0249999999999906
 31
0.0
  0
LINE
  8
0
 62
0
 10
-2.9250000000000016
 20
-2.4749999999999925
 30
0.0
 11
-3.4250000000000016
 21
-2.4749999999999908
 31
0.0
  0
LINE
  8
0
 62
0
 10
-2.9250000000000003
 20
-2.0249999999999924
 30
0.0
 11
-3.425
 21
-2.0249999999999906
 31
0.0
  0
ENDBLK
  0
ENDSEC
  0
SECTION
  2
ENTITIES
  0
INSERT
  2
SHAPE2DVIEW
  8
0
 62
0
 10
0.0
 20
0.0
 30
0.0
  0
ENDSEC
  0
EOF
