M48
; DRILL file {KiCad (6.0.0-rc1-392-g84e0feeee6)} date Fri Dec 10 20:28:22 2021
; FORMAT={-:-/ absolute / inch / decimal}
; #@! TF.CreationDate,2021-12-10T20:28:22+07:00
; #@! TF.GenerationSoftware,Kicad,Pcbnew,(6.0.0-rc1-392-g84e0feeee6)
; #@! TF.FileFunction,MixedPlating,1,2
FMAT,2
INCH
; #@! TA.AperFunction,Plated,PTH,ViaDrill
T1C0.0118
; #@! TA.AperFunction,Plated,PTH,ViaDrill
T2C0.0157
; #@! TA.AperFunction,Plated,PTH,ComponentDrill
T3C0.0984
; #@! TA.AperFunction,NonPlated,NPTH,ComponentDrill
T4C0.1181
%
G90
G05
T1
X4.0094Y-2.5106
X4.0124Y-2.3849
X4.0791Y-2.4866
X4.0803Y-2.3603
X4.15Y-2.3353
X4.15Y-2.462
X4.2173Y-2.4374
X4.2196Y-2.3083
X4.2866Y-2.4094
X4.2893Y-2.2861
X4.3629Y-2.5112
X4.4122Y-2.4866
X4.4625Y-2.4618
X4.5122Y-2.437
X4.5622Y-2.4098
X4.6125Y-2.3353
X4.6389Y-2.2354
X4.6625Y-2.3134
X4.6633Y-2.4504
X4.7125Y-2.4512
X4.7133Y-2.2917
X4.7235Y-4.9569
X4.7727Y-4.603
X5.7732Y-2.5894
X5.8224Y-2.2354
X5.8325Y-4.9006
X5.8333Y-4.7412
X5.8825Y-4.742
X5.8833Y-4.879
X5.9069Y-4.9569
X5.9333Y-4.8571
X5.9837Y-4.7825
X6.0337Y-4.7554
X6.0833Y-4.7306
X6.1337Y-4.7057
X6.1829Y-4.6812
X6.2565Y-4.9063
X6.2593Y-4.7829
X6.3262Y-4.8841
X6.3286Y-4.7549
X6.3959Y-4.7303
X6.3959Y-4.8571
X6.4656Y-4.8321
X6.4668Y-4.7057
X6.5335Y-4.8075
X6.5364Y-4.6817
T2
X3.5539Y-3.0224
X3.5539Y-3.0815
X3.5539Y-3.1406
X3.5539Y-3.1996
X3.5539Y-3.2587
X3.5864Y-4.4258
X3.5864Y-4.4849
X3.5864Y-4.5439
X3.5864Y-4.603
X3.5864Y-4.662
X3.5864Y-4.7211
X3.6129Y-3.0224
X3.6129Y-3.0815
X3.6129Y-3.1406
X3.6129Y-3.1996
X3.6129Y-3.2587
X3.6455Y-4.4258
X3.6455Y-4.4849
X3.6455Y-4.5439
X3.6455Y-4.603
X3.6455Y-4.662
X3.6455Y-4.7211
X3.7132Y-4.5888
X3.7311Y-2.4909
X3.7311Y-2.55
X3.7311Y-2.6091
X3.7311Y-2.6681
X3.7311Y-2.7272
X3.7405Y-2.9854
X3.7423Y-3.8471
X3.7901Y-2.4909
X3.7901Y-2.55
X3.7901Y-2.6091
X3.7901Y-2.6681
X3.7901Y-2.7272
X3.8112Y-4.5892
X3.8185Y-3.3906
X3.8195Y-4.2057
X3.8204Y-2.928
X3.8211Y-3.8908
X3.8227Y-3.6581
X3.8227Y-3.7172
X3.8227Y-4.7408
X3.8227Y-4.7998
X3.8227Y-4.8589
X3.8227Y-4.918
X3.8227Y-4.977
X3.8492Y-2.4909
X3.8492Y-2.55
X3.8492Y-2.6091
X3.8492Y-2.6681
X3.8492Y-2.7272
X3.8688Y-3.4949
X3.8688Y-3.5539
X3.8817Y-3.6581
X3.8817Y-3.7172
X3.8817Y-4.7408
X3.8817Y-4.7998
X3.8817Y-4.8589
X3.8817Y-4.918
X3.8817Y-4.977
X3.9081Y-4.5884
X3.9279Y-3.4949
X3.9279Y-3.5539
X3.9408Y-3.6581
X3.9408Y-3.7172
X3.987Y-3.4949
X3.987Y-3.5539
X3.9998Y-3.6581
X3.9998Y-3.7172
X4.0049Y-4.588
X4.046Y-3.4949
X4.046Y-3.5539
X4.0542Y-4.5223
X4.0555Y-3.3016
X4.0566Y-2.987
X4.0581Y-3.803
X4.0589Y-3.6581
X4.0589Y-3.7172
X4.1026Y-4.588
X4.1051Y-3.4949
X4.1051Y-3.5539
X4.1349Y-4.1624
X4.1349Y-5.0215
X4.135Y-2.8898
X4.1354Y-3.0776
X4.1994Y-4.588
X4.2136Y-4.9983
X4.2486Y-4.5215
X4.2927Y-4.9569
X4.2967Y-4.588
X4.3935Y-4.588
X4.4086Y-2.9866
X4.412Y-3.8467
X4.4181Y-2.235
X4.4408Y-4.5219
X4.487Y-3.3906
X4.4876Y-4.2057
X4.488Y-3.8908
X4.4889Y-2.1941
X4.4908Y-4.5876
X4.5412Y-4.5211
X4.5688Y-2.1656
X4.5884Y-4.588
X4.6853Y-4.5845
X4.7232Y-3.3016
X4.724Y-2.987
X4.725Y-3.8018
X4.7885Y-2.374
X4.801Y-4.1487
X4.8043Y-3.0776
X4.8435Y-4.8187
X4.8582Y-2.6154
X4.9078Y-2.6154
X4.9566Y-2.6154
X5.0055Y-2.6157
X5.0762Y-4.1487
X5.0763Y-3.0429
X5.077Y-3.8471
X5.1389Y-2.6471
X5.1539Y-3.3906
X5.1549Y-4.2061
X5.1561Y-3.8908
X5.3897Y-3.3016
X5.3909Y-2.9862
X5.392Y-3.8018
X5.4069Y-4.5452
X5.4688Y-3.3453
X5.4695Y-4.1494
X5.4696Y-3.0437
X5.5404Y-4.5766
X5.5892Y-4.577
X5.638Y-4.577
X5.6876Y-4.577
X5.7023Y-2.3736
X5.7416Y-4.1148
X5.7448Y-3.0437
X5.7573Y-4.8183
X5.8208Y-3.3906
X5.8219Y-4.2054
X5.8227Y-3.8908
X5.8606Y-2.6079
X5.9574Y-2.6043
X5.977Y-5.0268
X6.0047Y-2.6713
X6.0551Y-2.6047
X6.0569Y-4.9983
X6.0578Y-3.3016
X6.0582Y-2.9866
X6.0589Y-3.8018
X6.1051Y-2.6705
X6.1278Y-4.9573
X6.1338Y-3.3457
X6.1372Y-4.2057
X6.1523Y-2.6043
X6.2492Y-2.6043
X6.2531Y-2.2354
X6.2972Y-2.6709
X6.3322Y-2.1941
X6.3464Y-2.6043
X6.4105Y-4.1148
X6.4109Y-4.3026
X6.411Y-2.1709
X6.411Y-3.0299
X6.4408Y-3.6384
X6.4408Y-3.6975
X6.4433Y-2.6043
X6.487Y-3.4752
X6.487Y-3.5343
X6.4877Y-3.3894
X6.4892Y-4.2054
X6.4904Y-3.8908
X6.4917Y-2.6701
X6.4998Y-3.6384
X6.4998Y-3.6975
X6.5409Y-2.6043
X6.546Y-3.4752
X6.546Y-3.5343
X6.5589Y-3.6384
X6.5589Y-3.6975
X6.6051Y-3.4752
X6.6051Y-3.5343
X6.6179Y-3.6384
X6.6179Y-3.6975
X6.6377Y-2.6039
X6.6641Y-2.2154
X6.6641Y-2.2744
X6.6641Y-2.3335
X6.6641Y-2.3925
X6.6641Y-2.4516
X6.6641Y-3.4752
X6.6641Y-3.5343
X6.677Y-3.6384
X6.677Y-3.6975
X6.6967Y-4.4652
X6.6967Y-4.5243
X6.6967Y-4.5833
X6.6967Y-4.6424
X6.6967Y-4.7014
X6.7232Y-2.2154
X6.7232Y-2.2744
X6.7232Y-2.3335
X6.7232Y-2.3925
X6.7232Y-2.4516
X6.7232Y-3.4752
X6.7232Y-3.5343
X6.7248Y-3.3016
X6.7254Y-4.2644
X6.7263Y-2.9866
X6.7274Y-3.8018
X6.7346Y-2.6031
X6.7557Y-4.4652
X6.7557Y-4.5243
X6.7557Y-4.5833
X6.7557Y-4.6424
X6.7557Y-4.7014
X6.8035Y-3.3453
X6.8053Y-4.2069
X6.8148Y-4.4652
X6.8148Y-4.5243
X6.8148Y-4.5833
X6.8148Y-4.6424
X6.8148Y-4.7014
X6.8326Y-2.6035
X6.9003Y-2.4713
X6.9003Y-2.5303
X6.9003Y-2.5894
X6.9003Y-2.6484
X6.9003Y-2.7075
X6.9003Y-2.7665
X6.9329Y-3.9337
X6.9329Y-3.9928
X6.9329Y-4.0518
X6.9329Y-4.1109
X6.9329Y-4.1699
X6.9594Y-2.4713
X6.9594Y-2.5303
X6.9594Y-2.5894
X6.9594Y-2.6484
X6.9594Y-2.7075
X6.9594Y-2.7665
X6.992Y-3.9337
X6.992Y-3.9928
X6.992Y-4.0518
X6.992Y-4.1109
X6.992Y-4.1699
T3
X3.6228Y-3.4719
X3.6229Y-3.7235
X6.923Y-3.4689
X6.9231Y-3.7205
T4
X3.6238Y-4.9351
X3.6257Y-2.2583
X6.9201Y-4.9341
X6.922Y-2.2573
T0
M30
