%TF.GenerationSoftware,KiCad,Pcbnew,(6.0.0-rc1-392-g84e0feeee6)*%
%TF.CreationDate,2021-12-10T20:28:18+07:00*%
%TF.ProjectId,Ambino Fan HUB CH552G_Pannelize,416d6269-6e6f-4204-9661-6e2048554220,rev?*%
%TF.SameCoordinates,Original*%
%TF.FileFunction,Other,Comment*%
%FSLAX46Y46*%
G04 Gerber Fmt 4.6, Leading zero omitted, Abs format (unit mm)*
G04 Created by KiCad (PCBNEW (6.0.0-rc1-392-g84e0feeee6)) date 2021-12-10 20:28:18*
%MOMM*%
%LPD*%
G01*
G04 APERTURE LIST*
%ADD10C,0.150000*%
%ADD11C,0.100000*%
%ADD12C,0.200000*%
G04 APERTURE END LIST*
D10*
X183786190Y-90065714D02*
X184024285Y-90732380D01*
X184262380Y-90065714D01*
X184643333Y-90351428D02*
X185405238Y-90351428D01*
X186310000Y-90684761D02*
X186214761Y-90732380D01*
X186024285Y-90732380D01*
X185929047Y-90684761D01*
X185881428Y-90637142D01*
X185833809Y-90541904D01*
X185833809Y-90256190D01*
X185881428Y-90160952D01*
X185929047Y-90113333D01*
X186024285Y-90065714D01*
X186214761Y-90065714D01*
X186310000Y-90113333D01*
X187167142Y-90065714D02*
X187167142Y-90732380D01*
X186738571Y-90065714D02*
X186738571Y-90589523D01*
X186786190Y-90684761D01*
X186881428Y-90732380D01*
X187024285Y-90732380D01*
X187119523Y-90684761D01*
X187167142Y-90637142D01*
X187500476Y-90065714D02*
X187881428Y-90065714D01*
X187643333Y-89732380D02*
X187643333Y-90589523D01*
X187690952Y-90684761D01*
X187786190Y-90732380D01*
X187881428Y-90732380D01*
D11*
X83080000Y-91340000D02*
X187930000Y-91320000D01*
D12*
%TO.C,J13*%
X114220681Y-109976000D02*
X114220681Y-109476000D01*
X115720680Y-104626000D02*
X116220680Y-104626000D01*
X115720681Y-109976000D02*
X116220681Y-109976000D01*
X115720680Y-106626000D02*
X115720680Y-104626000D01*
X110670681Y-107326000D02*
X123270681Y-107326000D01*
X113170681Y-111626000D02*
X108995681Y-111626000D01*
X119720680Y-106626000D02*
X119720680Y-104626000D01*
X124045681Y-109976000D02*
X123270681Y-109976000D01*
X110670681Y-110826000D02*
X113170681Y-110826000D01*
X116220681Y-109476000D02*
X115720681Y-109476000D01*
X117720680Y-104626000D02*
X118220680Y-104626000D01*
X112220681Y-109476000D02*
X111720681Y-109476000D01*
X124045681Y-109976000D02*
X124045681Y-109175999D01*
X109895681Y-109176000D02*
X109895681Y-108026000D01*
X124045681Y-109976000D02*
X124045681Y-110225999D01*
X109895681Y-110226000D02*
X109895681Y-109976000D01*
X116220680Y-106626000D02*
X116220680Y-104626000D01*
X123270681Y-109976000D02*
X123270681Y-110826000D01*
X110670681Y-109176000D02*
X123270681Y-109176000D01*
X108995681Y-110226000D02*
X109895681Y-110226000D01*
X118220680Y-106626000D02*
X118220680Y-104626000D01*
X108995681Y-110226000D02*
X108995681Y-111626000D01*
X119720681Y-109976000D02*
X120220681Y-109976000D01*
X121720680Y-106626000D02*
X121720680Y-104626000D01*
X108995681Y-106626000D02*
X108995681Y-108026000D01*
X123270681Y-107326000D02*
X123270681Y-109176000D01*
X124045681Y-108026000D02*
X124045681Y-109175999D01*
X113170681Y-110826000D02*
X120770681Y-110826000D01*
X112220680Y-106626000D02*
X112220680Y-104626000D01*
X113170681Y-110826000D02*
X113170681Y-111626000D01*
X118220681Y-109976000D02*
X118220681Y-109476000D01*
X109895681Y-108026000D02*
X108995681Y-108026000D01*
X120220680Y-106626000D02*
X120220680Y-104626000D01*
X111720681Y-109976000D02*
X112220681Y-109976000D01*
X110670681Y-109976000D02*
X110670681Y-110826000D01*
X124945680Y-106625999D02*
X124945680Y-108025999D01*
X123270681Y-109176000D02*
X123270681Y-109976000D01*
X109895681Y-109176000D02*
X109895681Y-109976000D01*
X113720681Y-109976000D02*
X114220681Y-109976000D01*
X124295681Y-108025999D02*
X124295681Y-110225999D01*
X113170681Y-111626000D02*
X120770681Y-111626000D01*
X124045681Y-109175999D02*
X123270681Y-109176000D01*
X110670681Y-107326000D02*
X110670681Y-109176000D01*
X111720681Y-109476000D02*
X111720681Y-109976000D01*
X119720680Y-104626000D02*
X120220680Y-104626000D01*
X120220681Y-109476000D02*
X119720681Y-109476000D01*
X120770681Y-110826000D02*
X123270681Y-110826000D01*
X118220681Y-109476000D02*
X117720681Y-109476000D01*
X116220681Y-109976000D02*
X116220681Y-109476000D01*
X124945680Y-110225999D02*
X124945680Y-111625999D01*
X121720680Y-104626000D02*
X122220680Y-104626000D01*
X120220681Y-109976000D02*
X120220681Y-109476000D01*
X112220681Y-109976000D02*
X112220681Y-109476000D01*
X113720680Y-106626000D02*
X113720680Y-104626000D01*
X122220681Y-109476000D02*
X121720681Y-109476000D01*
X109645681Y-108026000D02*
X109645681Y-110226000D01*
X117720680Y-106626000D02*
X117720680Y-104626000D01*
X124945680Y-111625999D02*
X120770681Y-111626000D01*
X111720680Y-106626000D02*
X111720680Y-104626000D01*
X119720681Y-109476000D02*
X119720681Y-109976000D01*
X110670681Y-109976000D02*
X109895681Y-109976000D01*
X109045681Y-108026000D02*
X109045681Y-110226000D01*
X121720681Y-109476000D02*
X121720681Y-109976000D01*
X117720681Y-109976000D02*
X118220681Y-109976000D01*
X124945680Y-106625999D02*
X108995680Y-106626000D01*
X124945680Y-108025999D02*
X124045681Y-108026000D01*
X117720681Y-109476000D02*
X117720681Y-109976000D01*
X110670681Y-109176000D02*
X109895681Y-109176000D01*
X124895681Y-108025999D02*
X124895681Y-110225999D01*
X115720681Y-109476000D02*
X115720681Y-109976000D01*
X122220681Y-109976000D02*
X122220681Y-109476000D01*
X110670681Y-109176000D02*
X110670681Y-109976000D01*
X120770681Y-111626000D02*
X120770681Y-110826000D01*
X114220681Y-109476000D02*
X113720681Y-109476000D01*
X122220680Y-106626000D02*
X122220680Y-104626000D01*
X113720681Y-109476000D02*
X113720681Y-109976000D01*
X114220680Y-106626000D02*
X114220680Y-104626000D01*
X113720680Y-104626000D02*
X114220680Y-104626000D01*
X110670681Y-108576000D02*
X123270681Y-108575999D01*
X124045681Y-110225999D02*
X124945680Y-110225999D01*
X121720681Y-109976000D02*
X122220681Y-109976000D01*
X111720680Y-104626000D02*
X112220680Y-104626000D01*
%TO.C,J11*%
X147620681Y-109476000D02*
X147620681Y-109976000D01*
X144570681Y-109976000D02*
X144570681Y-110826000D01*
X150120680Y-106626000D02*
X150120680Y-104626000D01*
X155620681Y-109976000D02*
X156120681Y-109976000D01*
X147070681Y-111626000D02*
X142895681Y-111626000D01*
X157945681Y-109175999D02*
X157170681Y-109176000D01*
X143795681Y-109176000D02*
X143795681Y-108026000D01*
X147070681Y-110826000D02*
X154670681Y-110826000D01*
X156120680Y-106626000D02*
X156120680Y-104626000D01*
X143795681Y-110226000D02*
X143795681Y-109976000D01*
X157170681Y-107326000D02*
X157170681Y-109176000D01*
X157945681Y-109976000D02*
X157945681Y-109175999D01*
X144570681Y-109976000D02*
X143795681Y-109976000D01*
X147070681Y-110826000D02*
X147070681Y-111626000D01*
X157945681Y-109976000D02*
X157170681Y-109976000D01*
X153620680Y-106626000D02*
X153620680Y-104626000D01*
X143545681Y-108026000D02*
X143545681Y-110226000D01*
X158845680Y-111625999D02*
X154670681Y-111626000D01*
X151620680Y-104626000D02*
X152120680Y-104626000D01*
X157945681Y-110225999D02*
X158845680Y-110225999D01*
X147620681Y-109976000D02*
X148120681Y-109976000D01*
X149620681Y-109976000D02*
X150120681Y-109976000D01*
X148120681Y-109976000D02*
X148120681Y-109476000D01*
X158195681Y-108025999D02*
X158195681Y-110225999D01*
X143795681Y-109176000D02*
X143795681Y-109976000D01*
X157945681Y-108026000D02*
X157945681Y-109175999D01*
X154670681Y-110826000D02*
X157170681Y-110826000D01*
X154120680Y-106626000D02*
X154120680Y-104626000D01*
X152120680Y-106626000D02*
X152120680Y-104626000D01*
X142895681Y-110226000D02*
X142895681Y-111626000D01*
X144570681Y-107326000D02*
X144570681Y-109176000D01*
X157170681Y-109176000D02*
X157170681Y-109976000D01*
X142895681Y-106626000D02*
X142895681Y-108026000D01*
X150120681Y-109476000D02*
X149620681Y-109476000D01*
X149620680Y-106626000D02*
X149620680Y-104626000D01*
X145620681Y-109976000D02*
X146120681Y-109976000D01*
X156120681Y-109976000D02*
X156120681Y-109476000D01*
X158845680Y-110225999D02*
X158845680Y-111625999D01*
X152120681Y-109476000D02*
X151620681Y-109476000D01*
X150120681Y-109976000D02*
X150120681Y-109476000D01*
X158845680Y-108025999D02*
X157945681Y-108026000D01*
X155620680Y-106626000D02*
X155620680Y-104626000D01*
X158845680Y-106625999D02*
X158845680Y-108025999D01*
X142945681Y-108026000D02*
X142945681Y-110226000D01*
X148120681Y-109476000D02*
X147620681Y-109476000D01*
X151620681Y-109976000D02*
X152120681Y-109976000D01*
X147070681Y-111626000D02*
X154670681Y-111626000D01*
X155620680Y-104626000D02*
X156120680Y-104626000D01*
X144570681Y-107326000D02*
X157170681Y-107326000D01*
X154120681Y-109476000D02*
X153620681Y-109476000D01*
X153620681Y-109476000D02*
X153620681Y-109976000D01*
X147620680Y-106626000D02*
X147620680Y-104626000D01*
X148120680Y-106626000D02*
X148120680Y-104626000D01*
X149620680Y-104626000D02*
X150120680Y-104626000D01*
X146120680Y-106626000D02*
X146120680Y-104626000D01*
X153620680Y-104626000D02*
X154120680Y-104626000D01*
X157170681Y-109976000D02*
X157170681Y-110826000D01*
X147620680Y-104626000D02*
X148120680Y-104626000D01*
X157945681Y-109976000D02*
X157945681Y-110225999D01*
X151620681Y-109476000D02*
X151620681Y-109976000D01*
X155620681Y-109476000D02*
X155620681Y-109976000D01*
X153620681Y-109976000D02*
X154120681Y-109976000D01*
X145620681Y-109476000D02*
X145620681Y-109976000D01*
X158845680Y-106625999D02*
X142895680Y-106626000D01*
X145620680Y-106626000D02*
X145620680Y-104626000D01*
X144570681Y-109176000D02*
X143795681Y-109176000D01*
X144570681Y-110826000D02*
X147070681Y-110826000D01*
X144570681Y-109176000D02*
X157170681Y-109176000D01*
X144570681Y-109176000D02*
X144570681Y-109976000D01*
X144570681Y-108576000D02*
X157170681Y-108575999D01*
X149620681Y-109476000D02*
X149620681Y-109976000D01*
X143795681Y-108026000D02*
X142895681Y-108026000D01*
X145620680Y-104626000D02*
X146120680Y-104626000D01*
X146120681Y-109476000D02*
X145620681Y-109476000D01*
X146120681Y-109976000D02*
X146120681Y-109476000D01*
X156120681Y-109476000D02*
X155620681Y-109476000D01*
X151620680Y-106626000D02*
X151620680Y-104626000D01*
X154670681Y-111626000D02*
X154670681Y-110826000D01*
X142895681Y-110226000D02*
X143795681Y-110226000D01*
X154120681Y-109976000D02*
X154120681Y-109476000D01*
X152120681Y-109976000D02*
X152120681Y-109476000D01*
X158795681Y-108025999D02*
X158795681Y-110225999D01*
%TO.C,J10*%
X164570681Y-109976000D02*
X165070681Y-109976000D01*
X161520681Y-107326000D02*
X161520681Y-109176000D01*
X174895681Y-110225999D02*
X175795680Y-110225999D01*
X174120681Y-107326000D02*
X174120681Y-109176000D01*
X174895681Y-109976000D02*
X174895681Y-110225999D01*
X168570681Y-109976000D02*
X169070681Y-109976000D01*
X172570680Y-106626000D02*
X172570680Y-104626000D01*
X174895681Y-108026000D02*
X174895681Y-109175999D01*
X166570680Y-106626000D02*
X166570680Y-104626000D01*
X174895681Y-109976000D02*
X174895681Y-109175999D01*
X160745681Y-108026000D02*
X159845681Y-108026000D01*
X160745681Y-110226000D02*
X160745681Y-109976000D01*
X164020681Y-111626000D02*
X171620681Y-111626000D01*
X159845681Y-110226000D02*
X159845681Y-111626000D01*
X175795680Y-111625999D02*
X171620681Y-111626000D01*
X175745681Y-108025999D02*
X175745681Y-110225999D01*
X161520681Y-108576000D02*
X174120681Y-108575999D01*
X164020681Y-111626000D02*
X159845681Y-111626000D01*
X163070681Y-109476000D02*
X162570681Y-109476000D01*
X165070680Y-106626000D02*
X165070680Y-104626000D01*
X159845681Y-110226000D02*
X160745681Y-110226000D01*
X175795680Y-108025999D02*
X174895681Y-108026000D01*
X161520681Y-109976000D02*
X160745681Y-109976000D01*
X173070681Y-109976000D02*
X173070681Y-109476000D01*
X174120681Y-109176000D02*
X174120681Y-109976000D01*
X171620681Y-111626000D02*
X171620681Y-110826000D01*
X163070680Y-106626000D02*
X163070680Y-104626000D01*
X175795680Y-106625999D02*
X159845680Y-106626000D01*
X167070681Y-109476000D02*
X166570681Y-109476000D01*
X173070681Y-109476000D02*
X172570681Y-109476000D01*
X174120681Y-109976000D02*
X174120681Y-110826000D01*
X162570681Y-109476000D02*
X162570681Y-109976000D01*
X162570680Y-106626000D02*
X162570680Y-104626000D01*
X168570680Y-106626000D02*
X168570680Y-104626000D01*
X175145681Y-108025999D02*
X175145681Y-110225999D01*
X159845681Y-106626000D02*
X159845681Y-108026000D01*
X172570681Y-109976000D02*
X173070681Y-109976000D01*
X167070681Y-109976000D02*
X167070681Y-109476000D01*
X161520681Y-107326000D02*
X174120681Y-107326000D01*
X169070681Y-109476000D02*
X168570681Y-109476000D01*
X159895681Y-108026000D02*
X159895681Y-110226000D01*
X171070680Y-106626000D02*
X171070680Y-104626000D01*
X172570680Y-104626000D02*
X173070680Y-104626000D01*
X173070680Y-106626000D02*
X173070680Y-104626000D01*
X166570681Y-109976000D02*
X167070681Y-109976000D01*
X165070681Y-109476000D02*
X164570681Y-109476000D01*
X175795680Y-110225999D02*
X175795680Y-111625999D01*
X164570680Y-104626000D02*
X165070680Y-104626000D01*
X167070680Y-106626000D02*
X167070680Y-104626000D01*
X168570681Y-109476000D02*
X168570681Y-109976000D01*
X162570681Y-109976000D02*
X163070681Y-109976000D01*
X161520681Y-110826000D02*
X164020681Y-110826000D01*
X171070681Y-109976000D02*
X171070681Y-109476000D01*
X161520681Y-109176000D02*
X160745681Y-109176000D01*
X161520681Y-109176000D02*
X174120681Y-109176000D01*
X170570681Y-109976000D02*
X171070681Y-109976000D01*
X166570680Y-104626000D02*
X167070680Y-104626000D01*
X171620681Y-110826000D02*
X174120681Y-110826000D01*
X171070681Y-109476000D02*
X170570681Y-109476000D01*
X161520681Y-109976000D02*
X161520681Y-110826000D01*
X174895681Y-109175999D02*
X174120681Y-109176000D01*
X168570680Y-104626000D02*
X169070680Y-104626000D01*
X164020681Y-110826000D02*
X171620681Y-110826000D01*
X170570681Y-109476000D02*
X170570681Y-109976000D01*
X162570680Y-104626000D02*
X163070680Y-104626000D01*
X163070681Y-109976000D02*
X163070681Y-109476000D01*
X166570681Y-109476000D02*
X166570681Y-109976000D01*
X170570680Y-106626000D02*
X170570680Y-104626000D01*
X164020681Y-110826000D02*
X164020681Y-111626000D01*
X161520681Y-109176000D02*
X161520681Y-109976000D01*
X175795680Y-106625999D02*
X175795680Y-108025999D01*
X164570680Y-106626000D02*
X164570680Y-104626000D01*
X164570681Y-109476000D02*
X164570681Y-109976000D01*
X174895681Y-109976000D02*
X174120681Y-109976000D01*
X160745681Y-109176000D02*
X160745681Y-109976000D01*
X169070680Y-106626000D02*
X169070680Y-104626000D01*
X169070681Y-109976000D02*
X169070681Y-109476000D01*
X170570680Y-104626000D02*
X171070680Y-104626000D01*
X172570681Y-109476000D02*
X172570681Y-109976000D01*
X160745681Y-109176000D02*
X160745681Y-108026000D01*
X165070681Y-109976000D02*
X165070681Y-109476000D01*
X160495681Y-108026000D02*
X160495681Y-110226000D01*
%TO.C,J12*%
X127620681Y-107326000D02*
X140220681Y-107326000D01*
X130120681Y-111626000D02*
X125945681Y-111626000D01*
X127620681Y-107326000D02*
X127620681Y-109176000D01*
X130120681Y-111626000D02*
X137720681Y-111626000D01*
X128670680Y-104626000D02*
X129170680Y-104626000D01*
X133170680Y-106626000D02*
X133170680Y-104626000D01*
X135170681Y-109976000D02*
X135170681Y-109476000D01*
X140995681Y-109976000D02*
X140220681Y-109976000D01*
X127620681Y-109176000D02*
X140220681Y-109176000D01*
X131170681Y-109476000D02*
X130670681Y-109476000D01*
X138670681Y-109976000D02*
X139170681Y-109976000D01*
X136670681Y-109976000D02*
X137170681Y-109976000D01*
X127620681Y-109176000D02*
X127620681Y-109976000D01*
X129170681Y-109476000D02*
X128670681Y-109476000D01*
X141895680Y-108025999D02*
X140995681Y-108026000D01*
X140995681Y-109976000D02*
X140995681Y-110225999D01*
X137170681Y-109476000D02*
X136670681Y-109476000D01*
X136670680Y-104626000D02*
X137170680Y-104626000D01*
X132670680Y-104626000D02*
X133170680Y-104626000D01*
X139170681Y-109976000D02*
X139170681Y-109476000D01*
X127620681Y-109976000D02*
X127620681Y-110826000D01*
X138670680Y-104626000D02*
X139170680Y-104626000D01*
X127620681Y-109976000D02*
X126845681Y-109976000D01*
X137720681Y-111626000D02*
X137720681Y-110826000D01*
X136670680Y-106626000D02*
X136670680Y-104626000D01*
X138670681Y-109476000D02*
X138670681Y-109976000D01*
X138670680Y-106626000D02*
X138670680Y-104626000D01*
X140220681Y-109176000D02*
X140220681Y-109976000D01*
X127620681Y-108576000D02*
X140220681Y-108575999D01*
X133170681Y-109476000D02*
X132670681Y-109476000D01*
X126845681Y-108026000D02*
X125945681Y-108026000D01*
X129170681Y-109976000D02*
X129170681Y-109476000D01*
X129170680Y-106626000D02*
X129170680Y-104626000D01*
X139170680Y-106626000D02*
X139170680Y-104626000D01*
X126845681Y-109176000D02*
X126845681Y-108026000D01*
X131170681Y-109976000D02*
X131170681Y-109476000D01*
X132670681Y-109976000D02*
X133170681Y-109976000D01*
X125995681Y-108026000D02*
X125995681Y-110226000D01*
X133170681Y-109976000D02*
X133170681Y-109476000D01*
X137720681Y-110826000D02*
X140220681Y-110826000D01*
X125945681Y-106626000D02*
X125945681Y-108026000D01*
X126595681Y-108026000D02*
X126595681Y-110226000D01*
X125945681Y-110226000D02*
X126845681Y-110226000D01*
X140220681Y-107326000D02*
X140220681Y-109176000D01*
X134670681Y-109476000D02*
X134670681Y-109976000D01*
X141845681Y-108025999D02*
X141845681Y-110225999D01*
X141895680Y-111625999D02*
X137720681Y-111626000D01*
X130670680Y-106626000D02*
X130670680Y-104626000D01*
X128670680Y-106626000D02*
X128670680Y-104626000D01*
X134670680Y-104626000D02*
X135170680Y-104626000D01*
X132670680Y-106626000D02*
X132670680Y-104626000D01*
X130120681Y-110826000D02*
X137720681Y-110826000D01*
X141895680Y-106625999D02*
X141895680Y-108025999D01*
X140995681Y-109175999D02*
X140220681Y-109176000D01*
X135170681Y-109476000D02*
X134670681Y-109476000D01*
X126845681Y-110226000D02*
X126845681Y-109976000D01*
X137170681Y-109976000D02*
X137170681Y-109476000D01*
X132670681Y-109476000D02*
X132670681Y-109976000D01*
X140995681Y-110225999D02*
X141895680Y-110225999D01*
X140995681Y-108026000D02*
X140995681Y-109175999D01*
X128670681Y-109476000D02*
X128670681Y-109976000D01*
X127620681Y-110826000D02*
X130120681Y-110826000D01*
X125945681Y-110226000D02*
X125945681Y-111626000D01*
X137170680Y-106626000D02*
X137170680Y-104626000D01*
X141895680Y-106625999D02*
X125945680Y-106626000D01*
X130670681Y-109976000D02*
X131170681Y-109976000D01*
X134670681Y-109976000D02*
X135170681Y-109976000D01*
X131170680Y-106626000D02*
X131170680Y-104626000D01*
X135170680Y-106626000D02*
X135170680Y-104626000D01*
X127620681Y-109176000D02*
X126845681Y-109176000D01*
X130120681Y-110826000D02*
X130120681Y-111626000D01*
X140995681Y-109976000D02*
X140995681Y-109175999D01*
X134670680Y-106626000D02*
X134670680Y-104626000D01*
X136670681Y-109476000D02*
X136670681Y-109976000D01*
X141245681Y-108025999D02*
X141245681Y-110225999D01*
X128670681Y-109976000D02*
X129170681Y-109976000D01*
X130670680Y-104626000D02*
X131170680Y-104626000D01*
X140220681Y-109976000D02*
X140220681Y-110826000D01*
X130670681Y-109476000D02*
X130670681Y-109976000D01*
X141895680Y-110225999D02*
X141895680Y-111625999D01*
X126845681Y-109176000D02*
X126845681Y-109976000D01*
X139170681Y-109476000D02*
X138670681Y-109476000D01*
%TO.C,J8*%
X144595681Y-100576000D02*
X157195681Y-100575999D01*
X158870680Y-103625999D02*
X154695681Y-103626000D01*
X147095681Y-103626000D02*
X142920681Y-103626000D01*
X152145681Y-101476000D02*
X151645681Y-101476000D01*
X142920681Y-98626000D02*
X142920681Y-100026000D01*
X143820681Y-102226000D02*
X143820681Y-101976000D01*
X142920681Y-102226000D02*
X143820681Y-102226000D01*
X150145681Y-101976000D02*
X150145681Y-101476000D01*
X155645680Y-96626000D02*
X156145680Y-96626000D01*
X144595681Y-101176000D02*
X144595681Y-101976000D01*
X158870680Y-102225999D02*
X158870680Y-103625999D01*
X154695681Y-102826000D02*
X157195681Y-102826000D01*
X143820681Y-100026000D02*
X142920681Y-100026000D01*
X158220681Y-100025999D02*
X158220681Y-102225999D01*
X142970681Y-100026000D02*
X142970681Y-102226000D01*
X146145681Y-101976000D02*
X146145681Y-101476000D01*
X157195681Y-101976000D02*
X157195681Y-102826000D01*
X144595681Y-101176000D02*
X143820681Y-101176000D01*
X143570681Y-100026000D02*
X143570681Y-102226000D01*
X158870680Y-98625999D02*
X142920680Y-98626000D01*
X153645680Y-98626000D02*
X153645680Y-96626000D01*
X153645681Y-101976000D02*
X154145681Y-101976000D01*
X149645680Y-98626000D02*
X149645680Y-96626000D01*
X142920681Y-102226000D02*
X142920681Y-103626000D01*
X143820681Y-101176000D02*
X143820681Y-101976000D01*
X147095681Y-102826000D02*
X147095681Y-103626000D01*
X151645680Y-98626000D02*
X151645680Y-96626000D01*
X157970681Y-102225999D02*
X158870680Y-102225999D01*
X158820681Y-100025999D02*
X158820681Y-102225999D01*
X148145681Y-101976000D02*
X148145681Y-101476000D01*
X151645680Y-96626000D02*
X152145680Y-96626000D01*
X153645680Y-96626000D02*
X154145680Y-96626000D01*
X150145681Y-101476000D02*
X149645681Y-101476000D01*
X149645681Y-101476000D02*
X149645681Y-101976000D01*
X149645681Y-101976000D02*
X150145681Y-101976000D01*
X145645681Y-101976000D02*
X146145681Y-101976000D01*
X151645681Y-101476000D02*
X151645681Y-101976000D01*
X146145681Y-101476000D02*
X145645681Y-101476000D01*
X149645680Y-96626000D02*
X150145680Y-96626000D01*
X148145680Y-98626000D02*
X148145680Y-96626000D01*
X157195681Y-101176000D02*
X157195681Y-101976000D01*
X147095681Y-103626000D02*
X154695681Y-103626000D01*
X157195681Y-99326000D02*
X157195681Y-101176000D01*
X155645680Y-98626000D02*
X155645680Y-96626000D01*
X155645681Y-101976000D02*
X156145681Y-101976000D01*
X147645680Y-98626000D02*
X147645680Y-96626000D01*
X144595681Y-101176000D02*
X157195681Y-101176000D01*
X152145680Y-98626000D02*
X152145680Y-96626000D01*
X147645681Y-101476000D02*
X147645681Y-101976000D01*
X145645681Y-101476000D02*
X145645681Y-101976000D01*
X156145681Y-101976000D02*
X156145681Y-101476000D01*
X148145681Y-101476000D02*
X147645681Y-101476000D01*
X147645680Y-96626000D02*
X148145680Y-96626000D01*
X157970681Y-101976000D02*
X157970681Y-101175999D01*
X151645681Y-101976000D02*
X152145681Y-101976000D01*
X154695681Y-103626000D02*
X154695681Y-102826000D01*
X158870680Y-98625999D02*
X158870680Y-100025999D01*
X144595681Y-99326000D02*
X144595681Y-101176000D01*
X154145680Y-98626000D02*
X154145680Y-96626000D01*
X156145680Y-98626000D02*
X156145680Y-96626000D01*
X158870680Y-100025999D02*
X157970681Y-100026000D01*
X145645680Y-96626000D02*
X146145680Y-96626000D01*
X146145680Y-98626000D02*
X146145680Y-96626000D01*
X147645681Y-101976000D02*
X148145681Y-101976000D01*
X144595681Y-101976000D02*
X144595681Y-102826000D01*
X157970681Y-101976000D02*
X157970681Y-102225999D01*
X145645680Y-98626000D02*
X145645680Y-96626000D01*
X157970681Y-101976000D02*
X157195681Y-101976000D01*
X152145681Y-101976000D02*
X152145681Y-101476000D01*
X143820681Y-101176000D02*
X143820681Y-100026000D01*
X153645681Y-101476000D02*
X153645681Y-101976000D01*
X144595681Y-101976000D02*
X143820681Y-101976000D01*
X150145680Y-98626000D02*
X150145680Y-96626000D01*
X157970681Y-100026000D02*
X157970681Y-101175999D01*
X144595681Y-102826000D02*
X147095681Y-102826000D01*
X157970681Y-101175999D02*
X157195681Y-101176000D01*
X147095681Y-102826000D02*
X154695681Y-102826000D01*
X156145681Y-101476000D02*
X155645681Y-101476000D01*
X154145681Y-101476000D02*
X153645681Y-101476000D01*
X155645681Y-101476000D02*
X155645681Y-101976000D01*
X144595681Y-99326000D02*
X157195681Y-99326000D01*
X154145681Y-101976000D02*
X154145681Y-101476000D01*
%TO.C,J9*%
X171095681Y-101451000D02*
X170595681Y-101451000D01*
X165095680Y-98601000D02*
X165095680Y-96601000D01*
X170595681Y-101951000D02*
X171095681Y-101951000D01*
X161545681Y-101151000D02*
X174145681Y-101151000D01*
X172595681Y-101951000D02*
X173095681Y-101951000D01*
X175770681Y-100000999D02*
X175770681Y-102200999D01*
X175820680Y-100000999D02*
X174920681Y-100001000D01*
X174920681Y-101951000D02*
X174920681Y-102200999D01*
X164595681Y-101451000D02*
X164595681Y-101951000D01*
X164045681Y-102801000D02*
X164045681Y-103601000D01*
X161545681Y-101151000D02*
X161545681Y-101951000D01*
X175820680Y-102200999D02*
X175820680Y-103600999D01*
X164045681Y-103601000D02*
X171645681Y-103601000D01*
X171095681Y-101951000D02*
X171095681Y-101451000D01*
X159920681Y-100001000D02*
X159920681Y-102201000D01*
X166595680Y-98601000D02*
X166595680Y-96601000D01*
X159870681Y-98601000D02*
X159870681Y-100001000D01*
X165095681Y-101451000D02*
X164595681Y-101451000D01*
X166595680Y-96601000D02*
X167095680Y-96601000D01*
X171645681Y-102801000D02*
X174145681Y-102801000D01*
X174920681Y-102200999D02*
X175820680Y-102200999D01*
X171095680Y-98601000D02*
X171095680Y-96601000D01*
X170595680Y-96601000D02*
X171095680Y-96601000D01*
X174145681Y-99301000D02*
X174145681Y-101151000D01*
X162595680Y-98601000D02*
X162595680Y-96601000D01*
X173095681Y-101451000D02*
X172595681Y-101451000D01*
X174145681Y-101951000D02*
X174145681Y-102801000D01*
X174145681Y-101151000D02*
X174145681Y-101951000D01*
X164045681Y-103601000D02*
X159870681Y-103601000D01*
X170595680Y-98601000D02*
X170595680Y-96601000D01*
X161545681Y-101951000D02*
X161545681Y-102801000D01*
X175820680Y-98600999D02*
X159870680Y-98601000D01*
X160770681Y-101151000D02*
X160770681Y-101951000D01*
X171645681Y-103601000D02*
X171645681Y-102801000D01*
X160770681Y-100001000D02*
X159870681Y-100001000D01*
X168595680Y-96601000D02*
X169095680Y-96601000D01*
X164595680Y-98601000D02*
X164595680Y-96601000D01*
X167095681Y-101451000D02*
X166595681Y-101451000D01*
X161545681Y-99301000D02*
X174145681Y-99301000D01*
X175820680Y-103600999D02*
X171645681Y-103601000D01*
X161545681Y-102801000D02*
X164045681Y-102801000D01*
X161545681Y-101151000D02*
X160770681Y-101151000D01*
X168595681Y-101951000D02*
X169095681Y-101951000D01*
X168595681Y-101451000D02*
X168595681Y-101951000D01*
X167095681Y-101951000D02*
X167095681Y-101451000D01*
X175820680Y-98600999D02*
X175820680Y-100000999D01*
X174920681Y-101951000D02*
X174145681Y-101951000D01*
X168595680Y-98601000D02*
X168595680Y-96601000D01*
X163095681Y-101451000D02*
X162595681Y-101451000D01*
X173095681Y-101951000D02*
X173095681Y-101451000D01*
X174920681Y-100001000D02*
X174920681Y-101150999D01*
X159870681Y-102201000D02*
X160770681Y-102201000D01*
X172595680Y-96601000D02*
X173095680Y-96601000D01*
X167095680Y-98601000D02*
X167095680Y-96601000D01*
X165095681Y-101951000D02*
X165095681Y-101451000D01*
X164045681Y-102801000D02*
X171645681Y-102801000D01*
X169095680Y-98601000D02*
X169095680Y-96601000D01*
X170595681Y-101451000D02*
X170595681Y-101951000D01*
X160770681Y-102201000D02*
X160770681Y-101951000D01*
X172595681Y-101451000D02*
X172595681Y-101951000D01*
X163095680Y-98601000D02*
X163095680Y-96601000D01*
X161545681Y-99301000D02*
X161545681Y-101151000D01*
X160770681Y-101151000D02*
X160770681Y-100001000D01*
X162595681Y-101451000D02*
X162595681Y-101951000D01*
X162595681Y-101951000D02*
X163095681Y-101951000D01*
X160520681Y-100001000D02*
X160520681Y-102201000D01*
X166595681Y-101451000D02*
X166595681Y-101951000D01*
X169095681Y-101951000D02*
X169095681Y-101451000D01*
X174920681Y-101951000D02*
X174920681Y-101150999D01*
X173095680Y-98601000D02*
X173095680Y-96601000D01*
X166595681Y-101951000D02*
X167095681Y-101951000D01*
X172595680Y-98601000D02*
X172595680Y-96601000D01*
X161545681Y-100551000D02*
X174145681Y-100550999D01*
X164595680Y-96601000D02*
X165095680Y-96601000D01*
X159870681Y-102201000D02*
X159870681Y-103601000D01*
X175170681Y-100000999D02*
X175170681Y-102200999D01*
X174920681Y-101150999D02*
X174145681Y-101151000D01*
X161545681Y-101951000D02*
X160770681Y-101951000D01*
X169095681Y-101451000D02*
X168595681Y-101451000D01*
X163095681Y-101951000D02*
X163095681Y-101451000D01*
X162595680Y-96601000D02*
X163095680Y-96601000D01*
X164595681Y-101951000D02*
X165095681Y-101951000D01*
%TO.C,J7*%
X125970681Y-102226000D02*
X125970681Y-103626000D01*
X129195680Y-98626000D02*
X129195680Y-96626000D01*
X127645681Y-99326000D02*
X127645681Y-101176000D01*
X127645681Y-101976000D02*
X127645681Y-102826000D01*
X130145681Y-103626000D02*
X137745681Y-103626000D01*
X136695680Y-96626000D02*
X137195680Y-96626000D01*
X130695681Y-101976000D02*
X131195681Y-101976000D01*
X140245681Y-101976000D02*
X140245681Y-102826000D01*
X141870681Y-100025999D02*
X141870681Y-102225999D01*
X127645681Y-99326000D02*
X140245681Y-99326000D01*
X141020681Y-102225999D02*
X141920680Y-102225999D01*
X130695680Y-98626000D02*
X130695680Y-96626000D01*
X137195680Y-98626000D02*
X137195680Y-96626000D01*
X141020681Y-101976000D02*
X141020681Y-102225999D01*
X133195681Y-101476000D02*
X132695681Y-101476000D01*
X126870681Y-101176000D02*
X126870681Y-100026000D01*
X139195681Y-101976000D02*
X139195681Y-101476000D01*
X141020681Y-101175999D02*
X140245681Y-101176000D01*
X133195681Y-101976000D02*
X133195681Y-101476000D01*
X137195681Y-101476000D02*
X136695681Y-101476000D01*
X131195680Y-98626000D02*
X131195680Y-96626000D01*
X141270681Y-100025999D02*
X141270681Y-102225999D01*
X141920680Y-100025999D02*
X141020681Y-100026000D01*
X136695681Y-101976000D02*
X137195681Y-101976000D01*
X136695681Y-101476000D02*
X136695681Y-101976000D01*
X138695681Y-101476000D02*
X138695681Y-101976000D01*
X134695681Y-101476000D02*
X134695681Y-101976000D01*
X141920680Y-103625999D02*
X137745681Y-103626000D01*
X135195680Y-98626000D02*
X135195680Y-96626000D01*
X132695680Y-98626000D02*
X132695680Y-96626000D01*
X128695681Y-101976000D02*
X129195681Y-101976000D01*
X128695680Y-98626000D02*
X128695680Y-96626000D01*
X135195681Y-101976000D02*
X135195681Y-101476000D01*
X140245681Y-101176000D02*
X140245681Y-101976000D01*
X128695680Y-96626000D02*
X129195680Y-96626000D01*
X137195681Y-101976000D02*
X137195681Y-101476000D01*
X134695681Y-101976000D02*
X135195681Y-101976000D01*
X130695681Y-101476000D02*
X130695681Y-101976000D01*
X136695680Y-98626000D02*
X136695680Y-96626000D01*
X128695681Y-101476000D02*
X128695681Y-101976000D01*
X135195681Y-101476000D02*
X134695681Y-101476000D01*
X127645681Y-101176000D02*
X126870681Y-101176000D01*
X125970681Y-98626000D02*
X125970681Y-100026000D01*
X138695680Y-96626000D02*
X139195680Y-96626000D01*
X139195681Y-101476000D02*
X138695681Y-101476000D01*
X127645681Y-102826000D02*
X130145681Y-102826000D01*
X127645681Y-101176000D02*
X140245681Y-101176000D01*
X141920680Y-98625999D02*
X125970680Y-98626000D01*
X140245681Y-99326000D02*
X140245681Y-101176000D01*
X127645681Y-101976000D02*
X126870681Y-101976000D01*
X130145681Y-102826000D02*
X137745681Y-102826000D01*
X141020681Y-101976000D02*
X141020681Y-101175999D01*
X141920680Y-98625999D02*
X141920680Y-100025999D01*
X125970681Y-102226000D02*
X126870681Y-102226000D01*
X141020681Y-100026000D02*
X141020681Y-101175999D01*
X133195680Y-98626000D02*
X133195680Y-96626000D01*
X138695681Y-101976000D02*
X139195681Y-101976000D01*
X126870681Y-101176000D02*
X126870681Y-101976000D01*
X138695680Y-98626000D02*
X138695680Y-96626000D01*
X126620681Y-100026000D02*
X126620681Y-102226000D01*
X141020681Y-101976000D02*
X140245681Y-101976000D01*
X130145681Y-102826000D02*
X130145681Y-103626000D01*
X131195681Y-101976000D02*
X131195681Y-101476000D01*
X137745681Y-102826000D02*
X140245681Y-102826000D01*
X132695680Y-96626000D02*
X133195680Y-96626000D01*
X126870681Y-100026000D02*
X125970681Y-100026000D01*
X132695681Y-101476000D02*
X132695681Y-101976000D01*
X130145681Y-103626000D02*
X125970681Y-103626000D01*
X129195681Y-101476000D02*
X128695681Y-101476000D01*
X129195681Y-101976000D02*
X129195681Y-101476000D01*
X131195681Y-101476000D02*
X130695681Y-101476000D01*
X141920680Y-102225999D02*
X141920680Y-103625999D01*
X130695680Y-96626000D02*
X131195680Y-96626000D01*
X134695680Y-98626000D02*
X134695680Y-96626000D01*
X139195680Y-98626000D02*
X139195680Y-96626000D01*
X127645681Y-101176000D02*
X127645681Y-101976000D01*
X126870681Y-102226000D02*
X126870681Y-101976000D01*
X134695680Y-96626000D02*
X135195680Y-96626000D01*
X127645681Y-100576000D02*
X140245681Y-100575999D01*
X126020681Y-100026000D02*
X126020681Y-102226000D01*
X132695681Y-101976000D02*
X133195681Y-101976000D01*
X137745681Y-103626000D02*
X137745681Y-102826000D01*
%TO.C,J14*%
X107095681Y-109976000D02*
X107095681Y-110225999D01*
X94770681Y-109476000D02*
X94770681Y-109976000D01*
X92945681Y-109176000D02*
X92945681Y-109976000D01*
X99270681Y-109976000D02*
X99270681Y-109476000D01*
X106320681Y-109976000D02*
X106320681Y-110826000D01*
X96220681Y-110826000D02*
X96220681Y-111626000D01*
X96220681Y-110826000D02*
X103820681Y-110826000D01*
X104770681Y-109976000D02*
X105270681Y-109976000D01*
X92095681Y-108026000D02*
X92095681Y-110226000D01*
X100770681Y-109476000D02*
X100770681Y-109976000D01*
X96220681Y-111626000D02*
X92045681Y-111626000D01*
X107945681Y-108025999D02*
X107945681Y-110225999D01*
X101270681Y-109476000D02*
X100770681Y-109476000D01*
X100770680Y-106626000D02*
X100770680Y-104626000D01*
X107995680Y-110225999D02*
X107995680Y-111625999D01*
X104770680Y-106626000D02*
X104770680Y-104626000D01*
X95270680Y-106626000D02*
X95270680Y-104626000D01*
X92945681Y-109176000D02*
X92945681Y-108026000D01*
X103270680Y-106626000D02*
X103270680Y-104626000D01*
X102770681Y-109976000D02*
X103270681Y-109976000D01*
X94770681Y-109976000D02*
X95270681Y-109976000D01*
X97270681Y-109476000D02*
X96770681Y-109476000D01*
X96770681Y-109476000D02*
X96770681Y-109976000D01*
X97270681Y-109976000D02*
X97270681Y-109476000D01*
X105270680Y-106626000D02*
X105270680Y-104626000D01*
X107095681Y-108026000D02*
X107095681Y-109175999D01*
X102770681Y-109476000D02*
X102770681Y-109976000D01*
X105270681Y-109476000D02*
X104770681Y-109476000D01*
X93720681Y-107326000D02*
X93720681Y-109176000D01*
X106320681Y-109176000D02*
X106320681Y-109976000D01*
X93720681Y-110826000D02*
X96220681Y-110826000D01*
X98770680Y-106626000D02*
X98770680Y-104626000D01*
X100770680Y-104626000D02*
X101270680Y-104626000D01*
X103270681Y-109976000D02*
X103270681Y-109476000D01*
X107095681Y-109976000D02*
X107095681Y-109175999D01*
X92045681Y-110226000D02*
X92045681Y-111626000D01*
X95270681Y-109976000D02*
X95270681Y-109476000D01*
X99270681Y-109476000D02*
X98770681Y-109476000D01*
X95270681Y-109476000D02*
X94770681Y-109476000D01*
X92695681Y-108026000D02*
X92695681Y-110226000D01*
X92045681Y-106626000D02*
X92045681Y-108026000D01*
X99270680Y-106626000D02*
X99270680Y-104626000D01*
X104770681Y-109476000D02*
X104770681Y-109976000D01*
X94770680Y-106626000D02*
X94770680Y-104626000D01*
X105270681Y-109976000D02*
X105270681Y-109476000D01*
X92945681Y-108026000D02*
X92045681Y-108026000D01*
X107095681Y-109175999D02*
X106320681Y-109176000D01*
X103270681Y-109476000D02*
X102770681Y-109476000D01*
X104770680Y-104626000D02*
X105270680Y-104626000D01*
X92045681Y-110226000D02*
X92945681Y-110226000D01*
X93720681Y-109976000D02*
X93720681Y-110826000D01*
X102770680Y-106626000D02*
X102770680Y-104626000D01*
X97270680Y-106626000D02*
X97270680Y-104626000D01*
X107995680Y-111625999D02*
X103820681Y-111626000D01*
X106320681Y-107326000D02*
X106320681Y-109176000D01*
X92945681Y-110226000D02*
X92945681Y-109976000D01*
X107095681Y-109976000D02*
X106320681Y-109976000D01*
X101270680Y-106626000D02*
X101270680Y-104626000D01*
X103820681Y-111626000D02*
X103820681Y-110826000D01*
X98770680Y-104626000D02*
X99270680Y-104626000D01*
X98770681Y-109476000D02*
X98770681Y-109976000D01*
X96770680Y-104626000D02*
X97270680Y-104626000D01*
X93720681Y-109176000D02*
X92945681Y-109176000D01*
X107995680Y-108025999D02*
X107095681Y-108026000D01*
X93720681Y-109176000D02*
X106320681Y-109176000D01*
X103820681Y-110826000D02*
X106320681Y-110826000D01*
X107995680Y-106625999D02*
X107995680Y-108025999D01*
X93720681Y-109176000D02*
X93720681Y-109976000D01*
X93720681Y-108576000D02*
X106320681Y-108575999D01*
X96770680Y-106626000D02*
X96770680Y-104626000D01*
X107345681Y-108025999D02*
X107345681Y-110225999D01*
X107095681Y-110225999D02*
X107995680Y-110225999D01*
X102770680Y-104626000D02*
X103270680Y-104626000D01*
X107995680Y-106625999D02*
X92045680Y-106626000D01*
X94770680Y-104626000D02*
X95270680Y-104626000D01*
X93720681Y-109976000D02*
X92945681Y-109976000D01*
X96770681Y-109976000D02*
X97270681Y-109976000D01*
X101270681Y-109976000D02*
X101270681Y-109476000D01*
X100770681Y-109976000D02*
X101270681Y-109976000D01*
X96220681Y-111626000D02*
X103820681Y-111626000D01*
X93720681Y-107326000D02*
X106320681Y-107326000D01*
X98770681Y-109976000D02*
X99270681Y-109976000D01*
%TO.C,J6*%
X113745681Y-101976000D02*
X114245681Y-101976000D01*
X124970680Y-100025999D02*
X124070681Y-100026000D01*
X123295681Y-99326000D02*
X123295681Y-101176000D01*
X124070681Y-102225999D02*
X124970680Y-102225999D01*
X122245681Y-101976000D02*
X122245681Y-101476000D01*
X121745680Y-98626000D02*
X121745680Y-96626000D01*
X116245681Y-101976000D02*
X116245681Y-101476000D01*
X111745680Y-98626000D02*
X111745680Y-96626000D01*
X119745681Y-101976000D02*
X120245681Y-101976000D01*
X120795681Y-102826000D02*
X123295681Y-102826000D01*
X124320681Y-100025999D02*
X124320681Y-102225999D01*
X113745680Y-98626000D02*
X113745680Y-96626000D01*
X112245681Y-101476000D02*
X111745681Y-101476000D01*
X114245680Y-98626000D02*
X114245680Y-96626000D01*
X113195681Y-102826000D02*
X120795681Y-102826000D01*
X110695681Y-102826000D02*
X113195681Y-102826000D01*
X124970680Y-103625999D02*
X120795681Y-103626000D01*
X124070681Y-101175999D02*
X123295681Y-101176000D01*
X124920681Y-100025999D02*
X124920681Y-102225999D01*
X109920681Y-100026000D02*
X109020681Y-100026000D01*
X115745680Y-96626000D02*
X116245680Y-96626000D01*
X123295681Y-101176000D02*
X123295681Y-101976000D01*
X120245681Y-101476000D02*
X119745681Y-101476000D01*
X113195681Y-102826000D02*
X113195681Y-103626000D01*
X122245680Y-98626000D02*
X122245680Y-96626000D01*
X115745681Y-101976000D02*
X116245681Y-101976000D01*
X123295681Y-101976000D02*
X123295681Y-102826000D01*
X117745680Y-96626000D02*
X118245680Y-96626000D01*
X111745681Y-101476000D02*
X111745681Y-101976000D01*
X115745681Y-101476000D02*
X115745681Y-101976000D01*
X110695681Y-101976000D02*
X110695681Y-102826000D01*
X118245681Y-101476000D02*
X117745681Y-101476000D01*
X109920681Y-102226000D02*
X109920681Y-101976000D01*
X117745681Y-101976000D02*
X118245681Y-101976000D01*
X109670681Y-100026000D02*
X109670681Y-102226000D01*
X124070681Y-100026000D02*
X124070681Y-101175999D01*
X117745680Y-98626000D02*
X117745680Y-96626000D01*
X113195681Y-103626000D02*
X120795681Y-103626000D01*
X110695681Y-101176000D02*
X123295681Y-101176000D01*
X113195681Y-103626000D02*
X109020681Y-103626000D01*
X109070681Y-100026000D02*
X109070681Y-102226000D01*
X116245681Y-101476000D02*
X115745681Y-101476000D01*
X119745680Y-96626000D02*
X120245680Y-96626000D01*
X119745681Y-101476000D02*
X119745681Y-101976000D01*
X110695681Y-101176000D02*
X110695681Y-101976000D01*
X110695681Y-100576000D02*
X123295681Y-100575999D01*
X124070681Y-101976000D02*
X124070681Y-101175999D01*
X110695681Y-99326000D02*
X110695681Y-101176000D01*
X114245681Y-101476000D02*
X113745681Y-101476000D01*
X118245681Y-101976000D02*
X118245681Y-101476000D01*
X124970680Y-102225999D02*
X124970680Y-103625999D01*
X114245681Y-101976000D02*
X114245681Y-101476000D01*
X110695681Y-99326000D02*
X123295681Y-99326000D01*
X124970680Y-98625999D02*
X109020680Y-98626000D01*
X119745680Y-98626000D02*
X119745680Y-96626000D01*
X116245680Y-98626000D02*
X116245680Y-96626000D01*
X122245681Y-101476000D02*
X121745681Y-101476000D01*
X111745680Y-96626000D02*
X112245680Y-96626000D01*
X124970680Y-98625999D02*
X124970680Y-100025999D01*
X121745681Y-101476000D02*
X121745681Y-101976000D01*
X115745680Y-98626000D02*
X115745680Y-96626000D01*
X124070681Y-101976000D02*
X124070681Y-102225999D01*
X121745680Y-96626000D02*
X122245680Y-96626000D01*
X109020681Y-98626000D02*
X109020681Y-100026000D01*
X112245680Y-98626000D02*
X112245680Y-96626000D01*
X113745680Y-96626000D02*
X114245680Y-96626000D01*
X112245681Y-101976000D02*
X112245681Y-101476000D01*
X120795681Y-103626000D02*
X120795681Y-102826000D01*
X111745681Y-101976000D02*
X112245681Y-101976000D01*
X118245680Y-98626000D02*
X118245680Y-96626000D01*
X117745681Y-101476000D02*
X117745681Y-101976000D01*
X120245680Y-98626000D02*
X120245680Y-96626000D01*
X124070681Y-101976000D02*
X123295681Y-101976000D01*
X113745681Y-101476000D02*
X113745681Y-101976000D01*
X109920681Y-101176000D02*
X109920681Y-100026000D01*
X120245681Y-101976000D02*
X120245681Y-101476000D01*
X121745681Y-101976000D02*
X122245681Y-101976000D01*
X109020681Y-102226000D02*
X109920681Y-102226000D01*
X109920681Y-101176000D02*
X109920681Y-101976000D01*
X110695681Y-101176000D02*
X109920681Y-101176000D01*
X110695681Y-101976000D02*
X109920681Y-101976000D01*
X109020681Y-102226000D02*
X109020681Y-103626000D01*
%TO.C,J5*%
X102795680Y-96626000D02*
X103295680Y-96626000D01*
X108020680Y-98625999D02*
X108020680Y-100025999D01*
X96245681Y-103626000D02*
X103845681Y-103626000D01*
X92970681Y-101176000D02*
X92970681Y-100026000D01*
X104795680Y-98626000D02*
X104795680Y-96626000D01*
X92720681Y-100026000D02*
X92720681Y-102226000D01*
X103845681Y-102826000D02*
X106345681Y-102826000D01*
X94795680Y-98626000D02*
X94795680Y-96626000D01*
X108020680Y-100025999D02*
X107120681Y-100026000D01*
X94795681Y-101476000D02*
X94795681Y-101976000D01*
X106345681Y-99326000D02*
X106345681Y-101176000D01*
X93745681Y-101976000D02*
X93745681Y-102826000D01*
X98795681Y-101976000D02*
X99295681Y-101976000D01*
X101295681Y-101976000D02*
X101295681Y-101476000D01*
X93745681Y-99326000D02*
X106345681Y-99326000D01*
X93745681Y-101176000D02*
X92970681Y-101176000D01*
X96245681Y-102826000D02*
X103845681Y-102826000D01*
X96795681Y-101476000D02*
X96795681Y-101976000D01*
X107120681Y-101976000D02*
X107120681Y-101175999D01*
X92970681Y-102226000D02*
X92970681Y-101976000D01*
X98795680Y-96626000D02*
X99295680Y-96626000D01*
X94795681Y-101976000D02*
X95295681Y-101976000D01*
X95295680Y-98626000D02*
X95295680Y-96626000D01*
X97295681Y-101976000D02*
X97295681Y-101476000D01*
X107970681Y-100025999D02*
X107970681Y-102225999D01*
X96795680Y-96626000D02*
X97295680Y-96626000D01*
X105295680Y-98626000D02*
X105295680Y-96626000D01*
X94795680Y-96626000D02*
X95295680Y-96626000D01*
X103845681Y-103626000D02*
X103845681Y-102826000D01*
X107120681Y-101175999D02*
X106345681Y-101176000D01*
X92970681Y-100026000D02*
X92070681Y-100026000D01*
X99295680Y-98626000D02*
X99295680Y-96626000D01*
X93745681Y-102826000D02*
X96245681Y-102826000D01*
X102795680Y-98626000D02*
X102795680Y-96626000D01*
X92070681Y-102226000D02*
X92070681Y-103626000D01*
X100795681Y-101476000D02*
X100795681Y-101976000D01*
X98795680Y-98626000D02*
X98795680Y-96626000D01*
X99295681Y-101976000D02*
X99295681Y-101476000D01*
X104795681Y-101976000D02*
X105295681Y-101976000D01*
X103295680Y-98626000D02*
X103295680Y-96626000D01*
X101295680Y-98626000D02*
X101295680Y-96626000D01*
X107120681Y-101976000D02*
X106345681Y-101976000D01*
X96795680Y-98626000D02*
X96795680Y-96626000D01*
X93745681Y-100576000D02*
X106345681Y-100575999D01*
X92070681Y-98626000D02*
X92070681Y-100026000D01*
X92970681Y-101176000D02*
X92970681Y-101976000D01*
X107120681Y-102225999D02*
X108020680Y-102225999D01*
X98795681Y-101476000D02*
X98795681Y-101976000D01*
X107370681Y-100025999D02*
X107370681Y-102225999D01*
X108020680Y-98625999D02*
X92070680Y-98626000D01*
X97295681Y-101476000D02*
X96795681Y-101476000D01*
X108020680Y-102225999D02*
X108020680Y-103625999D01*
X106345681Y-101176000D02*
X106345681Y-101976000D01*
X101295681Y-101476000D02*
X100795681Y-101476000D01*
X96795681Y-101976000D02*
X97295681Y-101976000D01*
X92120681Y-100026000D02*
X92120681Y-102226000D01*
X107120681Y-100026000D02*
X107120681Y-101175999D01*
X103295681Y-101476000D02*
X102795681Y-101476000D01*
X93745681Y-101976000D02*
X92970681Y-101976000D01*
X100795680Y-96626000D02*
X101295680Y-96626000D01*
X100795681Y-101976000D02*
X101295681Y-101976000D01*
X99295681Y-101476000D02*
X98795681Y-101476000D01*
X96245681Y-102826000D02*
X96245681Y-103626000D01*
X95295681Y-101976000D02*
X95295681Y-101476000D01*
X108020680Y-103625999D02*
X103845681Y-103626000D01*
X102795681Y-101976000D02*
X103295681Y-101976000D01*
X103295681Y-101976000D02*
X103295681Y-101476000D01*
X107120681Y-101976000D02*
X107120681Y-102225999D01*
X106345681Y-101976000D02*
X106345681Y-102826000D01*
X93745681Y-101176000D02*
X93745681Y-101976000D01*
X100795680Y-98626000D02*
X100795680Y-96626000D01*
X95295681Y-101476000D02*
X94795681Y-101476000D01*
X93745681Y-99326000D02*
X93745681Y-101176000D01*
X92070681Y-102226000D02*
X92970681Y-102226000D01*
X104795680Y-96626000D02*
X105295680Y-96626000D01*
X96245681Y-103626000D02*
X92070681Y-103626000D01*
X97295680Y-98626000D02*
X97295680Y-96626000D01*
X104795681Y-101476000D02*
X104795681Y-101976000D01*
X105295681Y-101976000D02*
X105295681Y-101476000D01*
X102795681Y-101476000D02*
X102795681Y-101976000D01*
X105295681Y-101476000D02*
X104795681Y-101476000D01*
X93745681Y-101176000D02*
X106345681Y-101176000D01*
X165068750Y-86060000D02*
X164568750Y-86060000D01*
X159843750Y-84060001D02*
X159843750Y-82660001D01*
X171618749Y-79060000D02*
X164018749Y-79060000D01*
X174893749Y-81510000D02*
X174893749Y-82660000D01*
X163068750Y-84060000D02*
X163068750Y-86060000D01*
X175143749Y-82660000D02*
X175143749Y-80460000D01*
X164018749Y-79860000D02*
X161518749Y-79860000D01*
X173068750Y-84060000D02*
X173068750Y-86060000D01*
X159843750Y-82660001D02*
X160743749Y-82660000D01*
X173068749Y-81210000D02*
X173068749Y-80710000D01*
X161518749Y-83360000D02*
X161518749Y-81510000D01*
X174118749Y-80710000D02*
X174118749Y-79860000D01*
X169068749Y-80710000D02*
X168568749Y-80710000D01*
X166568749Y-80710000D02*
X166568749Y-81210000D01*
X174118749Y-83360000D02*
X161518749Y-83360000D01*
X174118749Y-81510000D02*
X174893749Y-81510000D01*
X171618749Y-79860000D02*
X164018749Y-79860000D01*
X171068749Y-81210000D02*
X171068749Y-80710000D01*
X160743749Y-80710000D02*
X160743749Y-81510001D01*
X174893749Y-80460000D02*
X174893749Y-80710000D01*
X169068750Y-86060000D02*
X168568750Y-86060000D01*
X173068749Y-80710000D02*
X172568749Y-80710000D01*
X172568750Y-84060000D02*
X172568750Y-86060000D01*
X170568749Y-80710000D02*
X170568749Y-81210000D01*
X159893749Y-82660001D02*
X159893749Y-80460001D01*
X171068750Y-86060000D02*
X170568750Y-86060000D01*
X162568750Y-84060000D02*
X162568750Y-86060000D01*
X173068750Y-86060000D02*
X172568750Y-86060000D01*
X164018749Y-79060000D02*
X164018749Y-79860000D01*
X160743749Y-81510001D02*
X161518749Y-81510000D01*
X174893749Y-82660000D02*
X175793749Y-82660000D01*
X168568750Y-84060000D02*
X168568750Y-86060000D01*
X174118749Y-79860000D02*
X171618749Y-79860000D01*
X165068750Y-84060000D02*
X165068750Y-86060000D01*
X175793749Y-80460000D02*
X175793749Y-79060000D01*
X167068749Y-81210000D02*
X167068749Y-80710000D01*
X169068750Y-84060000D02*
X169068750Y-86060000D01*
X168568749Y-80710000D02*
X168568749Y-81210000D01*
X163068749Y-80710000D02*
X162568749Y-80710000D01*
X164568750Y-84060000D02*
X164568750Y-86060000D01*
X166568750Y-84060000D02*
X166568750Y-86060000D01*
X160743749Y-80710000D02*
X161518749Y-80710000D01*
X171068750Y-84060000D02*
X171068750Y-86060000D01*
X174118749Y-82110000D02*
X161518749Y-82110001D01*
X175793749Y-84060000D02*
X175793749Y-82660000D01*
X174893749Y-81510000D02*
X174893749Y-80710000D01*
X160743749Y-80460001D02*
X159843750Y-80460001D01*
X169068749Y-81210000D02*
X169068749Y-80710000D01*
X160493749Y-82660001D02*
X160493749Y-80460001D01*
X159843750Y-84060001D02*
X175793750Y-84060000D01*
X170568749Y-81210000D02*
X171068749Y-81210000D01*
X159843750Y-80460001D02*
X159843750Y-79060001D01*
X161518749Y-81510000D02*
X161518749Y-80710000D01*
X166568749Y-81210000D02*
X167068749Y-81210000D01*
X171068749Y-80710000D02*
X170568749Y-80710000D01*
X175743749Y-82660000D02*
X175743749Y-80460000D01*
X160743749Y-82660000D02*
X160743749Y-81510001D01*
X164568749Y-81210000D02*
X165068749Y-81210000D01*
X174118749Y-80710000D02*
X174893749Y-80710000D01*
X167068750Y-86060000D02*
X166568750Y-86060000D01*
X167068749Y-80710000D02*
X166568749Y-80710000D01*
X168568749Y-81210000D02*
X169068749Y-81210000D01*
X171618749Y-79860000D02*
X171618749Y-79060000D01*
X172568749Y-80710000D02*
X172568749Y-81210000D01*
X159843750Y-79060001D02*
X164018749Y-79060000D01*
X165068749Y-80710000D02*
X164568749Y-80710000D01*
X164568749Y-80710000D02*
X164568749Y-81210000D01*
X160743749Y-80710000D02*
X160743749Y-80460001D01*
X161518749Y-80710000D02*
X161518749Y-79860000D01*
X174118749Y-81510000D02*
X174118749Y-80710000D01*
X167068750Y-84060000D02*
X167068750Y-86060000D01*
X172568749Y-81210000D02*
X173068749Y-81210000D01*
X174118749Y-83360000D02*
X174118749Y-81510000D01*
X175793749Y-80460000D02*
X174893749Y-80460000D01*
X163068750Y-86060000D02*
X162568750Y-86060000D01*
X171618749Y-79060000D02*
X175793749Y-79060000D01*
X170568750Y-84060000D02*
X170568750Y-86060000D01*
X163068749Y-81210000D02*
X163068749Y-80710000D01*
X162568749Y-80710000D02*
X162568749Y-81210000D01*
X165068749Y-81210000D02*
X165068749Y-80710000D01*
X162568749Y-81210000D02*
X163068749Y-81210000D01*
X174118749Y-81510000D02*
X161518749Y-81510000D01*
%TO.C,J6*%
X154118749Y-80710000D02*
X153618749Y-80710000D01*
X142893750Y-82660001D02*
X143793749Y-82660000D01*
X144568749Y-83360000D02*
X144568749Y-81510000D01*
X143793749Y-80460001D02*
X142893750Y-80460001D01*
X145618749Y-80710000D02*
X145618749Y-81210000D01*
X146118750Y-84060000D02*
X146118750Y-86060000D01*
X151618749Y-80710000D02*
X151618749Y-81210000D01*
X156118750Y-84060000D02*
X156118750Y-86060000D01*
X148118749Y-80710000D02*
X147618749Y-80710000D01*
X147068749Y-79860000D02*
X144568749Y-79860000D01*
X143543749Y-82660001D02*
X143543749Y-80460001D01*
X154118750Y-84060000D02*
X154118750Y-86060000D01*
X155618749Y-81210000D02*
X156118749Y-81210000D01*
X153618750Y-84060000D02*
X153618750Y-86060000D01*
X154668749Y-79860000D02*
X147068749Y-79860000D01*
X157168749Y-79860000D02*
X154668749Y-79860000D01*
X142893750Y-79060001D02*
X147068749Y-79060000D01*
X143793749Y-81510001D02*
X144568749Y-81510000D01*
X142943749Y-82660001D02*
X142943749Y-80460001D01*
X157943749Y-82660000D02*
X158843749Y-82660000D01*
X152118750Y-86060000D02*
X151618750Y-86060000D01*
X144568749Y-81510000D02*
X144568749Y-80710000D01*
X147618749Y-81210000D02*
X148118749Y-81210000D01*
X154668749Y-79860000D02*
X154668749Y-79060000D01*
X145618750Y-84060000D02*
X145618750Y-86060000D01*
X152118749Y-80710000D02*
X151618749Y-80710000D01*
X144568749Y-80710000D02*
X144568749Y-79860000D01*
X150118750Y-86060000D02*
X149618750Y-86060000D01*
X156118749Y-81210000D02*
X156118749Y-80710000D01*
X152118749Y-81210000D02*
X152118749Y-80710000D01*
X157168749Y-80710000D02*
X157168749Y-79860000D01*
X149618749Y-81210000D02*
X150118749Y-81210000D01*
X157943749Y-80460000D02*
X157943749Y-80710000D01*
X150118749Y-80710000D02*
X149618749Y-80710000D01*
X158193749Y-82660000D02*
X158193749Y-80460000D01*
X143793749Y-82660000D02*
X143793749Y-81510001D01*
X150118750Y-84060000D02*
X150118750Y-86060000D01*
X154668749Y-79060000D02*
X147068749Y-79060000D01*
X157168749Y-81510000D02*
X144568749Y-81510000D01*
X154668749Y-79060000D02*
X158843749Y-79060000D01*
X158793749Y-82660000D02*
X158793749Y-80460000D01*
X151618749Y-81210000D02*
X152118749Y-81210000D01*
X148118750Y-86060000D02*
X147618750Y-86060000D01*
X148118749Y-81210000D02*
X148118749Y-80710000D01*
X157168749Y-81510000D02*
X157168749Y-80710000D01*
X157168749Y-82110000D02*
X144568749Y-82110001D01*
X143793749Y-80710000D02*
X143793749Y-81510001D01*
X157168749Y-83360000D02*
X157168749Y-81510000D01*
X153618749Y-81210000D02*
X154118749Y-81210000D01*
X149618749Y-80710000D02*
X149618749Y-81210000D01*
X142893750Y-80460001D02*
X142893750Y-79060001D01*
X153618749Y-80710000D02*
X153618749Y-81210000D01*
X157168749Y-83360000D02*
X144568749Y-83360000D01*
X142893750Y-84060001D02*
X158843750Y-84060000D01*
X148118750Y-84060000D02*
X148118750Y-86060000D01*
X151618750Y-84060000D02*
X151618750Y-86060000D01*
X145618749Y-81210000D02*
X146118749Y-81210000D01*
X156118750Y-86060000D02*
X155618750Y-86060000D01*
X142893750Y-84060001D02*
X142893750Y-82660001D01*
X146118749Y-81210000D02*
X146118749Y-80710000D01*
X152118750Y-84060000D02*
X152118750Y-86060000D01*
X143793749Y-80710000D02*
X143793749Y-80460001D01*
X146118750Y-86060000D02*
X145618750Y-86060000D01*
X158843749Y-84060000D02*
X158843749Y-82660000D01*
X155618750Y-84060000D02*
X155618750Y-86060000D01*
X154118750Y-86060000D02*
X153618750Y-86060000D01*
X155618749Y-80710000D02*
X155618749Y-81210000D01*
X147068749Y-79060000D02*
X147068749Y-79860000D01*
X156118749Y-80710000D02*
X155618749Y-80710000D01*
X149618750Y-84060000D02*
X149618750Y-86060000D01*
X150118749Y-81210000D02*
X150118749Y-80710000D01*
X147618750Y-84060000D02*
X147618750Y-86060000D01*
X143793749Y-80710000D02*
X144568749Y-80710000D01*
X154118749Y-81210000D02*
X154118749Y-80710000D01*
X157943749Y-81510000D02*
X157943749Y-82660000D01*
X147618749Y-80710000D02*
X147618749Y-81210000D01*
X146118749Y-80710000D02*
X145618749Y-80710000D01*
X158843749Y-80460000D02*
X157943749Y-80460000D01*
X157943749Y-81510000D02*
X157943749Y-80710000D01*
X157168749Y-81510000D02*
X157943749Y-81510000D01*
X157168749Y-80710000D02*
X157943749Y-80710000D01*
X158843749Y-80460000D02*
X158843749Y-79060000D01*
%TO.C,J7*%
X141893749Y-80460000D02*
X141893749Y-79060000D01*
X138668750Y-84060000D02*
X138668750Y-86060000D01*
X140218749Y-83360000D02*
X140218749Y-81510000D01*
X140218749Y-80710000D02*
X140218749Y-79860000D01*
X137718749Y-79060000D02*
X130118749Y-79060000D01*
X131168750Y-86060000D02*
X130668750Y-86060000D01*
X137168749Y-80710000D02*
X136668749Y-80710000D01*
X127618749Y-80710000D02*
X127618749Y-79860000D01*
X125993749Y-82660001D02*
X125993749Y-80460001D01*
X140218749Y-83360000D02*
X127618749Y-83360000D01*
X126843749Y-80460001D02*
X125943750Y-80460001D01*
X137168750Y-84060000D02*
X137168750Y-86060000D01*
X130668750Y-84060000D02*
X130668750Y-86060000D01*
X126843749Y-80710000D02*
X126843749Y-80460001D01*
X134668749Y-81210000D02*
X135168749Y-81210000D01*
X140993749Y-81510000D02*
X140993749Y-82660000D01*
X128668749Y-80710000D02*
X128668749Y-81210000D01*
X126843749Y-81510001D02*
X127618749Y-81510000D01*
X134668749Y-80710000D02*
X134668749Y-81210000D01*
X130668749Y-81210000D02*
X131168749Y-81210000D01*
X136668750Y-84060000D02*
X136668750Y-86060000D01*
X126593749Y-82660001D02*
X126593749Y-80460001D01*
X125943750Y-82660001D02*
X126843749Y-82660000D01*
X131168749Y-80710000D02*
X130668749Y-80710000D01*
X131168749Y-81210000D02*
X131168749Y-80710000D01*
X129168749Y-81210000D02*
X129168749Y-80710000D01*
X133168749Y-81210000D02*
X133168749Y-80710000D01*
X125943750Y-79060001D02*
X130118749Y-79060000D01*
X132668750Y-84060000D02*
X132668750Y-86060000D01*
X135168750Y-84060000D02*
X135168750Y-86060000D01*
X139168749Y-80710000D02*
X138668749Y-80710000D01*
X139168750Y-84060000D02*
X139168750Y-86060000D01*
X132668749Y-80710000D02*
X132668749Y-81210000D01*
X127618749Y-81510000D02*
X127618749Y-80710000D01*
X139168750Y-86060000D02*
X138668750Y-86060000D01*
X130668749Y-80710000D02*
X130668749Y-81210000D01*
X133168749Y-80710000D02*
X132668749Y-80710000D01*
X137168749Y-81210000D02*
X137168749Y-80710000D01*
X131168750Y-84060000D02*
X131168750Y-86060000D01*
X139168749Y-81210000D02*
X139168749Y-80710000D01*
X132668749Y-81210000D02*
X133168749Y-81210000D01*
X140218749Y-81510000D02*
X140993749Y-81510000D01*
X141893749Y-84060000D02*
X141893749Y-82660000D01*
X129168750Y-86060000D02*
X128668750Y-86060000D01*
X128668749Y-81210000D02*
X129168749Y-81210000D01*
X140218749Y-79860000D02*
X137718749Y-79860000D01*
X140218749Y-81510000D02*
X127618749Y-81510000D01*
X125943750Y-84060001D02*
X141893750Y-84060000D01*
X127618749Y-83360000D02*
X127618749Y-81510000D01*
X140218749Y-80710000D02*
X140993749Y-80710000D01*
X137718749Y-79860000D02*
X130118749Y-79860000D01*
X126843749Y-80710000D02*
X126843749Y-81510001D01*
X125943750Y-84060001D02*
X125943750Y-82660001D01*
X141893749Y-80460000D02*
X140993749Y-80460000D01*
X126843749Y-82660000D02*
X126843749Y-81510001D01*
X134668750Y-84060000D02*
X134668750Y-86060000D01*
X129168749Y-80710000D02*
X128668749Y-80710000D01*
X140993749Y-81510000D02*
X140993749Y-80710000D01*
X129168750Y-84060000D02*
X129168750Y-86060000D01*
X141243749Y-82660000D02*
X141243749Y-80460000D01*
X126843749Y-80710000D02*
X127618749Y-80710000D01*
X137718749Y-79860000D02*
X137718749Y-79060000D01*
X136668749Y-80710000D02*
X136668749Y-81210000D01*
X130118749Y-79860000D02*
X127618749Y-79860000D01*
X135168750Y-86060000D02*
X134668750Y-86060000D01*
X140993749Y-82660000D02*
X141893749Y-82660000D01*
X135168749Y-81210000D02*
X135168749Y-80710000D01*
X137718749Y-79060000D02*
X141893749Y-79060000D01*
X138668749Y-81210000D02*
X139168749Y-81210000D01*
X138668749Y-80710000D02*
X138668749Y-81210000D01*
X136668749Y-81210000D02*
X137168749Y-81210000D01*
X125943750Y-80460001D02*
X125943750Y-79060001D01*
X137168750Y-86060000D02*
X136668750Y-86060000D01*
X133168750Y-84060000D02*
X133168750Y-86060000D01*
X128668750Y-84060000D02*
X128668750Y-86060000D01*
X140218749Y-81510000D02*
X140218749Y-80710000D01*
X140993749Y-80460000D02*
X140993749Y-80710000D01*
X133168750Y-86060000D02*
X132668750Y-86060000D01*
X140218749Y-82110000D02*
X127618749Y-82110001D01*
X141843749Y-82660000D02*
X141843749Y-80460000D01*
X135168749Y-80710000D02*
X134668749Y-80710000D01*
X130118749Y-79060000D02*
X130118749Y-79860000D01*
%TO.C,J8*%
X123268749Y-82110000D02*
X110668749Y-82110001D01*
X108993750Y-79060001D02*
X113168749Y-79060000D01*
X120768749Y-79060000D02*
X124943749Y-79060000D01*
X115718749Y-81210000D02*
X116218749Y-81210000D01*
X124943749Y-84060000D02*
X124943749Y-82660000D01*
X124043749Y-80460000D02*
X124043749Y-80710000D01*
X124943749Y-80460000D02*
X124043749Y-80460000D01*
X117718749Y-80710000D02*
X117718749Y-81210000D01*
X112218750Y-86060000D02*
X111718750Y-86060000D01*
X123268749Y-81510000D02*
X123268749Y-80710000D01*
X108993750Y-80460001D02*
X108993750Y-79060001D01*
X113168749Y-79860000D02*
X110668749Y-79860000D01*
X124043749Y-82660000D02*
X124943749Y-82660000D01*
X109643749Y-82660001D02*
X109643749Y-80460001D01*
X124893749Y-82660000D02*
X124893749Y-80460000D01*
X121718749Y-80710000D02*
X121718749Y-81210000D01*
X110668749Y-80710000D02*
X110668749Y-79860000D01*
X123268749Y-81510000D02*
X124043749Y-81510000D01*
X124293749Y-82660000D02*
X124293749Y-80460000D01*
X108993750Y-84060001D02*
X124943750Y-84060000D01*
X114218750Y-84060000D02*
X114218750Y-86060000D01*
X114218749Y-80710000D02*
X113718749Y-80710000D01*
X118218750Y-84060000D02*
X118218750Y-86060000D01*
X124943749Y-80460000D02*
X124943749Y-79060000D01*
X124043749Y-81510000D02*
X124043749Y-80710000D01*
X120768749Y-79860000D02*
X120768749Y-79060000D01*
X116218750Y-84060000D02*
X116218750Y-86060000D01*
X109893749Y-80460001D02*
X108993750Y-80460001D01*
X109043749Y-82660001D02*
X109043749Y-80460001D01*
X119718749Y-80710000D02*
X119718749Y-81210000D01*
X116218750Y-86060000D02*
X115718750Y-86060000D01*
X114218750Y-86060000D02*
X113718750Y-86060000D01*
X117718749Y-81210000D02*
X118218749Y-81210000D01*
X118218749Y-81210000D02*
X118218749Y-80710000D01*
X118218749Y-80710000D02*
X117718749Y-80710000D01*
X122218749Y-80710000D02*
X121718749Y-80710000D01*
X116218749Y-81210000D02*
X116218749Y-80710000D01*
X121718749Y-81210000D02*
X122218749Y-81210000D01*
X118218750Y-86060000D02*
X117718750Y-86060000D01*
X119718750Y-84060000D02*
X119718750Y-86060000D01*
X110668749Y-81510000D02*
X110668749Y-80710000D01*
X120768749Y-79060000D02*
X113168749Y-79060000D01*
X110668749Y-83360000D02*
X110668749Y-81510000D01*
X112218750Y-84060000D02*
X112218750Y-86060000D01*
X112218749Y-80710000D02*
X111718749Y-80710000D01*
X120218750Y-84060000D02*
X120218750Y-86060000D01*
X123268749Y-81510000D02*
X110668749Y-81510000D01*
X115718750Y-84060000D02*
X115718750Y-86060000D01*
X120218749Y-81210000D02*
X120218749Y-80710000D01*
X122218749Y-81210000D02*
X122218749Y-80710000D01*
X111718749Y-80710000D02*
X111718749Y-81210000D01*
X119718749Y-81210000D02*
X120218749Y-81210000D01*
X120218750Y-86060000D02*
X119718750Y-86060000D01*
X109893749Y-80710000D02*
X109893749Y-81510001D01*
X116218749Y-80710000D02*
X115718749Y-80710000D01*
X113168749Y-79060000D02*
X113168749Y-79860000D01*
X108993750Y-84060001D02*
X108993750Y-82660001D01*
X123268749Y-83360000D02*
X123268749Y-81510000D01*
X113718750Y-84060000D02*
X113718750Y-86060000D01*
X111718750Y-84060000D02*
X111718750Y-86060000D01*
X108993750Y-82660001D02*
X109893749Y-82660000D01*
X122218750Y-86060000D02*
X121718750Y-86060000D01*
X121718750Y-84060000D02*
X121718750Y-86060000D01*
X120218749Y-80710000D02*
X119718749Y-80710000D01*
X123268749Y-80710000D02*
X123268749Y-79860000D01*
X109893749Y-80710000D02*
X109893749Y-80460001D01*
X122218750Y-84060000D02*
X122218750Y-86060000D01*
X109893749Y-80710000D02*
X110668749Y-80710000D01*
X115718749Y-80710000D02*
X115718749Y-81210000D01*
X124043749Y-81510000D02*
X124043749Y-82660000D01*
X114218749Y-81210000D02*
X114218749Y-80710000D01*
X123268749Y-80710000D02*
X124043749Y-80710000D01*
X117718750Y-84060000D02*
X117718750Y-86060000D01*
X109893749Y-82660000D02*
X109893749Y-81510001D01*
X123268749Y-79860000D02*
X120768749Y-79860000D01*
X109893749Y-81510001D02*
X110668749Y-81510000D01*
X120768749Y-79860000D02*
X113168749Y-79860000D01*
X111718749Y-81210000D02*
X112218749Y-81210000D01*
X113718749Y-81210000D02*
X114218749Y-81210000D01*
X112218749Y-81210000D02*
X112218749Y-80710000D01*
X123268749Y-83360000D02*
X110668749Y-83360000D01*
X113718749Y-80710000D02*
X113718749Y-81210000D01*
%TO.C,J9*%
X96768749Y-81235000D02*
X97268749Y-81235000D01*
X102768750Y-84085000D02*
X102768750Y-86085000D01*
X97268749Y-80735000D02*
X96768749Y-80735000D01*
X106318749Y-81535000D02*
X93718749Y-81535000D01*
X95268749Y-80735000D02*
X94768749Y-80735000D01*
X92093749Y-82685001D02*
X92093749Y-80485001D01*
X92043750Y-82685001D02*
X92943749Y-82685000D01*
X92943749Y-80735000D02*
X92943749Y-80485001D01*
X103268749Y-81235000D02*
X103268749Y-80735000D01*
X103818749Y-79885000D02*
X103818749Y-79085000D01*
X106318749Y-81535000D02*
X106318749Y-80735000D01*
X92043750Y-80485001D02*
X92043750Y-79085001D01*
X103818749Y-79085000D02*
X96218749Y-79085000D01*
X96768749Y-80735000D02*
X96768749Y-81235000D01*
X107943749Y-82685000D02*
X107943749Y-80485000D01*
X101268750Y-84085000D02*
X101268750Y-86085000D01*
X107993749Y-84085000D02*
X107993749Y-82685000D01*
X102768749Y-81235000D02*
X103268749Y-81235000D01*
X101268750Y-86085000D02*
X100768750Y-86085000D01*
X96218749Y-79885000D02*
X93718749Y-79885000D01*
X92943749Y-80485001D02*
X92043750Y-80485001D01*
X96768750Y-84085000D02*
X96768750Y-86085000D01*
X97268750Y-86085000D02*
X96768750Y-86085000D01*
X93718749Y-83385000D02*
X93718749Y-81535000D01*
X105268750Y-84085000D02*
X105268750Y-86085000D01*
X94768749Y-81235000D02*
X95268749Y-81235000D01*
X93718749Y-80735000D02*
X93718749Y-79885000D01*
X93718749Y-81535000D02*
X93718749Y-80735000D01*
X103818749Y-79085000D02*
X107993749Y-79085000D01*
X97268750Y-84085000D02*
X97268750Y-86085000D01*
X106318749Y-80735000D02*
X106318749Y-79885000D01*
X92043750Y-84085001D02*
X107993750Y-84085000D01*
X107093749Y-81535000D02*
X107093749Y-80735000D01*
X96218749Y-79085000D02*
X96218749Y-79885000D01*
X107093749Y-82685000D02*
X107993749Y-82685000D01*
X99268750Y-86085000D02*
X98768750Y-86085000D01*
X103268750Y-84085000D02*
X103268750Y-86085000D01*
X100768749Y-81235000D02*
X101268749Y-81235000D01*
X106318749Y-83385000D02*
X93718749Y-83385000D01*
X92043750Y-79085001D02*
X96218749Y-79085000D01*
X106318749Y-79885000D02*
X103818749Y-79885000D01*
X106318749Y-81535000D02*
X107093749Y-81535000D01*
X99268749Y-80735000D02*
X98768749Y-80735000D01*
X99268749Y-81235000D02*
X99268749Y-80735000D01*
X100768749Y-80735000D02*
X100768749Y-81235000D01*
X92043750Y-84085001D02*
X92043750Y-82685001D01*
X92943749Y-80735000D02*
X93718749Y-80735000D01*
X99268750Y-84085000D02*
X99268750Y-86085000D01*
X104768749Y-81235000D02*
X105268749Y-81235000D01*
X94768749Y-80735000D02*
X94768749Y-81235000D01*
X92943749Y-82685000D02*
X92943749Y-81535001D01*
X107993749Y-80485000D02*
X107093749Y-80485000D01*
X95268750Y-86085000D02*
X94768750Y-86085000D01*
X100768750Y-84085000D02*
X100768750Y-86085000D01*
X102768749Y-80735000D02*
X102768749Y-81235000D01*
X103818749Y-79885000D02*
X96218749Y-79885000D01*
X98768750Y-84085000D02*
X98768750Y-86085000D01*
X97268749Y-81235000D02*
X97268749Y-80735000D01*
X107093749Y-80485000D02*
X107093749Y-80735000D01*
X95268749Y-81235000D02*
X95268749Y-80735000D01*
X104768750Y-84085000D02*
X104768750Y-86085000D01*
X106318749Y-83385000D02*
X106318749Y-81535000D01*
X107093749Y-81535000D02*
X107093749Y-82685000D01*
X105268749Y-81235000D02*
X105268749Y-80735000D01*
X105268749Y-80735000D02*
X104768749Y-80735000D01*
X107343749Y-82685000D02*
X107343749Y-80485000D01*
X101268749Y-81235000D02*
X101268749Y-80735000D01*
X98768749Y-80735000D02*
X98768749Y-81235000D01*
X92943749Y-80735000D02*
X92943749Y-81535001D01*
X94768750Y-84085000D02*
X94768750Y-86085000D01*
X101268749Y-80735000D02*
X100768749Y-80735000D01*
X95268750Y-84085000D02*
X95268750Y-86085000D01*
X106318749Y-82135000D02*
X93718749Y-82135001D01*
X103268750Y-86085000D02*
X102768750Y-86085000D01*
X107993749Y-80485000D02*
X107993749Y-79085000D01*
X92693749Y-82685001D02*
X92693749Y-80485001D01*
X92943749Y-81535001D02*
X93718749Y-81535000D01*
X106318749Y-80735000D02*
X107093749Y-80735000D01*
X98768749Y-81235000D02*
X99268749Y-81235000D01*
X104768749Y-80735000D02*
X104768749Y-81235000D01*
X105268750Y-86085000D02*
X104768750Y-86085000D01*
X103268749Y-80735000D02*
X102768749Y-80735000D01*
%TO.C,J10*%
X103293749Y-72710000D02*
X102793749Y-72710000D01*
X106343749Y-75360000D02*
X106343749Y-73510000D01*
X92968749Y-72460001D02*
X92068750Y-72460001D01*
X93743749Y-75360000D02*
X93743749Y-73510000D01*
X92968749Y-72710000D02*
X92968749Y-72460001D01*
X99293749Y-72710000D02*
X98793749Y-72710000D01*
X95293750Y-76060000D02*
X95293750Y-78060000D01*
X92968749Y-74660000D02*
X92968749Y-73510001D01*
X101293750Y-76060000D02*
X101293750Y-78060000D01*
X92968749Y-72710000D02*
X92968749Y-73510001D01*
X107118749Y-74660000D02*
X108018749Y-74660000D01*
X107118749Y-72460000D02*
X107118749Y-72710000D01*
X103843749Y-71060000D02*
X96243749Y-71060000D01*
X108018749Y-72460000D02*
X108018749Y-71060000D01*
X92068750Y-71060001D02*
X96243749Y-71060000D01*
X92118749Y-74660001D02*
X92118749Y-72460001D01*
X106343749Y-74110000D02*
X93743749Y-74110001D01*
X103843749Y-71060000D02*
X108018749Y-71060000D01*
X104793749Y-73210000D02*
X105293749Y-73210000D01*
X102793750Y-76060000D02*
X102793750Y-78060000D01*
X108018749Y-72460000D02*
X107118749Y-72460000D01*
X92068750Y-74660001D02*
X92968749Y-74660000D01*
X106343749Y-72710000D02*
X107118749Y-72710000D01*
X94793749Y-72710000D02*
X94793749Y-73210000D01*
X93743749Y-73510000D02*
X93743749Y-72710000D01*
X96243749Y-71060000D02*
X96243749Y-71860000D01*
X104793750Y-76060000D02*
X104793750Y-78060000D01*
X92068750Y-76060001D02*
X108018750Y-76060000D01*
X100793749Y-73210000D02*
X101293749Y-73210000D01*
X94793749Y-73210000D02*
X95293749Y-73210000D01*
X93743749Y-72710000D02*
X93743749Y-71860000D01*
X105293749Y-73210000D02*
X105293749Y-72710000D01*
X105293750Y-76060000D02*
X105293750Y-78060000D01*
X99293750Y-76060000D02*
X99293750Y-78060000D01*
X92718749Y-74660001D02*
X92718749Y-72460001D01*
X108018749Y-76060000D02*
X108018749Y-74660000D01*
X95293749Y-72710000D02*
X94793749Y-72710000D01*
X100793749Y-72710000D02*
X100793749Y-73210000D01*
X106343749Y-75360000D02*
X93743749Y-75360000D01*
X98793749Y-73210000D02*
X99293749Y-73210000D01*
X107968749Y-74660000D02*
X107968749Y-72460000D01*
X96793750Y-76060000D02*
X96793750Y-78060000D01*
X95293750Y-78060000D02*
X94793750Y-78060000D01*
X94793750Y-76060000D02*
X94793750Y-78060000D01*
X101293749Y-72710000D02*
X100793749Y-72710000D01*
X102793749Y-73210000D02*
X103293749Y-73210000D01*
X92068750Y-72460001D02*
X92068750Y-71060001D01*
X103293750Y-78060000D02*
X102793750Y-78060000D01*
X100793750Y-76060000D02*
X100793750Y-78060000D01*
X99293749Y-73210000D02*
X99293749Y-72710000D01*
X105293749Y-72710000D02*
X104793749Y-72710000D01*
X106343749Y-71860000D02*
X103843749Y-71860000D01*
X96793749Y-72710000D02*
X96793749Y-73210000D01*
X106343749Y-73510000D02*
X107118749Y-73510000D01*
X106343749Y-73510000D02*
X93743749Y-73510000D01*
X97293749Y-72710000D02*
X96793749Y-72710000D01*
X101293750Y-78060000D02*
X100793750Y-78060000D01*
X96243749Y-71860000D02*
X93743749Y-71860000D01*
X96793749Y-73210000D02*
X97293749Y-73210000D01*
X106343749Y-72710000D02*
X106343749Y-71860000D01*
X92968749Y-73510001D02*
X93743749Y-73510000D01*
X99293750Y-78060000D02*
X98793750Y-78060000D01*
X103843749Y-71860000D02*
X96243749Y-71860000D01*
X97293749Y-73210000D02*
X97293749Y-72710000D01*
X105293750Y-78060000D02*
X104793750Y-78060000D01*
X104793749Y-72710000D02*
X104793749Y-73210000D01*
X101293749Y-73210000D02*
X101293749Y-72710000D01*
X97293750Y-76060000D02*
X97293750Y-78060000D01*
X103843749Y-71860000D02*
X103843749Y-71060000D01*
X106343749Y-73510000D02*
X106343749Y-72710000D01*
X92068750Y-76060001D02*
X92068750Y-74660001D01*
X103293750Y-76060000D02*
X103293750Y-78060000D01*
X103293749Y-73210000D02*
X103293749Y-72710000D01*
X92968749Y-72710000D02*
X93743749Y-72710000D01*
X107118749Y-73510000D02*
X107118749Y-72710000D01*
X98793750Y-76060000D02*
X98793750Y-78060000D01*
X98793749Y-72710000D02*
X98793749Y-73210000D01*
X97293750Y-78060000D02*
X96793750Y-78060000D01*
X95293749Y-73210000D02*
X95293749Y-72710000D01*
X107118749Y-73510000D02*
X107118749Y-74660000D01*
X102793749Y-72710000D02*
X102793749Y-73210000D01*
X107368749Y-74660000D02*
X107368749Y-72460000D01*
%TO.C,J11*%
X120243749Y-73210000D02*
X120243749Y-72710000D01*
X123293749Y-72710000D02*
X123293749Y-71860000D01*
X117743750Y-76060000D02*
X117743750Y-78060000D01*
X112243749Y-72710000D02*
X111743749Y-72710000D01*
X120793749Y-71060000D02*
X124968749Y-71060000D01*
X109918749Y-73510001D02*
X110693749Y-73510000D01*
X124068749Y-73510000D02*
X124068749Y-74660000D01*
X120793749Y-71860000D02*
X113193749Y-71860000D01*
X111743750Y-76060000D02*
X111743750Y-78060000D01*
X124068749Y-72460000D02*
X124068749Y-72710000D01*
X110693749Y-75360000D02*
X110693749Y-73510000D01*
X109918749Y-72710000D02*
X109918749Y-73510001D01*
X123293749Y-72710000D02*
X124068749Y-72710000D01*
X120793749Y-71860000D02*
X120793749Y-71060000D01*
X109918749Y-72710000D02*
X110693749Y-72710000D01*
X114243750Y-76060000D02*
X114243750Y-78060000D01*
X124318749Y-74660000D02*
X124318749Y-72460000D01*
X109018750Y-71060001D02*
X113193749Y-71060000D01*
X116243750Y-78060000D02*
X115743750Y-78060000D01*
X109918749Y-72460001D02*
X109018750Y-72460001D01*
X120243749Y-72710000D02*
X119743749Y-72710000D01*
X118243749Y-72710000D02*
X117743749Y-72710000D01*
X119743749Y-72710000D02*
X119743749Y-73210000D01*
X109668749Y-74660001D02*
X109668749Y-72460001D01*
X124068749Y-73510000D02*
X124068749Y-72710000D01*
X109918749Y-74660000D02*
X109918749Y-73510001D01*
X113193749Y-71860000D02*
X110693749Y-71860000D01*
X113743750Y-76060000D02*
X113743750Y-78060000D01*
X115743750Y-76060000D02*
X115743750Y-78060000D01*
X124968749Y-72460000D02*
X124968749Y-71060000D01*
X123293749Y-75360000D02*
X123293749Y-73510000D01*
X110693749Y-73510000D02*
X110693749Y-72710000D01*
X124968749Y-76060000D02*
X124968749Y-74660000D01*
X117743749Y-73210000D02*
X118243749Y-73210000D01*
X118243750Y-76060000D02*
X118243750Y-78060000D01*
X122243749Y-72710000D02*
X121743749Y-72710000D01*
X111743749Y-72710000D02*
X111743749Y-73210000D01*
X109018750Y-72460001D02*
X109018750Y-71060001D01*
X115743749Y-73210000D02*
X116243749Y-73210000D01*
X117743749Y-72710000D02*
X117743749Y-73210000D01*
X109018750Y-74660001D02*
X109918749Y-74660000D01*
X112243750Y-76060000D02*
X112243750Y-78060000D01*
X109018750Y-76060001D02*
X109018750Y-74660001D01*
X124918749Y-74660000D02*
X124918749Y-72460000D01*
X119743749Y-73210000D02*
X120243749Y-73210000D01*
X116243749Y-72710000D02*
X115743749Y-72710000D01*
X120793749Y-71060000D02*
X113193749Y-71060000D01*
X112243750Y-78060000D02*
X111743750Y-78060000D01*
X123293749Y-75360000D02*
X110693749Y-75360000D01*
X113743749Y-73210000D02*
X114243749Y-73210000D01*
X114243749Y-73210000D02*
X114243749Y-72710000D01*
X120243750Y-76060000D02*
X120243750Y-78060000D01*
X119743750Y-76060000D02*
X119743750Y-78060000D01*
X118243750Y-78060000D02*
X117743750Y-78060000D01*
X121743750Y-76060000D02*
X121743750Y-78060000D01*
X114243750Y-78060000D02*
X113743750Y-78060000D01*
X110693749Y-72710000D02*
X110693749Y-71860000D01*
X120243750Y-78060000D02*
X119743750Y-78060000D01*
X109918749Y-72710000D02*
X109918749Y-72460001D01*
X116243749Y-73210000D02*
X116243749Y-72710000D01*
X112243749Y-73210000D02*
X112243749Y-72710000D01*
X114243749Y-72710000D02*
X113743749Y-72710000D01*
X122243749Y-73210000D02*
X122243749Y-72710000D01*
X109018750Y-76060001D02*
X124968750Y-76060000D01*
X122243750Y-76060000D02*
X122243750Y-78060000D01*
X123293749Y-73510000D02*
X124068749Y-73510000D01*
X123293749Y-71860000D02*
X120793749Y-71860000D01*
X123293749Y-73510000D02*
X110693749Y-73510000D01*
X123293749Y-73510000D02*
X123293749Y-72710000D01*
X123293749Y-74110000D02*
X110693749Y-74110001D01*
X118243749Y-73210000D02*
X118243749Y-72710000D01*
X124068749Y-74660000D02*
X124968749Y-74660000D01*
X122243750Y-78060000D02*
X121743750Y-78060000D01*
X121743749Y-73210000D02*
X122243749Y-73210000D01*
X121743749Y-72710000D02*
X121743749Y-73210000D01*
X111743749Y-73210000D02*
X112243749Y-73210000D01*
X116243750Y-76060000D02*
X116243750Y-78060000D01*
X113193749Y-71060000D02*
X113193749Y-71860000D01*
X124968749Y-72460000D02*
X124068749Y-72460000D01*
X113743749Y-72710000D02*
X113743749Y-73210000D01*
X115743749Y-72710000D02*
X115743749Y-73210000D01*
X109068749Y-74660001D02*
X109068749Y-72460001D01*
%TO.C,J12*%
X140243749Y-75360000D02*
X127643749Y-75360000D01*
X137743749Y-71060000D02*
X141918749Y-71060000D01*
X140243749Y-75360000D02*
X140243749Y-73510000D01*
X137743749Y-71060000D02*
X130143749Y-71060000D01*
X139193750Y-78060000D02*
X138693750Y-78060000D01*
X134693750Y-76060000D02*
X134693750Y-78060000D01*
X132693749Y-72710000D02*
X132693749Y-73210000D01*
X126868749Y-72710000D02*
X127643749Y-72710000D01*
X140243749Y-73510000D02*
X127643749Y-73510000D01*
X136693749Y-73210000D02*
X137193749Y-73210000D01*
X129193749Y-72710000D02*
X128693749Y-72710000D01*
X131193749Y-72710000D02*
X130693749Y-72710000D01*
X140243749Y-73510000D02*
X140243749Y-72710000D01*
X138693749Y-73210000D02*
X139193749Y-73210000D01*
X125968750Y-74660001D02*
X126868749Y-74660000D01*
X126868749Y-72710000D02*
X126868749Y-72460001D01*
X130693749Y-73210000D02*
X131193749Y-73210000D01*
X131193750Y-78060000D02*
X130693750Y-78060000D01*
X135193750Y-78060000D02*
X134693750Y-78060000D01*
X128693749Y-72710000D02*
X128693749Y-73210000D01*
X140243749Y-72710000D02*
X140243749Y-71860000D01*
X129193750Y-78060000D02*
X128693750Y-78060000D01*
X140243749Y-72710000D02*
X141018749Y-72710000D01*
X130143749Y-71060000D02*
X130143749Y-71860000D01*
X131193750Y-76060000D02*
X131193750Y-78060000D01*
X129193749Y-73210000D02*
X129193749Y-72710000D01*
X129193750Y-76060000D02*
X129193750Y-78060000D01*
X127643749Y-73510000D02*
X127643749Y-72710000D01*
X140243749Y-74110000D02*
X127643749Y-74110001D01*
X134693749Y-73210000D02*
X135193749Y-73210000D01*
X141018749Y-74660000D02*
X141918749Y-74660000D01*
X138693749Y-72710000D02*
X138693749Y-73210000D01*
X138693750Y-76060000D02*
X138693750Y-78060000D01*
X128693750Y-76060000D02*
X128693750Y-78060000D01*
X141018749Y-73510000D02*
X141018749Y-74660000D01*
X136693749Y-72710000D02*
X136693749Y-73210000D01*
X135193749Y-72710000D02*
X134693749Y-72710000D01*
X141868749Y-74660000D02*
X141868749Y-72460000D01*
X134693749Y-72710000D02*
X134693749Y-73210000D01*
X130143749Y-71860000D02*
X127643749Y-71860000D01*
X141918749Y-76060000D02*
X141918749Y-74660000D01*
X141268749Y-74660000D02*
X141268749Y-72460000D01*
X141918749Y-72460000D02*
X141018749Y-72460000D01*
X127643749Y-75360000D02*
X127643749Y-73510000D01*
X133193749Y-73210000D02*
X133193749Y-72710000D01*
X126018749Y-74660001D02*
X126018749Y-72460001D01*
X125968750Y-71060001D02*
X130143749Y-71060000D01*
X137193750Y-76060000D02*
X137193750Y-78060000D01*
X139193750Y-76060000D02*
X139193750Y-78060000D01*
X133193750Y-78060000D02*
X132693750Y-78060000D01*
X135193750Y-76060000D02*
X135193750Y-78060000D01*
X137743749Y-71860000D02*
X130143749Y-71860000D01*
X125968750Y-76060001D02*
X125968750Y-74660001D01*
X126868749Y-73510001D02*
X127643749Y-73510000D01*
X132693749Y-73210000D02*
X133193749Y-73210000D01*
X141018749Y-72460000D02*
X141018749Y-72710000D01*
X130693749Y-72710000D02*
X130693749Y-73210000D01*
X135193749Y-73210000D02*
X135193749Y-72710000D01*
X126868749Y-72460001D02*
X125968750Y-72460001D01*
X126868749Y-74660000D02*
X126868749Y-73510001D01*
X139193749Y-73210000D02*
X139193749Y-72710000D01*
X140243749Y-71860000D02*
X137743749Y-71860000D01*
X141918749Y-72460000D02*
X141918749Y-71060000D01*
X130693750Y-76060000D02*
X130693750Y-78060000D01*
X125968750Y-76060001D02*
X141918750Y-76060000D01*
X137193749Y-72710000D02*
X136693749Y-72710000D01*
X133193749Y-72710000D02*
X132693749Y-72710000D01*
X136693750Y-76060000D02*
X136693750Y-78060000D01*
X132693750Y-76060000D02*
X132693750Y-78060000D01*
X140243749Y-73510000D02*
X141018749Y-73510000D01*
X137743749Y-71860000D02*
X137743749Y-71060000D01*
X126868749Y-72710000D02*
X126868749Y-73510001D01*
X133193750Y-76060000D02*
X133193750Y-78060000D01*
X131193749Y-73210000D02*
X131193749Y-72710000D01*
X126618749Y-74660001D02*
X126618749Y-72460001D01*
X139193749Y-72710000D02*
X138693749Y-72710000D01*
X137193750Y-78060000D02*
X136693750Y-78060000D01*
X127643749Y-72710000D02*
X127643749Y-71860000D01*
X137193749Y-73210000D02*
X137193749Y-72710000D01*
X125968750Y-72460001D02*
X125968750Y-71060001D01*
X141018749Y-73510000D02*
X141018749Y-72710000D01*
X128693749Y-73210000D02*
X129193749Y-73210000D01*
%TO.C,J13*%
X153643749Y-72710000D02*
X153643749Y-73210000D01*
X152143750Y-78060000D02*
X151643750Y-78060000D01*
X152143749Y-72710000D02*
X151643749Y-72710000D01*
X152143750Y-76060000D02*
X152143750Y-78060000D01*
X157193749Y-75360000D02*
X144593749Y-75360000D01*
X154693749Y-71060000D02*
X158868749Y-71060000D01*
X148143750Y-76060000D02*
X148143750Y-78060000D01*
X143818749Y-72710000D02*
X144593749Y-72710000D01*
X157193749Y-71860000D02*
X154693749Y-71860000D01*
X151643749Y-73210000D02*
X152143749Y-73210000D01*
X150143750Y-78060000D02*
X149643750Y-78060000D01*
X155643749Y-73210000D02*
X156143749Y-73210000D01*
X143818749Y-72710000D02*
X143818749Y-73510001D01*
X157968749Y-73510000D02*
X157968749Y-74660000D01*
X143818749Y-72710000D02*
X143818749Y-72460001D01*
X157968749Y-72460000D02*
X157968749Y-72710000D01*
X151643750Y-76060000D02*
X151643750Y-78060000D01*
X144593749Y-72710000D02*
X144593749Y-71860000D01*
X157193749Y-73510000D02*
X144593749Y-73510000D01*
X158868749Y-72460000D02*
X157968749Y-72460000D01*
X149643750Y-76060000D02*
X149643750Y-78060000D01*
X158868749Y-72460000D02*
X158868749Y-71060000D01*
X148143749Y-72710000D02*
X147643749Y-72710000D01*
X146143750Y-76060000D02*
X146143750Y-78060000D01*
X158868749Y-76060000D02*
X158868749Y-74660000D01*
X144593749Y-75360000D02*
X144593749Y-73510000D01*
X143818749Y-74660000D02*
X143818749Y-73510001D01*
X154693749Y-71860000D02*
X147093749Y-71860000D01*
X155643750Y-76060000D02*
X155643750Y-78060000D01*
X154693749Y-71860000D02*
X154693749Y-71060000D01*
X149643749Y-72710000D02*
X149643749Y-73210000D01*
X157968749Y-74660000D02*
X158868749Y-74660000D01*
X147643750Y-76060000D02*
X147643750Y-78060000D01*
X156143749Y-72710000D02*
X155643749Y-72710000D01*
X157193749Y-72710000D02*
X157193749Y-71860000D01*
X142918750Y-76060001D02*
X142918750Y-74660001D01*
X144593749Y-73510000D02*
X144593749Y-72710000D01*
X157968749Y-73510000D02*
X157968749Y-72710000D01*
X154143749Y-72710000D02*
X153643749Y-72710000D01*
X143568749Y-74660001D02*
X143568749Y-72460001D01*
X154693749Y-71060000D02*
X147093749Y-71060000D01*
X143818749Y-73510001D02*
X144593749Y-73510000D01*
X157193749Y-75360000D02*
X157193749Y-73510000D01*
X156143749Y-73210000D02*
X156143749Y-72710000D01*
X148143750Y-78060000D02*
X147643750Y-78060000D01*
X147643749Y-73210000D02*
X148143749Y-73210000D01*
X147093749Y-71860000D02*
X144593749Y-71860000D01*
X149643749Y-73210000D02*
X150143749Y-73210000D01*
X151643749Y-72710000D02*
X151643749Y-73210000D01*
X142918750Y-72460001D02*
X142918750Y-71060001D01*
X146143750Y-78060000D02*
X145643750Y-78060000D01*
X147643749Y-72710000D02*
X147643749Y-73210000D01*
X155643749Y-72710000D02*
X155643749Y-73210000D01*
X154143750Y-76060000D02*
X154143750Y-78060000D01*
X145643749Y-73210000D02*
X146143749Y-73210000D01*
X158218749Y-74660000D02*
X158218749Y-72460000D01*
X150143750Y-76060000D02*
X150143750Y-78060000D01*
X142918750Y-71060001D02*
X147093749Y-71060000D01*
X156143750Y-76060000D02*
X156143750Y-78060000D01*
X148143749Y-73210000D02*
X148143749Y-72710000D01*
X157193749Y-72710000D02*
X157968749Y-72710000D01*
X158818749Y-74660000D02*
X158818749Y-72460000D01*
X146143749Y-73210000D02*
X146143749Y-72710000D01*
X150143749Y-72710000D02*
X149643749Y-72710000D01*
X142918750Y-76060001D02*
X158868750Y-76060000D01*
X142918750Y-74660001D02*
X143818749Y-74660000D01*
X150143749Y-73210000D02*
X150143749Y-72710000D01*
X157193749Y-73510000D02*
X157968749Y-73510000D01*
X142968749Y-74660001D02*
X142968749Y-72460001D01*
X152143749Y-73210000D02*
X152143749Y-72710000D01*
X145643749Y-72710000D02*
X145643749Y-73210000D01*
X157193749Y-73510000D02*
X157193749Y-72710000D01*
X147093749Y-71060000D02*
X147093749Y-71860000D01*
X153643749Y-73210000D02*
X154143749Y-73210000D01*
X145643750Y-76060000D02*
X145643750Y-78060000D01*
X154143749Y-73210000D02*
X154143749Y-72710000D01*
X153643750Y-76060000D02*
X153643750Y-78060000D01*
X154143750Y-78060000D02*
X153643750Y-78060000D01*
X157193749Y-74110000D02*
X144593749Y-74110001D01*
X143818749Y-72460001D02*
X142918750Y-72460001D01*
X146143749Y-72710000D02*
X145643749Y-72710000D01*
X156143750Y-78060000D02*
X155643750Y-78060000D01*
%TO.C,J14*%
X160768749Y-72710000D02*
X160768749Y-72460001D01*
X173093749Y-73210000D02*
X173093749Y-72710000D01*
X174918749Y-73510000D02*
X174918749Y-72710000D01*
X168593749Y-72710000D02*
X168593749Y-73210000D01*
X161543749Y-72710000D02*
X161543749Y-71860000D01*
X171643749Y-71860000D02*
X171643749Y-71060000D01*
X171643749Y-71860000D02*
X164043749Y-71860000D01*
X163093749Y-72710000D02*
X162593749Y-72710000D01*
X175768749Y-74660000D02*
X175768749Y-72460000D01*
X167093749Y-73210000D02*
X167093749Y-72710000D01*
X171643749Y-71060000D02*
X175818749Y-71060000D01*
X159918749Y-74660001D02*
X159918749Y-72460001D01*
X166593749Y-73210000D02*
X167093749Y-73210000D01*
X167093750Y-76060000D02*
X167093750Y-78060000D01*
X159868750Y-72460001D02*
X159868750Y-71060001D01*
X163093750Y-76060000D02*
X163093750Y-78060000D01*
X172593750Y-76060000D02*
X172593750Y-78060000D01*
X174918749Y-73510000D02*
X174918749Y-74660000D01*
X164593750Y-76060000D02*
X164593750Y-78060000D01*
X165093749Y-72710000D02*
X164593749Y-72710000D01*
X173093749Y-72710000D02*
X172593749Y-72710000D01*
X170593749Y-73210000D02*
X171093749Y-73210000D01*
X171093749Y-73210000D02*
X171093749Y-72710000D01*
X170593749Y-72710000D02*
X170593749Y-73210000D01*
X162593750Y-76060000D02*
X162593750Y-78060000D01*
X160768749Y-74660000D02*
X160768749Y-73510001D01*
X165093749Y-73210000D02*
X165093749Y-72710000D01*
X162593749Y-73210000D02*
X163093749Y-73210000D01*
X174143749Y-75360000D02*
X174143749Y-73510000D01*
X161543749Y-73510000D02*
X161543749Y-72710000D01*
X174143749Y-71860000D02*
X171643749Y-71860000D01*
X169093750Y-76060000D02*
X169093750Y-78060000D01*
X167093750Y-78060000D02*
X166593750Y-78060000D01*
X164593749Y-72710000D02*
X164593749Y-73210000D01*
X160768749Y-72710000D02*
X160768749Y-73510001D01*
X175818749Y-72460000D02*
X175818749Y-71060000D01*
X172593749Y-72710000D02*
X172593749Y-73210000D01*
X168593749Y-73210000D02*
X169093749Y-73210000D01*
X172593749Y-73210000D02*
X173093749Y-73210000D01*
X175168749Y-74660000D02*
X175168749Y-72460000D01*
X175818749Y-76060000D02*
X175818749Y-74660000D01*
X168593750Y-76060000D02*
X168593750Y-78060000D01*
X163093749Y-73210000D02*
X163093749Y-72710000D01*
X173093750Y-76060000D02*
X173093750Y-78060000D01*
X162593749Y-72710000D02*
X162593749Y-73210000D01*
X174918749Y-74660000D02*
X175818749Y-74660000D01*
X160768749Y-73510001D02*
X161543749Y-73510000D01*
X164593749Y-73210000D02*
X165093749Y-73210000D01*
X163093750Y-78060000D02*
X162593750Y-78060000D01*
X175818749Y-72460000D02*
X174918749Y-72460000D01*
X174143749Y-72710000D02*
X174143749Y-71860000D01*
X165093750Y-76060000D02*
X165093750Y-78060000D01*
X170593750Y-76060000D02*
X170593750Y-78060000D01*
X159868750Y-71060001D02*
X164043749Y-71060000D01*
X161543749Y-75360000D02*
X161543749Y-73510000D01*
X174918749Y-72460000D02*
X174918749Y-72710000D01*
X160768749Y-72710000D02*
X161543749Y-72710000D01*
X166593750Y-76060000D02*
X166593750Y-78060000D01*
X164043749Y-71060000D02*
X164043749Y-71860000D01*
X169093750Y-78060000D02*
X168593750Y-78060000D01*
X169093749Y-73210000D02*
X169093749Y-72710000D01*
X171093750Y-78060000D02*
X170593750Y-78060000D01*
X174143749Y-73510000D02*
X174918749Y-73510000D01*
X159868750Y-74660001D02*
X160768749Y-74660000D01*
X174143749Y-73510000D02*
X161543749Y-73510000D01*
X164043749Y-71860000D02*
X161543749Y-71860000D01*
X159868750Y-76060001D02*
X159868750Y-74660001D01*
X174143749Y-73510000D02*
X174143749Y-72710000D01*
X174143749Y-74110000D02*
X161543749Y-74110001D01*
X171093750Y-76060000D02*
X171093750Y-78060000D01*
X160518749Y-74660001D02*
X160518749Y-72460001D01*
X160768749Y-72460001D02*
X159868750Y-72460001D01*
X165093750Y-78060000D02*
X164593750Y-78060000D01*
X159868750Y-76060001D02*
X175818750Y-76060000D01*
X173093750Y-78060000D02*
X172593750Y-78060000D01*
X174143749Y-72710000D02*
X174918749Y-72710000D01*
X171093749Y-72710000D02*
X170593749Y-72710000D01*
X166593749Y-72710000D02*
X166593749Y-73210000D01*
X167093749Y-72710000D02*
X166593749Y-72710000D01*
X171643749Y-71060000D02*
X164043749Y-71060000D01*
X174143749Y-75360000D02*
X161543749Y-75360000D01*
X169093749Y-72710000D02*
X168593749Y-72710000D01*
%TD*%
M02*
