M48
; DRILL file {KiCad (6.0.0-rc1-392-g84e0feeee6)} date Mon Jul 25 10:35:03 2022
; FORMAT={-:-/ absolute / inch / decimal}
; #@! TF.CreationDate,2022-07-25T10:35:03+07:00
; #@! TF.GenerationSoftware,Kicad,Pcbnew,(6.0.0-rc1-392-g84e0feeee6)
; #@! TF.FileFunction,MixedPlating,1,2
FMAT,2
INCH
; #@! TA.AperFunction,Plated,PTH,ViaDrill
T1C0.0118
; #@! TA.AperFunction,Plated,PTH,ViaDrill
T2C0.0157
; #@! TA.AperFunction,Plated,PTH,ComponentDrill
T3C0.0295
; #@! TA.AperFunction,Plated,PTH,ComponentDrill
T4C0.0984
; #@! TA.AperFunction,NonPlated,NPTH,ComponentDrill
T5C0.1181
%
G90
G05
T1
X4.3249Y-4.1538
X4.6552Y-4.1463
X4.798Y-2.4272
X4.8079Y-1.9028
X4.8146Y-4.6672
X4.9847Y-4.1526
X5.1154Y-1.9618
X5.1276Y-2.4197
X5.1343Y-1.9028
X5.1591Y-4.3164
X5.1595Y-4.3971
X5.1603Y-4.3573
X5.2197Y-4.3152
X5.2201Y-4.3573
X5.2209Y-4.3943
X5.2843Y-4.6172
X5.3142Y-4.1467
X5.3425Y-2.0185
X5.3445Y-2.0787
X5.3744Y-2.2067
X5.3768Y-2.1378
X5.4413Y-1.8732
X5.4413Y-2.2358
X5.4417Y-1.9323
X5.4421Y-1.9921
X5.4425Y-2.0492
X5.4425Y-2.1083
X5.4429Y-2.1673
X5.4575Y-2.4291
X5.4878Y-2.1559
X5.4906Y-2.2161
X5.5142Y-4.3459
X5.5146Y-4.4046
X5.5146Y-4.4624
X5.6437Y-4.1526
X5.6862Y-1.9071
X5.7441Y-4.6664
X5.7866Y-2.4209
X5.9157Y-2.111
X5.9157Y-2.1689
X5.9161Y-2.2276
X5.9398Y-4.3573
X5.9426Y-4.4176
X5.9729Y-4.1443
X5.9874Y-4.4061
X5.9878Y-4.4652
X5.9878Y-4.5243
X5.9882Y-4.5813
X5.9886Y-4.6412
X5.989Y-4.3376
X5.989Y-4.7002
X6.0536Y-4.4357
X6.056Y-4.3668
X6.0859Y-4.4947
X6.0878Y-4.555
X6.1161Y-2.4268
X6.1461Y-1.9563
X6.2094Y-2.1791
X6.2102Y-2.2161
X6.2106Y-2.2583
X6.2701Y-2.2161
X6.2709Y-2.1764
X6.2713Y-2.2571
X6.2961Y-4.6707
X6.3028Y-4.1538
X6.315Y-4.6117
X6.4457Y-2.4209
X6.6157Y-1.9063
X6.6225Y-4.6707
X6.6323Y-4.1463
X6.7752Y-2.4272
X7.1055Y-2.4197
T2
X4.1241Y-4.1132
X4.1445Y-2.363
X4.335Y-2.4591
X4.4595Y-4.1258
X4.4697Y-2.3622
X4.5772Y-4.5231
X4.656Y-4.5837
X4.6646Y-2.4571
X4.7756Y-1.9657
X4.7886Y-4.1156
X4.9933Y-2.4591
X5.1178Y-4.1132
X5.324Y-2.4587
X5.4477Y-4.1132
X5.4717Y-4.5219
X5.4721Y-4.5829
X5.6524Y-2.4602
X5.778Y-4.1132
X5.9583Y-1.9906
X5.9587Y-2.0516
X5.9827Y-2.4602
X6.1063Y-4.1148
X6.3126Y-2.4602
X6.4371Y-4.1144
X6.6417Y-2.4579
X6.6548Y-4.6077
X6.7658Y-4.1164
X6.7744Y-1.9898
X6.8531Y-2.0504
X6.9607Y-4.2113
X6.9709Y-2.4476
X7.0953Y-4.1144
X7.2859Y-4.2105
X7.3063Y-2.4602
T3
X4.1827Y-4.0057
X4.1831Y-3.6908
X4.1843Y-2.8827
X4.1846Y-2.5677
X4.2615Y-4.0057
X4.2619Y-3.6908
X4.263Y-2.8827
X4.2634Y-2.5677
X4.3402Y-4.0057
X4.3406Y-3.6908
X4.3417Y-2.8827
X4.3421Y-2.5677
X4.4189Y-4.0057
X4.4193Y-3.6908
X4.4205Y-2.8827
X4.4209Y-2.5677
X4.4977Y-4.0057
X4.4981Y-3.6908
X4.4992Y-2.8827
X4.4996Y-2.5677
X4.5764Y-4.0057
X4.5768Y-3.6908
X4.578Y-2.8827
X4.5783Y-2.5677
X4.85Y-4.0057
X4.8504Y-3.6908
X4.8516Y-2.8827
X4.852Y-2.5677
X4.9288Y-4.0057
X4.9292Y-3.6908
X4.9303Y-2.8827
X4.9307Y-2.5677
X5.0075Y-4.0057
X5.0079Y-3.6908
X5.0091Y-2.8827
X5.0094Y-2.5677
X5.0863Y-4.0057
X5.0867Y-3.6908
X5.0878Y-2.8827
X5.0882Y-2.5677
X5.165Y-4.0057
X5.1654Y-3.6908
X5.1665Y-2.8827
X5.1669Y-2.5677
X5.2437Y-4.0057
X5.2441Y-3.6908
X5.2453Y-2.8827
X5.2457Y-2.5677
X5.5174Y-4.0057
X5.5178Y-3.6908
X5.5189Y-2.8827
X5.5193Y-2.5677
X5.5961Y-4.0057
X5.5965Y-3.6908
X5.5976Y-2.8827
X5.598Y-2.5677
X5.6749Y-4.0057
X5.6752Y-3.6908
X5.6764Y-2.8827
X5.6768Y-2.5677
X5.7536Y-4.0057
X5.754Y-3.6908
X5.7551Y-2.8827
X5.7555Y-2.5677
X5.8323Y-4.0057
X5.8327Y-3.6908
X5.8339Y-2.8827
X5.8343Y-2.5677
X5.9111Y-4.0057
X5.9115Y-3.6908
X5.9126Y-2.8827
X5.913Y-2.5677
X6.1847Y-4.0057
X6.1851Y-3.6908
X6.1862Y-2.8827
X6.1866Y-2.5677
X6.2634Y-4.0057
X6.2638Y-3.6908
X6.265Y-2.8827
X6.2654Y-2.5677
X6.3422Y-4.0057
X6.3426Y-3.6908
X6.3437Y-2.8827
X6.3441Y-2.5677
X6.4209Y-4.0057
X6.4213Y-3.6908
X6.4224Y-2.8827
X6.4228Y-2.5677
X6.4997Y-4.0057
X6.5Y-3.6908
X6.5012Y-2.8827
X6.5016Y-2.5677
X6.5784Y-4.0057
X6.5788Y-3.6908
X6.5799Y-2.8827
X6.5803Y-2.5677
X6.852Y-4.0057
X6.8524Y-3.6908
X6.8535Y-2.8827
X6.8539Y-2.5677
X6.9308Y-4.0057
X6.9311Y-3.6908
X6.9323Y-2.8827
X6.9327Y-2.5677
X7.0095Y-4.0057
X7.0099Y-3.6908
X7.011Y-2.8827
X7.0114Y-2.5677
X7.0882Y-4.0057
X7.0886Y-3.6908
X7.0898Y-2.8827
X7.0902Y-2.5677
X7.167Y-4.0057
X7.1674Y-3.6908
X7.1685Y-2.8827
X7.1689Y-2.5677
X7.2457Y-4.0057
X7.2461Y-3.6908
X7.2472Y-2.8827
X7.2476Y-2.5677
T4
X4.065Y-3.1659
X4.0652Y-3.4105
X7.3652Y-3.163
X7.3654Y-3.4075
T5
X4.0662Y-4.6221
X4.0679Y-1.9524
X7.3624Y-4.6211
X7.3642Y-1.9514
T0
M30
