%TF.GenerationSoftware,KiCad,Pcbnew,(6.0.0-rc1-392-g84e0feeee6)*%
%TF.CreationDate,2022-07-25T10:34:59+07:00*%
%TF.ProjectId,Ambino Fan HUB CH552G_Panellize,416d6269-6e6f-4204-9661-6e2048554220,rev?*%
%TF.SameCoordinates,Original*%
%TF.FileFunction,Paste,Top*%
%TF.FilePolarity,Positive*%
%FSLAX46Y46*%
G04 Gerber Fmt 4.6, Leading zero omitted, Abs format (unit mm)*
G04 Created by KiCad (PCBNEW (6.0.0-rc1-392-g84e0feeee6)) date 2022-07-25 10:34:59*
%MOMM*%
%LPD*%
G01*
G04 APERTURE LIST*
G04 Aperture macros list*
%AMRoundRect*
0 Rectangle with rounded corners*
0 $1 Rounding radius*
0 $2 $3 $4 $5 $6 $7 $8 $9 X,Y pos of 4 corners*
0 Add a 4 corners polygon primitive as box body*
4,1,4,$2,$3,$4,$5,$6,$7,$8,$9,$2,$3,0*
0 Add four circle primitives for the rounded corners*
1,1,$1+$1,$2,$3*
1,1,$1+$1,$4,$5*
1,1,$1+$1,$6,$7*
1,1,$1+$1,$8,$9*
0 Add four rect primitives between the rounded corners*
20,1,$1+$1,$2,$3,$4,$5,0*
20,1,$1+$1,$4,$5,$6,$7,0*
20,1,$1+$1,$6,$7,$8,$9,0*
20,1,$1+$1,$8,$9,$2,$3,0*%
%AMFreePoly0*
4,1,53,1.134006,1.032936,1.153104,0.974157,1.153104,0.147677,1.134006,0.088898,1.084006,0.052571,1.074991,0.052571,1.068409,0.048399,1.059129,0.048988,0.869394,-0.013469,0.681766,-0.104658,0.508048,-0.220165,0.351373,-0.357907,0.214567,-0.515398,0.100095,-0.689800,0.010023,-0.877967,-0.051304,-1.068070,-0.050660,-1.077346,-0.052571,-1.080401,-0.052571,-1.084006,-0.068802,-1.106346,
-0.083438,-1.129742,-0.086779,-1.131090,-0.088898,-1.134006,-0.115154,-1.142537,-0.140753,-1.152864,-0.144249,-1.151990,-0.147677,-1.153104,-0.974157,-1.153104,-0.996709,-1.145777,-1.020112,-1.141920,-1.025561,-1.136402,-1.032936,-1.134006,-1.046875,-1.114820,-1.063540,-1.097946,-1.064705,-1.090279,-1.069263,-1.084006,-1.069263,-1.060289,-1.072826,-1.036844,-1.010353,-0.756703,-0.916914,-0.485316,
-0.793682,-0.226095,-0.642207,0.017702,-0.464393,0.243011,-0.262475,0.446998,-0.038991,0.627101,0.203248,0.781054,0.461200,0.906922,0.731619,1.003125,1.011109,1.068451,1.019458,1.067269,1.022202,1.069263,1.084006,1.069263,1.134006,1.032936,1.134006,1.032936,$1*%
%AMFreePoly1*
4,1,53,0.996709,1.145777,1.020112,1.141920,1.025561,1.136402,1.032936,1.134006,1.046875,1.114820,1.063540,1.097946,1.064705,1.090279,1.069263,1.084006,1.069263,1.060289,1.072826,1.036844,1.010353,0.756703,0.916914,0.485316,0.793682,0.226095,0.642207,-0.017702,0.464393,-0.243011,0.262475,-0.446998,0.038991,-0.627101,-0.203248,-0.781054,-0.461200,-0.906922,-0.731619,-1.003125,
-1.011109,-1.068451,-1.019458,-1.067269,-1.022202,-1.069263,-1.084006,-1.069263,-1.134006,-1.032936,-1.153104,-0.974157,-1.153104,-0.147677,-1.134006,-0.088898,-1.084006,-0.052571,-1.074991,-0.052571,-1.068409,-0.048399,-1.059129,-0.048988,-0.869394,0.013469,-0.681766,0.104658,-0.508048,0.220165,-0.351373,0.357907,-0.214567,0.515398,-0.100095,0.689800,-0.010023,0.877967,0.051304,1.068070,
0.050660,1.077346,0.052571,1.080401,0.052571,1.084006,0.068802,1.106346,0.083438,1.129742,0.086779,1.131090,0.088898,1.134006,0.115154,1.142537,0.140753,1.152864,0.144249,1.151990,0.147677,1.153104,0.974157,1.153104,0.996709,1.145777,0.996709,1.145777,$1*%
%AMFreePoly2*
4,1,53,-0.088898,1.134006,-0.052571,1.084006,-0.052571,1.074991,-0.048399,1.068409,-0.048988,1.059129,0.013469,0.869394,0.104658,0.681766,0.220165,0.508048,0.357907,0.351373,0.515398,0.214567,0.689800,0.100095,0.877967,0.010023,1.068070,-0.051304,1.077346,-0.050660,1.080401,-0.052571,1.084006,-0.052571,1.106346,-0.068802,1.129742,-0.083438,1.131090,-0.086779,1.134006,-0.088898,
1.142537,-0.115154,1.152864,-0.140753,1.151990,-0.144249,1.153104,-0.147677,1.153104,-0.974157,1.145777,-0.996709,1.141920,-1.020112,1.136402,-1.025561,1.134006,-1.032936,1.114820,-1.046875,1.097946,-1.063540,1.090279,-1.064705,1.084006,-1.069263,1.060289,-1.069263,1.036844,-1.072826,0.756703,-1.010353,0.485316,-0.916914,0.226095,-0.793682,-0.017702,-0.642207,-0.243011,-0.464393,
-0.446998,-0.262475,-0.627101,-0.038991,-0.781054,0.203248,-0.906922,0.461200,-1.003125,0.731619,-1.068451,1.011109,-1.067269,1.019458,-1.069263,1.022202,-1.069263,1.084006,-1.032936,1.134006,-0.974157,1.153104,-0.147677,1.153104,-0.088898,1.134006,-0.088898,1.134006,$1*%
%AMFreePoly3*
4,1,53,-0.756703,1.010353,-0.485316,0.916914,-0.226095,0.793682,0.017702,0.642207,0.243011,0.464393,0.446998,0.262475,0.627101,0.038991,0.781054,-0.203248,0.906922,-0.461200,1.003125,-0.731619,1.068451,-1.011109,1.067269,-1.019458,1.069263,-1.022202,1.069263,-1.084006,1.032936,-1.134006,0.974157,-1.153104,0.147677,-1.153104,0.088898,-1.134006,0.052571,-1.084006,0.052571,-1.074991,
0.048399,-1.068409,0.048988,-1.059129,-0.013469,-0.869394,-0.104658,-0.681766,-0.220165,-0.508048,-0.357907,-0.351373,-0.515398,-0.214567,-0.689800,-0.100095,-0.877967,-0.010023,-1.068070,0.051304,-1.077346,0.050660,-1.080401,0.052571,-1.084006,0.052571,-1.106346,0.068802,-1.129742,0.083438,-1.131090,0.086779,-1.134006,0.088898,-1.142537,0.115154,-1.152864,0.140753,-1.151990,0.144249,
-1.153104,0.147677,-1.153104,0.974157,-1.145777,0.996709,-1.141920,1.020112,-1.136402,1.025561,-1.134006,1.032936,-1.114820,1.046875,-1.097946,1.063540,-1.090279,1.064705,-1.084006,1.069263,-1.060289,1.069263,-1.036844,1.072826,-0.756703,1.010353,-0.756703,1.010353,$1*%
G04 Aperture macros list end*
%ADD10RoundRect,0.200000X-0.275000X0.200000X-0.275000X-0.200000X0.275000X-0.200000X0.275000X0.200000X0*%
%ADD11RoundRect,0.200000X-0.200000X-0.275000X0.200000X-0.275000X0.200000X0.275000X-0.200000X0.275000X0*%
%ADD12RoundRect,0.150000X-0.150000X0.587500X-0.150000X-0.587500X0.150000X-0.587500X0.150000X0.587500X0*%
%ADD13RoundRect,0.200000X0.275000X-0.200000X0.275000X0.200000X-0.275000X0.200000X-0.275000X-0.200000X0*%
%ADD14RoundRect,0.200000X0.200000X0.275000X-0.200000X0.275000X-0.200000X-0.275000X0.200000X-0.275000X0*%
%ADD15RoundRect,0.150000X0.850000X0.150000X-0.850000X0.150000X-0.850000X-0.150000X0.850000X-0.150000X0*%
%ADD16R,1.060000X0.650000*%
%ADD17C,2.000000*%
%ADD18RoundRect,0.225000X0.225000X0.250000X-0.225000X0.250000X-0.225000X-0.250000X0.225000X-0.250000X0*%
%ADD19O,3.800000X2.000000*%
%ADD20RoundRect,0.218750X-0.256250X0.218750X-0.256250X-0.218750X0.256250X-0.218750X0.256250X0.218750X0*%
%ADD21RoundRect,0.218750X0.218750X0.256250X-0.218750X0.256250X-0.218750X-0.256250X0.218750X-0.256250X0*%
%ADD22RoundRect,0.218750X-0.218750X-0.256250X0.218750X-0.256250X0.218750X0.256250X-0.218750X0.256250X0*%
%ADD23RoundRect,0.150000X-0.675000X-0.150000X0.675000X-0.150000X0.675000X0.150000X-0.675000X0.150000X0*%
%ADD24RoundRect,0.250000X-0.375000X-0.625000X0.375000X-0.625000X0.375000X0.625000X-0.375000X0.625000X0*%
%ADD25FreePoly0,180.000000*%
%ADD26FreePoly1,180.000000*%
%ADD27FreePoly2,180.000000*%
%ADD28FreePoly3,180.000000*%
%ADD29RoundRect,0.250000X-0.250000X-1.500000X0.250000X-1.500000X0.250000X1.500000X-0.250000X1.500000X0*%
%ADD30RoundRect,0.250001X-0.499999X-1.449999X0.499999X-1.449999X0.499999X1.449999X-0.499999X1.449999X0*%
%ADD31FreePoly1,0.000000*%
%ADD32FreePoly0,0.000000*%
%ADD33FreePoly3,0.000000*%
%ADD34FreePoly2,0.000000*%
%ADD35RoundRect,0.250000X0.375000X0.625000X-0.375000X0.625000X-0.375000X-0.625000X0.375000X-0.625000X0*%
%ADD36RoundRect,0.225000X-0.225000X-0.250000X0.225000X-0.250000X0.225000X0.250000X-0.225000X0.250000X0*%
%ADD37RoundRect,0.150000X0.675000X0.150000X-0.675000X0.150000X-0.675000X-0.150000X0.675000X-0.150000X0*%
%ADD38RoundRect,0.250000X0.250000X1.500000X-0.250000X1.500000X-0.250000X-1.500000X0.250000X-1.500000X0*%
%ADD39RoundRect,0.250001X0.499999X1.449999X-0.499999X1.449999X-0.499999X-1.449999X0.499999X-1.449999X0*%
%ADD40RoundRect,0.218750X0.256250X-0.218750X0.256250X0.218750X-0.256250X0.218750X-0.256250X-0.218750X0*%
%ADD41RoundRect,0.150000X0.150000X-0.587500X0.150000X0.587500X-0.150000X0.587500X-0.150000X-0.587500X0*%
%ADD42RoundRect,0.150000X-0.850000X-0.150000X0.850000X-0.150000X0.850000X0.150000X-0.850000X0.150000X0*%
G04 APERTURE END LIST*
D10*
%TO.C,R12*%
X121651200Y-105341017D03*
X121651200Y-106991017D03*
%TD*%
D11*
%TO.C,R40*%
X154036193Y-110446017D03*
X155686193Y-110446017D03*
%TD*%
D12*
%TO.C,Q9*%
X150196197Y-105638517D03*
X148296197Y-105638517D03*
X149246197Y-107513517D03*
%TD*%
D13*
%TO.C,R5*%
X176841194Y-106981017D03*
X176841194Y-105331017D03*
%TD*%
D12*
%TO.C,Q3*%
X175301194Y-105638517D03*
X173401194Y-105638517D03*
X174351194Y-107513517D03*
%TD*%
D10*
%TO.C,R26*%
X169451193Y-117991017D03*
X169451193Y-119641017D03*
%TD*%
%TO.C,R7*%
X171851194Y-105341017D03*
X171851194Y-106991017D03*
%TD*%
%TO.C,R14*%
X118246201Y-105331017D03*
X118246201Y-106981017D03*
%TD*%
D11*
%TO.C,R39*%
X165446193Y-116316017D03*
X167096193Y-116316017D03*
%TD*%
%TO.C,R21*%
X154036193Y-115786017D03*
X155686193Y-115786017D03*
%TD*%
%TO.C,R24*%
X139581193Y-114868518D03*
X141231193Y-114868518D03*
%TD*%
%TO.C,R22*%
X154026193Y-114296017D03*
X155676193Y-114296017D03*
%TD*%
D14*
%TO.C,R25*%
X167076193Y-114810017D03*
X165426193Y-114810017D03*
%TD*%
D10*
%TO.C,R20*%
X104761193Y-105331017D03*
X104761193Y-106981017D03*
%TD*%
D12*
%TO.C,Q1*%
X183661193Y-105638517D03*
X181761193Y-105638517D03*
X182711193Y-107513517D03*
%TD*%
D10*
%TO.C,R16*%
X113266201Y-105311017D03*
X113266201Y-106961017D03*
%TD*%
%TO.C,R8*%
X130001199Y-105326017D03*
X130001199Y-106976017D03*
%TD*%
%TO.C,R3*%
X180201193Y-105301017D03*
X180201193Y-106951017D03*
%TD*%
%TO.C,R17*%
X151716197Y-105321017D03*
X151716197Y-106971017D03*
%TD*%
D11*
%TO.C,R23*%
X139581193Y-116364351D03*
X141231193Y-116364351D03*
%TD*%
D10*
%TO.C,R11*%
X163496195Y-105318517D03*
X163496195Y-106968517D03*
%TD*%
%TO.C,R19*%
X146756197Y-105311017D03*
X146756197Y-106961017D03*
%TD*%
D13*
%TO.C,R1*%
X185231193Y-106971017D03*
X185231193Y-105321017D03*
%TD*%
D11*
%TO.C,R41*%
X154046193Y-111976017D03*
X155696193Y-111976017D03*
%TD*%
D12*
%TO.C,Q5*%
X166936195Y-105638517D03*
X165036195Y-105638517D03*
X165986195Y-107513517D03*
%TD*%
D10*
%TO.C,R10*%
X126601200Y-105341017D03*
X126601200Y-106991017D03*
%TD*%
%TO.C,R13*%
X160091196Y-105321017D03*
X160091196Y-106971017D03*
%TD*%
%TO.C,R4*%
X138381198Y-105321017D03*
X138381198Y-106971017D03*
%TD*%
D15*
%TO.C,U3*%
X148661193Y-119351017D03*
X148661193Y-118081017D03*
X148661193Y-116811017D03*
X148661193Y-115541017D03*
X148661193Y-114271017D03*
X148661193Y-113001017D03*
X148661193Y-111731017D03*
X148661193Y-110461017D03*
X143661193Y-110461017D03*
X143661193Y-111731017D03*
X143661193Y-113001017D03*
X143661193Y-114271017D03*
X143661193Y-115541017D03*
X143661193Y-116811017D03*
X143661193Y-118081017D03*
X143661193Y-119351017D03*
%TD*%
D12*
%TO.C,Q7*%
X158551196Y-105638517D03*
X156651196Y-105638517D03*
X157601196Y-107513517D03*
%TD*%
D16*
%TO.C,U1*%
X165611193Y-117696017D03*
X165611193Y-118646017D03*
X165611193Y-119596017D03*
X167811193Y-119596017D03*
X167811193Y-117696017D03*
%TD*%
D10*
%TO.C,R6*%
X134991199Y-105311017D03*
X134991199Y-106961017D03*
%TD*%
D17*
%TO.C,PWM_Out*%
X172411193Y-117976017D03*
%TD*%
D12*
%TO.C,Q6*%
X125071200Y-105638517D03*
X123171200Y-105638517D03*
X124121200Y-107513517D03*
%TD*%
%TO.C,Q8*%
X116696201Y-105638517D03*
X114796201Y-105638517D03*
X115746201Y-107513517D03*
%TD*%
D18*
%TO.C,C2*%
X155646193Y-119356017D03*
X154096193Y-119356017D03*
%TD*%
D10*
%TO.C,R18*%
X109861202Y-105331017D03*
X109861202Y-106981017D03*
%TD*%
D12*
%TO.C,Q10*%
X108241193Y-105648517D03*
X106341193Y-105648517D03*
X107291193Y-107523517D03*
%TD*%
D18*
%TO.C,C4*%
X141181193Y-117860184D03*
X139631193Y-117860184D03*
%TD*%
D15*
%TO.C,U2*%
X163041193Y-119381017D03*
X163041193Y-118111017D03*
X163041193Y-116841017D03*
X163041193Y-115571017D03*
X163041193Y-114301017D03*
X163041193Y-113031017D03*
X163041193Y-111761017D03*
X163041193Y-110491017D03*
X158041193Y-110491017D03*
X158041193Y-111761017D03*
X158041193Y-113031017D03*
X158041193Y-114301017D03*
X158041193Y-115571017D03*
X158041193Y-116841017D03*
X158041193Y-118111017D03*
X158041193Y-119381017D03*
%TD*%
D19*
%TO.C,FAN_GND*%
X181801193Y-112016017D03*
%TD*%
D10*
%TO.C,R15*%
X155121196Y-105311017D03*
X155121196Y-106961017D03*
%TD*%
%TO.C,R2*%
X143351198Y-105361017D03*
X143351198Y-107011017D03*
%TD*%
%TO.C,R9*%
X168456195Y-105318517D03*
X168456195Y-106968517D03*
%TD*%
D14*
%TO.C,R27*%
X167076193Y-111746017D03*
X165426193Y-111746017D03*
%TD*%
D11*
%TO.C,R35*%
X151026193Y-119376017D03*
X152676193Y-119376017D03*
%TD*%
D20*
%TO.C,F8*%
X161801193Y-105338517D03*
X161801193Y-106913517D03*
%TD*%
D11*
%TO.C,R43*%
X136486193Y-110656017D03*
X138136193Y-110656017D03*
%TD*%
D14*
%TO.C,R29*%
X141231193Y-113372685D03*
X139581193Y-113372685D03*
%TD*%
D20*
%TO.C,F6*%
X170111193Y-105338517D03*
X170111193Y-106913517D03*
%TD*%
D11*
%TO.C,R33*%
X151026193Y-110436017D03*
X152676193Y-110436017D03*
%TD*%
D21*
%TO.C,D2*%
X134598693Y-110676017D03*
X133023693Y-110676017D03*
%TD*%
D11*
%TO.C,R31*%
X151026193Y-117886017D03*
X152676193Y-117886017D03*
%TD*%
D22*
%TO.C,D1*%
X118703693Y-110596017D03*
X120278693Y-110596017D03*
%TD*%
D11*
%TO.C,R37*%
X151026193Y-111926017D03*
X152676193Y-111926017D03*
%TD*%
D20*
%TO.C,F2*%
X103241193Y-105378517D03*
X103241193Y-106953517D03*
%TD*%
D12*
%TO.C,Q4*%
X133441199Y-105638517D03*
X131541199Y-105638517D03*
X132491199Y-107513517D03*
%TD*%
D11*
%TO.C,R38*%
X151026193Y-113416017D03*
X152676193Y-113416017D03*
%TD*%
D12*
%TO.C,Q2*%
X141821198Y-105638517D03*
X139921198Y-105638517D03*
X140871198Y-107513517D03*
%TD*%
D11*
%TO.C,R34*%
X151026193Y-114906017D03*
X152676193Y-114906017D03*
%TD*%
D20*
%TO.C,F11*%
X111561193Y-105348517D03*
X111561193Y-106923517D03*
%TD*%
%TO.C,F7*%
X178501193Y-105328517D03*
X178501193Y-106903517D03*
%TD*%
D14*
%TO.C,R32*%
X141231193Y-111876852D03*
X139581193Y-111876852D03*
%TD*%
%TO.C,R36*%
X141231193Y-110381019D03*
X139581193Y-110381019D03*
%TD*%
%TO.C,R42*%
X115891193Y-110596017D03*
X114241193Y-110596017D03*
%TD*%
D11*
%TO.C,R30*%
X151026193Y-116396017D03*
X152676193Y-116396017D03*
%TD*%
D18*
%TO.C,C1*%
X141181193Y-119356017D03*
X139631193Y-119356017D03*
%TD*%
D23*
%TO.C,Q11*%
X168856193Y-113918061D03*
X168856193Y-111378061D03*
X168856193Y-110108061D03*
X168856193Y-112648061D03*
X174106193Y-112648061D03*
X174106193Y-111378061D03*
X174106193Y-110108061D03*
X174106193Y-113918061D03*
%TD*%
D18*
%TO.C,C3*%
X155646193Y-117846017D03*
X154096193Y-117846017D03*
%TD*%
D24*
%TO.C,F1*%
X128231193Y-110716017D03*
X131031193Y-110716017D03*
%TD*%
D25*
%TO.C,H7*%
X188459297Y-118829121D03*
D26*
X185553089Y-115922913D03*
D27*
X188459297Y-115922913D03*
D28*
X185553089Y-118829121D03*
%TD*%
D26*
%TO.C,H6*%
X101828089Y-115947913D03*
D25*
X104734297Y-118854121D03*
D28*
X101828089Y-118854121D03*
D27*
X104734297Y-115947913D03*
%TD*%
D20*
%TO.C,F10*%
X128261193Y-105366017D03*
X128261193Y-106941017D03*
%TD*%
%TO.C,F3*%
X119951193Y-105368517D03*
X119951193Y-106943517D03*
%TD*%
D11*
%TO.C,R28*%
X165426193Y-113278017D03*
X167076193Y-113278017D03*
%TD*%
D20*
%TO.C,F4*%
X136681193Y-105318517D03*
X136681193Y-106893517D03*
%TD*%
%TO.C,F5*%
X153411193Y-105318517D03*
X153411193Y-106893517D03*
%TD*%
D29*
%TO.C,J1*%
X114261193Y-114486017D03*
X116261193Y-114486017D03*
X118261193Y-114486017D03*
X120261193Y-114486017D03*
X122261193Y-114486017D03*
X124261193Y-114486017D03*
X126261193Y-114486017D03*
X128261193Y-114486017D03*
X130261193Y-114486017D03*
X132261193Y-114486017D03*
X134261193Y-114486017D03*
D30*
X136611193Y-120236017D03*
X111911193Y-120236017D03*
%TD*%
D20*
%TO.C,F9*%
X145021193Y-105366017D03*
X145021193Y-106941017D03*
%TD*%
D31*
%TO.C,H6*%
X188503104Y-51018104D03*
D32*
X185596896Y-48111896D03*
D33*
X188503104Y-48111896D03*
D34*
X185596896Y-51018104D03*
%TD*%
D32*
%TO.C,H7*%
X101871896Y-48136896D03*
D31*
X104778104Y-51043104D03*
D34*
X101871896Y-51043104D03*
D33*
X104778104Y-48136896D03*
%TD*%
D35*
%TO.C,F1*%
X162100000Y-56250000D03*
X159300000Y-56250000D03*
%TD*%
D36*
%TO.C,C3*%
X134685000Y-49120000D03*
X136235000Y-49120000D03*
%TD*%
D37*
%TO.C,Q11*%
X121475000Y-53047956D03*
X121475000Y-55587956D03*
X121475000Y-56857956D03*
X121475000Y-54317956D03*
X116225000Y-54317956D03*
X116225000Y-55587956D03*
X116225000Y-56857956D03*
X116225000Y-53047956D03*
%TD*%
D14*
%TO.C,R28*%
X124905000Y-53688000D03*
X123255000Y-53688000D03*
%TD*%
D38*
%TO.C,J1*%
X176070000Y-52480000D03*
X174070000Y-52480000D03*
X172070000Y-52480000D03*
X170070000Y-52480000D03*
X168070000Y-52480000D03*
X166070000Y-52480000D03*
X164070000Y-52480000D03*
X162070000Y-52480000D03*
X160070000Y-52480000D03*
X158070000Y-52480000D03*
X156070000Y-52480000D03*
D39*
X153720000Y-46730000D03*
X178420000Y-46730000D03*
%TD*%
D40*
%TO.C,F4*%
X153650000Y-61647500D03*
X153650000Y-60072500D03*
%TD*%
%TO.C,F10*%
X162070000Y-61600000D03*
X162070000Y-60025000D03*
%TD*%
%TO.C,F3*%
X170380000Y-61597500D03*
X170380000Y-60022500D03*
%TD*%
%TO.C,F9*%
X145310000Y-61600000D03*
X145310000Y-60025000D03*
%TD*%
%TO.C,F5*%
X136920000Y-61647500D03*
X136920000Y-60072500D03*
%TD*%
%TO.C,F7*%
X111830000Y-61637500D03*
X111830000Y-60062500D03*
%TD*%
%TO.C,F8*%
X128530000Y-61627500D03*
X128530000Y-60052500D03*
%TD*%
%TO.C,F11*%
X178770000Y-61617500D03*
X178770000Y-60042500D03*
%TD*%
%TO.C,F2*%
X187090000Y-61587500D03*
X187090000Y-60012500D03*
%TD*%
%TO.C,F6*%
X120220000Y-61627500D03*
X120220000Y-60052500D03*
%TD*%
D14*
%TO.C,R31*%
X139305000Y-49080000D03*
X137655000Y-49080000D03*
%TD*%
D11*
%TO.C,R29*%
X149100000Y-53593332D03*
X150750000Y-53593332D03*
%TD*%
D14*
%TO.C,R33*%
X139305000Y-56530000D03*
X137655000Y-56530000D03*
%TD*%
%TO.C,R35*%
X139305000Y-47590000D03*
X137655000Y-47590000D03*
%TD*%
%TO.C,R37*%
X139305000Y-55040000D03*
X137655000Y-55040000D03*
%TD*%
D21*
%TO.C,D1*%
X171627500Y-56370000D03*
X170052500Y-56370000D03*
%TD*%
D22*
%TO.C,D2*%
X155732500Y-56290000D03*
X157307500Y-56290000D03*
%TD*%
D14*
%TO.C,R43*%
X153845000Y-56310000D03*
X152195000Y-56310000D03*
%TD*%
D36*
%TO.C,C1*%
X149150000Y-47610000D03*
X150700000Y-47610000D03*
%TD*%
D11*
%TO.C,R42*%
X174440000Y-56370000D03*
X176090000Y-56370000D03*
%TD*%
D14*
%TO.C,R30*%
X139305000Y-50570000D03*
X137655000Y-50570000D03*
%TD*%
D11*
%TO.C,R36*%
X149100000Y-56584998D03*
X150750000Y-56584998D03*
%TD*%
D14*
%TO.C,R38*%
X139305000Y-53550000D03*
X137655000Y-53550000D03*
%TD*%
D11*
%TO.C,R32*%
X149100000Y-55089165D03*
X150750000Y-55089165D03*
%TD*%
D14*
%TO.C,R34*%
X139305000Y-52060000D03*
X137655000Y-52060000D03*
%TD*%
D41*
%TO.C,Q2*%
X148509995Y-61327500D03*
X150409995Y-61327500D03*
X149459995Y-59452500D03*
%TD*%
%TO.C,Q4*%
X156889994Y-61327500D03*
X158789994Y-61327500D03*
X157839994Y-59452500D03*
%TD*%
D11*
%TO.C,R27*%
X123255000Y-55220000D03*
X124905000Y-55220000D03*
%TD*%
D41*
%TO.C,Q5*%
X123394998Y-61327500D03*
X125294998Y-61327500D03*
X124344998Y-59452500D03*
%TD*%
D17*
%TO.C,PWM_Out*%
X117920000Y-48990000D03*
%TD*%
D13*
%TO.C,R6*%
X155339994Y-61655000D03*
X155339994Y-60005000D03*
%TD*%
%TO.C,R2*%
X146979995Y-61605000D03*
X146979995Y-59955000D03*
%TD*%
%TO.C,R13*%
X130239997Y-61645000D03*
X130239997Y-59995000D03*
%TD*%
%TO.C,R10*%
X163729993Y-61625000D03*
X163729993Y-59975000D03*
%TD*%
%TO.C,R9*%
X121874998Y-61647500D03*
X121874998Y-59997500D03*
%TD*%
%TO.C,R15*%
X135209997Y-61655000D03*
X135209997Y-60005000D03*
%TD*%
D14*
%TO.C,R41*%
X136285000Y-54990000D03*
X134635000Y-54990000D03*
%TD*%
D41*
%TO.C,Q10*%
X182090000Y-61317500D03*
X183990000Y-61317500D03*
X183040000Y-59442500D03*
%TD*%
D42*
%TO.C,U3*%
X141670000Y-47615000D03*
X141670000Y-48885000D03*
X141670000Y-50155000D03*
X141670000Y-51425000D03*
X141670000Y-52695000D03*
X141670000Y-53965000D03*
X141670000Y-55235000D03*
X141670000Y-56505000D03*
X146670000Y-56505000D03*
X146670000Y-55235000D03*
X146670000Y-53965000D03*
X146670000Y-52695000D03*
X146670000Y-51425000D03*
X146670000Y-50155000D03*
X146670000Y-48885000D03*
X146670000Y-47615000D03*
%TD*%
%TO.C,U2*%
X127290000Y-47585000D03*
X127290000Y-48855000D03*
X127290000Y-50125000D03*
X127290000Y-51395000D03*
X127290000Y-52665000D03*
X127290000Y-53935000D03*
X127290000Y-55205000D03*
X127290000Y-56475000D03*
X132290000Y-56475000D03*
X132290000Y-55205000D03*
X132290000Y-53935000D03*
X132290000Y-52665000D03*
X132290000Y-51395000D03*
X132290000Y-50125000D03*
X132290000Y-48855000D03*
X132290000Y-47585000D03*
%TD*%
D16*
%TO.C,U1*%
X124720000Y-49270000D03*
X124720000Y-48320000D03*
X124720000Y-47370000D03*
X122520000Y-47370000D03*
X122520000Y-49270000D03*
%TD*%
D41*
%TO.C,Q8*%
X173634992Y-61327500D03*
X175534992Y-61327500D03*
X174584992Y-59452500D03*
%TD*%
D19*
%TO.C,FAN_GND*%
X108530000Y-54950000D03*
%TD*%
D36*
%TO.C,C4*%
X149150000Y-49105833D03*
X150700000Y-49105833D03*
%TD*%
D13*
%TO.C,R18*%
X180469991Y-61635000D03*
X180469991Y-59985000D03*
%TD*%
D36*
%TO.C,C2*%
X134685000Y-47610000D03*
X136235000Y-47610000D03*
%TD*%
D41*
%TO.C,Q6*%
X165259993Y-61327500D03*
X167159993Y-61327500D03*
X166209993Y-59452500D03*
%TD*%
D13*
%TO.C,R4*%
X151949995Y-61645000D03*
X151949995Y-59995000D03*
%TD*%
D41*
%TO.C,Q7*%
X131779997Y-61327500D03*
X133679997Y-61327500D03*
X132729997Y-59452500D03*
%TD*%
D13*
%TO.C,R14*%
X172084992Y-61635000D03*
X172084992Y-59985000D03*
%TD*%
%TO.C,R16*%
X177064992Y-61655000D03*
X177064992Y-60005000D03*
%TD*%
%TO.C,R20*%
X185570000Y-61635000D03*
X185570000Y-59985000D03*
%TD*%
D14*
%TO.C,R24*%
X150750000Y-52097499D03*
X149100000Y-52097499D03*
%TD*%
D41*
%TO.C,Q3*%
X115029999Y-61327500D03*
X116929999Y-61327500D03*
X115979999Y-59452500D03*
%TD*%
%TO.C,Q9*%
X140134996Y-61327500D03*
X142034996Y-61327500D03*
X141084996Y-59452500D03*
%TD*%
D13*
%TO.C,R19*%
X143574996Y-61655000D03*
X143574996Y-60005000D03*
%TD*%
D14*
%TO.C,R40*%
X136295000Y-56520000D03*
X134645000Y-56520000D03*
%TD*%
%TO.C,R21*%
X136295000Y-51180000D03*
X134645000Y-51180000D03*
%TD*%
D11*
%TO.C,R25*%
X123255000Y-52156000D03*
X124905000Y-52156000D03*
%TD*%
D14*
%TO.C,R39*%
X124885000Y-50650000D03*
X123235000Y-50650000D03*
%TD*%
D13*
%TO.C,R11*%
X126834998Y-61647500D03*
X126834998Y-59997500D03*
%TD*%
D10*
%TO.C,R5*%
X113489999Y-59985000D03*
X113489999Y-61635000D03*
%TD*%
D13*
%TO.C,R7*%
X118479999Y-61625000D03*
X118479999Y-59975000D03*
%TD*%
D14*
%TO.C,R22*%
X136305000Y-52670000D03*
X134655000Y-52670000D03*
%TD*%
D41*
%TO.C,Q1*%
X106670000Y-61327500D03*
X108570000Y-61327500D03*
X107620000Y-59452500D03*
%TD*%
D10*
%TO.C,R1*%
X105100000Y-59995000D03*
X105100000Y-61645000D03*
%TD*%
D13*
%TO.C,R26*%
X120880000Y-48975000D03*
X120880000Y-47325000D03*
%TD*%
D14*
%TO.C,R23*%
X150750000Y-50601666D03*
X149100000Y-50601666D03*
%TD*%
D13*
%TO.C,R17*%
X138614996Y-61645000D03*
X138614996Y-59995000D03*
%TD*%
%TO.C,R3*%
X110130000Y-61665000D03*
X110130000Y-60015000D03*
%TD*%
%TO.C,R8*%
X160329994Y-61640000D03*
X160329994Y-59990000D03*
%TD*%
%TO.C,R12*%
X168679993Y-61625000D03*
X168679993Y-59975000D03*
%TD*%
M02*
