%TF.GenerationSoftware,KiCad,Pcbnew,(6.0.0-rc1-392-g84e0feeee6)*%
%TF.CreationDate,2022-07-25T10:34:59+07:00*%
%TF.ProjectId,Ambino Fan HUB CH552G_Panellize,416d6269-6e6f-4204-9661-6e2048554220,rev?*%
%TF.SameCoordinates,Original*%
%TF.FileFunction,Legend,Top*%
%TF.FilePolarity,Positive*%
%FSLAX46Y46*%
G04 Gerber Fmt 4.6, Leading zero omitted, Abs format (unit mm)*
G04 Created by KiCad (PCBNEW (6.0.0-rc1-392-g84e0feeee6)) date 2022-07-25 10:34:59*
%MOMM*%
%LPD*%
G01*
G04 APERTURE LIST*
%ADD10C,0.120000*%
%ADD11C,0.300000*%
G04 APERTURE END LIST*
D10*
X121596762Y-110556017D02*
G75*
G03*
X121596762Y-110556017I-2085569J0D01*
G01*
X135921975Y-110666017D02*
G75*
G03*
X135921975Y-110666017I-2110782J0D01*
G01*
D11*
X123567193Y-84928017D02*
X122852907Y-84928017D01*
X123710050Y-84499445D02*
X123210050Y-85999445D01*
X122710050Y-84499445D01*
X121710050Y-85285159D02*
X121495764Y-85213731D01*
X121424335Y-85142302D01*
X121352907Y-84999445D01*
X121352907Y-84785159D01*
X121424335Y-84642302D01*
X121495764Y-84570874D01*
X121638621Y-84499445D01*
X122210050Y-84499445D01*
X122210050Y-85999445D01*
X121710050Y-85999445D01*
X121567193Y-85928017D01*
X121495764Y-85856588D01*
X121424335Y-85713731D01*
X121424335Y-85570874D01*
X121495764Y-85428017D01*
X121567193Y-85356588D01*
X121710050Y-85285159D01*
X122210050Y-85285159D01*
X120210050Y-85285159D02*
X120710050Y-85285159D01*
X120710050Y-84499445D02*
X120710050Y-85999445D01*
X119995764Y-85999445D01*
X119495764Y-84928017D02*
X118781478Y-84928017D01*
X119638621Y-84499445D02*
X119138621Y-85999445D01*
X118638621Y-84499445D01*
X118138621Y-84499445D02*
X118138621Y-85999445D01*
X117281478Y-84499445D01*
X117281478Y-85999445D01*
X116567193Y-84499445D02*
X116567193Y-85999445D01*
X116567193Y-85285159D02*
X115710050Y-85285159D01*
X115710050Y-84499445D02*
X115710050Y-85999445D01*
X114995764Y-85999445D02*
X114995764Y-84785159D01*
X114924335Y-84642302D01*
X114852907Y-84570874D01*
X114710050Y-84499445D01*
X114424335Y-84499445D01*
X114281478Y-84570874D01*
X114210050Y-84642302D01*
X114138621Y-84785159D01*
X114138621Y-85999445D01*
X112924335Y-85285159D02*
X112710050Y-85213731D01*
X112638621Y-85142302D01*
X112567193Y-84999445D01*
X112567193Y-84785159D01*
X112638621Y-84642302D01*
X112710050Y-84570874D01*
X112852907Y-84499445D01*
X113424335Y-84499445D01*
X113424335Y-85999445D01*
X112924335Y-85999445D01*
X112781478Y-85928017D01*
X112710050Y-85856588D01*
X112638621Y-85713731D01*
X112638621Y-85570874D01*
X112710050Y-85428017D01*
X112781478Y-85356588D01*
X112924335Y-85285159D01*
X113424335Y-85285159D01*
X112281478Y-84356588D02*
X111138621Y-84356588D01*
X109924335Y-84499445D02*
X110424335Y-85213731D01*
X110781478Y-84499445D02*
X110781478Y-85999445D01*
X110210050Y-85999445D01*
X110067193Y-85928017D01*
X109995764Y-85856588D01*
X109924335Y-85713731D01*
X109924335Y-85499445D01*
X109995764Y-85356588D01*
X110067193Y-85285159D01*
X110210050Y-85213731D01*
X110781478Y-85213731D01*
X108710050Y-84570874D02*
X108852907Y-84499445D01*
X109138621Y-84499445D01*
X109281478Y-84570874D01*
X109352907Y-84713731D01*
X109352907Y-85285159D01*
X109281478Y-85428017D01*
X109138621Y-85499445D01*
X108852907Y-85499445D01*
X108710050Y-85428017D01*
X108638621Y-85285159D01*
X108638621Y-85142302D01*
X109352907Y-84999445D01*
X108138621Y-85499445D02*
X107781478Y-84499445D01*
X107424335Y-85499445D01*
X106995764Y-85999445D02*
X106067193Y-85999445D01*
X106567193Y-85428017D01*
X106352907Y-85428017D01*
X106210050Y-85356588D01*
X106138621Y-85285159D01*
X106067193Y-85142302D01*
X106067193Y-84785159D01*
X106138621Y-84642302D01*
X106210050Y-84570874D01*
X106352907Y-84499445D01*
X106781478Y-84499445D01*
X106924335Y-84570874D01*
X106995764Y-84642302D01*
D10*
X158630782Y-56300000D02*
G75*
G03*
X158630782Y-56300000I-2110782J0D01*
G01*
X172905569Y-56410000D02*
G75*
G03*
X172905569Y-56410000I-2085569J0D01*
G01*
D11*
X166764000Y-82038000D02*
X167478285Y-82038000D01*
X166621142Y-82466571D02*
X167121142Y-80966571D01*
X167621142Y-82466571D01*
X168621142Y-81680857D02*
X168835428Y-81752285D01*
X168906857Y-81823714D01*
X168978285Y-81966571D01*
X168978285Y-82180857D01*
X168906857Y-82323714D01*
X168835428Y-82395142D01*
X168692571Y-82466571D01*
X168121142Y-82466571D01*
X168121142Y-80966571D01*
X168621142Y-80966571D01*
X168764000Y-81038000D01*
X168835428Y-81109428D01*
X168906857Y-81252285D01*
X168906857Y-81395142D01*
X168835428Y-81538000D01*
X168764000Y-81609428D01*
X168621142Y-81680857D01*
X168121142Y-81680857D01*
X170121142Y-81680857D02*
X169621142Y-81680857D01*
X169621142Y-82466571D02*
X169621142Y-80966571D01*
X170335428Y-80966571D01*
X170835428Y-82038000D02*
X171549714Y-82038000D01*
X170692571Y-82466571D02*
X171192571Y-80966571D01*
X171692571Y-82466571D01*
X172192571Y-82466571D02*
X172192571Y-80966571D01*
X173049714Y-82466571D01*
X173049714Y-80966571D01*
X173764000Y-82466571D02*
X173764000Y-80966571D01*
X173764000Y-81680857D02*
X174621142Y-81680857D01*
X174621142Y-82466571D02*
X174621142Y-80966571D01*
X175335428Y-80966571D02*
X175335428Y-82180857D01*
X175406857Y-82323714D01*
X175478285Y-82395142D01*
X175621142Y-82466571D01*
X175906857Y-82466571D01*
X176049714Y-82395142D01*
X176121142Y-82323714D01*
X176192571Y-82180857D01*
X176192571Y-80966571D01*
X177406857Y-81680857D02*
X177621142Y-81752285D01*
X177692571Y-81823714D01*
X177764000Y-81966571D01*
X177764000Y-82180857D01*
X177692571Y-82323714D01*
X177621142Y-82395142D01*
X177478285Y-82466571D01*
X176906857Y-82466571D01*
X176906857Y-80966571D01*
X177406857Y-80966571D01*
X177549714Y-81038000D01*
X177621142Y-81109428D01*
X177692571Y-81252285D01*
X177692571Y-81395142D01*
X177621142Y-81538000D01*
X177549714Y-81609428D01*
X177406857Y-81680857D01*
X176906857Y-81680857D01*
X178049714Y-82609428D02*
X179192571Y-82609428D01*
X180406857Y-82466571D02*
X179906857Y-81752285D01*
X179549714Y-82466571D02*
X179549714Y-80966571D01*
X180121142Y-80966571D01*
X180264000Y-81038000D01*
X180335428Y-81109428D01*
X180406857Y-81252285D01*
X180406857Y-81466571D01*
X180335428Y-81609428D01*
X180264000Y-81680857D01*
X180121142Y-81752285D01*
X179549714Y-81752285D01*
X181621142Y-82395142D02*
X181478285Y-82466571D01*
X181192571Y-82466571D01*
X181049714Y-82395142D01*
X180978285Y-82252285D01*
X180978285Y-81680857D01*
X181049714Y-81538000D01*
X181192571Y-81466571D01*
X181478285Y-81466571D01*
X181621142Y-81538000D01*
X181692571Y-81680857D01*
X181692571Y-81823714D01*
X180978285Y-81966571D01*
X182192571Y-81466571D02*
X182549714Y-82466571D01*
X182906857Y-81466571D01*
X183335428Y-80966571D02*
X184264000Y-80966571D01*
X183764000Y-81538000D01*
X183978285Y-81538000D01*
X184121142Y-81609428D01*
X184192571Y-81680857D01*
X184264000Y-81823714D01*
X184264000Y-82180857D01*
X184192571Y-82323714D01*
X184121142Y-82395142D01*
X183978285Y-82466571D01*
X183549714Y-82466571D01*
X183406857Y-82395142D01*
X183335428Y-82323714D01*
D10*
%TO.C,R12*%
X122173700Y-105928759D02*
X122173700Y-106403275D01*
X121128700Y-105928759D02*
X121128700Y-106403275D01*
%TO.C,R40*%
X154623935Y-110968517D02*
X155098451Y-110968517D01*
X154623935Y-109923517D02*
X155098451Y-109923517D01*
%TO.C,Q9*%
X150806197Y-106576017D02*
X150806197Y-107226017D01*
X147686197Y-106576017D02*
X147686197Y-107226017D01*
X147686197Y-106576017D02*
X147686197Y-105926017D01*
X150806197Y-106576017D02*
X150806197Y-104901017D01*
%TO.C,R5*%
X176318694Y-106393275D02*
X176318694Y-105918759D01*
X177363694Y-106393275D02*
X177363694Y-105918759D01*
%TO.C,Q3*%
X172791194Y-106576017D02*
X172791194Y-107226017D01*
X172791194Y-106576017D02*
X172791194Y-105926017D01*
X175911194Y-106576017D02*
X175911194Y-104901017D01*
X175911194Y-106576017D02*
X175911194Y-107226017D01*
%TO.C,R26*%
X169973693Y-118578759D02*
X169973693Y-119053275D01*
X168928693Y-118578759D02*
X168928693Y-119053275D01*
%TO.C,R7*%
X171328694Y-105928759D02*
X171328694Y-106403275D01*
X172373694Y-105928759D02*
X172373694Y-106403275D01*
%TO.C,R14*%
X118768701Y-105918759D02*
X118768701Y-106393275D01*
X117723701Y-105918759D02*
X117723701Y-106393275D01*
%TO.C,R39*%
X166033935Y-115793517D02*
X166508451Y-115793517D01*
X166033935Y-116838517D02*
X166508451Y-116838517D01*
%TO.C,R21*%
X154623935Y-116308517D02*
X155098451Y-116308517D01*
X154623935Y-115263517D02*
X155098451Y-115263517D01*
%TO.C,R24*%
X140168935Y-114346018D02*
X140643451Y-114346018D01*
X140168935Y-115391018D02*
X140643451Y-115391018D01*
%TO.C,R22*%
X154613935Y-114818517D02*
X155088451Y-114818517D01*
X154613935Y-113773517D02*
X155088451Y-113773517D01*
%TO.C,R25*%
X166488451Y-115332517D02*
X166013935Y-115332517D01*
X166488451Y-114287517D02*
X166013935Y-114287517D01*
%TO.C,R20*%
X105283693Y-105918759D02*
X105283693Y-106393275D01*
X104238693Y-105918759D02*
X104238693Y-106393275D01*
%TO.C,Q1*%
X184271193Y-106576017D02*
X184271193Y-107226017D01*
X181151193Y-106576017D02*
X181151193Y-105926017D01*
X181151193Y-106576017D02*
X181151193Y-107226017D01*
X184271193Y-106576017D02*
X184271193Y-104901017D01*
%TO.C,R16*%
X112743701Y-105898759D02*
X112743701Y-106373275D01*
X113788701Y-105898759D02*
X113788701Y-106373275D01*
%TO.C,R8*%
X130523699Y-105913759D02*
X130523699Y-106388275D01*
X129478699Y-105913759D02*
X129478699Y-106388275D01*
%TO.C,R3*%
X179678693Y-105888759D02*
X179678693Y-106363275D01*
X180723693Y-105888759D02*
X180723693Y-106363275D01*
%TO.C,R17*%
X152238697Y-105908759D02*
X152238697Y-106383275D01*
X151193697Y-105908759D02*
X151193697Y-106383275D01*
%TO.C,R23*%
X140168935Y-116886851D02*
X140643451Y-116886851D01*
X140168935Y-115841851D02*
X140643451Y-115841851D01*
%TO.C,R11*%
X164018695Y-105906259D02*
X164018695Y-106380775D01*
X162973695Y-105906259D02*
X162973695Y-106380775D01*
%TO.C,R19*%
X146233697Y-105898759D02*
X146233697Y-106373275D01*
X147278697Y-105898759D02*
X147278697Y-106373275D01*
%TO.C,R1*%
X184708693Y-106383275D02*
X184708693Y-105908759D01*
X185753693Y-106383275D02*
X185753693Y-105908759D01*
%TO.C,R41*%
X154633935Y-112498517D02*
X155108451Y-112498517D01*
X154633935Y-111453517D02*
X155108451Y-111453517D01*
%TO.C,Q5*%
X167546195Y-106576017D02*
X167546195Y-104901017D01*
X164426195Y-106576017D02*
X164426195Y-107226017D01*
X167546195Y-106576017D02*
X167546195Y-107226017D01*
X164426195Y-106576017D02*
X164426195Y-105926017D01*
%TO.C,R10*%
X126078700Y-105928759D02*
X126078700Y-106403275D01*
X127123700Y-105928759D02*
X127123700Y-106403275D01*
%TO.C,R13*%
X159568696Y-105908759D02*
X159568696Y-106383275D01*
X160613696Y-105908759D02*
X160613696Y-106383275D01*
%TO.C,R4*%
X138903698Y-105908759D02*
X138903698Y-106383275D01*
X137858698Y-105908759D02*
X137858698Y-106383275D01*
%TO.C,U3*%
X146161193Y-109846017D02*
X144211193Y-109846017D01*
X146161193Y-109846017D02*
X148111193Y-109846017D01*
X146161193Y-119966017D02*
X149661193Y-119966017D01*
X146161193Y-119966017D02*
X144211193Y-119966017D01*
%TO.C,Q7*%
X159161196Y-106576017D02*
X159161196Y-107226017D01*
X156041196Y-106576017D02*
X156041196Y-105926017D01*
X159161196Y-106576017D02*
X159161196Y-104901017D01*
X156041196Y-106576017D02*
X156041196Y-107226017D01*
%TO.C,U1*%
X164711193Y-117716017D02*
X164351193Y-118046017D01*
X164351193Y-118046017D02*
X164351193Y-117396017D01*
X164351193Y-117396017D02*
X164711193Y-117716017D01*
G36*
X164711193Y-117716017D02*
G01*
X164351193Y-118046017D01*
X164351193Y-117396017D01*
X164711193Y-117716017D01*
G37*
X164711193Y-117716017D02*
X164351193Y-118046017D01*
X164351193Y-117396017D01*
X164711193Y-117716017D01*
%TO.C,R6*%
X134468699Y-105898759D02*
X134468699Y-106373275D01*
X135513699Y-105898759D02*
X135513699Y-106373275D01*
%TO.C,Q6*%
X122561200Y-106576017D02*
X122561200Y-107226017D01*
X125681200Y-106576017D02*
X125681200Y-107226017D01*
X122561200Y-106576017D02*
X122561200Y-105926017D01*
X125681200Y-106576017D02*
X125681200Y-104901017D01*
%TO.C,Q8*%
X114186201Y-106576017D02*
X114186201Y-105926017D01*
X117306201Y-106576017D02*
X117306201Y-107226017D01*
X117306201Y-106576017D02*
X117306201Y-104901017D01*
X114186201Y-106576017D02*
X114186201Y-107226017D01*
%TO.C,C2*%
X155011773Y-118846017D02*
X154730613Y-118846017D01*
X155011773Y-119866017D02*
X154730613Y-119866017D01*
%TO.C,R18*%
X109338702Y-105918759D02*
X109338702Y-106393275D01*
X110383702Y-105918759D02*
X110383702Y-106393275D01*
%TO.C,Q10*%
X108851193Y-106586017D02*
X108851193Y-104911017D01*
X108851193Y-106586017D02*
X108851193Y-107236017D01*
X105731193Y-106586017D02*
X105731193Y-107236017D01*
X105731193Y-106586017D02*
X105731193Y-105936017D01*
%TO.C,C4*%
X140546773Y-118370184D02*
X140265613Y-118370184D01*
X140546773Y-117350184D02*
X140265613Y-117350184D01*
%TO.C,U2*%
X160541193Y-109876017D02*
X162491193Y-109876017D01*
X160541193Y-119996017D02*
X164041193Y-119996017D01*
X160541193Y-109876017D02*
X158591193Y-109876017D01*
X160541193Y-119996017D02*
X158591193Y-119996017D01*
%TO.C,R15*%
X155643696Y-105898759D02*
X155643696Y-106373275D01*
X154598696Y-105898759D02*
X154598696Y-106373275D01*
%TO.C,R2*%
X142828698Y-105948759D02*
X142828698Y-106423275D01*
X143873698Y-105948759D02*
X143873698Y-106423275D01*
%TO.C,R9*%
X167933695Y-105906259D02*
X167933695Y-106380775D01*
X168978695Y-105906259D02*
X168978695Y-106380775D01*
%TO.C,R27*%
X166488451Y-112268517D02*
X166013935Y-112268517D01*
X166488451Y-111223517D02*
X166013935Y-111223517D01*
%TO.C,R35*%
X151613935Y-119898517D02*
X152088451Y-119898517D01*
X151613935Y-118853517D02*
X152088451Y-118853517D01*
%TO.C,F8*%
X162311193Y-105963238D02*
X162311193Y-106288796D01*
X161291193Y-105963238D02*
X161291193Y-106288796D01*
%TO.C,R43*%
X137153935Y-110133517D02*
X137628451Y-110133517D01*
X137153935Y-111178517D02*
X137628451Y-111178517D01*
%TO.C,R29*%
X140643451Y-112850185D02*
X140168935Y-112850185D01*
X140643451Y-113895185D02*
X140168935Y-113895185D01*
%TO.C,F6*%
X170621193Y-105963238D02*
X170621193Y-106288796D01*
X169601193Y-105963238D02*
X169601193Y-106288796D01*
%TO.C,R33*%
X151613935Y-109913517D02*
X152088451Y-109913517D01*
X151613935Y-110958517D02*
X152088451Y-110958517D01*
%TO.C,D2*%
X133011193Y-111411017D02*
X135296193Y-111411017D01*
X135296193Y-111411017D02*
X135296193Y-109941017D01*
X135296193Y-109941017D02*
X133011193Y-109941017D01*
%TO.C,R31*%
X151613935Y-118408517D02*
X152088451Y-118408517D01*
X151613935Y-117363517D02*
X152088451Y-117363517D01*
%TO.C,D1*%
X118006193Y-111331017D02*
X120291193Y-111331017D01*
X118006193Y-109861017D02*
X118006193Y-111331017D01*
X120291193Y-109861017D02*
X118006193Y-109861017D01*
%TO.C,R37*%
X151613935Y-111403517D02*
X152088451Y-111403517D01*
X151613935Y-112448517D02*
X152088451Y-112448517D01*
%TO.C,F2*%
X103751193Y-106003238D02*
X103751193Y-106328796D01*
X102731193Y-106003238D02*
X102731193Y-106328796D01*
%TO.C,Q4*%
X134051199Y-106576017D02*
X134051199Y-107226017D01*
X130931199Y-106576017D02*
X130931199Y-107226017D01*
X130931199Y-106576017D02*
X130931199Y-105926017D01*
X134051199Y-106576017D02*
X134051199Y-104901017D01*
%TO.C,R38*%
X151613935Y-113938517D02*
X152088451Y-113938517D01*
X151613935Y-112893517D02*
X152088451Y-112893517D01*
%TO.C,Q2*%
X142431198Y-106576017D02*
X142431198Y-107226017D01*
X139311198Y-106576017D02*
X139311198Y-105926017D01*
X139311198Y-106576017D02*
X139311198Y-107226017D01*
X142431198Y-106576017D02*
X142431198Y-104901017D01*
%TO.C,R34*%
X151613935Y-114383517D02*
X152088451Y-114383517D01*
X151613935Y-115428517D02*
X152088451Y-115428517D01*
%TO.C,F11*%
X111051193Y-105973238D02*
X111051193Y-106298796D01*
X112071193Y-105973238D02*
X112071193Y-106298796D01*
%TO.C,F7*%
X177991193Y-105953238D02*
X177991193Y-106278796D01*
X179011193Y-105953238D02*
X179011193Y-106278796D01*
%TO.C,R32*%
X140643451Y-111354352D02*
X140168935Y-111354352D01*
X140643451Y-112399352D02*
X140168935Y-112399352D01*
%TO.C,R36*%
X140643451Y-110903519D02*
X140168935Y-110903519D01*
X140643451Y-109858519D02*
X140168935Y-109858519D01*
%TO.C,R42*%
X115303451Y-110073517D02*
X114828935Y-110073517D01*
X115303451Y-111118517D02*
X114828935Y-111118517D01*
%TO.C,R30*%
X151613935Y-115873517D02*
X152088451Y-115873517D01*
X151613935Y-116918517D02*
X152088451Y-116918517D01*
%TO.C,C1*%
X140546773Y-119866017D02*
X140265613Y-119866017D01*
X140546773Y-118846017D02*
X140265613Y-118846017D01*
%TO.C,Q11*%
X168868614Y-109413973D02*
X168542488Y-108953973D01*
X168542488Y-108953973D02*
X169192488Y-108953973D01*
X169192488Y-108953973D02*
X168868614Y-109413973D01*
G36*
X168868614Y-109413973D02*
G01*
X168542488Y-108953973D01*
X169192488Y-108953973D01*
X168868614Y-109413973D01*
G37*
X168868614Y-109413973D02*
X168542488Y-108953973D01*
X169192488Y-108953973D01*
X168868614Y-109413973D01*
%TO.C,C3*%
X155011773Y-117336017D02*
X154730613Y-117336017D01*
X155011773Y-118356017D02*
X154730613Y-118356017D01*
%TO.C,F1*%
X129029129Y-111626017D02*
X130233257Y-111626017D01*
X129029129Y-109806017D02*
X130233257Y-109806017D01*
%TO.C,J6*%
X177151193Y-91946017D02*
X176951193Y-91946017D01*
X185161193Y-95856017D02*
X186411193Y-95856017D01*
X181051193Y-91446017D02*
X181051193Y-91946017D01*
X183551193Y-94946017D02*
X185501193Y-94946017D01*
X186111193Y-95556017D02*
X186111193Y-90836017D01*
X184351193Y-95556017D02*
X184351193Y-95756017D01*
X179051193Y-91446017D02*
X179051193Y-91946017D01*
X180951193Y-91946017D02*
X180951193Y-91446017D01*
X179151193Y-91946017D02*
X178951193Y-91946017D01*
X186111193Y-94246017D02*
X185501193Y-94246017D01*
X172601193Y-94946017D02*
X174551193Y-94946017D01*
X183051193Y-91446017D02*
X183051193Y-91946017D01*
X174551193Y-94946017D02*
X174551193Y-95556017D01*
X177151193Y-91446017D02*
X177151193Y-91946017D01*
X186111193Y-92946017D02*
X185501193Y-92946017D01*
X185501193Y-91446017D02*
X172601193Y-91446017D01*
X171991193Y-95556017D02*
X186111193Y-95556017D01*
X175051193Y-91446017D02*
X175051193Y-91946017D01*
X175151193Y-91946017D02*
X174951193Y-91946017D01*
X179151193Y-91446017D02*
X179151193Y-91946017D01*
X178951193Y-91946017D02*
X178951193Y-91446017D01*
X171991193Y-90836017D02*
X171991193Y-95556017D01*
X171991193Y-92946017D02*
X172601193Y-92946017D01*
X171991193Y-94246017D02*
X172601193Y-94246017D01*
X182951193Y-91946017D02*
X182951193Y-91446017D01*
X185501193Y-94946017D02*
X185501193Y-91446017D01*
X175151193Y-91446017D02*
X175151193Y-91946017D01*
X172601193Y-91446017D02*
X172601193Y-94946017D01*
X186111193Y-90836017D02*
X171991193Y-90836017D01*
X186411193Y-95856017D02*
X186411193Y-94606017D01*
X184351193Y-95656017D02*
X184651193Y-95656017D01*
X184651193Y-95756017D02*
X184651193Y-95556017D01*
X177051193Y-91446017D02*
X177051193Y-91946017D01*
X176951193Y-91946017D02*
X176951193Y-91446017D01*
X183151193Y-91946017D02*
X182951193Y-91946017D01*
X181151193Y-91446017D02*
X181151193Y-91946017D01*
X183551193Y-95556017D02*
X183551193Y-94946017D01*
X174951193Y-91946017D02*
X174951193Y-91446017D01*
X181151193Y-91946017D02*
X180951193Y-91946017D01*
X184351193Y-95756017D02*
X184651193Y-95756017D01*
X183151193Y-91446017D02*
X183151193Y-91946017D01*
%TO.C,J11*%
X109341193Y-99946017D02*
X109141193Y-99946017D01*
X104181193Y-102246017D02*
X104791193Y-102246017D01*
X104791193Y-102946017D02*
X106741193Y-102946017D01*
X104181193Y-100946017D02*
X104791193Y-100946017D01*
X115741193Y-103556017D02*
X115741193Y-102946017D01*
X118601193Y-103856017D02*
X118601193Y-102606017D01*
X113141193Y-99946017D02*
X113141193Y-99446017D01*
X111241193Y-99446017D02*
X111241193Y-99946017D01*
X118301193Y-98836017D02*
X104181193Y-98836017D01*
X109341193Y-99446017D02*
X109341193Y-99946017D01*
X118301193Y-100946017D02*
X117691193Y-100946017D01*
X109141193Y-99946017D02*
X109141193Y-99446017D01*
X115341193Y-99946017D02*
X115141193Y-99946017D01*
X115741193Y-102946017D02*
X117691193Y-102946017D01*
X104791193Y-99446017D02*
X104791193Y-102946017D01*
X113341193Y-99946017D02*
X113141193Y-99946017D01*
X107241193Y-99446017D02*
X107241193Y-99946017D01*
X111341193Y-99446017D02*
X111341193Y-99946017D01*
X115141193Y-99946017D02*
X115141193Y-99446017D01*
X111141193Y-99946017D02*
X111141193Y-99446017D01*
X107341193Y-99446017D02*
X107341193Y-99946017D01*
X115241193Y-99446017D02*
X115241193Y-99946017D01*
X107141193Y-99946017D02*
X107141193Y-99446017D01*
X117691193Y-99446017D02*
X104791193Y-99446017D01*
X115341193Y-99446017D02*
X115341193Y-99946017D01*
X117351193Y-103856017D02*
X118601193Y-103856017D01*
X116541193Y-103556017D02*
X116541193Y-103756017D01*
X104181193Y-103556017D02*
X118301193Y-103556017D01*
X117691193Y-102946017D02*
X117691193Y-99446017D01*
X106741193Y-102946017D02*
X106741193Y-103556017D01*
X111341193Y-99946017D02*
X111141193Y-99946017D01*
X109241193Y-99446017D02*
X109241193Y-99946017D01*
X116841193Y-103756017D02*
X116841193Y-103556017D01*
X118301193Y-103556017D02*
X118301193Y-98836017D01*
X116541193Y-103756017D02*
X116841193Y-103756017D01*
X113341193Y-99446017D02*
X113341193Y-99946017D01*
X118301193Y-102246017D02*
X117691193Y-102246017D01*
X116541193Y-103656017D02*
X116841193Y-103656017D01*
X113241193Y-99446017D02*
X113241193Y-99946017D01*
X107341193Y-99946017D02*
X107141193Y-99946017D01*
X104181193Y-98836017D02*
X104181193Y-103556017D01*
%TO.C,J10*%
X121741193Y-102946017D02*
X123691193Y-102946017D01*
X132191193Y-99446017D02*
X132191193Y-99946017D01*
X121741193Y-99446017D02*
X121741193Y-102946017D01*
X128291193Y-99446017D02*
X128291193Y-99946017D01*
X128091193Y-99946017D02*
X128091193Y-99446017D01*
X130291193Y-99946017D02*
X130091193Y-99946017D01*
X121131193Y-100946017D02*
X121741193Y-100946017D01*
X121131193Y-103556017D02*
X135251193Y-103556017D01*
X130191193Y-99446017D02*
X130191193Y-99946017D01*
X130091193Y-99946017D02*
X130091193Y-99446017D01*
X126291193Y-99946017D02*
X126091193Y-99946017D01*
X121131193Y-98836017D02*
X121131193Y-103556017D01*
X133491193Y-103756017D02*
X133791193Y-103756017D01*
X133791193Y-103756017D02*
X133791193Y-103556017D01*
X133491193Y-103556017D02*
X133491193Y-103756017D01*
X134301193Y-103856017D02*
X135551193Y-103856017D01*
X126191193Y-99446017D02*
X126191193Y-99946017D01*
X121131193Y-102246017D02*
X121741193Y-102246017D01*
X134641193Y-102946017D02*
X134641193Y-99446017D01*
X135251193Y-103556017D02*
X135251193Y-98836017D01*
X133491193Y-103656017D02*
X133791193Y-103656017D01*
X126091193Y-99946017D02*
X126091193Y-99446017D01*
X128191193Y-99446017D02*
X128191193Y-99946017D01*
X126291193Y-99446017D02*
X126291193Y-99946017D01*
X132291193Y-99946017D02*
X132091193Y-99946017D01*
X135551193Y-103856017D02*
X135551193Y-102606017D01*
X124291193Y-99446017D02*
X124291193Y-99946017D01*
X132691193Y-102946017D02*
X134641193Y-102946017D01*
X132091193Y-99946017D02*
X132091193Y-99446017D01*
X132291193Y-99446017D02*
X132291193Y-99946017D01*
X135251193Y-98836017D02*
X121131193Y-98836017D01*
X124291193Y-99946017D02*
X124091193Y-99946017D01*
X134641193Y-99446017D02*
X121741193Y-99446017D01*
X135251193Y-102246017D02*
X134641193Y-102246017D01*
X124191193Y-99446017D02*
X124191193Y-99946017D01*
X124091193Y-99946017D02*
X124091193Y-99446017D01*
X132691193Y-103556017D02*
X132691193Y-102946017D01*
X135251193Y-100946017D02*
X134641193Y-100946017D01*
X128291193Y-99946017D02*
X128091193Y-99946017D01*
X123691193Y-102946017D02*
X123691193Y-103556017D01*
X130291193Y-99446017D02*
X130291193Y-99946017D01*
%TO.C,J9*%
X151591193Y-102946017D02*
X151591193Y-99446017D01*
X150441193Y-103756017D02*
X150741193Y-103756017D01*
X149241193Y-99946017D02*
X149041193Y-99946017D01*
X147041193Y-99946017D02*
X147041193Y-99446017D01*
X145241193Y-99446017D02*
X145241193Y-99946017D01*
X138081193Y-100946017D02*
X138691193Y-100946017D01*
X150741193Y-103756017D02*
X150741193Y-103556017D01*
X138081193Y-103556017D02*
X152201193Y-103556017D01*
X145141193Y-99446017D02*
X145141193Y-99946017D01*
X152501193Y-103856017D02*
X152501193Y-102606017D01*
X152201193Y-98836017D02*
X138081193Y-98836017D01*
X138081193Y-98836017D02*
X138081193Y-103556017D01*
X145241193Y-99946017D02*
X145041193Y-99946017D01*
X152201193Y-103556017D02*
X152201193Y-98836017D01*
X141241193Y-99946017D02*
X141041193Y-99946017D01*
X138691193Y-99446017D02*
X138691193Y-102946017D01*
X147141193Y-99446017D02*
X147141193Y-99946017D01*
X149141193Y-99446017D02*
X149141193Y-99946017D01*
X143241193Y-99446017D02*
X143241193Y-99946017D01*
X141141193Y-99446017D02*
X141141193Y-99946017D01*
X150441193Y-103556017D02*
X150441193Y-103756017D01*
X151591193Y-99446017D02*
X138691193Y-99446017D01*
X143241193Y-99946017D02*
X143041193Y-99946017D01*
X150441193Y-103656017D02*
X150741193Y-103656017D01*
X147241193Y-99946017D02*
X147041193Y-99946017D01*
X141041193Y-99946017D02*
X141041193Y-99446017D01*
X143141193Y-99446017D02*
X143141193Y-99946017D01*
X141241193Y-99446017D02*
X141241193Y-99946017D01*
X143041193Y-99946017D02*
X143041193Y-99446017D01*
X152201193Y-100946017D02*
X151591193Y-100946017D01*
X152201193Y-102246017D02*
X151591193Y-102246017D01*
X149641193Y-102946017D02*
X151591193Y-102946017D01*
X149041193Y-99946017D02*
X149041193Y-99446017D01*
X151251193Y-103856017D02*
X152501193Y-103856017D01*
X147241193Y-99446017D02*
X147241193Y-99946017D01*
X145041193Y-99946017D02*
X145041193Y-99446017D01*
X138081193Y-102246017D02*
X138691193Y-102246017D01*
X149641193Y-103556017D02*
X149641193Y-102946017D01*
X149241193Y-99446017D02*
X149241193Y-99946017D01*
X140641193Y-102946017D02*
X140641193Y-103556017D01*
X138691193Y-102946017D02*
X140641193Y-102946017D01*
%TO.C,J8*%
X155031193Y-102246017D02*
X155641193Y-102246017D01*
X158191193Y-99446017D02*
X158191193Y-99946017D01*
X160191193Y-99446017D02*
X160191193Y-99946017D01*
X164191193Y-99946017D02*
X163991193Y-99946017D01*
X169151193Y-100946017D02*
X168541193Y-100946017D01*
X167691193Y-103756017D02*
X167691193Y-103556017D01*
X155031193Y-100946017D02*
X155641193Y-100946017D01*
X166591193Y-103556017D02*
X166591193Y-102946017D01*
X158191193Y-99946017D02*
X157991193Y-99946017D01*
X157591193Y-102946017D02*
X157591193Y-103556017D01*
X162191193Y-99946017D02*
X161991193Y-99946017D01*
X162091193Y-99446017D02*
X162091193Y-99946017D01*
X155031193Y-103556017D02*
X169151193Y-103556017D01*
X161991193Y-99946017D02*
X161991193Y-99446017D01*
X169151193Y-102246017D02*
X168541193Y-102246017D01*
X160091193Y-99446017D02*
X160091193Y-99946017D01*
X162191193Y-99446017D02*
X162191193Y-99946017D01*
X160191193Y-99946017D02*
X159991193Y-99946017D01*
X165991193Y-99946017D02*
X165991193Y-99446017D01*
X168541193Y-99446017D02*
X155641193Y-99446017D01*
X167391193Y-103656017D02*
X167691193Y-103656017D01*
X155641193Y-99446017D02*
X155641193Y-102946017D01*
X163991193Y-99946017D02*
X163991193Y-99446017D01*
X168201193Y-103856017D02*
X169451193Y-103856017D01*
X158091193Y-99446017D02*
X158091193Y-99946017D01*
X166091193Y-99446017D02*
X166091193Y-99946017D01*
X168541193Y-102946017D02*
X168541193Y-99446017D01*
X164191193Y-99446017D02*
X164191193Y-99946017D01*
X157991193Y-99946017D02*
X157991193Y-99446017D01*
X166191193Y-99446017D02*
X166191193Y-99946017D01*
X155031193Y-98836017D02*
X155031193Y-103556017D01*
X166591193Y-102946017D02*
X168541193Y-102946017D01*
X167391193Y-103556017D02*
X167391193Y-103756017D01*
X169151193Y-103556017D02*
X169151193Y-98836017D01*
X164091193Y-99446017D02*
X164091193Y-99946017D01*
X159991193Y-99946017D02*
X159991193Y-99446017D01*
X169151193Y-98836017D02*
X155031193Y-98836017D01*
X155641193Y-102946017D02*
X157591193Y-102946017D01*
X167391193Y-103756017D02*
X167691193Y-103756017D01*
X166191193Y-99946017D02*
X165991193Y-99946017D01*
X169451193Y-103856017D02*
X169451193Y-102606017D01*
%TO.C,J7*%
X175141193Y-99446017D02*
X175141193Y-99946017D01*
X183141193Y-99946017D02*
X182941193Y-99946017D01*
X172591193Y-102946017D02*
X174541193Y-102946017D01*
X177141193Y-99946017D02*
X176941193Y-99946017D01*
X179141193Y-99946017D02*
X178941193Y-99946017D01*
X177041193Y-99446017D02*
X177041193Y-99946017D01*
X176941193Y-99946017D02*
X176941193Y-99446017D01*
X179041193Y-99446017D02*
X179041193Y-99946017D01*
X183541193Y-102946017D02*
X185491193Y-102946017D01*
X181141193Y-99446017D02*
X181141193Y-99946017D01*
X184641193Y-103756017D02*
X184641193Y-103556017D01*
X186101193Y-98836017D02*
X171981193Y-98836017D01*
X184341193Y-103656017D02*
X184641193Y-103656017D01*
X172591193Y-99446017D02*
X172591193Y-102946017D01*
X185491193Y-102946017D02*
X185491193Y-99446017D01*
X179141193Y-99446017D02*
X179141193Y-99946017D01*
X184341193Y-103756017D02*
X184641193Y-103756017D01*
X180941193Y-99946017D02*
X180941193Y-99446017D01*
X185491193Y-99446017D02*
X172591193Y-99446017D01*
X178941193Y-99946017D02*
X178941193Y-99446017D01*
X186101193Y-103556017D02*
X186101193Y-98836017D01*
X171981193Y-100946017D02*
X172591193Y-100946017D01*
X186401193Y-103856017D02*
X186401193Y-102606017D01*
X186101193Y-100946017D02*
X185491193Y-100946017D01*
X171981193Y-98836017D02*
X171981193Y-103556017D01*
X174541193Y-102946017D02*
X174541193Y-103556017D01*
X183041193Y-99446017D02*
X183041193Y-99946017D01*
X177141193Y-99446017D02*
X177141193Y-99946017D01*
X186101193Y-102246017D02*
X185491193Y-102246017D01*
X171981193Y-102246017D02*
X172591193Y-102246017D01*
X182941193Y-99946017D02*
X182941193Y-99446017D01*
X183141193Y-99446017D02*
X183141193Y-99946017D01*
X181141193Y-99946017D02*
X180941193Y-99946017D01*
X183541193Y-103556017D02*
X183541193Y-102946017D01*
X175041193Y-99446017D02*
X175041193Y-99946017D01*
X184341193Y-103556017D02*
X184341193Y-103756017D01*
X185151193Y-103856017D02*
X186401193Y-103856017D01*
X181041193Y-99446017D02*
X181041193Y-99946017D01*
X171981193Y-103556017D02*
X186101193Y-103556017D01*
X175141193Y-99946017D02*
X174941193Y-99946017D01*
X174941193Y-99946017D02*
X174941193Y-99446017D01*
%TO.C,J5*%
X167401193Y-95756017D02*
X167701193Y-95756017D01*
X166601193Y-95556017D02*
X166601193Y-94946017D01*
X167401193Y-95656017D02*
X167701193Y-95656017D01*
X160101193Y-91446017D02*
X160101193Y-91946017D01*
X166201193Y-91946017D02*
X166001193Y-91946017D01*
X169161193Y-94246017D02*
X168551193Y-94246017D01*
X158201193Y-91446017D02*
X158201193Y-91946017D01*
X164001193Y-91946017D02*
X164001193Y-91446017D01*
X169461193Y-95856017D02*
X169461193Y-94606017D01*
X155041193Y-95556017D02*
X169161193Y-95556017D01*
X158201193Y-91946017D02*
X158001193Y-91946017D01*
X162101193Y-91446017D02*
X162101193Y-91946017D01*
X169161193Y-92946017D02*
X168551193Y-92946017D01*
X158101193Y-91446017D02*
X158101193Y-91946017D01*
X155041193Y-94246017D02*
X155651193Y-94246017D01*
X168551193Y-94946017D02*
X168551193Y-91446017D01*
X168551193Y-91446017D02*
X155651193Y-91446017D01*
X158001193Y-91946017D02*
X158001193Y-91446017D01*
X164201193Y-91446017D02*
X164201193Y-91946017D01*
X160201193Y-91446017D02*
X160201193Y-91946017D01*
X160201193Y-91946017D02*
X160001193Y-91946017D01*
X168211193Y-95856017D02*
X169461193Y-95856017D01*
X155041193Y-90836017D02*
X155041193Y-95556017D01*
X162001193Y-91946017D02*
X162001193Y-91446017D01*
X166001193Y-91946017D02*
X166001193Y-91446017D01*
X169161193Y-90836017D02*
X155041193Y-90836017D01*
X167401193Y-95556017D02*
X167401193Y-95756017D01*
X164101193Y-91446017D02*
X164101193Y-91946017D01*
X162201193Y-91446017D02*
X162201193Y-91946017D01*
X155651193Y-91446017D02*
X155651193Y-94946017D01*
X155041193Y-92946017D02*
X155651193Y-92946017D01*
X166201193Y-91446017D02*
X166201193Y-91946017D01*
X164201193Y-91946017D02*
X164001193Y-91946017D01*
X166101193Y-91446017D02*
X166101193Y-91946017D01*
X167701193Y-95756017D02*
X167701193Y-95556017D01*
X160001193Y-91946017D02*
X160001193Y-91446017D01*
X157601193Y-94946017D02*
X157601193Y-95556017D01*
X166601193Y-94946017D02*
X168551193Y-94946017D01*
X169161193Y-95556017D02*
X169161193Y-90836017D01*
X155651193Y-94946017D02*
X157601193Y-94946017D01*
X162201193Y-91946017D02*
X162001193Y-91946017D01*
%TO.C,J4*%
X150751193Y-95756017D02*
X150751193Y-95556017D01*
X152211193Y-94246017D02*
X151601193Y-94246017D01*
X152211193Y-92946017D02*
X151601193Y-92946017D01*
X138701193Y-94946017D02*
X140651193Y-94946017D01*
X145251193Y-91446017D02*
X145251193Y-91946017D01*
X141251193Y-91446017D02*
X141251193Y-91946017D01*
X140651193Y-94946017D02*
X140651193Y-95556017D01*
X145251193Y-91946017D02*
X145051193Y-91946017D01*
X147251193Y-91446017D02*
X147251193Y-91946017D01*
X150451193Y-95656017D02*
X150751193Y-95656017D01*
X151261193Y-95856017D02*
X152511193Y-95856017D01*
X147251193Y-91946017D02*
X147051193Y-91946017D01*
X145051193Y-91946017D02*
X145051193Y-91446017D01*
X152211193Y-90836017D02*
X138091193Y-90836017D01*
X149251193Y-91446017D02*
X149251193Y-91946017D01*
X141251193Y-91946017D02*
X141051193Y-91946017D01*
X151601193Y-94946017D02*
X151601193Y-91446017D01*
X152211193Y-95556017D02*
X152211193Y-90836017D01*
X141051193Y-91946017D02*
X141051193Y-91446017D01*
X143151193Y-91446017D02*
X143151193Y-91946017D01*
X141151193Y-91446017D02*
X141151193Y-91946017D01*
X138091193Y-95556017D02*
X152211193Y-95556017D01*
X149151193Y-91446017D02*
X149151193Y-91946017D01*
X151601193Y-91446017D02*
X138701193Y-91446017D01*
X138091193Y-92946017D02*
X138701193Y-92946017D01*
X149651193Y-94946017D02*
X151601193Y-94946017D01*
X149651193Y-95556017D02*
X149651193Y-94946017D01*
X152511193Y-95856017D02*
X152511193Y-94606017D01*
X149051193Y-91946017D02*
X149051193Y-91446017D01*
X145151193Y-91446017D02*
X145151193Y-91946017D01*
X138091193Y-94246017D02*
X138701193Y-94246017D01*
X138701193Y-91446017D02*
X138701193Y-94946017D01*
X150451193Y-95756017D02*
X150751193Y-95756017D01*
X143251193Y-91946017D02*
X143051193Y-91946017D01*
X147051193Y-91946017D02*
X147051193Y-91446017D01*
X143251193Y-91446017D02*
X143251193Y-91946017D01*
X138091193Y-90836017D02*
X138091193Y-95556017D01*
X150451193Y-95556017D02*
X150451193Y-95756017D01*
X149251193Y-91946017D02*
X149051193Y-91946017D01*
X147151193Y-91446017D02*
X147151193Y-91946017D01*
X143051193Y-91946017D02*
X143051193Y-91446017D01*
%TO.C,J3*%
X134311193Y-95856017D02*
X135561193Y-95856017D01*
X124301193Y-91446017D02*
X124301193Y-91946017D01*
X132201193Y-91446017D02*
X132201193Y-91946017D01*
X121751193Y-91446017D02*
X121751193Y-94946017D01*
X133501193Y-95556017D02*
X133501193Y-95756017D01*
X132701193Y-95556017D02*
X132701193Y-94946017D01*
X130301193Y-91946017D02*
X130101193Y-91946017D01*
X133501193Y-95756017D02*
X133801193Y-95756017D01*
X124101193Y-91946017D02*
X124101193Y-91446017D01*
X130101193Y-91946017D02*
X130101193Y-91446017D01*
X135261193Y-94246017D02*
X134651193Y-94246017D01*
X124201193Y-91446017D02*
X124201193Y-91946017D01*
X132301193Y-91446017D02*
X132301193Y-91946017D01*
X121141193Y-94246017D02*
X121751193Y-94246017D01*
X128101193Y-91946017D02*
X128101193Y-91446017D01*
X135261193Y-92946017D02*
X134651193Y-92946017D01*
X134651193Y-94946017D02*
X134651193Y-91446017D01*
X121141193Y-92946017D02*
X121751193Y-92946017D01*
X124301193Y-91946017D02*
X124101193Y-91946017D01*
X132101193Y-91946017D02*
X132101193Y-91446017D01*
X128201193Y-91446017D02*
X128201193Y-91946017D01*
X126101193Y-91946017D02*
X126101193Y-91446017D01*
X132301193Y-91946017D02*
X132101193Y-91946017D01*
X121141193Y-95556017D02*
X135261193Y-95556017D01*
X135261193Y-90836017D02*
X121141193Y-90836017D01*
X135261193Y-95556017D02*
X135261193Y-90836017D01*
X121141193Y-90836017D02*
X121141193Y-95556017D01*
X133501193Y-95656017D02*
X133801193Y-95656017D01*
X134651193Y-91446017D02*
X121751193Y-91446017D01*
X128301193Y-91946017D02*
X128101193Y-91946017D01*
X121751193Y-94946017D02*
X123701193Y-94946017D01*
X130301193Y-91446017D02*
X130301193Y-91946017D01*
X126201193Y-91446017D02*
X126201193Y-91946017D01*
X126301193Y-91946017D02*
X126101193Y-91946017D01*
X135561193Y-95856017D02*
X135561193Y-94606017D01*
X126301193Y-91446017D02*
X126301193Y-91946017D01*
X130201193Y-91446017D02*
X130201193Y-91946017D01*
X132701193Y-94946017D02*
X134651193Y-94946017D01*
X128301193Y-91446017D02*
X128301193Y-91946017D01*
X133801193Y-95756017D02*
X133801193Y-95556017D01*
X123701193Y-94946017D02*
X123701193Y-95556017D01*
%TO.C,J2*%
X109151193Y-91946017D02*
X109151193Y-91446017D01*
X115351193Y-91946017D02*
X115151193Y-91946017D01*
X107151193Y-91946017D02*
X107151193Y-91446017D01*
X109351193Y-91946017D02*
X109151193Y-91946017D01*
X111251193Y-91446017D02*
X111251193Y-91946017D01*
X106751193Y-94946017D02*
X106751193Y-95556017D01*
X113351193Y-91946017D02*
X113151193Y-91946017D01*
X118311193Y-90836017D02*
X104191193Y-90836017D01*
X115151193Y-91946017D02*
X115151193Y-91446017D01*
X117701193Y-94946017D02*
X117701193Y-91446017D01*
X104191193Y-94246017D02*
X104801193Y-94246017D01*
X104191193Y-90836017D02*
X104191193Y-95556017D01*
X107351193Y-91446017D02*
X107351193Y-91946017D01*
X113251193Y-91446017D02*
X113251193Y-91946017D01*
X107251193Y-91446017D02*
X107251193Y-91946017D01*
X111151193Y-91946017D02*
X111151193Y-91446017D01*
X115751193Y-94946017D02*
X117701193Y-94946017D01*
X113351193Y-91446017D02*
X113351193Y-91946017D01*
X115351193Y-91446017D02*
X115351193Y-91946017D01*
X116551193Y-95756017D02*
X116851193Y-95756017D01*
X111351193Y-91446017D02*
X111351193Y-91946017D01*
X111351193Y-91946017D02*
X111151193Y-91946017D01*
X118311193Y-95556017D02*
X118311193Y-90836017D01*
X104191193Y-95556017D02*
X118311193Y-95556017D01*
X117361193Y-95856017D02*
X118611193Y-95856017D01*
X118611193Y-95856017D02*
X118611193Y-94606017D01*
X115251193Y-91446017D02*
X115251193Y-91946017D01*
X109351193Y-91446017D02*
X109351193Y-91946017D01*
X116551193Y-95556017D02*
X116551193Y-95756017D01*
X104801193Y-94946017D02*
X106751193Y-94946017D01*
X104801193Y-91446017D02*
X104801193Y-94946017D01*
X118311193Y-92946017D02*
X117701193Y-92946017D01*
X117701193Y-91446017D02*
X104801193Y-91446017D01*
X116851193Y-95756017D02*
X116851193Y-95556017D01*
X113151193Y-91946017D02*
X113151193Y-91446017D01*
X104191193Y-92946017D02*
X104801193Y-92946017D01*
X107351193Y-91946017D02*
X107151193Y-91946017D01*
X118311193Y-94246017D02*
X117701193Y-94246017D01*
X109251193Y-91446017D02*
X109251193Y-91946017D01*
X116551193Y-95656017D02*
X116851193Y-95656017D01*
X115751193Y-95556017D02*
X115751193Y-94946017D01*
%TO.C,F10*%
X128771193Y-105990738D02*
X128771193Y-106316296D01*
X127751193Y-105990738D02*
X127751193Y-106316296D01*
%TO.C,F3*%
X119441193Y-105993238D02*
X119441193Y-106318796D01*
X120461193Y-105993238D02*
X120461193Y-106318796D01*
%TO.C,R28*%
X166013935Y-113800517D02*
X166488451Y-113800517D01*
X166013935Y-112755517D02*
X166488451Y-112755517D01*
%TO.C,F4*%
X136171193Y-105943238D02*
X136171193Y-106268796D01*
X137191193Y-105943238D02*
X137191193Y-106268796D01*
%TO.C,F5*%
X152901193Y-105943238D02*
X152901193Y-106268796D01*
X153921193Y-105943238D02*
X153921193Y-106268796D01*
%TO.C,J1*%
X136301193Y-114026017D02*
X136301193Y-115626017D01*
X112221193Y-115626017D02*
X113501193Y-115626017D01*
X112221193Y-114026017D02*
X112221193Y-115626017D01*
X111201193Y-118276017D02*
X111201193Y-114026017D01*
X137321193Y-118276017D02*
X137321193Y-114026017D01*
X111201193Y-114026017D02*
X112221193Y-114026017D01*
X137321193Y-114026017D02*
X136301193Y-114026017D01*
X113501193Y-115626017D02*
X113501193Y-112736017D01*
X112921193Y-121846017D02*
X135601193Y-121846017D01*
X136301193Y-115626017D02*
X135021193Y-115626017D01*
%TO.C,F9*%
X145531193Y-105990738D02*
X145531193Y-106316296D01*
X144511193Y-105990738D02*
X144511193Y-106316296D01*
%TO.C,J2*%
X181180000Y-75020000D02*
X181180000Y-75520000D01*
X174980000Y-75020000D02*
X175180000Y-75020000D01*
X183180000Y-75020000D02*
X183180000Y-75520000D01*
X180980000Y-75020000D02*
X181180000Y-75020000D01*
X179080000Y-75520000D02*
X179080000Y-75020000D01*
X183580000Y-72020000D02*
X183580000Y-71410000D01*
X176980000Y-75020000D02*
X177180000Y-75020000D01*
X172020000Y-76130000D02*
X186140000Y-76130000D01*
X175180000Y-75020000D02*
X175180000Y-75520000D01*
X172630000Y-72020000D02*
X172630000Y-75520000D01*
X186140000Y-72720000D02*
X185530000Y-72720000D01*
X186140000Y-76130000D02*
X186140000Y-71410000D01*
X182980000Y-75520000D02*
X182980000Y-75020000D01*
X177080000Y-75520000D02*
X177080000Y-75020000D01*
X183080000Y-75520000D02*
X183080000Y-75020000D01*
X179180000Y-75020000D02*
X179180000Y-75520000D01*
X174580000Y-72020000D02*
X172630000Y-72020000D01*
X176980000Y-75520000D02*
X176980000Y-75020000D01*
X174980000Y-75520000D02*
X174980000Y-75020000D01*
X173780000Y-71210000D02*
X173480000Y-71210000D01*
X178980000Y-75520000D02*
X178980000Y-75020000D01*
X178980000Y-75020000D02*
X179180000Y-75020000D01*
X172020000Y-71410000D02*
X172020000Y-76130000D01*
X186140000Y-71410000D02*
X172020000Y-71410000D01*
X172970000Y-71110000D02*
X171720000Y-71110000D01*
X171720000Y-71110000D02*
X171720000Y-72360000D01*
X175080000Y-75520000D02*
X175080000Y-75020000D01*
X180980000Y-75520000D02*
X180980000Y-75020000D01*
X173780000Y-71410000D02*
X173780000Y-71210000D01*
X185530000Y-72020000D02*
X183580000Y-72020000D01*
X185530000Y-75520000D02*
X185530000Y-72020000D01*
X172020000Y-74020000D02*
X172630000Y-74020000D01*
X172630000Y-75520000D02*
X185530000Y-75520000D01*
X173480000Y-71210000D02*
X173480000Y-71410000D01*
X177180000Y-75020000D02*
X177180000Y-75520000D01*
X186140000Y-74020000D02*
X185530000Y-74020000D01*
X182980000Y-75020000D02*
X183180000Y-75020000D01*
X172020000Y-72720000D02*
X172630000Y-72720000D01*
X181080000Y-75520000D02*
X181080000Y-75020000D01*
X173780000Y-71310000D02*
X173480000Y-71310000D01*
X174580000Y-71410000D02*
X174580000Y-72020000D01*
%TO.C,J3*%
X156020000Y-71110000D02*
X154770000Y-71110000D01*
X166030000Y-75520000D02*
X166030000Y-75020000D01*
X158130000Y-75520000D02*
X158130000Y-75020000D01*
X168580000Y-75520000D02*
X168580000Y-72020000D01*
X156830000Y-71410000D02*
X156830000Y-71210000D01*
X157630000Y-71410000D02*
X157630000Y-72020000D01*
X160030000Y-75020000D02*
X160230000Y-75020000D01*
X156830000Y-71210000D02*
X156530000Y-71210000D01*
X166230000Y-75020000D02*
X166230000Y-75520000D01*
X160230000Y-75020000D02*
X160230000Y-75520000D01*
X155070000Y-72720000D02*
X155680000Y-72720000D01*
X166130000Y-75520000D02*
X166130000Y-75020000D01*
X158030000Y-75520000D02*
X158030000Y-75020000D01*
X169190000Y-72720000D02*
X168580000Y-72720000D01*
X162230000Y-75020000D02*
X162230000Y-75520000D01*
X155070000Y-74020000D02*
X155680000Y-74020000D01*
X155680000Y-72020000D02*
X155680000Y-75520000D01*
X169190000Y-74020000D02*
X168580000Y-74020000D01*
X166030000Y-75020000D02*
X166230000Y-75020000D01*
X158230000Y-75020000D02*
X158230000Y-75520000D01*
X162130000Y-75520000D02*
X162130000Y-75020000D01*
X164230000Y-75020000D02*
X164230000Y-75520000D01*
X158030000Y-75020000D02*
X158230000Y-75020000D01*
X169190000Y-71410000D02*
X155070000Y-71410000D01*
X155070000Y-76130000D02*
X169190000Y-76130000D01*
X155070000Y-71410000D02*
X155070000Y-76130000D01*
X169190000Y-76130000D02*
X169190000Y-71410000D01*
X156830000Y-71310000D02*
X156530000Y-71310000D01*
X155680000Y-75520000D02*
X168580000Y-75520000D01*
X162030000Y-75020000D02*
X162230000Y-75020000D01*
X168580000Y-72020000D02*
X166630000Y-72020000D01*
X160030000Y-75520000D02*
X160030000Y-75020000D01*
X164130000Y-75520000D02*
X164130000Y-75020000D01*
X164030000Y-75020000D02*
X164230000Y-75020000D01*
X154770000Y-71110000D02*
X154770000Y-72360000D01*
X164030000Y-75520000D02*
X164030000Y-75020000D01*
X160130000Y-75520000D02*
X160130000Y-75020000D01*
X157630000Y-72020000D02*
X155680000Y-72020000D01*
X162030000Y-75520000D02*
X162030000Y-75020000D01*
X156530000Y-71210000D02*
X156530000Y-71410000D01*
X166630000Y-72020000D02*
X166630000Y-71410000D01*
%TO.C,J4*%
X139580000Y-71210000D02*
X139580000Y-71410000D01*
X138120000Y-72720000D02*
X138730000Y-72720000D01*
X138120000Y-74020000D02*
X138730000Y-74020000D01*
X151630000Y-72020000D02*
X149680000Y-72020000D01*
X145080000Y-75520000D02*
X145080000Y-75020000D01*
X149080000Y-75520000D02*
X149080000Y-75020000D01*
X149680000Y-72020000D02*
X149680000Y-71410000D01*
X145080000Y-75020000D02*
X145280000Y-75020000D01*
X143080000Y-75520000D02*
X143080000Y-75020000D01*
X139880000Y-71310000D02*
X139580000Y-71310000D01*
X139070000Y-71110000D02*
X137820000Y-71110000D01*
X143080000Y-75020000D02*
X143280000Y-75020000D01*
X145280000Y-75020000D02*
X145280000Y-75520000D01*
X138120000Y-76130000D02*
X152240000Y-76130000D01*
X141080000Y-75520000D02*
X141080000Y-75020000D01*
X149080000Y-75020000D02*
X149280000Y-75020000D01*
X138730000Y-72020000D02*
X138730000Y-75520000D01*
X138120000Y-71410000D02*
X138120000Y-76130000D01*
X149280000Y-75020000D02*
X149280000Y-75520000D01*
X147180000Y-75520000D02*
X147180000Y-75020000D01*
X149180000Y-75520000D02*
X149180000Y-75020000D01*
X152240000Y-71410000D02*
X138120000Y-71410000D01*
X141180000Y-75520000D02*
X141180000Y-75020000D01*
X138730000Y-75520000D02*
X151630000Y-75520000D01*
X152240000Y-74020000D02*
X151630000Y-74020000D01*
X140680000Y-72020000D02*
X138730000Y-72020000D01*
X140680000Y-71410000D02*
X140680000Y-72020000D01*
X137820000Y-71110000D02*
X137820000Y-72360000D01*
X141280000Y-75020000D02*
X141280000Y-75520000D01*
X145180000Y-75520000D02*
X145180000Y-75020000D01*
X152240000Y-72720000D02*
X151630000Y-72720000D01*
X151630000Y-75520000D02*
X151630000Y-72020000D01*
X139880000Y-71210000D02*
X139580000Y-71210000D01*
X147080000Y-75020000D02*
X147280000Y-75020000D01*
X143280000Y-75020000D02*
X143280000Y-75520000D01*
X147080000Y-75520000D02*
X147080000Y-75020000D01*
X152240000Y-76130000D02*
X152240000Y-71410000D01*
X139880000Y-71410000D02*
X139880000Y-71210000D01*
X141080000Y-75020000D02*
X141280000Y-75020000D01*
X143180000Y-75520000D02*
X143180000Y-75020000D01*
X147280000Y-75020000D02*
X147280000Y-75520000D01*
%TO.C,J5*%
X122930000Y-71210000D02*
X122630000Y-71210000D01*
X123730000Y-71410000D02*
X123730000Y-72020000D01*
X122930000Y-71310000D02*
X122630000Y-71310000D01*
X130230000Y-75520000D02*
X130230000Y-75020000D01*
X124130000Y-75020000D02*
X124330000Y-75020000D01*
X121170000Y-72720000D02*
X121780000Y-72720000D01*
X132130000Y-75520000D02*
X132130000Y-75020000D01*
X126330000Y-75020000D02*
X126330000Y-75520000D01*
X120870000Y-71110000D02*
X120870000Y-72360000D01*
X135290000Y-71410000D02*
X121170000Y-71410000D01*
X132130000Y-75020000D02*
X132330000Y-75020000D01*
X128230000Y-75520000D02*
X128230000Y-75020000D01*
X121170000Y-74020000D02*
X121780000Y-74020000D01*
X132230000Y-75520000D02*
X132230000Y-75020000D01*
X135290000Y-72720000D02*
X134680000Y-72720000D01*
X121780000Y-72020000D02*
X121780000Y-75520000D01*
X121780000Y-75520000D02*
X134680000Y-75520000D01*
X132330000Y-75020000D02*
X132330000Y-75520000D01*
X126130000Y-75520000D02*
X126130000Y-75020000D01*
X130130000Y-75520000D02*
X130130000Y-75020000D01*
X130130000Y-75020000D02*
X130330000Y-75020000D01*
X122120000Y-71110000D02*
X120870000Y-71110000D01*
X135290000Y-76130000D02*
X135290000Y-71410000D01*
X128330000Y-75020000D02*
X128330000Y-75520000D01*
X124330000Y-75020000D02*
X124330000Y-75520000D01*
X121170000Y-76130000D02*
X135290000Y-76130000D01*
X122930000Y-71410000D02*
X122930000Y-71210000D01*
X126230000Y-75520000D02*
X126230000Y-75020000D01*
X128130000Y-75520000D02*
X128130000Y-75020000D01*
X134680000Y-75520000D02*
X134680000Y-72020000D01*
X135290000Y-74020000D02*
X134680000Y-74020000D01*
X124130000Y-75520000D02*
X124130000Y-75020000D01*
X126130000Y-75020000D02*
X126330000Y-75020000D01*
X124230000Y-75520000D02*
X124230000Y-75020000D01*
X122630000Y-71210000D02*
X122630000Y-71410000D01*
X130330000Y-75020000D02*
X130330000Y-75520000D01*
X132730000Y-72020000D02*
X132730000Y-71410000D01*
X123730000Y-72020000D02*
X121780000Y-72020000D01*
X121170000Y-71410000D02*
X121170000Y-76130000D01*
X134680000Y-72020000D02*
X132730000Y-72020000D01*
X128130000Y-75020000D02*
X128330000Y-75020000D01*
%TO.C,J6*%
X113180000Y-75020000D02*
X113380000Y-75020000D01*
X105170000Y-71110000D02*
X103920000Y-71110000D01*
X109280000Y-75520000D02*
X109280000Y-75020000D01*
X106780000Y-72020000D02*
X104830000Y-72020000D01*
X104220000Y-71410000D02*
X104220000Y-76130000D01*
X105980000Y-71410000D02*
X105980000Y-71210000D01*
X111280000Y-75520000D02*
X111280000Y-75020000D01*
X109380000Y-75020000D02*
X109380000Y-75520000D01*
X111180000Y-75020000D02*
X111380000Y-75020000D01*
X104220000Y-72720000D02*
X104830000Y-72720000D01*
X117730000Y-72020000D02*
X115780000Y-72020000D01*
X107280000Y-75520000D02*
X107280000Y-75020000D01*
X115780000Y-72020000D02*
X115780000Y-71410000D01*
X113180000Y-75520000D02*
X113180000Y-75020000D01*
X104220000Y-74020000D02*
X104830000Y-74020000D01*
X104830000Y-75520000D02*
X117730000Y-75520000D01*
X118340000Y-71410000D02*
X104220000Y-71410000D01*
X115280000Y-75520000D02*
X115280000Y-75020000D01*
X115180000Y-75020000D02*
X115380000Y-75020000D01*
X111180000Y-75520000D02*
X111180000Y-75020000D01*
X111380000Y-75020000D02*
X111380000Y-75520000D01*
X118340000Y-76130000D02*
X118340000Y-71410000D01*
X118340000Y-74020000D02*
X117730000Y-74020000D01*
X118340000Y-72720000D02*
X117730000Y-72720000D01*
X107380000Y-75020000D02*
X107380000Y-75520000D01*
X104830000Y-72020000D02*
X104830000Y-75520000D01*
X115180000Y-75520000D02*
X115180000Y-75020000D01*
X117730000Y-75520000D02*
X117730000Y-72020000D01*
X104220000Y-76130000D02*
X118340000Y-76130000D01*
X103920000Y-71110000D02*
X103920000Y-72360000D01*
X105980000Y-71310000D02*
X105680000Y-71310000D01*
X105680000Y-71210000D02*
X105680000Y-71410000D01*
X113280000Y-75520000D02*
X113280000Y-75020000D01*
X113380000Y-75020000D02*
X113380000Y-75520000D01*
X107180000Y-75020000D02*
X107380000Y-75020000D01*
X109180000Y-75520000D02*
X109180000Y-75020000D01*
X106780000Y-71410000D02*
X106780000Y-72020000D01*
X115380000Y-75020000D02*
X115380000Y-75520000D01*
X109180000Y-75020000D02*
X109380000Y-75020000D01*
X105980000Y-71210000D02*
X105680000Y-71210000D01*
X107180000Y-75520000D02*
X107180000Y-75020000D01*
%TO.C,J7*%
X115190000Y-67520000D02*
X115190000Y-67020000D01*
X107190000Y-67020000D02*
X107390000Y-67020000D01*
X117740000Y-64020000D02*
X115790000Y-64020000D01*
X113190000Y-67020000D02*
X113390000Y-67020000D01*
X111190000Y-67020000D02*
X111390000Y-67020000D01*
X113290000Y-67520000D02*
X113290000Y-67020000D01*
X113390000Y-67020000D02*
X113390000Y-67520000D01*
X111290000Y-67520000D02*
X111290000Y-67020000D01*
X106790000Y-64020000D02*
X104840000Y-64020000D01*
X109190000Y-67520000D02*
X109190000Y-67020000D01*
X105690000Y-63210000D02*
X105690000Y-63410000D01*
X104230000Y-68130000D02*
X118350000Y-68130000D01*
X105990000Y-63310000D02*
X105690000Y-63310000D01*
X117740000Y-67520000D02*
X117740000Y-64020000D01*
X104840000Y-64020000D02*
X104840000Y-67520000D01*
X111190000Y-67520000D02*
X111190000Y-67020000D01*
X105990000Y-63210000D02*
X105690000Y-63210000D01*
X109390000Y-67020000D02*
X109390000Y-67520000D01*
X104840000Y-67520000D02*
X117740000Y-67520000D01*
X111390000Y-67020000D02*
X111390000Y-67520000D01*
X104230000Y-63410000D02*
X104230000Y-68130000D01*
X118350000Y-66020000D02*
X117740000Y-66020000D01*
X103930000Y-63110000D02*
X103930000Y-64360000D01*
X104230000Y-66020000D02*
X104840000Y-66020000D01*
X118350000Y-68130000D02*
X118350000Y-63410000D01*
X115790000Y-64020000D02*
X115790000Y-63410000D01*
X107290000Y-67520000D02*
X107290000Y-67020000D01*
X113190000Y-67520000D02*
X113190000Y-67020000D01*
X104230000Y-64720000D02*
X104840000Y-64720000D01*
X118350000Y-64720000D02*
X117740000Y-64720000D01*
X107390000Y-67020000D02*
X107390000Y-67520000D01*
X107190000Y-67520000D02*
X107190000Y-67020000D01*
X109190000Y-67020000D02*
X109390000Y-67020000D01*
X106790000Y-63410000D02*
X106790000Y-64020000D01*
X115290000Y-67520000D02*
X115290000Y-67020000D01*
X105990000Y-63410000D02*
X105990000Y-63210000D01*
X105180000Y-63110000D02*
X103930000Y-63110000D01*
X109290000Y-67520000D02*
X109290000Y-67020000D01*
X118350000Y-63410000D02*
X104230000Y-63410000D01*
X115190000Y-67020000D02*
X115390000Y-67020000D01*
X115390000Y-67020000D02*
X115390000Y-67520000D01*
%TO.C,J8*%
X135300000Y-64720000D02*
X134690000Y-64720000D01*
X132140000Y-67520000D02*
X132140000Y-67020000D01*
X130140000Y-67520000D02*
X130140000Y-67020000D01*
X126140000Y-67020000D02*
X126340000Y-67020000D01*
X121180000Y-66020000D02*
X121790000Y-66020000D01*
X122640000Y-63210000D02*
X122640000Y-63410000D01*
X135300000Y-66020000D02*
X134690000Y-66020000D01*
X123740000Y-63410000D02*
X123740000Y-64020000D01*
X132140000Y-67020000D02*
X132340000Y-67020000D01*
X132740000Y-64020000D02*
X132740000Y-63410000D01*
X128140000Y-67020000D02*
X128340000Y-67020000D01*
X128240000Y-67520000D02*
X128240000Y-67020000D01*
X135300000Y-63410000D02*
X121180000Y-63410000D01*
X128340000Y-67020000D02*
X128340000Y-67520000D01*
X121180000Y-64720000D02*
X121790000Y-64720000D01*
X130240000Y-67520000D02*
X130240000Y-67020000D01*
X128140000Y-67520000D02*
X128140000Y-67020000D01*
X130140000Y-67020000D02*
X130340000Y-67020000D01*
X124340000Y-67020000D02*
X124340000Y-67520000D01*
X121790000Y-67520000D02*
X134690000Y-67520000D01*
X122940000Y-63310000D02*
X122640000Y-63310000D01*
X134690000Y-67520000D02*
X134690000Y-64020000D01*
X126340000Y-67020000D02*
X126340000Y-67520000D01*
X122130000Y-63110000D02*
X120880000Y-63110000D01*
X132240000Y-67520000D02*
X132240000Y-67020000D01*
X124240000Y-67520000D02*
X124240000Y-67020000D01*
X121790000Y-64020000D02*
X121790000Y-67520000D01*
X126140000Y-67520000D02*
X126140000Y-67020000D01*
X132340000Y-67020000D02*
X132340000Y-67520000D01*
X124140000Y-67520000D02*
X124140000Y-67020000D01*
X135300000Y-68130000D02*
X135300000Y-63410000D01*
X123740000Y-64020000D02*
X121790000Y-64020000D01*
X122940000Y-63410000D02*
X122940000Y-63210000D01*
X121180000Y-63410000D02*
X121180000Y-68130000D01*
X126240000Y-67520000D02*
X126240000Y-67020000D01*
X130340000Y-67020000D02*
X130340000Y-67520000D01*
X121180000Y-68130000D02*
X135300000Y-68130000D01*
X134690000Y-64020000D02*
X132740000Y-64020000D01*
X122940000Y-63210000D02*
X122640000Y-63210000D01*
X124140000Y-67020000D02*
X124340000Y-67020000D01*
X120880000Y-63110000D02*
X120880000Y-64360000D01*
%TO.C,J9*%
X138740000Y-64020000D02*
X138740000Y-67520000D01*
X139890000Y-63210000D02*
X139590000Y-63210000D01*
X141090000Y-67020000D02*
X141290000Y-67020000D01*
X143290000Y-67020000D02*
X143290000Y-67520000D01*
X145090000Y-67520000D02*
X145090000Y-67020000D01*
X152250000Y-66020000D02*
X151640000Y-66020000D01*
X139590000Y-63210000D02*
X139590000Y-63410000D01*
X152250000Y-63410000D02*
X138130000Y-63410000D01*
X145190000Y-67520000D02*
X145190000Y-67020000D01*
X137830000Y-63110000D02*
X137830000Y-64360000D01*
X138130000Y-68130000D02*
X152250000Y-68130000D01*
X152250000Y-68130000D02*
X152250000Y-63410000D01*
X145090000Y-67020000D02*
X145290000Y-67020000D01*
X138130000Y-63410000D02*
X138130000Y-68130000D01*
X149090000Y-67020000D02*
X149290000Y-67020000D01*
X151640000Y-67520000D02*
X151640000Y-64020000D01*
X143190000Y-67520000D02*
X143190000Y-67020000D01*
X141190000Y-67520000D02*
X141190000Y-67020000D01*
X147090000Y-67520000D02*
X147090000Y-67020000D01*
X149190000Y-67520000D02*
X149190000Y-67020000D01*
X139890000Y-63410000D02*
X139890000Y-63210000D01*
X138740000Y-67520000D02*
X151640000Y-67520000D01*
X147090000Y-67020000D02*
X147290000Y-67020000D01*
X139890000Y-63310000D02*
X139590000Y-63310000D01*
X143090000Y-67020000D02*
X143290000Y-67020000D01*
X149290000Y-67020000D02*
X149290000Y-67520000D01*
X147190000Y-67520000D02*
X147190000Y-67020000D01*
X149090000Y-67520000D02*
X149090000Y-67020000D01*
X147290000Y-67020000D02*
X147290000Y-67520000D01*
X138130000Y-66020000D02*
X138740000Y-66020000D01*
X138130000Y-64720000D02*
X138740000Y-64720000D01*
X140690000Y-64020000D02*
X138740000Y-64020000D01*
X141290000Y-67020000D02*
X141290000Y-67520000D01*
X139080000Y-63110000D02*
X137830000Y-63110000D01*
X143090000Y-67520000D02*
X143090000Y-67020000D01*
X145290000Y-67020000D02*
X145290000Y-67520000D01*
X152250000Y-64720000D02*
X151640000Y-64720000D01*
X140690000Y-63410000D02*
X140690000Y-64020000D01*
X141090000Y-67520000D02*
X141090000Y-67020000D01*
X149690000Y-64020000D02*
X149690000Y-63410000D01*
X151640000Y-64020000D02*
X149690000Y-64020000D01*
%TO.C,J10*%
X168590000Y-64020000D02*
X166640000Y-64020000D01*
X158140000Y-67520000D02*
X158140000Y-67020000D01*
X168590000Y-67520000D02*
X168590000Y-64020000D01*
X162040000Y-67520000D02*
X162040000Y-67020000D01*
X162240000Y-67020000D02*
X162240000Y-67520000D01*
X160040000Y-67020000D02*
X160240000Y-67020000D01*
X169200000Y-66020000D02*
X168590000Y-66020000D01*
X169200000Y-63410000D02*
X155080000Y-63410000D01*
X160140000Y-67520000D02*
X160140000Y-67020000D01*
X160240000Y-67020000D02*
X160240000Y-67520000D01*
X164040000Y-67020000D02*
X164240000Y-67020000D01*
X169200000Y-68130000D02*
X169200000Y-63410000D01*
X156840000Y-63210000D02*
X156540000Y-63210000D01*
X156540000Y-63210000D02*
X156540000Y-63410000D01*
X156840000Y-63410000D02*
X156840000Y-63210000D01*
X156030000Y-63110000D02*
X154780000Y-63110000D01*
X164140000Y-67520000D02*
X164140000Y-67020000D01*
X169200000Y-64720000D02*
X168590000Y-64720000D01*
X155690000Y-64020000D02*
X155690000Y-67520000D01*
X155080000Y-63410000D02*
X155080000Y-68130000D01*
X156840000Y-63310000D02*
X156540000Y-63310000D01*
X164240000Y-67020000D02*
X164240000Y-67520000D01*
X162140000Y-67520000D02*
X162140000Y-67020000D01*
X164040000Y-67520000D02*
X164040000Y-67020000D01*
X158040000Y-67020000D02*
X158240000Y-67020000D01*
X154780000Y-63110000D02*
X154780000Y-64360000D01*
X166040000Y-67520000D02*
X166040000Y-67020000D01*
X157640000Y-64020000D02*
X155690000Y-64020000D01*
X158240000Y-67020000D02*
X158240000Y-67520000D01*
X158040000Y-67520000D02*
X158040000Y-67020000D01*
X155080000Y-68130000D02*
X169200000Y-68130000D01*
X166040000Y-67020000D02*
X166240000Y-67020000D01*
X155690000Y-67520000D02*
X168590000Y-67520000D01*
X155080000Y-64720000D02*
X155690000Y-64720000D01*
X166140000Y-67520000D02*
X166140000Y-67020000D01*
X166240000Y-67020000D02*
X166240000Y-67520000D01*
X157640000Y-63410000D02*
X157640000Y-64020000D01*
X155080000Y-66020000D02*
X155690000Y-66020000D01*
X162040000Y-67020000D02*
X162240000Y-67020000D01*
X166640000Y-64020000D02*
X166640000Y-63410000D01*
X160040000Y-67520000D02*
X160040000Y-67020000D01*
%TO.C,J11*%
X180990000Y-67020000D02*
X181190000Y-67020000D01*
X186150000Y-64720000D02*
X185540000Y-64720000D01*
X185540000Y-64020000D02*
X183590000Y-64020000D01*
X186150000Y-66020000D02*
X185540000Y-66020000D01*
X174590000Y-63410000D02*
X174590000Y-64020000D01*
X171730000Y-63110000D02*
X171730000Y-64360000D01*
X177190000Y-67020000D02*
X177190000Y-67520000D01*
X179090000Y-67520000D02*
X179090000Y-67020000D01*
X172030000Y-68130000D02*
X186150000Y-68130000D01*
X180990000Y-67520000D02*
X180990000Y-67020000D01*
X172030000Y-66020000D02*
X172640000Y-66020000D01*
X181190000Y-67020000D02*
X181190000Y-67520000D01*
X174990000Y-67020000D02*
X175190000Y-67020000D01*
X174590000Y-64020000D02*
X172640000Y-64020000D01*
X185540000Y-67520000D02*
X185540000Y-64020000D01*
X176990000Y-67020000D02*
X177190000Y-67020000D01*
X183090000Y-67520000D02*
X183090000Y-67020000D01*
X178990000Y-67520000D02*
X178990000Y-67020000D01*
X175190000Y-67020000D02*
X175190000Y-67520000D01*
X179190000Y-67020000D02*
X179190000Y-67520000D01*
X182990000Y-67520000D02*
X182990000Y-67020000D01*
X175090000Y-67520000D02*
X175090000Y-67020000D01*
X183190000Y-67020000D02*
X183190000Y-67520000D01*
X172640000Y-67520000D02*
X185540000Y-67520000D01*
X174990000Y-67520000D02*
X174990000Y-67020000D01*
X172980000Y-63110000D02*
X171730000Y-63110000D01*
X173790000Y-63410000D02*
X173790000Y-63210000D01*
X186150000Y-63410000D02*
X172030000Y-63410000D01*
X172640000Y-64020000D02*
X172640000Y-67520000D01*
X183590000Y-64020000D02*
X183590000Y-63410000D01*
X178990000Y-67020000D02*
X179190000Y-67020000D01*
X181090000Y-67520000D02*
X181090000Y-67020000D01*
X173490000Y-63210000D02*
X173490000Y-63410000D01*
X172030000Y-63410000D02*
X172030000Y-68130000D01*
X173790000Y-63210000D02*
X173490000Y-63210000D01*
X176990000Y-67520000D02*
X176990000Y-67020000D01*
X172030000Y-64720000D02*
X172640000Y-64720000D01*
X173790000Y-63310000D02*
X173490000Y-63310000D01*
X177090000Y-67520000D02*
X177090000Y-67020000D01*
X182990000Y-67020000D02*
X183190000Y-67020000D01*
X186150000Y-68130000D02*
X186150000Y-63410000D01*
%TO.C,F1*%
X161302064Y-55340000D02*
X160097936Y-55340000D01*
X161302064Y-57160000D02*
X160097936Y-57160000D01*
%TO.C,C3*%
X135319420Y-49630000D02*
X135600580Y-49630000D01*
X135319420Y-48610000D02*
X135600580Y-48610000D01*
%TO.C,Q11*%
X121462579Y-57552044D02*
X121788705Y-58012044D01*
X121788705Y-58012044D02*
X121138705Y-58012044D01*
X121138705Y-58012044D02*
X121462579Y-57552044D01*
G36*
X121788705Y-58012044D02*
G01*
X121138705Y-58012044D01*
X121462579Y-57552044D01*
X121788705Y-58012044D01*
G37*
X121788705Y-58012044D02*
X121138705Y-58012044D01*
X121462579Y-57552044D01*
X121788705Y-58012044D01*
%TO.C,R28*%
X124317258Y-53165500D02*
X123842742Y-53165500D01*
X124317258Y-54210500D02*
X123842742Y-54210500D01*
%TO.C,J1*%
X154030000Y-52940000D02*
X154030000Y-51340000D01*
X178110000Y-51340000D02*
X176830000Y-51340000D01*
X178110000Y-52940000D02*
X178110000Y-51340000D01*
X179130000Y-48690000D02*
X179130000Y-52940000D01*
X153010000Y-48690000D02*
X153010000Y-52940000D01*
X179130000Y-52940000D02*
X178110000Y-52940000D01*
X153010000Y-52940000D02*
X154030000Y-52940000D01*
X176830000Y-51340000D02*
X176830000Y-54230000D01*
X177410000Y-45120000D02*
X154730000Y-45120000D01*
X154030000Y-51340000D02*
X155310000Y-51340000D01*
%TO.C,F4*%
X154160000Y-61022779D02*
X154160000Y-60697221D01*
X153140000Y-61022779D02*
X153140000Y-60697221D01*
%TO.C,F10*%
X161560000Y-60975279D02*
X161560000Y-60649721D01*
X162580000Y-60975279D02*
X162580000Y-60649721D01*
%TO.C,F3*%
X170890000Y-60972779D02*
X170890000Y-60647221D01*
X169870000Y-60972779D02*
X169870000Y-60647221D01*
%TO.C,F9*%
X144800000Y-60975279D02*
X144800000Y-60649721D01*
X145820000Y-60975279D02*
X145820000Y-60649721D01*
%TO.C,F5*%
X137430000Y-61022779D02*
X137430000Y-60697221D01*
X136410000Y-61022779D02*
X136410000Y-60697221D01*
%TO.C,F7*%
X112340000Y-61012779D02*
X112340000Y-60687221D01*
X111320000Y-61012779D02*
X111320000Y-60687221D01*
%TO.C,F8*%
X128020000Y-61002779D02*
X128020000Y-60677221D01*
X129040000Y-61002779D02*
X129040000Y-60677221D01*
%TO.C,F11*%
X179280000Y-60992779D02*
X179280000Y-60667221D01*
X178260000Y-60992779D02*
X178260000Y-60667221D01*
%TO.C,F2*%
X186580000Y-60962779D02*
X186580000Y-60637221D01*
X187600000Y-60962779D02*
X187600000Y-60637221D01*
%TO.C,F6*%
X119710000Y-61002779D02*
X119710000Y-60677221D01*
X120730000Y-61002779D02*
X120730000Y-60677221D01*
%TO.C,R31*%
X138717258Y-48557500D02*
X138242742Y-48557500D01*
X138717258Y-49602500D02*
X138242742Y-49602500D01*
%TO.C,R29*%
X149687742Y-54115832D02*
X150162258Y-54115832D01*
X149687742Y-53070832D02*
X150162258Y-53070832D01*
%TO.C,R33*%
X138717258Y-57052500D02*
X138242742Y-57052500D01*
X138717258Y-56007500D02*
X138242742Y-56007500D01*
%TO.C,R35*%
X138717258Y-47067500D02*
X138242742Y-47067500D01*
X138717258Y-48112500D02*
X138242742Y-48112500D01*
%TO.C,R37*%
X138717258Y-55562500D02*
X138242742Y-55562500D01*
X138717258Y-54517500D02*
X138242742Y-54517500D01*
%TO.C,D1*%
X172325000Y-55635000D02*
X170040000Y-55635000D01*
X172325000Y-57105000D02*
X172325000Y-55635000D01*
X170040000Y-57105000D02*
X172325000Y-57105000D01*
%TO.C,D2*%
X157320000Y-55555000D02*
X155035000Y-55555000D01*
X155035000Y-55555000D02*
X155035000Y-57025000D01*
X155035000Y-57025000D02*
X157320000Y-57025000D01*
%TO.C,R43*%
X153177258Y-56832500D02*
X152702742Y-56832500D01*
X153177258Y-55787500D02*
X152702742Y-55787500D01*
%TO.C,C1*%
X149784420Y-47100000D02*
X150065580Y-47100000D01*
X149784420Y-48120000D02*
X150065580Y-48120000D01*
%TO.C,R42*%
X175027742Y-56892500D02*
X175502258Y-56892500D01*
X175027742Y-55847500D02*
X175502258Y-55847500D01*
%TO.C,R30*%
X138717258Y-51092500D02*
X138242742Y-51092500D01*
X138717258Y-50047500D02*
X138242742Y-50047500D01*
%TO.C,R36*%
X149687742Y-56062498D02*
X150162258Y-56062498D01*
X149687742Y-57107498D02*
X150162258Y-57107498D01*
%TO.C,R38*%
X138717258Y-53027500D02*
X138242742Y-53027500D01*
X138717258Y-54072500D02*
X138242742Y-54072500D01*
%TO.C,R32*%
X149687742Y-55611665D02*
X150162258Y-55611665D01*
X149687742Y-54566665D02*
X150162258Y-54566665D01*
%TO.C,R34*%
X138717258Y-52582500D02*
X138242742Y-52582500D01*
X138717258Y-51537500D02*
X138242742Y-51537500D01*
%TO.C,Q2*%
X147899995Y-60390000D02*
X147899995Y-59740000D01*
X151019995Y-60390000D02*
X151019995Y-61040000D01*
X151019995Y-60390000D02*
X151019995Y-59740000D01*
X147899995Y-60390000D02*
X147899995Y-62065000D01*
%TO.C,Q4*%
X156279994Y-60390000D02*
X156279994Y-59740000D01*
X159399994Y-60390000D02*
X159399994Y-59740000D01*
X159399994Y-60390000D02*
X159399994Y-61040000D01*
X156279994Y-60390000D02*
X156279994Y-62065000D01*
%TO.C,R27*%
X123842742Y-54697500D02*
X124317258Y-54697500D01*
X123842742Y-55742500D02*
X124317258Y-55742500D01*
%TO.C,Q5*%
X122784998Y-60390000D02*
X122784998Y-62065000D01*
X125904998Y-60390000D02*
X125904998Y-59740000D01*
X122784998Y-60390000D02*
X122784998Y-59740000D01*
X125904998Y-60390000D02*
X125904998Y-61040000D01*
%TO.C,R6*%
X155862494Y-61067258D02*
X155862494Y-60592742D01*
X154817494Y-61067258D02*
X154817494Y-60592742D01*
%TO.C,R2*%
X147502495Y-61017258D02*
X147502495Y-60542742D01*
X146457495Y-61017258D02*
X146457495Y-60542742D01*
%TO.C,R13*%
X130762497Y-61057258D02*
X130762497Y-60582742D01*
X129717497Y-61057258D02*
X129717497Y-60582742D01*
%TO.C,R10*%
X164252493Y-61037258D02*
X164252493Y-60562742D01*
X163207493Y-61037258D02*
X163207493Y-60562742D01*
%TO.C,R9*%
X122397498Y-61059758D02*
X122397498Y-60585242D01*
X121352498Y-61059758D02*
X121352498Y-60585242D01*
%TO.C,R15*%
X134687497Y-61067258D02*
X134687497Y-60592742D01*
X135732497Y-61067258D02*
X135732497Y-60592742D01*
%TO.C,R41*%
X135697258Y-54467500D02*
X135222742Y-54467500D01*
X135697258Y-55512500D02*
X135222742Y-55512500D01*
%TO.C,Q10*%
X181480000Y-60380000D02*
X181480000Y-62055000D01*
X181480000Y-60380000D02*
X181480000Y-59730000D01*
X184600000Y-60380000D02*
X184600000Y-59730000D01*
X184600000Y-60380000D02*
X184600000Y-61030000D01*
%TO.C,U3*%
X144170000Y-57120000D02*
X146120000Y-57120000D01*
X144170000Y-57120000D02*
X142220000Y-57120000D01*
X144170000Y-47000000D02*
X140670000Y-47000000D01*
X144170000Y-47000000D02*
X146120000Y-47000000D01*
%TO.C,U2*%
X129790000Y-57090000D02*
X127840000Y-57090000D01*
X129790000Y-46970000D02*
X126290000Y-46970000D01*
X129790000Y-57090000D02*
X131740000Y-57090000D01*
X129790000Y-46970000D02*
X131740000Y-46970000D01*
%TO.C,U1*%
X125620000Y-49250000D02*
X125980000Y-48920000D01*
X125980000Y-48920000D02*
X125980000Y-49570000D01*
X125980000Y-49570000D02*
X125620000Y-49250000D01*
G36*
X125980000Y-49570000D02*
G01*
X125620000Y-49250000D01*
X125980000Y-48920000D01*
X125980000Y-49570000D01*
G37*
X125980000Y-49570000D02*
X125620000Y-49250000D01*
X125980000Y-48920000D01*
X125980000Y-49570000D01*
%TO.C,Q8*%
X176144992Y-60390000D02*
X176144992Y-61040000D01*
X173024992Y-60390000D02*
X173024992Y-59740000D01*
X173024992Y-60390000D02*
X173024992Y-62065000D01*
X176144992Y-60390000D02*
X176144992Y-59740000D01*
%TO.C,C4*%
X149784420Y-48595833D02*
X150065580Y-48595833D01*
X149784420Y-49615833D02*
X150065580Y-49615833D01*
%TO.C,R18*%
X180992491Y-61047258D02*
X180992491Y-60572742D01*
X179947491Y-61047258D02*
X179947491Y-60572742D01*
%TO.C,C2*%
X135319420Y-48120000D02*
X135600580Y-48120000D01*
X135319420Y-47100000D02*
X135600580Y-47100000D01*
%TO.C,Q6*%
X167769993Y-60390000D02*
X167769993Y-59740000D01*
X164649993Y-60390000D02*
X164649993Y-59740000D01*
X167769993Y-60390000D02*
X167769993Y-61040000D01*
X164649993Y-60390000D02*
X164649993Y-62065000D01*
%TO.C,R4*%
X151427495Y-61057258D02*
X151427495Y-60582742D01*
X152472495Y-61057258D02*
X152472495Y-60582742D01*
%TO.C,Q7*%
X131169997Y-60390000D02*
X131169997Y-59740000D01*
X134289997Y-60390000D02*
X134289997Y-61040000D01*
X131169997Y-60390000D02*
X131169997Y-62065000D01*
X134289997Y-60390000D02*
X134289997Y-59740000D01*
%TO.C,R14*%
X171562492Y-61047258D02*
X171562492Y-60572742D01*
X172607492Y-61047258D02*
X172607492Y-60572742D01*
%TO.C,R16*%
X177587492Y-61067258D02*
X177587492Y-60592742D01*
X176542492Y-61067258D02*
X176542492Y-60592742D01*
%TO.C,R20*%
X185047500Y-61047258D02*
X185047500Y-60572742D01*
X186092500Y-61047258D02*
X186092500Y-60572742D01*
%TO.C,R24*%
X150162258Y-52619999D02*
X149687742Y-52619999D01*
X150162258Y-51574999D02*
X149687742Y-51574999D01*
%TO.C,Q3*%
X117539999Y-60390000D02*
X117539999Y-59740000D01*
X117539999Y-60390000D02*
X117539999Y-61040000D01*
X114419999Y-60390000D02*
X114419999Y-62065000D01*
X114419999Y-60390000D02*
X114419999Y-59740000D01*
%TO.C,Q9*%
X139524996Y-60390000D02*
X139524996Y-59740000D01*
X142644996Y-60390000D02*
X142644996Y-59740000D01*
X142644996Y-60390000D02*
X142644996Y-61040000D01*
X139524996Y-60390000D02*
X139524996Y-62065000D01*
%TO.C,R19*%
X144097496Y-61067258D02*
X144097496Y-60592742D01*
X143052496Y-61067258D02*
X143052496Y-60592742D01*
%TO.C,R40*%
X135707258Y-55997500D02*
X135232742Y-55997500D01*
X135707258Y-57042500D02*
X135232742Y-57042500D01*
%TO.C,R21*%
X135707258Y-50657500D02*
X135232742Y-50657500D01*
X135707258Y-51702500D02*
X135232742Y-51702500D01*
%TO.C,R25*%
X123842742Y-51633500D02*
X124317258Y-51633500D01*
X123842742Y-52678500D02*
X124317258Y-52678500D01*
%TO.C,R39*%
X124297258Y-51172500D02*
X123822742Y-51172500D01*
X124297258Y-50127500D02*
X123822742Y-50127500D01*
%TO.C,R11*%
X126312498Y-61059758D02*
X126312498Y-60585242D01*
X127357498Y-61059758D02*
X127357498Y-60585242D01*
%TO.C,R5*%
X114012499Y-60572742D02*
X114012499Y-61047258D01*
X112967499Y-60572742D02*
X112967499Y-61047258D01*
%TO.C,R7*%
X119002499Y-61037258D02*
X119002499Y-60562742D01*
X117957499Y-61037258D02*
X117957499Y-60562742D01*
%TO.C,R22*%
X135717258Y-52147500D02*
X135242742Y-52147500D01*
X135717258Y-53192500D02*
X135242742Y-53192500D01*
%TO.C,Q1*%
X106060000Y-60390000D02*
X106060000Y-59740000D01*
X109180000Y-60390000D02*
X109180000Y-61040000D01*
X109180000Y-60390000D02*
X109180000Y-59740000D01*
X106060000Y-60390000D02*
X106060000Y-62065000D01*
%TO.C,R1*%
X105622500Y-60582742D02*
X105622500Y-61057258D01*
X104577500Y-60582742D02*
X104577500Y-61057258D01*
%TO.C,R26*%
X120357500Y-48387258D02*
X120357500Y-47912742D01*
X121402500Y-48387258D02*
X121402500Y-47912742D01*
%TO.C,R23*%
X150162258Y-50079166D02*
X149687742Y-50079166D01*
X150162258Y-51124166D02*
X149687742Y-51124166D01*
%TO.C,R17*%
X138092496Y-61057258D02*
X138092496Y-60582742D01*
X139137496Y-61057258D02*
X139137496Y-60582742D01*
%TO.C,R3*%
X110652500Y-61077258D02*
X110652500Y-60602742D01*
X109607500Y-61077258D02*
X109607500Y-60602742D01*
%TO.C,R8*%
X159807494Y-61052258D02*
X159807494Y-60577742D01*
X160852494Y-61052258D02*
X160852494Y-60577742D01*
%TO.C,R12*%
X168157493Y-61037258D02*
X168157493Y-60562742D01*
X169202493Y-61037258D02*
X169202493Y-60562742D01*
%TD*%
M02*
